<?xml version="1.0" encoding="utf-8"?>
<svg xmlns="http://www.w3.org/2000/svg" xmlns:xlink="http://www.w3.org/1999/xlink" width="600" height="400" viewBox="0 0 2400 1600">
<defs>
  <clipPath id="clip460">
    <rect x="0" y="0" width="2400" height="1600"/>
  </clipPath>
</defs>
<path clip-path="url(#clip460)" d="
M0 1600 L2400 1600 L2400 0 L0 0  Z
  " fill="#ffffff" fill-rule="evenodd" fill-opacity="1"/>
<defs>
  <clipPath id="clip461">
    <rect x="480" y="0" width="1681" height="1600"/>
  </clipPath>
</defs>
<defs>
  <clipPath id="clip462">
    <rect x="246" y="47" width="2003" height="1393"/>
  </clipPath>
</defs>
<path clip-path="url(#clip460)" d="
M246.598 1439.5 L2248.5 1439.5 L2248.5 47.2441 L246.598 47.2441  Z
  " fill="#ffffff" fill-rule="evenodd" fill-opacity="1"/>
<polyline clip-path="url(#clip462)" style="stroke:#000000; stroke-width:2; stroke-opacity:0.1; fill:none" points="
  303.255,1439.5 303.255,47.2441 
  "/>
<polyline clip-path="url(#clip462)" style="stroke:#000000; stroke-width:2; stroke-opacity:0.1; fill:none" points="
  775.403,1439.5 775.403,47.2441 
  "/>
<polyline clip-path="url(#clip462)" style="stroke:#000000; stroke-width:2; stroke-opacity:0.1; fill:none" points="
  1247.55,1439.5 1247.55,47.2441 
  "/>
<polyline clip-path="url(#clip462)" style="stroke:#000000; stroke-width:2; stroke-opacity:0.1; fill:none" points="
  1719.7,1439.5 1719.7,47.2441 
  "/>
<polyline clip-path="url(#clip462)" style="stroke:#000000; stroke-width:2; stroke-opacity:0.1; fill:none" points="
  2191.85,1439.5 2191.85,47.2441 
  "/>
<polyline clip-path="url(#clip460)" style="stroke:#000000; stroke-width:4; stroke-opacity:1; fill:none" points="
  246.598,1439.5 2248.5,1439.5 
  "/>
<polyline clip-path="url(#clip460)" style="stroke:#000000; stroke-width:4; stroke-opacity:1; fill:none" points="
  303.255,1439.5 303.255,1422.79 
  "/>
<polyline clip-path="url(#clip460)" style="stroke:#000000; stroke-width:4; stroke-opacity:1; fill:none" points="
  775.403,1439.5 775.403,1422.79 
  "/>
<polyline clip-path="url(#clip460)" style="stroke:#000000; stroke-width:4; stroke-opacity:1; fill:none" points="
  1247.55,1439.5 1247.55,1422.79 
  "/>
<polyline clip-path="url(#clip460)" style="stroke:#000000; stroke-width:4; stroke-opacity:1; fill:none" points="
  1719.7,1439.5 1719.7,1422.79 
  "/>
<polyline clip-path="url(#clip460)" style="stroke:#000000; stroke-width:4; stroke-opacity:1; fill:none" points="
  2191.85,1439.5 2191.85,1422.79 
  "/>
<path clip-path="url(#clip460)" d="M 0 0 M265.559 1468.69 Q261.948 1468.69 260.119 1472.26 Q258.314 1475.8 258.314 1482.93 Q258.314 1490.04 260.119 1493.6 Q261.948 1497.14 265.559 1497.14 Q269.193 1497.14 270.999 1493.6 Q272.827 1490.04 272.827 1482.93 Q272.827 1475.8 270.999 1472.26 Q269.193 1468.69 265.559 1468.69 M265.559 1464.99 Q271.369 1464.99 274.425 1469.6 Q277.503 1474.18 277.503 1482.93 Q277.503 1491.66 274.425 1496.26 Q271.369 1500.85 265.559 1500.85 Q259.749 1500.85 256.67 1496.26 Q253.615 1491.66 253.615 1482.93 Q253.615 1474.18 256.67 1469.6 Q259.749 1464.99 265.559 1464.99 Z" fill="#000000" fill-rule="evenodd" fill-opacity="1" /><path clip-path="url(#clip460)" d="M 0 0 M285.721 1494.29 L290.605 1494.29 L290.605 1500.17 L285.721 1500.17 L285.721 1494.29 Z" fill="#000000" fill-rule="evenodd" fill-opacity="1" /><path clip-path="url(#clip460)" d="M 0 0 M310.79 1468.69 Q307.179 1468.69 305.35 1472.26 Q303.545 1475.8 303.545 1482.93 Q303.545 1490.04 305.35 1493.6 Q307.179 1497.14 310.79 1497.14 Q314.424 1497.14 316.23 1493.6 Q318.059 1490.04 318.059 1482.93 Q318.059 1475.8 316.23 1472.26 Q314.424 1468.69 310.79 1468.69 M310.79 1464.99 Q316.6 1464.99 319.656 1469.6 Q322.735 1474.18 322.735 1482.93 Q322.735 1491.66 319.656 1496.26 Q316.6 1500.85 310.79 1500.85 Q304.98 1500.85 301.901 1496.26 Q298.846 1491.66 298.846 1482.93 Q298.846 1474.18 301.901 1469.6 Q304.98 1464.99 310.79 1464.99 Z" fill="#000000" fill-rule="evenodd" fill-opacity="1" /><path clip-path="url(#clip460)" d="M 0 0 M340.952 1468.69 Q337.341 1468.69 335.512 1472.26 Q333.707 1475.8 333.707 1482.93 Q333.707 1490.04 335.512 1493.6 Q337.341 1497.14 340.952 1497.14 Q344.586 1497.14 346.392 1493.6 Q348.221 1490.04 348.221 1482.93 Q348.221 1475.8 346.392 1472.26 Q344.586 1468.69 340.952 1468.69 M340.952 1464.99 Q346.762 1464.99 349.818 1469.6 Q352.896 1474.18 352.896 1482.93 Q352.896 1491.66 349.818 1496.26 Q346.762 1500.85 340.952 1500.85 Q335.142 1500.85 332.063 1496.26 Q329.008 1491.66 329.008 1482.93 Q329.008 1474.18 332.063 1469.6 Q335.142 1464.99 340.952 1464.99 Z" fill="#000000" fill-rule="evenodd" fill-opacity="1" /><path clip-path="url(#clip460)" d="M 0 0 M738.204 1468.69 Q734.593 1468.69 732.764 1472.26 Q730.959 1475.8 730.959 1482.93 Q730.959 1490.04 732.764 1493.6 Q734.593 1497.14 738.204 1497.14 Q741.839 1497.14 743.644 1493.6 Q745.473 1490.04 745.473 1482.93 Q745.473 1475.8 743.644 1472.26 Q741.839 1468.69 738.204 1468.69 M738.204 1464.99 Q744.014 1464.99 747.07 1469.6 Q750.149 1474.18 750.149 1482.93 Q750.149 1491.66 747.07 1496.26 Q744.014 1500.85 738.204 1500.85 Q732.394 1500.85 729.315 1496.26 Q726.26 1491.66 726.26 1482.93 Q726.26 1474.18 729.315 1469.6 Q732.394 1464.99 738.204 1464.99 Z" fill="#000000" fill-rule="evenodd" fill-opacity="1" /><path clip-path="url(#clip460)" d="M 0 0 M758.366 1494.29 L763.25 1494.29 L763.25 1500.17 L758.366 1500.17 L758.366 1494.29 Z" fill="#000000" fill-rule="evenodd" fill-opacity="1" /><path clip-path="url(#clip460)" d="M 0 0 M777.463 1496.24 L793.783 1496.24 L793.783 1500.17 L771.838 1500.17 L771.838 1496.24 Q774.5 1493.48 779.084 1488.85 Q783.69 1484.2 784.871 1482.86 Q787.116 1480.34 787.996 1478.6 Q788.898 1476.84 788.898 1475.15 Q788.898 1472.4 786.954 1470.66 Q785.033 1468.92 781.931 1468.92 Q779.732 1468.92 777.278 1469.69 Q774.848 1470.45 772.07 1472 L772.07 1467.28 Q774.894 1466.15 777.348 1465.57 Q779.801 1464.99 781.838 1464.99 Q787.209 1464.99 790.403 1467.67 Q793.598 1470.36 793.598 1474.85 Q793.598 1476.98 792.787 1478.9 Q792 1480.8 789.894 1483.39 Q789.315 1484.06 786.213 1487.28 Q783.111 1490.47 777.463 1496.24 Z" fill="#000000" fill-rule="evenodd" fill-opacity="1" /><path clip-path="url(#clip460)" d="M 0 0 M803.644 1465.61 L822 1465.61 L822 1469.55 L807.926 1469.55 L807.926 1478.02 Q808.945 1477.67 809.963 1477.51 Q810.982 1477.33 812 1477.33 Q817.787 1477.33 821.167 1480.5 Q824.546 1483.67 824.546 1489.09 Q824.546 1494.66 821.074 1497.77 Q817.602 1500.85 811.283 1500.85 Q809.107 1500.85 806.838 1500.47 Q804.593 1500.1 802.185 1499.36 L802.185 1494.66 Q804.269 1495.8 806.491 1496.35 Q808.713 1496.91 811.19 1496.91 Q815.195 1496.91 817.533 1494.8 Q819.871 1492.7 819.871 1489.09 Q819.871 1485.47 817.533 1483.37 Q815.195 1481.26 811.19 1481.26 Q809.315 1481.26 807.44 1481.68 Q805.588 1482.1 803.644 1482.97 L803.644 1465.61 Z" fill="#000000" fill-rule="evenodd" fill-opacity="1" /><path clip-path="url(#clip460)" d="M 0 0 M1209.85 1468.69 Q1206.24 1468.69 1204.41 1472.26 Q1202.61 1475.8 1202.61 1482.93 Q1202.61 1490.04 1204.41 1493.6 Q1206.24 1497.14 1209.85 1497.14 Q1213.49 1497.14 1215.29 1493.6 Q1217.12 1490.04 1217.12 1482.93 Q1217.12 1475.8 1215.29 1472.26 Q1213.49 1468.69 1209.85 1468.69 M1209.85 1464.99 Q1215.66 1464.99 1218.72 1469.6 Q1221.8 1474.18 1221.8 1482.93 Q1221.8 1491.66 1218.72 1496.26 Q1215.66 1500.85 1209.85 1500.85 Q1204.04 1500.85 1200.97 1496.26 Q1197.91 1491.66 1197.91 1482.93 Q1197.91 1474.18 1200.97 1469.6 Q1204.04 1464.99 1209.85 1464.99 Z" fill="#000000" fill-rule="evenodd" fill-opacity="1" /><path clip-path="url(#clip460)" d="M 0 0 M1230.02 1494.29 L1234.9 1494.29 L1234.9 1500.17 L1230.02 1500.17 L1230.02 1494.29 Z" fill="#000000" fill-rule="evenodd" fill-opacity="1" /><path clip-path="url(#clip460)" d="M 0 0 M1245.13 1465.61 L1263.49 1465.61 L1263.49 1469.55 L1249.41 1469.55 L1249.41 1478.02 Q1250.43 1477.67 1251.45 1477.51 Q1252.47 1477.33 1253.49 1477.33 Q1259.28 1477.33 1262.65 1480.5 Q1266.03 1483.67 1266.03 1489.09 Q1266.03 1494.66 1262.56 1497.77 Q1259.09 1500.85 1252.77 1500.85 Q1250.59 1500.85 1248.33 1500.47 Q1246.08 1500.1 1243.67 1499.36 L1243.67 1494.66 Q1245.76 1495.8 1247.98 1496.35 Q1250.2 1496.91 1252.68 1496.91 Q1256.68 1496.91 1259.02 1494.8 Q1261.36 1492.7 1261.36 1489.09 Q1261.36 1485.47 1259.02 1483.37 Q1256.68 1481.26 1252.68 1481.26 Q1250.8 1481.26 1248.93 1481.68 Q1247.08 1482.1 1245.13 1482.97 L1245.13 1465.61 Z" fill="#000000" fill-rule="evenodd" fill-opacity="1" /><path clip-path="url(#clip460)" d="M 0 0 M1285.25 1468.69 Q1281.64 1468.69 1279.81 1472.26 Q1278 1475.8 1278 1482.93 Q1278 1490.04 1279.81 1493.6 Q1281.64 1497.14 1285.25 1497.14 Q1288.88 1497.14 1290.69 1493.6 Q1292.52 1490.04 1292.52 1482.93 Q1292.52 1475.8 1290.69 1472.26 Q1288.88 1468.69 1285.25 1468.69 M1285.25 1464.99 Q1291.06 1464.99 1294.11 1469.6 Q1297.19 1474.18 1297.19 1482.93 Q1297.19 1491.66 1294.11 1496.26 Q1291.06 1500.85 1285.25 1500.85 Q1279.44 1500.85 1276.36 1496.26 Q1273.3 1491.66 1273.3 1482.93 Q1273.3 1474.18 1276.36 1469.6 Q1279.44 1464.99 1285.25 1464.99 Z" fill="#000000" fill-rule="evenodd" fill-opacity="1" /><path clip-path="url(#clip460)" d="M 0 0 M1682.5 1468.69 Q1678.89 1468.69 1677.06 1472.26 Q1675.25 1475.8 1675.25 1482.93 Q1675.25 1490.04 1677.06 1493.6 Q1678.89 1497.14 1682.5 1497.14 Q1686.13 1497.14 1687.94 1493.6 Q1689.77 1490.04 1689.77 1482.93 Q1689.77 1475.8 1687.94 1472.26 Q1686.13 1468.69 1682.5 1468.69 M1682.5 1464.99 Q1688.31 1464.99 1691.37 1469.6 Q1694.44 1474.18 1694.44 1482.93 Q1694.44 1491.66 1691.37 1496.26 Q1688.31 1500.85 1682.5 1500.85 Q1676.69 1500.85 1673.61 1496.26 Q1670.56 1491.66 1670.56 1482.93 Q1670.56 1474.18 1673.61 1469.6 Q1676.69 1464.99 1682.5 1464.99 Z" fill="#000000" fill-rule="evenodd" fill-opacity="1" /><path clip-path="url(#clip460)" d="M 0 0 M1702.66 1494.29 L1707.55 1494.29 L1707.55 1500.17 L1702.66 1500.17 L1702.66 1494.29 Z" fill="#000000" fill-rule="evenodd" fill-opacity="1" /><path clip-path="url(#clip460)" d="M 0 0 M1716.55 1465.61 L1738.77 1465.61 L1738.77 1467.6 L1726.23 1500.17 L1721.34 1500.17 L1733.15 1469.55 L1716.55 1469.55 L1716.55 1465.61 Z" fill="#000000" fill-rule="evenodd" fill-opacity="1" /><path clip-path="url(#clip460)" d="M 0 0 M1747.94 1465.61 L1766.3 1465.61 L1766.3 1469.55 L1752.22 1469.55 L1752.22 1478.02 Q1753.24 1477.67 1754.26 1477.51 Q1755.28 1477.33 1756.3 1477.33 Q1762.08 1477.33 1765.46 1480.5 Q1768.84 1483.67 1768.84 1489.09 Q1768.84 1494.66 1765.37 1497.77 Q1761.9 1500.85 1755.58 1500.85 Q1753.4 1500.85 1751.13 1500.47 Q1748.89 1500.1 1746.48 1499.36 L1746.48 1494.66 Q1748.56 1495.8 1750.79 1496.35 Q1753.01 1496.91 1755.49 1496.91 Q1759.49 1496.91 1761.83 1494.8 Q1764.17 1492.7 1764.17 1489.09 Q1764.17 1485.47 1761.83 1483.37 Q1759.49 1481.26 1755.49 1481.26 Q1753.61 1481.26 1751.74 1481.68 Q1749.88 1482.1 1747.94 1482.97 L1747.94 1465.61 Z" fill="#000000" fill-rule="evenodd" fill-opacity="1" /><path clip-path="url(#clip460)" d="M 0 0 M2143.92 1496.24 L2151.56 1496.24 L2151.56 1469.87 L2143.25 1471.54 L2143.25 1467.28 L2151.51 1465.61 L2156.19 1465.61 L2156.19 1496.24 L2163.83 1496.24 L2163.83 1500.17 L2143.92 1500.17 L2143.92 1496.24 Z" fill="#000000" fill-rule="evenodd" fill-opacity="1" /><path clip-path="url(#clip460)" d="M 0 0 M2173.27 1494.29 L2178.15 1494.29 L2178.15 1500.17 L2173.27 1500.17 L2173.27 1494.29 Z" fill="#000000" fill-rule="evenodd" fill-opacity="1" /><path clip-path="url(#clip460)" d="M 0 0 M2198.34 1468.69 Q2194.73 1468.69 2192.9 1472.26 Q2191.09 1475.8 2191.09 1482.93 Q2191.09 1490.04 2192.9 1493.6 Q2194.73 1497.14 2198.34 1497.14 Q2201.97 1497.14 2203.78 1493.6 Q2205.61 1490.04 2205.61 1482.93 Q2205.61 1475.8 2203.78 1472.26 Q2201.97 1468.69 2198.34 1468.69 M2198.34 1464.99 Q2204.15 1464.99 2207.2 1469.6 Q2210.28 1474.18 2210.28 1482.93 Q2210.28 1491.66 2207.2 1496.26 Q2204.15 1500.85 2198.34 1500.85 Q2192.53 1500.85 2189.45 1496.26 Q2186.39 1491.66 2186.39 1482.93 Q2186.39 1474.18 2189.45 1469.6 Q2192.53 1464.99 2198.34 1464.99 Z" fill="#000000" fill-rule="evenodd" fill-opacity="1" /><path clip-path="url(#clip460)" d="M 0 0 M2228.5 1468.69 Q2224.89 1468.69 2223.06 1472.26 Q2221.26 1475.8 2221.26 1482.93 Q2221.26 1490.04 2223.06 1493.6 Q2224.89 1497.14 2228.5 1497.14 Q2232.14 1497.14 2233.94 1493.6 Q2235.77 1490.04 2235.77 1482.93 Q2235.77 1475.8 2233.94 1472.26 Q2232.14 1468.69 2228.5 1468.69 M2228.5 1464.99 Q2234.31 1464.99 2237.37 1469.6 Q2240.45 1474.18 2240.45 1482.93 Q2240.45 1491.66 2237.37 1496.26 Q2234.31 1500.85 2228.5 1500.85 Q2222.69 1500.85 2219.61 1496.26 Q2216.56 1491.66 2216.56 1482.93 Q2216.56 1474.18 2219.61 1469.6 Q2222.69 1464.99 2228.5 1464.99 Z" fill="#000000" fill-rule="evenodd" fill-opacity="1" /><path clip-path="url(#clip460)" d="M 0 0 M1259.49 1535.75 Q1259.49 1541.16 1257.75 1547.24 Q1256.04 1553.3 1253.33 1558.19 Q1250.63 1563.06 1247.09 1566.28 Q1243.54 1569.47 1240.16 1569.47 Q1238 1569.47 1236.39 1568.27 Q1234.82 1567.05 1233.95 1565.02 Q1233.08 1562.96 1232.66 1560.71 Q1232.24 1558.42 1232.24 1555.94 Q1232.24 1552.24 1233.04 1548.21 Q1233.85 1544.15 1235.2 1540.48 Q1236.56 1536.78 1238.46 1533.43 Q1240.36 1530.05 1242.45 1527.6 Q1244.57 1525.12 1246.96 1523.67 Q1249.34 1522.22 1251.56 1522.22 Q1253.17 1522.22 1254.46 1522.93 Q1255.78 1523.6 1256.62 1524.8 Q1257.46 1525.96 1258.04 1527.34 Q1258.65 1528.73 1258.94 1530.34 Q1259.23 1531.91 1259.36 1533.23 Q1259.49 1534.52 1259.49 1535.75 M1255.14 1531.66 Q1255.14 1530.01 1255.01 1528.79 Q1254.88 1527.53 1254.53 1526.28 Q1254.17 1525.02 1253.4 1524.35 Q1252.66 1523.67 1251.5 1523.67 Q1248.12 1523.67 1244.32 1530.59 Q1243.09 1532.75 1242 1535.68 Q1240.9 1538.61 1240.52 1540 Q1240.13 1541.38 1239.23 1544.8 L1253.01 1544.8 Q1255.14 1536 1255.14 1531.66 M1252.43 1546.89 L1238.71 1546.89 Q1236.59 1554.94 1236.59 1559.96 Q1236.59 1564.34 1237.49 1566.18 Q1238.42 1567.98 1240.16 1567.98 Q1242.16 1567.98 1244.03 1565.99 Q1245.89 1563.96 1247.79 1560.29 Q1250.31 1555.52 1252.43 1546.89 Z" fill="#000000" fill-rule="evenodd" fill-opacity="1" /><polyline clip-path="url(#clip462)" style="stroke:#000000; stroke-width:2; stroke-opacity:0.1; fill:none" points="
  246.598,1400.1 2248.5,1400.1 
  "/>
<polyline clip-path="url(#clip462)" style="stroke:#000000; stroke-width:2; stroke-opacity:0.1; fill:none" points="
  246.598,1098.16 2248.5,1098.16 
  "/>
<polyline clip-path="url(#clip462)" style="stroke:#000000; stroke-width:2; stroke-opacity:0.1; fill:none" points="
  246.598,796.216 2248.5,796.216 
  "/>
<polyline clip-path="url(#clip462)" style="stroke:#000000; stroke-width:2; stroke-opacity:0.1; fill:none" points="
  246.598,494.276 2248.5,494.276 
  "/>
<polyline clip-path="url(#clip462)" style="stroke:#000000; stroke-width:2; stroke-opacity:0.1; fill:none" points="
  246.598,192.335 2248.5,192.335 
  "/>
<polyline clip-path="url(#clip460)" style="stroke:#000000; stroke-width:4; stroke-opacity:1; fill:none" points="
  246.598,1439.5 246.598,47.2441 
  "/>
<polyline clip-path="url(#clip460)" style="stroke:#000000; stroke-width:4; stroke-opacity:1; fill:none" points="
  246.598,1400.1 270.621,1400.1 
  "/>
<polyline clip-path="url(#clip460)" style="stroke:#000000; stroke-width:4; stroke-opacity:1; fill:none" points="
  246.598,1098.16 270.621,1098.16 
  "/>
<polyline clip-path="url(#clip460)" style="stroke:#000000; stroke-width:4; stroke-opacity:1; fill:none" points="
  246.598,796.216 270.621,796.216 
  "/>
<polyline clip-path="url(#clip460)" style="stroke:#000000; stroke-width:4; stroke-opacity:1; fill:none" points="
  246.598,494.276 270.621,494.276 
  "/>
<polyline clip-path="url(#clip460)" style="stroke:#000000; stroke-width:4; stroke-opacity:1; fill:none" points="
  246.598,192.335 270.621,192.335 
  "/>
<path clip-path="url(#clip460)" d="M 0 0 M62.9365 1385.9 Q59.3254 1385.9 57.4967 1389.46 Q55.6912 1393 55.6912 1400.13 Q55.6912 1407.24 57.4967 1410.8 Q59.3254 1414.35 62.9365 1414.35 Q66.5707 1414.35 68.3763 1410.8 Q70.205 1407.24 70.205 1400.13 Q70.205 1393 68.3763 1389.46 Q66.5707 1385.9 62.9365 1385.9 M62.9365 1382.19 Q68.7467 1382.19 71.8022 1386.8 Q74.8809 1391.38 74.8809 1400.13 Q74.8809 1408.86 71.8022 1413.47 Q68.7467 1418.05 62.9365 1418.05 Q57.1264 1418.05 54.0477 1413.47 Q50.9921 1408.86 50.9921 1400.13 Q50.9921 1391.38 54.0477 1386.8 Q57.1264 1382.19 62.9365 1382.19 Z" fill="#000000" fill-rule="evenodd" fill-opacity="1" /><path clip-path="url(#clip460)" d="M 0 0 M83.0984 1411.5 L87.9827 1411.5 L87.9827 1417.38 L83.0984 1417.38 L83.0984 1411.5 Z" fill="#000000" fill-rule="evenodd" fill-opacity="1" /><path clip-path="url(#clip460)" d="M 0 0 M108.168 1385.9 Q104.557 1385.9 102.728 1389.46 Q100.922 1393 100.922 1400.13 Q100.922 1407.24 102.728 1410.8 Q104.557 1414.35 108.168 1414.35 Q111.802 1414.35 113.608 1410.8 Q115.436 1407.24 115.436 1400.13 Q115.436 1393 113.608 1389.46 Q111.802 1385.9 108.168 1385.9 M108.168 1382.19 Q113.978 1382.19 117.033 1386.8 Q120.112 1391.38 120.112 1400.13 Q120.112 1408.86 117.033 1413.47 Q113.978 1418.05 108.168 1418.05 Q102.358 1418.05 99.2789 1413.47 Q96.2234 1408.86 96.2234 1400.13 Q96.2234 1391.38 99.2789 1386.8 Q102.358 1382.19 108.168 1382.19 Z" fill="#000000" fill-rule="evenodd" fill-opacity="1" /><path clip-path="url(#clip460)" d="M 0 0 M138.33 1385.9 Q134.719 1385.9 132.89 1389.46 Q131.084 1393 131.084 1400.13 Q131.084 1407.24 132.89 1410.8 Q134.719 1414.35 138.33 1414.35 Q141.964 1414.35 143.769 1410.8 Q145.598 1407.24 145.598 1400.13 Q145.598 1393 143.769 1389.46 Q141.964 1385.9 138.33 1385.9 M138.33 1382.19 Q144.14 1382.19 147.195 1386.8 Q150.274 1391.38 150.274 1400.13 Q150.274 1408.86 147.195 1413.47 Q144.14 1418.05 138.33 1418.05 Q132.519 1418.05 129.441 1413.47 Q126.385 1408.86 126.385 1400.13 Q126.385 1391.38 129.441 1386.8 Q132.519 1382.19 138.33 1382.19 Z" fill="#000000" fill-rule="evenodd" fill-opacity="1" /><path clip-path="url(#clip460)" d="M 0 0 M168.491 1385.9 Q164.88 1385.9 163.052 1389.46 Q161.246 1393 161.246 1400.13 Q161.246 1407.24 163.052 1410.8 Q164.88 1414.35 168.491 1414.35 Q172.126 1414.35 173.931 1410.8 Q175.76 1407.24 175.76 1400.13 Q175.76 1393 173.931 1389.46 Q172.126 1385.9 168.491 1385.9 M168.491 1382.19 Q174.302 1382.19 177.357 1386.8 Q180.436 1391.38 180.436 1400.13 Q180.436 1408.86 177.357 1413.47 Q174.302 1418.05 168.491 1418.05 Q162.681 1418.05 159.603 1413.47 Q156.547 1408.86 156.547 1400.13 Q156.547 1391.38 159.603 1386.8 Q162.681 1382.19 168.491 1382.19 Z" fill="#000000" fill-rule="evenodd" fill-opacity="1" /><path clip-path="url(#clip460)" d="M 0 0 M198.653 1385.9 Q195.042 1385.9 193.214 1389.46 Q191.408 1393 191.408 1400.13 Q191.408 1407.24 193.214 1410.8 Q195.042 1414.35 198.653 1414.35 Q202.288 1414.35 204.093 1410.8 Q205.922 1407.24 205.922 1400.13 Q205.922 1393 204.093 1389.46 Q202.288 1385.9 198.653 1385.9 M198.653 1382.19 Q204.464 1382.19 207.519 1386.8 Q210.598 1391.38 210.598 1400.13 Q210.598 1408.86 207.519 1413.47 Q204.464 1418.05 198.653 1418.05 Q192.843 1418.05 189.765 1413.47 Q186.709 1408.86 186.709 1400.13 Q186.709 1391.38 189.765 1386.8 Q192.843 1382.19 198.653 1382.19 Z" fill="#000000" fill-rule="evenodd" fill-opacity="1" /><path clip-path="url(#clip460)" d="M 0 0 M63.9319 1083.96 Q60.3208 1083.96 58.4921 1087.52 Q56.6865 1091.06 56.6865 1098.19 Q56.6865 1105.3 58.4921 1108.86 Q60.3208 1112.41 63.9319 1112.41 Q67.5661 1112.41 69.3717 1108.86 Q71.2004 1105.3 71.2004 1098.19 Q71.2004 1091.06 69.3717 1087.52 Q67.5661 1083.96 63.9319 1083.96 M63.9319 1080.25 Q69.742 1080.25 72.7976 1084.86 Q75.8763 1089.44 75.8763 1098.19 Q75.8763 1106.92 72.7976 1111.53 Q69.742 1116.11 63.9319 1116.11 Q58.1217 1116.11 55.043 1111.53 Q51.9875 1106.92 51.9875 1098.19 Q51.9875 1089.44 55.043 1084.86 Q58.1217 1080.25 63.9319 1080.25 Z" fill="#000000" fill-rule="evenodd" fill-opacity="1" /><path clip-path="url(#clip460)" d="M 0 0 M84.0938 1109.56 L88.978 1109.56 L88.978 1115.44 L84.0938 1115.44 L84.0938 1109.56 Z" fill="#000000" fill-rule="evenodd" fill-opacity="1" /><path clip-path="url(#clip460)" d="M 0 0 M109.163 1083.96 Q105.552 1083.96 103.723 1087.52 Q101.918 1091.06 101.918 1098.19 Q101.918 1105.3 103.723 1108.86 Q105.552 1112.41 109.163 1112.41 Q112.797 1112.41 114.603 1108.86 Q116.432 1105.3 116.432 1098.19 Q116.432 1091.06 114.603 1087.52 Q112.797 1083.96 109.163 1083.96 M109.163 1080.25 Q114.973 1080.25 118.029 1084.86 Q121.107 1089.44 121.107 1098.19 Q121.107 1106.92 118.029 1111.53 Q114.973 1116.11 109.163 1116.11 Q103.353 1116.11 100.274 1111.53 Q97.2187 1106.92 97.2187 1098.19 Q97.2187 1089.44 100.274 1084.86 Q103.353 1080.25 109.163 1080.25 Z" fill="#000000" fill-rule="evenodd" fill-opacity="1" /><path clip-path="url(#clip460)" d="M 0 0 M139.325 1083.96 Q135.714 1083.96 133.885 1087.52 Q132.08 1091.06 132.08 1098.19 Q132.08 1105.3 133.885 1108.86 Q135.714 1112.41 139.325 1112.41 Q142.959 1112.41 144.765 1108.86 Q146.593 1105.3 146.593 1098.19 Q146.593 1091.06 144.765 1087.52 Q142.959 1083.96 139.325 1083.96 M139.325 1080.25 Q145.135 1080.25 148.191 1084.86 Q151.269 1089.44 151.269 1098.19 Q151.269 1106.92 148.191 1111.53 Q145.135 1116.11 139.325 1116.11 Q133.515 1116.11 130.436 1111.53 Q127.381 1106.92 127.381 1098.19 Q127.381 1089.44 130.436 1084.86 Q133.515 1080.25 139.325 1080.25 Z" fill="#000000" fill-rule="evenodd" fill-opacity="1" /><path clip-path="url(#clip460)" d="M 0 0 M169.487 1083.96 Q165.876 1083.96 164.047 1087.52 Q162.242 1091.06 162.242 1098.19 Q162.242 1105.3 164.047 1108.86 Q165.876 1112.41 169.487 1112.41 Q173.121 1112.41 174.927 1108.86 Q176.755 1105.3 176.755 1098.19 Q176.755 1091.06 174.927 1087.52 Q173.121 1083.96 169.487 1083.96 M169.487 1080.25 Q175.297 1080.25 178.353 1084.86 Q181.431 1089.44 181.431 1098.19 Q181.431 1106.92 178.353 1111.53 Q175.297 1116.11 169.487 1116.11 Q163.677 1116.11 160.598 1111.53 Q157.542 1106.92 157.542 1098.19 Q157.542 1089.44 160.598 1084.86 Q163.677 1080.25 169.487 1080.25 Z" fill="#000000" fill-rule="evenodd" fill-opacity="1" /><path clip-path="url(#clip460)" d="M 0 0 M189.695 1080.88 L208.051 1080.88 L208.051 1084.81 L193.977 1084.81 L193.977 1093.28 Q194.996 1092.94 196.014 1092.78 Q197.033 1092.59 198.052 1092.59 Q203.839 1092.59 207.218 1095.76 Q210.598 1098.93 210.598 1104.35 Q210.598 1109.93 207.126 1113.03 Q203.653 1116.11 197.334 1116.11 Q195.158 1116.11 192.89 1115.74 Q190.644 1115.37 188.237 1114.63 L188.237 1109.93 Q190.32 1111.06 192.542 1111.62 Q194.765 1112.17 197.241 1112.17 Q201.246 1112.17 203.584 1110.07 Q205.922 1107.96 205.922 1104.35 Q205.922 1100.74 203.584 1098.63 Q201.246 1096.53 197.241 1096.53 Q195.366 1096.53 193.491 1096.94 Q191.64 1097.36 189.695 1098.24 L189.695 1080.88 Z" fill="#000000" fill-rule="evenodd" fill-opacity="1" /><path clip-path="url(#clip460)" d="M 0 0 M62.9365 782.015 Q59.3254 782.015 57.4967 785.58 Q55.6912 789.122 55.6912 796.251 Q55.6912 803.358 57.4967 806.922 Q59.3254 810.464 62.9365 810.464 Q66.5707 810.464 68.3763 806.922 Q70.205 803.358 70.205 796.251 Q70.205 789.122 68.3763 785.58 Q66.5707 782.015 62.9365 782.015 M62.9365 778.311 Q68.7467 778.311 71.8022 782.918 Q74.8809 787.501 74.8809 796.251 Q74.8809 804.978 71.8022 809.584 Q68.7467 814.168 62.9365 814.168 Q57.1264 814.168 54.0477 809.584 Q50.9921 804.978 50.9921 796.251 Q50.9921 787.501 54.0477 782.918 Q57.1264 778.311 62.9365 778.311 Z" fill="#000000" fill-rule="evenodd" fill-opacity="1" /><path clip-path="url(#clip460)" d="M 0 0 M83.0984 807.617 L87.9827 807.617 L87.9827 813.496 L83.0984 813.496 L83.0984 807.617 Z" fill="#000000" fill-rule="evenodd" fill-opacity="1" /><path clip-path="url(#clip460)" d="M 0 0 M108.168 782.015 Q104.557 782.015 102.728 785.58 Q100.922 789.122 100.922 796.251 Q100.922 803.358 102.728 806.922 Q104.557 810.464 108.168 810.464 Q111.802 810.464 113.608 806.922 Q115.436 803.358 115.436 796.251 Q115.436 789.122 113.608 785.58 Q111.802 782.015 108.168 782.015 M108.168 778.311 Q113.978 778.311 117.033 782.918 Q120.112 787.501 120.112 796.251 Q120.112 804.978 117.033 809.584 Q113.978 814.168 108.168 814.168 Q102.358 814.168 99.2789 809.584 Q96.2234 804.978 96.2234 796.251 Q96.2234 787.501 99.2789 782.918 Q102.358 778.311 108.168 778.311 Z" fill="#000000" fill-rule="evenodd" fill-opacity="1" /><path clip-path="url(#clip460)" d="M 0 0 M138.33 782.015 Q134.719 782.015 132.89 785.58 Q131.084 789.122 131.084 796.251 Q131.084 803.358 132.89 806.922 Q134.719 810.464 138.33 810.464 Q141.964 810.464 143.769 806.922 Q145.598 803.358 145.598 796.251 Q145.598 789.122 143.769 785.58 Q141.964 782.015 138.33 782.015 M138.33 778.311 Q144.14 778.311 147.195 782.918 Q150.274 787.501 150.274 796.251 Q150.274 804.978 147.195 809.584 Q144.14 814.168 138.33 814.168 Q132.519 814.168 129.441 809.584 Q126.385 804.978 126.385 796.251 Q126.385 787.501 129.441 782.918 Q132.519 778.311 138.33 778.311 Z" fill="#000000" fill-rule="evenodd" fill-opacity="1" /><path clip-path="url(#clip460)" d="M 0 0 M159.302 809.561 L166.941 809.561 L166.941 783.196 L158.63 784.862 L158.63 780.603 L166.894 778.936 L171.57 778.936 L171.57 809.561 L179.209 809.561 L179.209 813.496 L159.302 813.496 L159.302 809.561 Z" fill="#000000" fill-rule="evenodd" fill-opacity="1" /><path clip-path="url(#clip460)" d="M 0 0 M198.653 782.015 Q195.042 782.015 193.214 785.58 Q191.408 789.122 191.408 796.251 Q191.408 803.358 193.214 806.922 Q195.042 810.464 198.653 810.464 Q202.288 810.464 204.093 806.922 Q205.922 803.358 205.922 796.251 Q205.922 789.122 204.093 785.58 Q202.288 782.015 198.653 782.015 M198.653 778.311 Q204.464 778.311 207.519 782.918 Q210.598 787.501 210.598 796.251 Q210.598 804.978 207.519 809.584 Q204.464 814.168 198.653 814.168 Q192.843 814.168 189.765 809.584 Q186.709 804.978 186.709 796.251 Q186.709 787.501 189.765 782.918 Q192.843 778.311 198.653 778.311 Z" fill="#000000" fill-rule="evenodd" fill-opacity="1" /><path clip-path="url(#clip460)" d="M 0 0 M63.9319 480.074 Q60.3208 480.074 58.4921 483.639 Q56.6865 487.181 56.6865 494.31 Q56.6865 501.417 58.4921 504.981 Q60.3208 508.523 63.9319 508.523 Q67.5661 508.523 69.3717 504.981 Q71.2004 501.417 71.2004 494.31 Q71.2004 487.181 69.3717 483.639 Q67.5661 480.074 63.9319 480.074 M63.9319 476.371 Q69.742 476.371 72.7976 480.977 Q75.8763 485.56 75.8763 494.31 Q75.8763 503.037 72.7976 507.644 Q69.742 512.227 63.9319 512.227 Q58.1217 512.227 55.043 507.644 Q51.9875 503.037 51.9875 494.31 Q51.9875 485.56 55.043 480.977 Q58.1217 476.371 63.9319 476.371 Z" fill="#000000" fill-rule="evenodd" fill-opacity="1" /><path clip-path="url(#clip460)" d="M 0 0 M84.0938 505.676 L88.978 505.676 L88.978 511.556 L84.0938 511.556 L84.0938 505.676 Z" fill="#000000" fill-rule="evenodd" fill-opacity="1" /><path clip-path="url(#clip460)" d="M 0 0 M109.163 480.074 Q105.552 480.074 103.723 483.639 Q101.918 487.181 101.918 494.31 Q101.918 501.417 103.723 504.981 Q105.552 508.523 109.163 508.523 Q112.797 508.523 114.603 504.981 Q116.432 501.417 116.432 494.31 Q116.432 487.181 114.603 483.639 Q112.797 480.074 109.163 480.074 M109.163 476.371 Q114.973 476.371 118.029 480.977 Q121.107 485.56 121.107 494.31 Q121.107 503.037 118.029 507.644 Q114.973 512.227 109.163 512.227 Q103.353 512.227 100.274 507.644 Q97.2187 503.037 97.2187 494.31 Q97.2187 485.56 100.274 480.977 Q103.353 476.371 109.163 476.371 Z" fill="#000000" fill-rule="evenodd" fill-opacity="1" /><path clip-path="url(#clip460)" d="M 0 0 M139.325 480.074 Q135.714 480.074 133.885 483.639 Q132.08 487.181 132.08 494.31 Q132.08 501.417 133.885 504.981 Q135.714 508.523 139.325 508.523 Q142.959 508.523 144.765 504.981 Q146.593 501.417 146.593 494.31 Q146.593 487.181 144.765 483.639 Q142.959 480.074 139.325 480.074 M139.325 476.371 Q145.135 476.371 148.191 480.977 Q151.269 485.56 151.269 494.31 Q151.269 503.037 148.191 507.644 Q145.135 512.227 139.325 512.227 Q133.515 512.227 130.436 507.644 Q127.381 503.037 127.381 494.31 Q127.381 485.56 130.436 480.977 Q133.515 476.371 139.325 476.371 Z" fill="#000000" fill-rule="evenodd" fill-opacity="1" /><path clip-path="url(#clip460)" d="M 0 0 M160.297 507.62 L167.936 507.62 L167.936 481.255 L159.626 482.921 L159.626 478.662 L167.89 476.996 L172.566 476.996 L172.566 507.62 L180.204 507.62 L180.204 511.556 L160.297 511.556 L160.297 507.62 Z" fill="#000000" fill-rule="evenodd" fill-opacity="1" /><path clip-path="url(#clip460)" d="M 0 0 M189.695 476.996 L208.051 476.996 L208.051 480.931 L193.977 480.931 L193.977 489.403 Q194.996 489.056 196.014 488.894 Q197.033 488.708 198.052 488.708 Q203.839 488.708 207.218 491.88 Q210.598 495.051 210.598 500.468 Q210.598 506.046 207.126 509.148 Q203.653 512.227 197.334 512.227 Q195.158 512.227 192.89 511.856 Q190.644 511.486 188.237 510.745 L188.237 506.046 Q190.32 507.181 192.542 507.736 Q194.765 508.292 197.241 508.292 Q201.246 508.292 203.584 506.185 Q205.922 504.079 205.922 500.468 Q205.922 496.857 203.584 494.75 Q201.246 492.644 197.241 492.644 Q195.366 492.644 193.491 493.06 Q191.64 493.477 189.695 494.357 L189.695 476.996 Z" fill="#000000" fill-rule="evenodd" fill-opacity="1" /><path clip-path="url(#clip460)" d="M 0 0 M62.9365 178.133 Q59.3254 178.133 57.4967 181.698 Q55.6912 185.24 55.6912 192.369 Q55.6912 199.476 57.4967 203.041 Q59.3254 206.582 62.9365 206.582 Q66.5707 206.582 68.3763 203.041 Q70.205 199.476 70.205 192.369 Q70.205 185.24 68.3763 181.698 Q66.5707 178.133 62.9365 178.133 M62.9365 174.43 Q68.7467 174.43 71.8022 179.036 Q74.8809 183.619 74.8809 192.369 Q74.8809 201.096 71.8022 205.703 Q68.7467 210.286 62.9365 210.286 Q57.1264 210.286 54.0477 205.703 Q50.9921 201.096 50.9921 192.369 Q50.9921 183.619 54.0477 179.036 Q57.1264 174.43 62.9365 174.43 Z" fill="#000000" fill-rule="evenodd" fill-opacity="1" /><path clip-path="url(#clip460)" d="M 0 0 M83.0984 203.735 L87.9827 203.735 L87.9827 209.615 L83.0984 209.615 L83.0984 203.735 Z" fill="#000000" fill-rule="evenodd" fill-opacity="1" /><path clip-path="url(#clip460)" d="M 0 0 M108.168 178.133 Q104.557 178.133 102.728 181.698 Q100.922 185.24 100.922 192.369 Q100.922 199.476 102.728 203.041 Q104.557 206.582 108.168 206.582 Q111.802 206.582 113.608 203.041 Q115.436 199.476 115.436 192.369 Q115.436 185.24 113.608 181.698 Q111.802 178.133 108.168 178.133 M108.168 174.43 Q113.978 174.43 117.033 179.036 Q120.112 183.619 120.112 192.369 Q120.112 201.096 117.033 205.703 Q113.978 210.286 108.168 210.286 Q102.358 210.286 99.2789 205.703 Q96.2234 201.096 96.2234 192.369 Q96.2234 183.619 99.2789 179.036 Q102.358 174.43 108.168 174.43 Z" fill="#000000" fill-rule="evenodd" fill-opacity="1" /><path clip-path="url(#clip460)" d="M 0 0 M138.33 178.133 Q134.719 178.133 132.89 181.698 Q131.084 185.24 131.084 192.369 Q131.084 199.476 132.89 203.041 Q134.719 206.582 138.33 206.582 Q141.964 206.582 143.769 203.041 Q145.598 199.476 145.598 192.369 Q145.598 185.24 143.769 181.698 Q141.964 178.133 138.33 178.133 M138.33 174.43 Q144.14 174.43 147.195 179.036 Q150.274 183.619 150.274 192.369 Q150.274 201.096 147.195 205.703 Q144.14 210.286 138.33 210.286 Q132.519 210.286 129.441 205.703 Q126.385 201.096 126.385 192.369 Q126.385 183.619 129.441 179.036 Q132.519 174.43 138.33 174.43 Z" fill="#000000" fill-rule="evenodd" fill-opacity="1" /><path clip-path="url(#clip460)" d="M 0 0 M162.519 205.679 L178.839 205.679 L178.839 209.615 L156.894 209.615 L156.894 205.679 Q159.556 202.925 164.14 198.295 Q168.746 193.642 169.927 192.3 Q172.172 189.777 173.052 188.041 Q173.954 186.281 173.954 184.592 Q173.954 181.837 172.01 180.101 Q170.089 178.365 166.987 178.365 Q164.788 178.365 162.334 179.129 Q159.904 179.893 157.126 181.443 L157.126 176.721 Q159.95 175.587 162.404 175.008 Q164.857 174.43 166.894 174.43 Q172.265 174.43 175.459 177.115 Q178.653 179.8 178.653 184.291 Q178.653 186.42 177.843 188.342 Q177.056 190.24 174.95 192.832 Q174.371 193.504 171.269 196.721 Q168.167 199.916 162.519 205.679 Z" fill="#000000" fill-rule="evenodd" fill-opacity="1" /><path clip-path="url(#clip460)" d="M 0 0 M198.653 178.133 Q195.042 178.133 193.214 181.698 Q191.408 185.24 191.408 192.369 Q191.408 199.476 193.214 203.041 Q195.042 206.582 198.653 206.582 Q202.288 206.582 204.093 203.041 Q205.922 199.476 205.922 192.369 Q205.922 185.24 204.093 181.698 Q202.288 178.133 198.653 178.133 M198.653 174.43 Q204.464 174.43 207.519 179.036 Q210.598 183.619 210.598 192.369 Q210.598 201.096 207.519 205.703 Q204.464 210.286 198.653 210.286 Q192.843 210.286 189.765 205.703 Q186.709 201.096 186.709 192.369 Q186.709 183.619 189.765 179.036 Q192.843 174.43 198.653 174.43 Z" fill="#000000" fill-rule="evenodd" fill-opacity="1" /><polyline clip-path="url(#clip462)" style="stroke:#009af9; stroke-width:4; stroke-opacity:1; fill:none" points="
  303.255,1400.1 305.146,1400.1 307.036,1400.1 308.927,1400.1 310.817,1400.1 312.708,1400.1 314.598,1400.1 316.489,1400.1 318.379,1400.1 320.27,1400.1 
  322.16,1400.1 324.051,1400.09 325.941,1400.09 327.832,1400.09 329.722,1400.09 331.613,1400.08 333.503,1400.07 335.394,1400.07 337.284,1400.06 339.175,1400.04 
  341.065,1400.03 342.956,1400.01 344.846,1399.99 346.737,1399.96 348.627,1399.93 350.518,1399.9 352.408,1399.86 354.298,1399.81 356.189,1399.75 358.079,1399.69 
  359.97,1399.62 361.86,1399.55 363.751,1399.46 365.641,1399.36 367.532,1399.25 369.422,1399.13 371.313,1399 373.203,1398.85 375.094,1398.69 376.984,1398.51 
  378.875,1398.31 380.765,1398.1 382.656,1397.87 384.546,1397.62 386.437,1397.35 388.327,1397.06 390.218,1396.75 392.108,1396.41 393.999,1396.05 395.889,1395.66 
  397.78,1395.25 399.67,1394.8 401.56,1394.33 403.451,1393.83 405.341,1393.29 407.232,1392.73 409.122,1392.12 411.013,1391.49 412.903,1390.81 414.794,1390.1 
  416.684,1389.35 418.575,1388.56 420.465,1387.73 422.356,1386.86 424.246,1385.94 426.137,1384.98 428.027,1383.97 429.918,1382.92 431.808,1381.81 433.699,1380.66 
  435.589,1379.46 437.48,1378.2 439.37,1376.89 441.261,1375.53 443.151,1374.11 445.042,1372.63 446.932,1371.1 448.823,1369.51 450.713,1367.85 452.603,1366.14 
  454.494,1364.37 456.384,1362.53 458.275,1360.63 460.165,1358.66 462.056,1356.63 463.946,1354.53 465.837,1352.37 467.727,1350.13 469.618,1347.83 471.508,1345.46 
  473.399,1343.01 475.289,1340.5 477.18,1337.91 479.07,1335.24 480.961,1332.51 482.851,1329.7 484.742,1326.81 486.632,1323.85 488.523,1320.81 490.413,1317.69 
  492.304,1314.5 494.194,1311.23 496.085,1307.88 497.975,1304.45 499.866,1300.94 501.756,1297.35 503.646,1293.68 505.537,1289.93 507.427,1286.1 509.318,1282.19 
  511.208,1278.2 513.099,1274.13 514.989,1269.97 516.88,1265.74 518.77,1261.42 520.661,1257.02 522.551,1252.54 524.442,1247.97 526.332,1243.33 528.223,1238.6 
  530.113,1233.8 532.004,1228.91 533.894,1223.94 535.785,1218.89 537.675,1213.76 539.566,1208.54 541.456,1203.25 543.347,1197.88 545.237,1192.43 547.128,1186.9 
  549.018,1181.3 550.909,1175.61 552.799,1169.85 554.689,1164.01 556.58,1158.1 558.47,1152.11 560.361,1146.04 562.251,1139.9 564.142,1133.69 566.032,1127.41 
  567.923,1121.05 569.813,1114.62 571.704,1108.12 573.594,1101.55 575.485,1094.92 577.375,1088.21 579.266,1081.44 581.156,1074.61 583.047,1067.71 584.937,1060.74 
  586.828,1053.71 588.718,1046.63 590.609,1039.48 592.499,1032.27 594.39,1025 596.28,1017.68 598.171,1010.3 600.061,1002.86 601.952,995.375 603.842,987.835 
  605.732,980.244 607.623,972.604 609.513,964.915 611.404,957.18 613.294,949.399 615.185,941.573 617.075,933.705 618.966,925.796 620.856,917.846 622.747,909.858 
  624.637,901.832 626.528,893.772 628.418,885.676 630.309,877.549 632.199,869.389 634.09,861.201 635.98,852.984 637.871,844.74 639.761,836.472 641.652,828.18 
  643.542,819.866 645.433,811.531 647.323,803.178 649.214,794.808 651.104,786.422 652.995,778.022 654.885,769.609 656.775,761.186 658.666,752.754 660.556,744.314 
  662.447,735.868 664.337,727.418 666.228,718.966 668.118,710.512 670.009,702.059 671.899,693.608 673.79,685.161 675.68,676.719 677.571,668.285 679.461,659.859 
  681.352,651.444 683.242,643.041 685.133,634.651 687.023,626.277 688.914,617.92 690.804,609.581 692.695,601.262 694.585,592.965 696.476,584.691 698.366,576.442 
  700.257,568.219 702.147,560.025 704.037,551.86 705.928,543.726 707.818,535.625 709.709,527.558 711.599,519.526 713.49,511.532 715.38,503.577 717.271,495.662 
  719.161,487.789 721.052,479.959 722.942,472.174 724.833,464.434 726.723,456.743 728.614,449.1 730.504,441.507 732.395,433.967 734.285,426.479 736.176,419.046 
  738.066,411.669 739.957,404.349 741.847,397.087 743.738,389.886 745.628,382.745 747.519,375.667 749.409,368.652 751.3,361.702 753.19,354.818 755.08,348.001 
  756.971,341.253 758.861,334.574 760.752,327.966 762.642,321.43 764.533,314.967 766.423,308.578 768.314,302.264 770.204,296.026 772.095,289.865 773.985,283.782 
  775.876,277.778 777.766,271.855 779.657,266.012 781.547,260.252 783.438,254.574 785.328,248.98 787.219,243.471 789.109,238.047 791,232.71 792.89,227.459 
  794.781,222.296 796.671,217.222 798.562,212.238 800.452,207.343 802.343,202.539 804.233,197.826 806.123,193.206 808.014,188.678 809.904,184.243 811.795,179.902 
  813.685,175.656 815.576,171.505 817.466,167.448 819.357,163.488 821.247,159.625 823.138,155.858 825.028,152.188 826.919,148.616 828.809,145.142 830.7,141.767 
  832.59,138.49 834.481,135.312 836.371,132.233 838.262,129.255 840.152,126.376 842.043,123.597 843.933,120.918 845.824,118.34 847.714,115.863 849.605,113.486 
  851.495,111.21 853.386,109.035 855.276,106.961 857.166,104.989 859.057,103.117 860.947,101.347 862.838,99.6778 864.728,98.1097 866.619,96.6428 868.509,95.2769 
  870.4,94.0119 872.29,92.8478 874.181,91.7844 876.071,90.8215 877.962,89.959 879.852,89.1968 881.743,88.5345 883.633,87.9721 885.524,87.5092 887.414,87.1456 
  889.305,86.881 891.195,86.7151 893.086,86.6476 894.976,86.6782 896.867,86.8065 898.757,87.0322 900.648,87.3549 902.538,87.7741 904.429,88.2895 906.319,88.9007 
  908.209,89.6071 910.1,90.4084 911.99,91.304 913.881,92.2934 915.771,93.3762 917.662,94.5518 919.552,95.8196 921.443,97.1792 923.333,98.6299 925.224,100.171 
  927.114,101.802 929.005,103.523 930.895,105.332 932.786,107.23 934.676,109.215 936.567,111.286 938.457,113.444 940.348,115.687 942.238,118.015 944.129,120.427 
  946.019,122.922 947.91,125.5 949.8,128.159 951.691,130.9 953.581,133.721 955.471,136.621 957.362,139.6 959.252,142.657 961.143,145.791 963.033,149.002 
  964.924,152.288 966.814,155.649 968.705,159.083 970.595,162.591 972.486,166.17 974.376,169.821 976.267,173.542 978.157,177.333 980.048,181.192 981.938,185.12 
  983.829,189.114 985.719,193.174 987.61,197.299 989.5,201.488 991.391,205.74 993.281,210.055 995.172,214.431 997.062,218.867 998.953,223.363 1000.84,227.918 
  1002.73,232.53 1004.62,237.198 1006.51,241.923 1008.4,246.702 1010.3,251.535 1012.19,256.421 1014.08,261.359 1015.97,266.347 1017.86,271.386 1019.75,276.473 
  1021.64,281.609 1023.53,286.792 1025.42,292.02 1027.31,297.294 1029.2,302.612 1031.09,307.973 1032.98,313.376 1034.87,318.821 1036.76,324.306 1038.65,329.829 
  1040.54,335.392 1042.43,340.991 1044.32,346.627 1046.21,352.299 1048.11,358.004 1050,363.743 1051.89,369.515 1053.78,375.318 1055.67,381.152 1057.56,387.016 
  1059.45,392.908 1061.34,398.827 1063.23,404.774 1065.12,410.746 1067.01,416.744 1068.9,422.765 1070.79,428.809 1072.68,434.876 1074.57,440.963 1076.46,447.071 
  1078.35,453.198 1080.24,459.344 1082.13,465.507 1084.02,471.686 1085.91,477.882 1087.81,484.092 1089.7,490.316 1091.59,496.553 1093.48,502.803 1095.37,509.063 
  1097.26,515.335 1099.15,521.615 1101.04,527.905 1102.93,534.202 1104.82,540.507 1106.71,546.817 1108.6,553.133 1110.49,559.454 1112.38,565.778 1114.27,572.106 
  1116.16,578.435 1118.05,584.766 1119.94,591.097 1121.83,597.429 1123.72,603.759 1125.61,610.087 1127.51,616.413 1129.4,622.736 1131.29,629.055 1133.18,635.369 
  1135.07,641.678 1136.96,647.981 1138.85,654.276 1140.74,660.565 1142.63,666.844 1144.52,673.116 1146.41,679.377 1148.3,685.628 1150.19,691.868 1152.08,698.097 
  1153.97,704.313 1155.86,710.517 1157.75,716.707 1159.64,722.883 1161.53,729.044 1163.42,735.19 1165.31,741.32 1167.21,747.434 1169.1,753.531 1170.99,759.61 
  1172.88,765.67 1174.77,771.713 1176.66,777.735 1178.55,783.739 1180.44,789.721 1182.33,795.683 1184.22,801.624 1186.11,807.543 1188,813.439 1189.89,819.313 
  1191.78,825.164 1193.67,830.991 1195.56,836.794 1197.45,842.572 1199.34,848.325 1201.23,854.053 1203.12,859.755 1205.02,865.43 1206.91,871.08 1208.8,876.702 
  1210.69,882.296 1212.58,887.863 1214.47,893.402 1216.36,898.912 1218.25,904.394 1220.14,909.846 1222.03,915.269 1223.92,920.662 1225.81,926.025 1227.7,931.357 
  1229.59,936.659 1231.48,941.93 1233.37,947.17 1235.26,952.378 1237.15,957.554 1239.04,962.699 1240.93,967.811 1242.82,972.89 1244.72,977.937 1246.61,982.951 
  1248.5,987.932 1250.39,992.879 1252.28,997.793 1254.17,1002.67 1256.06,1007.52 1257.95,1012.33 1259.84,1017.11 1261.73,1021.85 1263.62,1026.56 1265.51,1031.24 
  1267.4,1035.88 1269.29,1040.48 1271.18,1045.05 1273.07,1049.59 1274.96,1054.09 1276.85,1058.55 1278.74,1062.98 1280.63,1067.37 1282.52,1071.73 1284.42,1076.05 
  1286.31,1080.34 1288.2,1084.59 1290.09,1088.8 1291.98,1092.98 1293.87,1097.13 1295.76,1101.23 1297.65,1105.3 1299.54,1109.34 1301.43,1113.34 1303.32,1117.3 
  1305.21,1121.23 1307.1,1125.12 1308.99,1128.98 1310.88,1132.8 1312.77,1136.58 1314.66,1140.33 1316.55,1144.04 1318.44,1147.72 1320.33,1151.36 1322.22,1154.97 
  1324.12,1158.54 1326.01,1162.07 1327.9,1165.57 1329.79,1169.04 1331.68,1172.46 1333.57,1175.86 1335.46,1179.22 1337.35,1182.54 1339.24,1185.83 1341.13,1189.08 
  1343.02,1192.3 1344.91,1195.49 1346.8,1198.64 1348.69,1201.75 1350.58,1204.83 1352.47,1207.88 1354.36,1210.89 1356.25,1213.87 1358.14,1216.82 1360.03,1219.73 
  1361.92,1222.61 1363.82,1225.46 1365.71,1228.27 1367.6,1231.05 1369.49,1233.8 1371.38,1236.51 1373.27,1239.19 1375.16,1241.84 1377.05,1244.46 1378.94,1247.05 
  1380.83,1249.6 1382.72,1252.13 1384.61,1254.62 1386.5,1257.08 1388.39,1259.51 1390.28,1261.91 1392.17,1264.28 1394.06,1266.61 1395.95,1268.92 1397.84,1271.2 
  1399.73,1273.45 1401.63,1275.67 1403.52,1277.85 1405.41,1280.01 1407.3,1282.15 1409.19,1284.25 1411.08,1286.32 1412.97,1288.37 1414.86,1290.38 1416.75,1292.37 
  1418.64,1294.34 1420.53,1296.27 1422.42,1298.18 1424.31,1300.06 1426.2,1301.91 1428.09,1303.74 1429.98,1305.54 1431.87,1307.31 1433.76,1309.06 1435.65,1310.79 
  1437.54,1312.48 1439.43,1314.16 1441.33,1315.8 1443.22,1317.43 1445.11,1319.03 1447,1320.6 1448.89,1322.15 1450.78,1323.68 1452.67,1325.18 1454.56,1326.66 
  1456.45,1328.12 1458.34,1329.55 1460.23,1330.96 1462.12,1332.35 1464.01,1333.72 1465.9,1335.07 1467.79,1336.39 1469.68,1337.69 1471.57,1338.97 1473.46,1340.23 
  1475.35,1341.47 1477.24,1342.69 1479.13,1343.89 1481.03,1345.07 1482.92,1346.22 1484.81,1347.36 1486.7,1348.48 1488.59,1349.58 1490.48,1350.66 1492.37,1351.73 
  1494.26,1352.77 1496.15,1353.8 1498.04,1354.81 1499.93,1355.8 1501.82,1356.77 1503.71,1357.72 1505.6,1358.66 1507.49,1359.58 1509.38,1360.49 1511.27,1361.38 
  1513.16,1362.25 1515.05,1363.11 1516.94,1363.95 1518.83,1364.77 1520.73,1365.58 1522.62,1366.37 1524.51,1367.15 1526.4,1367.92 1528.29,1368.67 1530.18,1369.4 
  1532.07,1370.12 1533.96,1370.83 1535.85,1371.52 1537.74,1372.2 1539.63,1372.87 1541.52,1373.52 1543.41,1374.16 1545.3,1374.79 1547.19,1375.41 1549.08,1376.01 
  1550.97,1376.6 1552.86,1377.18 1554.75,1377.75 1556.64,1378.3 1558.54,1378.84 1560.43,1379.38 1562.32,1379.9 1564.21,1380.41 1566.1,1380.91 1567.99,1381.4 
  1569.88,1381.87 1571.77,1382.34 1573.66,1382.8 1575.55,1383.25 1577.44,1383.69 1579.33,1384.12 1581.22,1384.54 1583.11,1384.95 1585,1385.35 1586.89,1385.74 
  1588.78,1386.12 1590.67,1386.5 1592.56,1386.86 1594.45,1387.22 1596.34,1387.57 1598.24,1387.91 1600.13,1388.25 1602.02,1388.57 1603.91,1388.89 1605.8,1389.2 
  1607.69,1389.51 1609.58,1389.8 1611.47,1390.09 1613.36,1390.38 1615.25,1390.65 1617.14,1390.92 1619.03,1391.19 1620.92,1391.44 1622.81,1391.69 1624.7,1391.94 
  1626.59,1392.17 1628.48,1392.41 1630.37,1392.63 1632.26,1392.85 1634.15,1393.07 1636.04,1393.28 1637.94,1393.48 1639.83,1393.68 1641.72,1393.87 1643.61,1394.06 
  1645.5,1394.25 1647.39,1394.43 1649.28,1394.6 1651.17,1394.77 1653.06,1394.94 1654.95,1395.1 1656.84,1395.25 1658.73,1395.41 1660.62,1395.55 1662.51,1395.7 
  1664.4,1395.84 1666.29,1395.97 1668.18,1396.11 1670.07,1396.24 1671.96,1396.36 1673.85,1396.48 1675.74,1396.6 1677.64,1396.72 1679.53,1396.83 1681.42,1396.94 
  1683.31,1397.04 1685.2,1397.15 1687.09,1397.25 1688.98,1397.34 1690.87,1397.44 1692.76,1397.53 1694.65,1397.62 1696.54,1397.7 1698.43,1397.78 1700.32,1397.86 
  1702.21,1397.94 1704.1,1398.02 1705.99,1398.09 1707.88,1398.16 1709.77,1398.23 1711.66,1398.3 1713.55,1398.36 1715.44,1398.43 1717.34,1398.49 1719.23,1398.55 
  1721.12,1398.6 1723.01,1398.66 1724.9,1398.71 1726.79,1398.76 1728.68,1398.81 1730.57,1398.86 1732.46,1398.91 1734.35,1398.95 1736.24,1399 1738.13,1399.04 
  1740.02,1399.08 1741.91,1399.12 1743.8,1399.16 1745.69,1399.2 1747.58,1399.23 1749.47,1399.27 1751.36,1399.3 1753.25,1399.33 1755.15,1399.36 1757.04,1399.39 
  1758.93,1399.42 1760.82,1399.45 1762.71,1399.47 1764.6,1399.5 1766.49,1399.52 1768.38,1399.55 1770.27,1399.57 1772.16,1399.59 1774.05,1399.61 1775.94,1399.64 
  1777.83,1399.66 1779.72,1399.67 1781.61,1399.69 1783.5,1399.71 1785.39,1399.73 1787.28,1399.74 1789.17,1399.76 1791.06,1399.77 1792.95,1399.79 1794.85,1399.8 
  1796.74,1399.82 1798.63,1399.83 1800.52,1399.84 1802.41,1399.85 1804.3,1399.86 1806.19,1399.88 1808.08,1399.89 1809.97,1399.9 1811.86,1399.91 1813.75,1399.91 
  1815.64,1399.92 1817.53,1399.93 1819.42,1399.94 1821.31,1399.95 1823.2,1399.95 1825.09,1399.96 1826.98,1399.97 1828.87,1399.97 1830.76,1399.98 1832.65,1399.99 
  1834.55,1399.99 1836.44,1400 1838.33,1400 1840.22,1400.01 1842.11,1400.01 1844,1400.02 1845.89,1400.02 1847.78,1400.03 1849.67,1400.03 1851.56,1400.03 
  1853.45,1400.04 1855.34,1400.04 1857.23,1400.04 1859.12,1400.05 1861.01,1400.05 1862.9,1400.05 1864.79,1400.05 1866.68,1400.06 1868.57,1400.06 1870.46,1400.06 
  1872.35,1400.06 1874.25,1400.07 1876.14,1400.07 1878.03,1400.07 1879.92,1400.07 1881.81,1400.07 1883.7,1400.07 1885.59,1400.08 1887.48,1400.08 1889.37,1400.08 
  1891.26,1400.08 1893.15,1400.08 1895.04,1400.08 1896.93,1400.08 1898.82,1400.08 1900.71,1400.08 1902.6,1400.09 1904.49,1400.09 1906.38,1400.09 1908.27,1400.09 
  1910.16,1400.09 1912.05,1400.09 1913.95,1400.09 1915.84,1400.09 1917.73,1400.09 1919.62,1400.09 1921.51,1400.09 1923.4,1400.09 1925.29,1400.09 1927.18,1400.09 
  1929.07,1400.09 1930.96,1400.09 1932.85,1400.09 1934.74,1400.09 1936.63,1400.09 1938.52,1400.1 1940.41,1400.1 1942.3,1400.1 1944.19,1400.1 1946.08,1400.1 
  1947.97,1400.1 1949.86,1400.1 1951.76,1400.1 1953.65,1400.1 1955.54,1400.1 1957.43,1400.1 1959.32,1400.1 1961.21,1400.1 1963.1,1400.1 1964.99,1400.1 
  1966.88,1400.1 1968.77,1400.1 1970.66,1400.1 1972.55,1400.1 1974.44,1400.1 1976.33,1400.1 1978.22,1400.1 1980.11,1400.1 1982,1400.1 1983.89,1400.1 
  1985.78,1400.1 1987.67,1400.1 1989.56,1400.1 1991.46,1400.1 1993.35,1400.1 1995.24,1400.1 1997.13,1400.1 1999.02,1400.1 2000.91,1400.1 2002.8,1400.1 
  2004.69,1400.1 2006.58,1400.1 2008.47,1400.1 2010.36,1400.1 2012.25,1400.1 2014.14,1400.1 2016.03,1400.1 2017.92,1400.1 2019.81,1400.1 2021.7,1400.1 
  2023.59,1400.1 2025.48,1400.1 2027.37,1400.1 2029.26,1400.1 2031.16,1400.1 2033.05,1400.1 2034.94,1400.1 2036.83,1400.1 2038.72,1400.1 2040.61,1400.1 
  2042.5,1400.1 2044.39,1400.1 2046.28,1400.1 2048.17,1400.1 2050.06,1400.1 2051.95,1400.1 2053.84,1400.1 2055.73,1400.1 2057.62,1400.1 2059.51,1400.1 
  2061.4,1400.1 2063.29,1400.1 2065.18,1400.1 2067.07,1400.1 2068.96,1400.1 2070.86,1400.1 2072.75,1400.1 2074.64,1400.1 2076.53,1400.1 2078.42,1400.1 
  2080.31,1400.1 2082.2,1400.1 2084.09,1400.1 2085.98,1400.1 2087.87,1400.1 2089.76,1400.1 2091.65,1400.1 2093.54,1400.1 2095.43,1400.1 2097.32,1400.1 
  2099.21,1400.1 2101.1,1400.1 2102.99,1400.1 2104.88,1400.1 2106.77,1400.1 2108.67,1400.1 2110.56,1400.1 2112.45,1400.1 2114.34,1400.1 2116.23,1400.1 
  2118.12,1400.1 2120.01,1400.1 2121.9,1400.1 2123.79,1400.1 2125.68,1400.1 2127.57,1400.1 2129.46,1400.1 2131.35,1400.1 2133.24,1400.1 2135.13,1400.1 
  2137.02,1400.1 2138.91,1400.1 2140.8,1400.1 2142.69,1400.1 2144.58,1400.1 2146.47,1400.1 2148.37,1400.1 2150.26,1400.1 2152.15,1400.1 2154.04,1400.1 
  2155.93,1400.1 2157.82,1400.1 2159.71,1400.1 2161.6,1400.1 2163.49,1400.1 2165.38,1400.1 2167.27,1400.1 2169.16,1400.1 2171.05,1400.1 2172.94,1400.1 
  2174.83,1400.1 2176.72,1400.1 2178.61,1400.1 2180.5,1400.1 2182.39,1400.1 2184.28,1400.1 2186.17,1400.1 2188.07,1400.1 2189.96,1400.1 2191.85,1400.1 
  
  "/>
<path clip-path="url(#clip460)" d="
M313.328 214.613 L1087.59 214.613 L1087.59 93.6527 L313.328 93.6527  Z
  " fill="#ffffff" fill-rule="evenodd" fill-opacity="1"/>
<polyline clip-path="url(#clip460)" style="stroke:#000000; stroke-width:4; stroke-opacity:1; fill:none" points="
  313.328,214.613 1087.59,214.613 1087.59,93.6527 313.328,93.6527 313.328,214.613 
  "/>
<polyline clip-path="url(#clip460)" style="stroke:#009af9; stroke-width:4; stroke-opacity:1; fill:none" points="
  335.571,154.133 469.032,154.133 
  "/>
<path clip-path="url(#clip460)" d="M 0 0 M491.275 136.853 L495.974 136.853 L495.974 157.848 Q495.974 163.403 497.988 165.857 Q500.002 168.288 504.516 168.288 Q509.007 168.288 511.02 165.857 Q513.034 163.403 513.034 157.848 L513.034 136.853 L517.733 136.853 L517.733 158.427 Q517.733 165.186 514.377 168.635 Q511.044 172.084 504.516 172.084 Q497.965 172.084 494.608 168.635 Q491.275 165.186 491.275 158.427 L491.275 136.853 Z" fill="#000000" fill-rule="evenodd" fill-opacity="1" /><path clip-path="url(#clip460)" d="M 0 0 M547.872 155.765 L547.872 171.413 L543.613 171.413 L543.613 155.904 Q543.613 152.223 542.178 150.394 Q540.743 148.566 537.872 148.566 Q534.423 148.566 532.432 150.765 Q530.442 152.964 530.442 156.76 L530.442 171.413 L526.159 171.413 L526.159 145.487 L530.442 145.487 L530.442 149.515 Q531.969 147.177 534.03 146.019 Q536.113 144.862 538.821 144.862 Q543.289 144.862 545.58 147.64 Q547.872 150.394 547.872 155.765 Z" fill="#000000" fill-rule="evenodd" fill-opacity="1" /><path clip-path="url(#clip460)" d="M 0 0 M577.918 155.765 L577.918 171.413 L573.659 171.413 L573.659 155.904 Q573.659 152.223 572.224 150.394 Q570.789 148.566 567.918 148.566 Q564.469 148.566 562.478 150.765 Q560.488 152.964 560.488 156.76 L560.488 171.413 L556.205 171.413 L556.205 145.487 L560.488 145.487 L560.488 149.515 Q562.016 147.177 564.076 146.019 Q566.159 144.862 568.867 144.862 Q573.335 144.862 575.627 147.64 Q577.918 150.394 577.918 155.765 Z" fill="#000000" fill-rule="evenodd" fill-opacity="1" /><path clip-path="url(#clip460)" d="M 0 0 M596.46 148.473 Q593.034 148.473 591.043 151.158 Q589.052 153.82 589.052 158.473 Q589.052 163.126 591.02 165.811 Q593.011 168.473 596.46 168.473 Q599.863 168.473 601.853 165.788 Q603.844 163.103 603.844 158.473 Q603.844 153.866 601.853 151.181 Q599.863 148.473 596.46 148.473 M596.46 144.862 Q602.015 144.862 605.187 148.473 Q608.358 152.084 608.358 158.473 Q608.358 164.839 605.187 168.473 Q602.015 172.084 596.46 172.084 Q590.881 172.084 587.71 168.473 Q584.562 164.839 584.562 158.473 Q584.562 152.084 587.71 148.473 Q590.881 144.862 596.46 144.862 Z" fill="#000000" fill-rule="evenodd" fill-opacity="1" /><path clip-path="url(#clip460)" d="M 0 0 M630.441 149.468 Q629.724 149.052 628.867 148.867 Q628.034 148.658 627.015 148.658 Q623.404 148.658 621.46 151.019 Q619.538 153.357 619.538 157.755 L619.538 171.413 L615.256 171.413 L615.256 145.487 L619.538 145.487 L619.538 149.515 Q620.881 147.154 623.034 146.019 Q625.186 144.862 628.265 144.862 Q628.705 144.862 629.237 144.931 Q629.77 144.978 630.418 145.093 L630.441 149.468 Z" fill="#000000" fill-rule="evenodd" fill-opacity="1" /><path clip-path="url(#clip460)" d="M 0 0 M654.26 150.464 Q655.858 147.593 658.08 146.228 Q660.302 144.862 663.311 144.862 Q667.362 144.862 669.561 147.709 Q671.76 150.533 671.76 155.765 L671.76 171.413 L667.478 171.413 L667.478 155.904 Q667.478 152.177 666.158 150.371 Q664.839 148.566 662.131 148.566 Q658.821 148.566 656.899 150.765 Q654.978 152.964 654.978 156.76 L654.978 171.413 L650.696 171.413 L650.696 155.904 Q650.696 152.154 649.376 150.371 Q648.057 148.566 645.302 148.566 Q642.038 148.566 640.117 150.788 Q638.196 152.987 638.196 156.76 L638.196 171.413 L633.913 171.413 L633.913 145.487 L638.196 145.487 L638.196 149.515 Q639.654 147.13 641.691 145.996 Q643.728 144.862 646.529 144.862 Q649.353 144.862 651.321 146.297 Q653.311 147.732 654.26 150.464 Z" fill="#000000" fill-rule="evenodd" fill-opacity="1" /><path clip-path="url(#clip460)" d="M 0 0 M692.038 158.38 Q686.876 158.38 684.885 159.561 Q682.895 160.741 682.895 163.589 Q682.895 165.857 684.376 167.2 Q685.881 168.519 688.45 168.519 Q691.992 168.519 694.121 166.019 Q696.274 163.496 696.274 159.329 L696.274 158.38 L692.038 158.38 M700.533 156.621 L700.533 171.413 L696.274 171.413 L696.274 167.478 Q694.816 169.839 692.64 170.973 Q690.464 172.084 687.316 172.084 Q683.334 172.084 680.973 169.862 Q678.635 167.616 678.635 163.866 Q678.635 159.491 681.552 157.269 Q684.492 155.047 690.302 155.047 L696.274 155.047 L696.274 154.63 Q696.274 151.691 694.33 150.093 Q692.408 148.473 688.913 148.473 Q686.691 148.473 684.584 149.005 Q682.478 149.538 680.533 150.603 L680.533 146.667 Q682.871 145.765 685.07 145.325 Q687.269 144.862 689.353 144.862 Q694.978 144.862 697.756 147.779 Q700.533 150.695 700.533 156.621 Z" fill="#000000" fill-rule="evenodd" fill-opacity="1" /><path clip-path="url(#clip460)" d="M 0 0 M709.306 135.394 L713.566 135.394 L713.566 171.413 L709.306 171.413 L709.306 135.394 Z" fill="#000000" fill-rule="evenodd" fill-opacity="1" /><path clip-path="url(#clip460)" d="M 0 0 M722.478 145.487 L726.737 145.487 L726.737 171.413 L722.478 171.413 L722.478 145.487 M722.478 135.394 L726.737 135.394 L726.737 140.788 L722.478 140.788 L722.478 135.394 Z" fill="#000000" fill-rule="evenodd" fill-opacity="1" /><path clip-path="url(#clip460)" d="M 0 0 M733.797 145.487 L754.028 145.487 L754.028 149.376 L738.01 168.01 L754.028 168.01 L754.028 171.413 L733.218 171.413 L733.218 167.524 L749.237 148.89 L733.797 148.89 L733.797 145.487 Z" fill="#000000" fill-rule="evenodd" fill-opacity="1" /><path clip-path="url(#clip460)" d="M 0 0 M782.709 157.385 L782.709 159.468 L763.126 159.468 Q763.403 163.866 765.764 166.181 Q768.149 168.473 772.385 168.473 Q774.838 168.473 777.13 167.871 Q779.445 167.269 781.713 166.065 L781.713 170.093 Q779.422 171.065 777.014 171.575 Q774.607 172.084 772.13 172.084 Q765.926 172.084 762.292 168.473 Q758.681 164.862 758.681 158.704 Q758.681 152.339 762.107 148.612 Q765.556 144.862 771.389 144.862 Q776.621 144.862 779.653 148.242 Q782.709 151.598 782.709 157.385 M778.45 156.135 Q778.403 152.64 776.482 150.556 Q774.584 148.473 771.436 148.473 Q767.871 148.473 765.718 150.487 Q763.589 152.501 763.264 156.158 L778.45 156.135 Z" fill="#000000" fill-rule="evenodd" fill-opacity="1" /><path clip-path="url(#clip460)" d="M 0 0 M806.76 149.422 L806.76 135.394 L811.019 135.394 L811.019 171.413 L806.76 171.413 L806.76 167.524 Q805.417 169.839 803.357 170.973 Q801.32 172.084 798.449 172.084 Q793.75 172.084 790.787 168.334 Q787.848 164.584 787.848 158.473 Q787.848 152.362 790.787 148.612 Q793.75 144.862 798.449 144.862 Q801.32 144.862 803.357 145.996 Q805.417 147.107 806.76 149.422 M792.246 158.473 Q792.246 163.172 794.167 165.857 Q796.112 168.519 799.491 168.519 Q802.871 168.519 804.815 165.857 Q806.76 163.172 806.76 158.473 Q806.76 153.774 804.815 151.112 Q802.871 148.427 799.491 148.427 Q796.112 148.427 794.167 151.112 Q792.246 153.774 792.246 158.473 Z" fill="#000000" fill-rule="evenodd" fill-opacity="1" /><path clip-path="url(#clip460)" d="M 0 0 M838.982 167.524 L838.982 181.274 L834.699 181.274 L834.699 145.487 L838.982 145.487 L838.982 149.422 Q840.324 147.107 842.361 145.996 Q844.421 144.862 847.269 144.862 Q851.991 144.862 854.931 148.612 Q857.894 152.362 857.894 158.473 Q857.894 164.584 854.931 168.334 Q851.991 172.084 847.269 172.084 Q844.421 172.084 842.361 170.973 Q840.324 169.839 838.982 167.524 M853.472 158.473 Q853.472 153.774 851.528 151.112 Q849.607 148.427 846.227 148.427 Q842.847 148.427 840.903 151.112 Q838.982 153.774 838.982 158.473 Q838.982 163.172 840.903 165.857 Q842.847 168.519 846.227 168.519 Q849.607 168.519 851.528 165.857 Q853.472 163.172 853.472 158.473 Z" fill="#000000" fill-rule="evenodd" fill-opacity="1" /><path clip-path="url(#clip460)" d="M 0 0 M875 148.473 Q871.574 148.473 869.583 151.158 Q867.593 153.82 867.593 158.473 Q867.593 163.126 869.56 165.811 Q871.551 168.473 875 168.473 Q878.403 168.473 880.393 165.788 Q882.384 163.103 882.384 158.473 Q882.384 153.866 880.393 151.181 Q878.403 148.473 875 148.473 M875 144.862 Q880.555 144.862 883.727 148.473 Q886.898 152.084 886.898 158.473 Q886.898 164.839 883.727 168.473 Q880.555 172.084 875 172.084 Q869.421 172.084 866.25 168.473 Q863.102 164.839 863.102 158.473 Q863.102 152.084 866.25 148.473 Q869.421 144.862 875 144.862 Z" fill="#000000" fill-rule="evenodd" fill-opacity="1" /><path clip-path="url(#clip460)" d="M 0 0 M910.486 146.251 L910.486 150.279 Q908.68 149.353 906.736 148.89 Q904.791 148.427 902.708 148.427 Q899.537 148.427 897.94 149.399 Q896.366 150.371 896.366 152.316 Q896.366 153.797 897.5 154.654 Q898.634 155.487 902.06 156.251 L903.518 156.575 Q908.055 157.547 909.953 159.329 Q911.875 161.089 911.875 164.26 Q911.875 167.871 909.004 169.978 Q906.157 172.084 901.157 172.084 Q899.074 172.084 896.805 171.667 Q894.56 171.274 892.06 170.464 L892.06 166.065 Q894.421 167.292 896.713 167.917 Q899.004 168.519 901.25 168.519 Q904.259 168.519 905.879 167.501 Q907.5 166.459 907.5 164.584 Q907.5 162.848 906.319 161.922 Q905.162 160.996 901.204 160.14 L899.722 159.792 Q895.764 158.959 894.004 157.246 Q892.245 155.51 892.245 152.501 Q892.245 148.843 894.838 146.853 Q897.43 144.862 902.199 144.862 Q904.56 144.862 906.643 145.209 Q908.727 145.556 910.486 146.251 Z" fill="#000000" fill-rule="evenodd" fill-opacity="1" /><path clip-path="url(#clip460)" d="M 0 0 M922.87 138.126 L922.87 145.487 L931.643 145.487 L931.643 148.797 L922.87 148.797 L922.87 162.871 Q922.87 166.042 923.727 166.945 Q924.606 167.848 927.268 167.848 L931.643 167.848 L931.643 171.413 L927.268 171.413 Q922.338 171.413 920.463 169.584 Q918.588 167.732 918.588 162.871 L918.588 148.797 L915.463 148.797 L915.463 145.487 L918.588 145.487 L918.588 138.126 L922.87 138.126 Z" fill="#000000" fill-rule="evenodd" fill-opacity="1" /><path clip-path="url(#clip460)" d="M 0 0 M959.421 157.385 L959.421 159.468 L939.838 159.468 Q940.115 163.866 942.476 166.181 Q944.861 168.473 949.097 168.473 Q951.55 168.473 953.842 167.871 Q956.157 167.269 958.425 166.065 L958.425 170.093 Q956.134 171.065 953.726 171.575 Q951.319 172.084 948.842 172.084 Q942.638 172.084 939.004 168.473 Q935.393 164.862 935.393 158.704 Q935.393 152.339 938.819 148.612 Q942.268 144.862 948.101 144.862 Q953.333 144.862 956.365 148.242 Q959.421 151.598 959.421 157.385 M955.162 156.135 Q955.115 152.64 953.194 150.556 Q951.296 148.473 948.148 148.473 Q944.583 148.473 942.43 150.487 Q940.301 152.501 939.976 156.158 L955.162 156.135 Z" fill="#000000" fill-rule="evenodd" fill-opacity="1" /><path clip-path="url(#clip460)" d="M 0 0 M981.435 149.468 Q980.717 149.052 979.861 148.867 Q979.027 148.658 978.009 148.658 Q974.398 148.658 972.453 151.019 Q970.532 153.357 970.532 157.755 L970.532 171.413 L966.249 171.413 L966.249 145.487 L970.532 145.487 L970.532 149.515 Q971.874 147.154 974.027 146.019 Q976.18 144.862 979.259 144.862 Q979.698 144.862 980.231 144.931 Q980.763 144.978 981.411 145.093 L981.435 149.468 Z" fill="#000000" fill-rule="evenodd" fill-opacity="1" /><path clip-path="url(#clip460)" d="M 0 0 M985.902 145.487 L990.161 145.487 L990.161 171.413 L985.902 171.413 L985.902 145.487 M985.902 135.394 L990.161 135.394 L990.161 140.788 L985.902 140.788 L985.902 135.394 Z" fill="#000000" fill-rule="evenodd" fill-opacity="1" /><path clip-path="url(#clip460)" d="M 0 0 M1009.12 148.473 Q1005.69 148.473 1003.7 151.158 Q1001.71 153.82 1001.71 158.473 Q1001.71 163.126 1003.68 165.811 Q1005.67 168.473 1009.12 168.473 Q1012.52 168.473 1014.51 165.788 Q1016.5 163.103 1016.5 158.473 Q1016.5 153.866 1014.51 151.181 Q1012.52 148.473 1009.12 148.473 M1009.12 144.862 Q1014.68 144.862 1017.85 148.473 Q1021.02 152.084 1021.02 158.473 Q1021.02 164.839 1017.85 168.473 Q1014.68 172.084 1009.12 172.084 Q1003.54 172.084 1000.37 168.473 Q997.222 164.839 997.222 158.473 Q997.222 152.084 1000.37 148.473 Q1003.54 144.862 1009.12 144.862 Z" fill="#000000" fill-rule="evenodd" fill-opacity="1" /><path clip-path="url(#clip460)" d="M 0 0 M1043.1 149.468 Q1042.38 149.052 1041.53 148.867 Q1040.69 148.658 1039.68 148.658 Q1036.06 148.658 1034.12 151.019 Q1032.2 153.357 1032.2 157.755 L1032.2 171.413 L1027.92 171.413 L1027.92 145.487 L1032.2 145.487 L1032.2 149.515 Q1033.54 147.154 1035.69 146.019 Q1037.85 144.862 1040.93 144.862 Q1041.36 144.862 1041.9 144.931 Q1042.43 144.978 1043.08 145.093 L1043.1 149.468 Z" fill="#000000" fill-rule="evenodd" fill-opacity="1" /><path clip-path="url(#clip460)" d="
M246.598 1439.5 L2248.5 1439.5 L2248.5 47.2441 L246.598 47.2441  Z
  " fill="#000000" fill-rule="evenodd" fill-opacity="0"/>
<polyline clip-path="url(#clip462)" style="stroke:#000000; stroke-width:2; stroke-opacity:0.1; fill:none" points="
  303.255,1439.5 303.255,47.2441 
  "/>
<polyline clip-path="url(#clip462)" style="stroke:#000000; stroke-width:2; stroke-opacity:0.1; fill:none" points="
  775.403,1439.5 775.403,47.2441 
  "/>
<polyline clip-path="url(#clip462)" style="stroke:#000000; stroke-width:2; stroke-opacity:0.1; fill:none" points="
  1247.55,1439.5 1247.55,47.2441 
  "/>
<polyline clip-path="url(#clip462)" style="stroke:#000000; stroke-width:2; stroke-opacity:0.1; fill:none" points="
  1719.7,1439.5 1719.7,47.2441 
  "/>
<polyline clip-path="url(#clip462)" style="stroke:#000000; stroke-width:2; stroke-opacity:0.1; fill:none" points="
  2191.85,1439.5 2191.85,47.2441 
  "/>
<polyline clip-path="url(#clip460)" style="stroke:#000000; stroke-width:4; stroke-opacity:1; fill:none" points="
  246.598,1439.5 2248.5,1439.5 
  "/>
<polyline clip-path="url(#clip460)" style="stroke:#000000; stroke-width:4; stroke-opacity:1; fill:none" points="
  303.255,1439.5 303.255,1422.79 
  "/>
<polyline clip-path="url(#clip460)" style="stroke:#000000; stroke-width:4; stroke-opacity:1; fill:none" points="
  775.403,1439.5 775.403,1422.79 
  "/>
<polyline clip-path="url(#clip460)" style="stroke:#000000; stroke-width:4; stroke-opacity:1; fill:none" points="
  1247.55,1439.5 1247.55,1422.79 
  "/>
<polyline clip-path="url(#clip460)" style="stroke:#000000; stroke-width:4; stroke-opacity:1; fill:none" points="
  1719.7,1439.5 1719.7,1422.79 
  "/>
<polyline clip-path="url(#clip460)" style="stroke:#000000; stroke-width:4; stroke-opacity:1; fill:none" points="
  2191.85,1439.5 2191.85,1422.79 
  "/>
<path clip-path="url(#clip460)" d="M 0 0 M265.559 1468.69 Q261.948 1468.69 260.119 1472.26 Q258.314 1475.8 258.314 1482.93 Q258.314 1490.04 260.119 1493.6 Q261.948 1497.14 265.559 1497.14 Q269.193 1497.14 270.999 1493.6 Q272.827 1490.04 272.827 1482.93 Q272.827 1475.8 270.999 1472.26 Q269.193 1468.69 265.559 1468.69 M265.559 1464.99 Q271.369 1464.99 274.425 1469.6 Q277.503 1474.18 277.503 1482.93 Q277.503 1491.66 274.425 1496.26 Q271.369 1500.85 265.559 1500.85 Q259.749 1500.85 256.67 1496.26 Q253.615 1491.66 253.615 1482.93 Q253.615 1474.18 256.67 1469.6 Q259.749 1464.99 265.559 1464.99 Z" fill="#000000" fill-rule="evenodd" fill-opacity="1" /><path clip-path="url(#clip460)" d="M 0 0 M285.721 1494.29 L290.605 1494.29 L290.605 1500.17 L285.721 1500.17 L285.721 1494.29 Z" fill="#000000" fill-rule="evenodd" fill-opacity="1" /><path clip-path="url(#clip460)" d="M 0 0 M310.79 1468.69 Q307.179 1468.69 305.35 1472.26 Q303.545 1475.8 303.545 1482.93 Q303.545 1490.04 305.35 1493.6 Q307.179 1497.14 310.79 1497.14 Q314.424 1497.14 316.23 1493.6 Q318.059 1490.04 318.059 1482.93 Q318.059 1475.8 316.23 1472.26 Q314.424 1468.69 310.79 1468.69 M310.79 1464.99 Q316.6 1464.99 319.656 1469.6 Q322.735 1474.18 322.735 1482.93 Q322.735 1491.66 319.656 1496.26 Q316.6 1500.85 310.79 1500.85 Q304.98 1500.85 301.901 1496.26 Q298.846 1491.66 298.846 1482.93 Q298.846 1474.18 301.901 1469.6 Q304.98 1464.99 310.79 1464.99 Z" fill="#000000" fill-rule="evenodd" fill-opacity="1" /><path clip-path="url(#clip460)" d="M 0 0 M340.952 1468.69 Q337.341 1468.69 335.512 1472.26 Q333.707 1475.8 333.707 1482.93 Q333.707 1490.04 335.512 1493.6 Q337.341 1497.14 340.952 1497.14 Q344.586 1497.14 346.392 1493.6 Q348.221 1490.04 348.221 1482.93 Q348.221 1475.8 346.392 1472.26 Q344.586 1468.69 340.952 1468.69 M340.952 1464.99 Q346.762 1464.99 349.818 1469.6 Q352.896 1474.18 352.896 1482.93 Q352.896 1491.66 349.818 1496.26 Q346.762 1500.85 340.952 1500.85 Q335.142 1500.85 332.063 1496.26 Q329.008 1491.66 329.008 1482.93 Q329.008 1474.18 332.063 1469.6 Q335.142 1464.99 340.952 1464.99 Z" fill="#000000" fill-rule="evenodd" fill-opacity="1" /><path clip-path="url(#clip460)" d="M 0 0 M738.204 1468.69 Q734.593 1468.69 732.764 1472.26 Q730.959 1475.8 730.959 1482.93 Q730.959 1490.04 732.764 1493.6 Q734.593 1497.14 738.204 1497.14 Q741.839 1497.14 743.644 1493.6 Q745.473 1490.04 745.473 1482.93 Q745.473 1475.8 743.644 1472.26 Q741.839 1468.69 738.204 1468.69 M738.204 1464.99 Q744.014 1464.99 747.07 1469.6 Q750.149 1474.18 750.149 1482.93 Q750.149 1491.66 747.07 1496.26 Q744.014 1500.85 738.204 1500.85 Q732.394 1500.85 729.315 1496.26 Q726.26 1491.66 726.26 1482.93 Q726.26 1474.18 729.315 1469.6 Q732.394 1464.99 738.204 1464.99 Z" fill="#000000" fill-rule="evenodd" fill-opacity="1" /><path clip-path="url(#clip460)" d="M 0 0 M758.366 1494.29 L763.25 1494.29 L763.25 1500.17 L758.366 1500.17 L758.366 1494.29 Z" fill="#000000" fill-rule="evenodd" fill-opacity="1" /><path clip-path="url(#clip460)" d="M 0 0 M777.463 1496.24 L793.783 1496.24 L793.783 1500.17 L771.838 1500.17 L771.838 1496.24 Q774.5 1493.48 779.084 1488.85 Q783.69 1484.2 784.871 1482.86 Q787.116 1480.34 787.996 1478.6 Q788.898 1476.84 788.898 1475.15 Q788.898 1472.4 786.954 1470.66 Q785.033 1468.92 781.931 1468.92 Q779.732 1468.92 777.278 1469.69 Q774.848 1470.45 772.07 1472 L772.07 1467.28 Q774.894 1466.15 777.348 1465.57 Q779.801 1464.99 781.838 1464.99 Q787.209 1464.99 790.403 1467.67 Q793.598 1470.36 793.598 1474.85 Q793.598 1476.98 792.787 1478.9 Q792 1480.8 789.894 1483.39 Q789.315 1484.06 786.213 1487.28 Q783.111 1490.47 777.463 1496.24 Z" fill="#000000" fill-rule="evenodd" fill-opacity="1" /><path clip-path="url(#clip460)" d="M 0 0 M803.644 1465.61 L822 1465.61 L822 1469.55 L807.926 1469.55 L807.926 1478.02 Q808.945 1477.67 809.963 1477.51 Q810.982 1477.33 812 1477.33 Q817.787 1477.33 821.167 1480.5 Q824.546 1483.67 824.546 1489.09 Q824.546 1494.66 821.074 1497.77 Q817.602 1500.85 811.283 1500.85 Q809.107 1500.85 806.838 1500.47 Q804.593 1500.1 802.185 1499.36 L802.185 1494.66 Q804.269 1495.8 806.491 1496.35 Q808.713 1496.91 811.19 1496.91 Q815.195 1496.91 817.533 1494.8 Q819.871 1492.7 819.871 1489.09 Q819.871 1485.47 817.533 1483.37 Q815.195 1481.26 811.19 1481.26 Q809.315 1481.26 807.44 1481.68 Q805.588 1482.1 803.644 1482.97 L803.644 1465.61 Z" fill="#000000" fill-rule="evenodd" fill-opacity="1" /><path clip-path="url(#clip460)" d="M 0 0 M1209.85 1468.69 Q1206.24 1468.69 1204.41 1472.26 Q1202.61 1475.8 1202.61 1482.93 Q1202.61 1490.04 1204.41 1493.6 Q1206.24 1497.14 1209.85 1497.14 Q1213.49 1497.14 1215.29 1493.6 Q1217.12 1490.04 1217.12 1482.93 Q1217.12 1475.8 1215.29 1472.26 Q1213.49 1468.69 1209.85 1468.69 M1209.85 1464.99 Q1215.66 1464.99 1218.72 1469.6 Q1221.8 1474.18 1221.8 1482.93 Q1221.8 1491.66 1218.72 1496.26 Q1215.66 1500.85 1209.85 1500.85 Q1204.04 1500.85 1200.97 1496.26 Q1197.91 1491.66 1197.91 1482.93 Q1197.91 1474.18 1200.97 1469.6 Q1204.04 1464.99 1209.85 1464.99 Z" fill="#000000" fill-rule="evenodd" fill-opacity="1" /><path clip-path="url(#clip460)" d="M 0 0 M1230.02 1494.29 L1234.9 1494.29 L1234.9 1500.17 L1230.02 1500.17 L1230.02 1494.29 Z" fill="#000000" fill-rule="evenodd" fill-opacity="1" /><path clip-path="url(#clip460)" d="M 0 0 M1245.13 1465.61 L1263.49 1465.61 L1263.49 1469.55 L1249.41 1469.55 L1249.41 1478.02 Q1250.43 1477.67 1251.45 1477.51 Q1252.47 1477.33 1253.49 1477.33 Q1259.28 1477.33 1262.65 1480.5 Q1266.03 1483.67 1266.03 1489.09 Q1266.03 1494.66 1262.56 1497.77 Q1259.09 1500.85 1252.77 1500.85 Q1250.59 1500.85 1248.33 1500.47 Q1246.08 1500.1 1243.67 1499.36 L1243.67 1494.66 Q1245.76 1495.8 1247.98 1496.35 Q1250.2 1496.91 1252.68 1496.91 Q1256.68 1496.91 1259.02 1494.8 Q1261.36 1492.7 1261.36 1489.09 Q1261.36 1485.47 1259.02 1483.37 Q1256.68 1481.26 1252.68 1481.26 Q1250.8 1481.26 1248.93 1481.68 Q1247.08 1482.1 1245.13 1482.97 L1245.13 1465.61 Z" fill="#000000" fill-rule="evenodd" fill-opacity="1" /><path clip-path="url(#clip460)" d="M 0 0 M1285.25 1468.69 Q1281.64 1468.69 1279.81 1472.26 Q1278 1475.8 1278 1482.93 Q1278 1490.04 1279.81 1493.6 Q1281.64 1497.14 1285.25 1497.14 Q1288.88 1497.14 1290.69 1493.6 Q1292.52 1490.04 1292.52 1482.93 Q1292.52 1475.8 1290.69 1472.26 Q1288.88 1468.69 1285.25 1468.69 M1285.25 1464.99 Q1291.06 1464.99 1294.11 1469.6 Q1297.19 1474.18 1297.19 1482.93 Q1297.19 1491.66 1294.11 1496.26 Q1291.06 1500.85 1285.25 1500.85 Q1279.44 1500.85 1276.36 1496.26 Q1273.3 1491.66 1273.3 1482.93 Q1273.3 1474.18 1276.36 1469.6 Q1279.44 1464.99 1285.25 1464.99 Z" fill="#000000" fill-rule="evenodd" fill-opacity="1" /><path clip-path="url(#clip460)" d="M 0 0 M1682.5 1468.69 Q1678.89 1468.69 1677.06 1472.26 Q1675.25 1475.8 1675.25 1482.93 Q1675.25 1490.04 1677.06 1493.6 Q1678.89 1497.14 1682.5 1497.14 Q1686.13 1497.14 1687.94 1493.6 Q1689.77 1490.04 1689.77 1482.93 Q1689.77 1475.8 1687.94 1472.26 Q1686.13 1468.69 1682.5 1468.69 M1682.5 1464.99 Q1688.31 1464.99 1691.37 1469.6 Q1694.44 1474.18 1694.44 1482.93 Q1694.44 1491.66 1691.37 1496.26 Q1688.31 1500.85 1682.5 1500.85 Q1676.69 1500.85 1673.61 1496.26 Q1670.56 1491.66 1670.56 1482.93 Q1670.56 1474.18 1673.61 1469.6 Q1676.69 1464.99 1682.5 1464.99 Z" fill="#000000" fill-rule="evenodd" fill-opacity="1" /><path clip-path="url(#clip460)" d="M 0 0 M1702.66 1494.29 L1707.55 1494.29 L1707.55 1500.17 L1702.66 1500.17 L1702.66 1494.29 Z" fill="#000000" fill-rule="evenodd" fill-opacity="1" /><path clip-path="url(#clip460)" d="M 0 0 M1716.55 1465.61 L1738.77 1465.61 L1738.77 1467.6 L1726.23 1500.17 L1721.34 1500.17 L1733.15 1469.55 L1716.55 1469.55 L1716.55 1465.61 Z" fill="#000000" fill-rule="evenodd" fill-opacity="1" /><path clip-path="url(#clip460)" d="M 0 0 M1747.94 1465.61 L1766.3 1465.61 L1766.3 1469.55 L1752.22 1469.55 L1752.22 1478.02 Q1753.24 1477.67 1754.26 1477.51 Q1755.28 1477.33 1756.3 1477.33 Q1762.08 1477.33 1765.46 1480.5 Q1768.84 1483.67 1768.84 1489.09 Q1768.84 1494.66 1765.37 1497.77 Q1761.9 1500.85 1755.58 1500.85 Q1753.4 1500.85 1751.13 1500.47 Q1748.89 1500.1 1746.48 1499.36 L1746.48 1494.66 Q1748.56 1495.8 1750.79 1496.35 Q1753.01 1496.91 1755.49 1496.91 Q1759.49 1496.91 1761.83 1494.8 Q1764.17 1492.7 1764.17 1489.09 Q1764.17 1485.47 1761.83 1483.37 Q1759.49 1481.26 1755.49 1481.26 Q1753.61 1481.26 1751.74 1481.68 Q1749.88 1482.1 1747.94 1482.97 L1747.94 1465.61 Z" fill="#000000" fill-rule="evenodd" fill-opacity="1" /><path clip-path="url(#clip460)" d="M 0 0 M2143.92 1496.24 L2151.56 1496.24 L2151.56 1469.87 L2143.25 1471.54 L2143.25 1467.28 L2151.51 1465.61 L2156.19 1465.61 L2156.19 1496.24 L2163.83 1496.24 L2163.83 1500.17 L2143.92 1500.17 L2143.92 1496.24 Z" fill="#000000" fill-rule="evenodd" fill-opacity="1" /><path clip-path="url(#clip460)" d="M 0 0 M2173.27 1494.29 L2178.15 1494.29 L2178.15 1500.17 L2173.27 1500.17 L2173.27 1494.29 Z" fill="#000000" fill-rule="evenodd" fill-opacity="1" /><path clip-path="url(#clip460)" d="M 0 0 M2198.34 1468.69 Q2194.73 1468.69 2192.9 1472.26 Q2191.09 1475.8 2191.09 1482.93 Q2191.09 1490.04 2192.9 1493.6 Q2194.73 1497.14 2198.34 1497.14 Q2201.97 1497.14 2203.78 1493.6 Q2205.61 1490.04 2205.61 1482.93 Q2205.61 1475.8 2203.78 1472.26 Q2201.97 1468.69 2198.34 1468.69 M2198.34 1464.99 Q2204.15 1464.99 2207.2 1469.6 Q2210.28 1474.18 2210.28 1482.93 Q2210.28 1491.66 2207.2 1496.26 Q2204.15 1500.85 2198.34 1500.85 Q2192.53 1500.85 2189.45 1496.26 Q2186.39 1491.66 2186.39 1482.93 Q2186.39 1474.18 2189.45 1469.6 Q2192.53 1464.99 2198.34 1464.99 Z" fill="#000000" fill-rule="evenodd" fill-opacity="1" /><path clip-path="url(#clip460)" d="M 0 0 M2228.5 1468.69 Q2224.89 1468.69 2223.06 1472.26 Q2221.26 1475.8 2221.26 1482.93 Q2221.26 1490.04 2223.06 1493.6 Q2224.89 1497.14 2228.5 1497.14 Q2232.14 1497.14 2233.94 1493.6 Q2235.77 1490.04 2235.77 1482.93 Q2235.77 1475.8 2233.94 1472.26 Q2232.14 1468.69 2228.5 1468.69 M2228.5 1464.99 Q2234.31 1464.99 2237.37 1469.6 Q2240.45 1474.18 2240.45 1482.93 Q2240.45 1491.66 2237.37 1496.26 Q2234.31 1500.85 2228.5 1500.85 Q2222.69 1500.85 2219.61 1496.26 Q2216.56 1491.66 2216.56 1482.93 Q2216.56 1474.18 2219.61 1469.6 Q2222.69 1464.99 2228.5 1464.99 Z" fill="#000000" fill-rule="evenodd" fill-opacity="1" /><path clip-path="url(#clip460)" d="M 0 0 M1259.49 1535.75 Q1259.49 1541.16 1257.75 1547.24 Q1256.04 1553.3 1253.33 1558.19 Q1250.63 1563.06 1247.09 1566.28 Q1243.54 1569.47 1240.16 1569.47 Q1238 1569.47 1236.39 1568.27 Q1234.82 1567.05 1233.95 1565.02 Q1233.08 1562.96 1232.66 1560.71 Q1232.24 1558.42 1232.24 1555.94 Q1232.24 1552.24 1233.04 1548.21 Q1233.85 1544.15 1235.2 1540.48 Q1236.56 1536.78 1238.46 1533.43 Q1240.36 1530.05 1242.45 1527.6 Q1244.57 1525.12 1246.96 1523.67 Q1249.34 1522.22 1251.56 1522.22 Q1253.17 1522.22 1254.46 1522.93 Q1255.78 1523.6 1256.62 1524.8 Q1257.46 1525.96 1258.04 1527.34 Q1258.65 1528.73 1258.94 1530.34 Q1259.23 1531.91 1259.36 1533.23 Q1259.49 1534.52 1259.49 1535.75 M1255.14 1531.66 Q1255.14 1530.01 1255.01 1528.79 Q1254.88 1527.53 1254.53 1526.28 Q1254.17 1525.02 1253.4 1524.35 Q1252.66 1523.67 1251.5 1523.67 Q1248.12 1523.67 1244.32 1530.59 Q1243.09 1532.75 1242 1535.68 Q1240.9 1538.61 1240.52 1540 Q1240.13 1541.38 1239.23 1544.8 L1253.01 1544.8 Q1255.14 1536 1255.14 1531.66 M1252.43 1546.89 L1238.71 1546.89 Q1236.59 1554.94 1236.59 1559.96 Q1236.59 1564.34 1237.49 1566.18 Q1238.42 1567.98 1240.16 1567.98 Q1242.16 1567.98 1244.03 1565.99 Q1245.89 1563.96 1247.79 1560.29 Q1250.31 1555.52 1252.43 1546.89 Z" fill="#000000" fill-rule="evenodd" fill-opacity="1" /><polyline clip-path="url(#clip462)" style="stroke:#000000; stroke-width:2; stroke-opacity:0.1; fill:none" points="
  246.598,1400.1 2248.5,1400.1 
  "/>
<polyline clip-path="url(#clip462)" style="stroke:#000000; stroke-width:2; stroke-opacity:0.1; fill:none" points="
  246.598,1099.86 2248.5,1099.86 
  "/>
<polyline clip-path="url(#clip462)" style="stroke:#000000; stroke-width:2; stroke-opacity:0.1; fill:none" points="
  246.598,799.62 2248.5,799.62 
  "/>
<polyline clip-path="url(#clip462)" style="stroke:#000000; stroke-width:2; stroke-opacity:0.1; fill:none" points="
  246.598,499.381 2248.5,499.381 
  "/>
<polyline clip-path="url(#clip462)" style="stroke:#000000; stroke-width:2; stroke-opacity:0.1; fill:none" points="
  246.598,199.141 2248.5,199.141 
  "/>
<polyline clip-path="url(#clip460)" style="stroke:#000000; stroke-width:4; stroke-opacity:1; fill:none" points="
  2248.5,1439.5 2248.5,47.2441 
  "/>
<polyline clip-path="url(#clip460)" style="stroke:#000000; stroke-width:4; stroke-opacity:1; fill:none" points="
  2248.5,1400.1 2224.48,1400.1 
  "/>
<polyline clip-path="url(#clip460)" style="stroke:#000000; stroke-width:4; stroke-opacity:1; fill:none" points="
  2248.5,1099.86 2224.48,1099.86 
  "/>
<polyline clip-path="url(#clip460)" style="stroke:#000000; stroke-width:4; stroke-opacity:1; fill:none" points="
  2248.5,799.62 2224.48,799.62 
  "/>
<polyline clip-path="url(#clip460)" style="stroke:#000000; stroke-width:4; stroke-opacity:1; fill:none" points="
  2248.5,499.381 2224.48,499.381 
  "/>
<polyline clip-path="url(#clip460)" style="stroke:#000000; stroke-width:4; stroke-opacity:1; fill:none" points="
  2248.5,199.141 2224.48,199.141 
  "/>
<path clip-path="url(#clip460)" d="M 0 0 M2296.45 1385.9 Q2292.84 1385.9 2291.01 1389.46 Q2289.2 1393 2289.2 1400.13 Q2289.2 1407.24 2291.01 1410.8 Q2292.84 1414.35 2296.45 1414.35 Q2300.08 1414.35 2301.89 1410.8 Q2303.72 1407.24 2303.72 1400.13 Q2303.72 1393 2301.89 1389.46 Q2300.08 1385.9 2296.45 1385.9 M2296.45 1382.19 Q2302.26 1382.19 2305.31 1386.8 Q2308.39 1391.38 2308.39 1400.13 Q2308.39 1408.86 2305.31 1413.47 Q2302.26 1418.05 2296.45 1418.05 Q2290.64 1418.05 2287.56 1413.47 Q2284.5 1408.86 2284.5 1400.13 Q2284.5 1391.38 2287.56 1386.8 Q2290.64 1382.19 2296.45 1382.19 Z" fill="#000000" fill-rule="evenodd" fill-opacity="1" /><path clip-path="url(#clip460)" d="M 0 0 M2316.61 1411.5 L2321.49 1411.5 L2321.49 1417.38 L2316.61 1417.38 L2316.61 1411.5 Z" fill="#000000" fill-rule="evenodd" fill-opacity="1" /><path clip-path="url(#clip460)" d="M 0 0 M2341.68 1385.9 Q2338.07 1385.9 2336.24 1389.46 Q2334.43 1393 2334.43 1400.13 Q2334.43 1407.24 2336.24 1410.8 Q2338.07 1414.35 2341.68 1414.35 Q2345.31 1414.35 2347.12 1410.8 Q2348.95 1407.24 2348.95 1400.13 Q2348.95 1393 2347.12 1389.46 Q2345.31 1385.9 2341.68 1385.9 M2341.68 1382.19 Q2347.49 1382.19 2350.55 1386.8 Q2353.62 1391.38 2353.62 1400.13 Q2353.62 1408.86 2350.55 1413.47 Q2347.49 1418.05 2341.68 1418.05 Q2335.87 1418.05 2332.79 1413.47 Q2329.74 1408.86 2329.74 1400.13 Q2329.74 1391.38 2332.79 1386.8 Q2335.87 1382.19 2341.68 1382.19 Z" fill="#000000" fill-rule="evenodd" fill-opacity="1" /><path clip-path="url(#clip460)" d="M 0 0 M2296.45 1085.66 Q2292.84 1085.66 2291.01 1089.22 Q2289.2 1092.76 2289.2 1099.89 Q2289.2 1107 2291.01 1110.57 Q2292.84 1114.11 2296.45 1114.11 Q2300.08 1114.11 2301.89 1110.57 Q2303.72 1107 2303.72 1099.89 Q2303.72 1092.76 2301.89 1089.22 Q2300.08 1085.66 2296.45 1085.66 M2296.45 1081.95 Q2302.26 1081.95 2305.31 1086.56 Q2308.39 1091.14 2308.39 1099.89 Q2308.39 1108.62 2305.31 1113.23 Q2302.26 1117.81 2296.45 1117.81 Q2290.64 1117.81 2287.56 1113.23 Q2284.5 1108.62 2284.5 1099.89 Q2284.5 1091.14 2287.56 1086.56 Q2290.64 1081.95 2296.45 1081.95 Z" fill="#000000" fill-rule="evenodd" fill-opacity="1" /><path clip-path="url(#clip460)" d="M 0 0 M2316.61 1111.26 L2321.49 1111.26 L2321.49 1117.14 L2316.61 1117.14 L2316.61 1111.26 Z" fill="#000000" fill-rule="evenodd" fill-opacity="1" /><path clip-path="url(#clip460)" d="M 0 0 M2331.73 1082.58 L2350.08 1082.58 L2350.08 1086.51 L2336.01 1086.51 L2336.01 1094.99 Q2337.03 1094.64 2338.05 1094.48 Q2339.06 1094.29 2340.08 1094.29 Q2345.87 1094.29 2349.25 1097.46 Q2352.63 1100.63 2352.63 1106.05 Q2352.63 1111.63 2349.16 1114.73 Q2345.68 1117.81 2339.36 1117.81 Q2337.19 1117.81 2334.92 1117.44 Q2332.67 1117.07 2330.27 1116.33 L2330.27 1111.63 Q2332.35 1112.76 2334.57 1113.32 Q2336.8 1113.88 2339.27 1113.88 Q2343.28 1113.88 2345.61 1111.77 Q2347.95 1109.66 2347.95 1106.05 Q2347.95 1102.44 2345.61 1100.33 Q2343.28 1098.23 2339.27 1098.23 Q2337.4 1098.23 2335.52 1098.64 Q2333.67 1099.06 2331.73 1099.94 L2331.73 1082.58 Z" fill="#000000" fill-rule="evenodd" fill-opacity="1" /><path clip-path="url(#clip460)" d="M 0 0 M2285.18 812.965 L2292.81 812.965 L2292.81 786.599 L2284.5 788.266 L2284.5 784.007 L2292.77 782.34 L2297.44 782.34 L2297.44 812.965 L2305.08 812.965 L2305.08 816.9 L2285.18 816.9 L2285.18 812.965 Z" fill="#000000" fill-rule="evenodd" fill-opacity="1" /><path clip-path="url(#clip460)" d="M 0 0 M2314.53 811.02 L2319.41 811.02 L2319.41 816.9 L2314.53 816.9 L2314.53 811.02 Z" fill="#000000" fill-rule="evenodd" fill-opacity="1" /><path clip-path="url(#clip460)" d="M 0 0 M2339.6 785.419 Q2335.99 785.419 2334.16 788.983 Q2332.35 792.525 2332.35 799.655 Q2332.35 806.761 2334.16 810.326 Q2335.99 813.867 2339.6 813.867 Q2343.23 813.867 2345.04 810.326 Q2346.86 806.761 2346.86 799.655 Q2346.86 792.525 2345.04 788.983 Q2343.23 785.419 2339.6 785.419 M2339.6 781.715 Q2345.41 781.715 2348.46 786.321 Q2351.54 790.905 2351.54 799.655 Q2351.54 808.381 2348.46 812.988 Q2345.41 817.571 2339.6 817.571 Q2333.79 817.571 2330.71 812.988 Q2327.65 808.381 2327.65 799.655 Q2327.65 790.905 2330.71 786.321 Q2333.79 781.715 2339.6 781.715 Z" fill="#000000" fill-rule="evenodd" fill-opacity="1" /><path clip-path="url(#clip460)" d="M 0 0 M2285.18 512.725 L2292.81 512.725 L2292.81 486.36 L2284.5 488.027 L2284.5 483.767 L2292.77 482.101 L2297.44 482.101 L2297.44 512.725 L2305.08 512.725 L2305.08 516.661 L2285.18 516.661 L2285.18 512.725 Z" fill="#000000" fill-rule="evenodd" fill-opacity="1" /><path clip-path="url(#clip460)" d="M 0 0 M2314.53 510.781 L2319.41 510.781 L2319.41 516.661 L2314.53 516.661 L2314.53 510.781 Z" fill="#000000" fill-rule="evenodd" fill-opacity="1" /><path clip-path="url(#clip460)" d="M 0 0 M2329.64 482.101 L2348 482.101 L2348 486.036 L2333.92 486.036 L2333.92 494.508 Q2334.94 494.161 2335.96 493.999 Q2336.98 493.814 2338 493.814 Q2343.79 493.814 2347.17 496.985 Q2350.55 500.156 2350.55 505.573 Q2350.55 511.151 2347.07 514.253 Q2343.6 517.332 2337.28 517.332 Q2335.11 517.332 2332.84 516.962 Q2330.59 516.591 2328.18 515.85 L2328.18 511.151 Q2330.27 512.286 2332.49 512.841 Q2334.71 513.397 2337.19 513.397 Q2341.19 513.397 2343.53 511.29 Q2345.87 509.184 2345.87 505.573 Q2345.87 501.962 2343.53 499.855 Q2341.19 497.749 2337.19 497.749 Q2335.31 497.749 2333.44 498.165 Q2331.59 498.582 2329.64 499.462 L2329.64 482.101 Z" fill="#000000" fill-rule="evenodd" fill-opacity="1" /><path clip-path="url(#clip460)" d="M 0 0 M2290.13 212.486 L2306.45 212.486 L2306.45 216.421 L2284.5 216.421 L2284.5 212.486 Q2287.17 209.732 2291.75 205.102 Q2296.36 200.449 2297.54 199.107 Q2299.78 196.584 2300.66 194.847 Q2301.56 193.088 2301.56 191.398 Q2301.56 188.644 2299.62 186.908 Q2297.7 185.172 2294.6 185.172 Q2292.4 185.172 2289.94 185.935 Q2287.51 186.699 2284.74 188.25 L2284.74 183.528 Q2287.56 182.394 2290.01 181.815 Q2292.47 181.236 2294.5 181.236 Q2299.87 181.236 2303.07 183.922 Q2306.26 186.607 2306.26 191.097 Q2306.26 193.227 2305.45 195.148 Q2304.67 197.046 2302.56 199.639 Q2301.98 200.31 2298.88 203.528 Q2295.78 206.722 2290.13 212.486 Z" fill="#000000" fill-rule="evenodd" fill-opacity="1" /><path clip-path="url(#clip460)" d="M 0 0 M2316.26 210.542 L2321.15 210.542 L2321.15 216.421 L2316.26 216.421 L2316.26 210.542 Z" fill="#000000" fill-rule="evenodd" fill-opacity="1" /><path clip-path="url(#clip460)" d="M 0 0 M2341.33 184.94 Q2337.72 184.94 2335.89 188.505 Q2334.09 192.046 2334.09 199.176 Q2334.09 206.283 2335.89 209.847 Q2337.72 213.389 2341.33 213.389 Q2344.97 213.389 2346.77 209.847 Q2348.6 206.283 2348.6 199.176 Q2348.6 192.046 2346.77 188.505 Q2344.97 184.94 2341.33 184.94 M2341.33 181.236 Q2347.14 181.236 2350.2 185.843 Q2353.28 190.426 2353.28 199.176 Q2353.28 207.903 2350.2 212.509 Q2347.14 217.093 2341.33 217.093 Q2335.52 217.093 2332.44 212.509 Q2329.39 207.903 2329.39 199.176 Q2329.39 190.426 2332.44 185.843 Q2335.52 181.236 2341.33 181.236 Z" fill="#000000" fill-rule="evenodd" fill-opacity="1" /><polyline clip-path="url(#clip462)" style="stroke:#ff0000; stroke-width:4; stroke-opacity:1; fill:none" points="
  303.255,1400.1 307.866,1400.1 312.477,1400.09 317.088,1400.07 321.699,1400.02 364.334,1397.52 406.968,1388.35 449.603,1369.39 492.237,1338.71 517.859,1314.2 
  543.48,1285.07 569.102,1251.35 594.723,1213.21 638.049,1139.3 681.374,1054.94 775.501,845.715 862.278,639.39 908.795,531.222 955.312,428.979 1009.21,321.948 
  1063.1,231.239 1087.05,197.139 1111,167.247 1134.94,141.797 1158.89,120.984 1200.89,96.1496 1242.89,86.6476 1265.79,88.0206 1288.68,94.0136 1311.58,104.584 
  1334.47,119.659 1357.5,139.258 1380.54,163.166 1403.57,191.211 1426.6,223.192 1477.53,306.693 1528.46,405.317 1576.91,509.995 1625.37,621.792 1726.14,861.027 
  1810.96,1049.25 1836.85,1101.16 1862.75,1149.64 1888.64,1194.31 1914.53,1234.81 1963.2,1298.81 2011.88,1346.23 2050.87,1372.39 2089.86,1388.89 2128.85,1397.28 
  2167.84,1399.93 2173.84,1400.03 2179.85,1400.08 2185.85,1400.1 2191.85,1400.1 
  "/>
<path clip-path="url(#clip460)" d="
M1855.08 214.613 L2181.77 214.613 L2181.77 93.6527 L1855.08 93.6527  Z
  " fill="#ffffff" fill-rule="evenodd" fill-opacity="1"/>
<polyline clip-path="url(#clip460)" style="stroke:#000000; stroke-width:4; stroke-opacity:1; fill:none" points="
  1855.08,214.613 2181.77,214.613 2181.77,93.6527 1855.08,93.6527 1855.08,214.613 
  "/>
<polyline clip-path="url(#clip460)" style="stroke:#ff0000; stroke-width:4; stroke-opacity:1; fill:none" points="
  1877.32,154.133 2010.78,154.133 
  "/>
<path clip-path="url(#clip460)" d="M 0 0 M2037.7 140.695 L2037.7 153.681 L2043.58 153.681 Q2046.85 153.681 2048.63 151.991 Q2050.41 150.302 2050.41 147.177 Q2050.41 144.075 2048.63 142.385 Q2046.85 140.695 2043.58 140.695 L2037.7 140.695 M2033.03 136.853 L2043.58 136.853 Q2049.39 136.853 2052.36 139.492 Q2055.34 142.107 2055.34 147.177 Q2055.34 152.292 2052.36 154.908 Q2049.39 157.524 2043.58 157.524 L2037.7 157.524 L2037.7 171.413 L2033.03 171.413 L2033.03 136.853 Z" fill="#000000" fill-rule="evenodd" fill-opacity="1" /><path clip-path="url(#clip460)" d="M 0 0 M2075.62 149.468 Q2074.9 149.052 2074.05 148.867 Q2073.21 148.658 2072.19 148.658 Q2068.58 148.658 2066.64 151.019 Q2064.72 153.357 2064.72 157.755 L2064.72 171.413 L2060.44 171.413 L2060.44 145.487 L2064.72 145.487 L2064.72 149.515 Q2066.06 147.154 2068.21 146.019 Q2070.37 144.862 2073.44 144.862 Q2073.88 144.862 2074.42 144.931 Q2074.95 144.978 2075.6 145.093 L2075.62 149.468 Z" fill="#000000" fill-rule="evenodd" fill-opacity="1" /><path clip-path="url(#clip460)" d="M 0 0 M2080.09 145.487 L2084.35 145.487 L2084.35 171.413 L2080.09 171.413 L2080.09 145.487 M2080.09 135.394 L2084.35 135.394 L2084.35 140.788 L2080.09 140.788 L2080.09 135.394 Z" fill="#000000" fill-rule="evenodd" fill-opacity="1" /><path clip-path="url(#clip460)" d="M 0 0 M2103.31 148.473 Q2099.88 148.473 2097.89 151.158 Q2095.9 153.82 2095.9 158.473 Q2095.9 163.126 2097.87 165.811 Q2099.86 168.473 2103.31 168.473 Q2106.71 168.473 2108.7 165.788 Q2110.69 163.103 2110.69 158.473 Q2110.69 153.866 2108.7 151.181 Q2106.71 148.473 2103.31 148.473 M2103.31 144.862 Q2108.86 144.862 2112.03 148.473 Q2115.2 152.084 2115.2 158.473 Q2115.2 164.839 2112.03 168.473 Q2108.86 172.084 2103.31 172.084 Q2097.73 172.084 2094.56 168.473 Q2091.41 164.839 2091.41 158.473 Q2091.41 152.084 2094.56 148.473 Q2097.73 144.862 2103.31 144.862 Z" fill="#000000" fill-rule="evenodd" fill-opacity="1" /><path clip-path="url(#clip460)" d="M 0 0 M2137.29 149.468 Q2136.57 149.052 2135.71 148.867 Q2134.88 148.658 2133.86 148.658 Q2130.25 148.658 2128.31 151.019 Q2126.38 153.357 2126.38 157.755 L2126.38 171.413 L2122.1 171.413 L2122.1 145.487 L2126.38 145.487 L2126.38 149.515 Q2127.73 147.154 2129.88 146.019 Q2132.03 144.862 2135.11 144.862 Q2135.55 144.862 2136.08 144.931 Q2136.62 144.978 2137.26 145.093 L2137.29 149.468 Z" fill="#000000" fill-rule="evenodd" fill-opacity="1" /></svg>
