<?xml version="1.0" encoding="utf-8"?>
<svg xmlns="http://www.w3.org/2000/svg" xmlns:xlink="http://www.w3.org/1999/xlink" width="600" height="400" viewBox="0 0 2400 1600">
<defs>
  <clipPath id="clip440">
    <rect x="0" y="0" width="2400" height="1600"/>
  </clipPath>
</defs>
<path clip-path="url(#clip440)" d="
M0 1600 L2400 1600 L2400 0 L0 0  Z
  " fill="#ffffff" fill-rule="evenodd" fill-opacity="1"/>
<defs>
  <clipPath id="clip441">
    <rect x="480" y="0" width="1681" height="1600"/>
  </clipPath>
</defs>
<path clip-path="url(#clip440)" d="
M249.542 1442.52 L2352.76 1442.52 L2352.76 47.2441 L249.542 47.2441  Z
  " fill="#ffffff" fill-rule="evenodd" fill-opacity="1"/>
<defs>
  <clipPath id="clip442">
    <rect x="249" y="47" width="2104" height="1396"/>
  </clipPath>
</defs>
<polyline clip-path="url(#clip442)" style="stroke:#000000; stroke-width:2; stroke-opacity:0.1; fill:none" points="
  309.067,1442.52 309.067,47.2441 
  "/>
<polyline clip-path="url(#clip442)" style="stroke:#000000; stroke-width:2; stroke-opacity:0.1; fill:none" points="
  507.483,1442.52 507.483,47.2441 
  "/>
<polyline clip-path="url(#clip442)" style="stroke:#000000; stroke-width:2; stroke-opacity:0.1; fill:none" points="
  705.9,1442.52 705.9,47.2441 
  "/>
<polyline clip-path="url(#clip442)" style="stroke:#000000; stroke-width:2; stroke-opacity:0.1; fill:none" points="
  904.316,1442.52 904.316,47.2441 
  "/>
<polyline clip-path="url(#clip442)" style="stroke:#000000; stroke-width:2; stroke-opacity:0.1; fill:none" points="
  1102.73,1442.52 1102.73,47.2441 
  "/>
<polyline clip-path="url(#clip442)" style="stroke:#000000; stroke-width:2; stroke-opacity:0.1; fill:none" points="
  1301.15,1442.52 1301.15,47.2441 
  "/>
<polyline clip-path="url(#clip442)" style="stroke:#000000; stroke-width:2; stroke-opacity:0.1; fill:none" points="
  1499.57,1442.52 1499.57,47.2441 
  "/>
<polyline clip-path="url(#clip442)" style="stroke:#000000; stroke-width:2; stroke-opacity:0.1; fill:none" points="
  1697.98,1442.52 1697.98,47.2441 
  "/>
<polyline clip-path="url(#clip442)" style="stroke:#000000; stroke-width:2; stroke-opacity:0.1; fill:none" points="
  1896.4,1442.52 1896.4,47.2441 
  "/>
<polyline clip-path="url(#clip442)" style="stroke:#000000; stroke-width:2; stroke-opacity:0.1; fill:none" points="
  2094.81,1442.52 2094.81,47.2441 
  "/>
<polyline clip-path="url(#clip442)" style="stroke:#000000; stroke-width:2; stroke-opacity:0.1; fill:none" points="
  2293.23,1442.52 2293.23,47.2441 
  "/>
<polyline clip-path="url(#clip440)" style="stroke:#000000; stroke-width:4; stroke-opacity:1; fill:none" points="
  249.542,1442.52 2352.76,1442.52 
  "/>
<polyline clip-path="url(#clip440)" style="stroke:#000000; stroke-width:4; stroke-opacity:1; fill:none" points="
  309.067,1442.52 309.067,1425.78 
  "/>
<polyline clip-path="url(#clip440)" style="stroke:#000000; stroke-width:4; stroke-opacity:1; fill:none" points="
  507.483,1442.52 507.483,1425.78 
  "/>
<polyline clip-path="url(#clip440)" style="stroke:#000000; stroke-width:4; stroke-opacity:1; fill:none" points="
  705.9,1442.52 705.9,1425.78 
  "/>
<polyline clip-path="url(#clip440)" style="stroke:#000000; stroke-width:4; stroke-opacity:1; fill:none" points="
  904.316,1442.52 904.316,1425.78 
  "/>
<polyline clip-path="url(#clip440)" style="stroke:#000000; stroke-width:4; stroke-opacity:1; fill:none" points="
  1102.73,1442.52 1102.73,1425.78 
  "/>
<polyline clip-path="url(#clip440)" style="stroke:#000000; stroke-width:4; stroke-opacity:1; fill:none" points="
  1301.15,1442.52 1301.15,1425.78 
  "/>
<polyline clip-path="url(#clip440)" style="stroke:#000000; stroke-width:4; stroke-opacity:1; fill:none" points="
  1499.57,1442.52 1499.57,1425.78 
  "/>
<polyline clip-path="url(#clip440)" style="stroke:#000000; stroke-width:4; stroke-opacity:1; fill:none" points="
  1697.98,1442.52 1697.98,1425.78 
  "/>
<polyline clip-path="url(#clip440)" style="stroke:#000000; stroke-width:4; stroke-opacity:1; fill:none" points="
  1896.4,1442.52 1896.4,1425.78 
  "/>
<polyline clip-path="url(#clip440)" style="stroke:#000000; stroke-width:4; stroke-opacity:1; fill:none" points="
  2094.81,1442.52 2094.81,1425.78 
  "/>
<polyline clip-path="url(#clip440)" style="stroke:#000000; stroke-width:4; stroke-opacity:1; fill:none" points="
  2293.23,1442.52 2293.23,1425.78 
  "/>
<path clip-path="url(#clip440)" d="M 0 0 M309.067 1471.71 Q305.456 1471.71 303.627 1475.28 Q301.822 1478.82 301.822 1485.95 Q301.822 1493.06 303.627 1496.62 Q305.456 1500.16 309.067 1500.16 Q312.701 1500.16 314.507 1496.62 Q316.335 1493.06 316.335 1485.95 Q316.335 1478.82 314.507 1475.28 Q312.701 1471.71 309.067 1471.71 M309.067 1468.01 Q314.877 1468.01 317.933 1472.62 Q321.011 1477.2 321.011 1485.95 Q321.011 1494.68 317.933 1499.28 Q314.877 1503.87 309.067 1503.87 Q303.257 1503.87 300.178 1499.28 Q297.123 1494.68 297.123 1485.95 Q297.123 1477.2 300.178 1472.62 Q303.257 1468.01 309.067 1468.01 Z" fill="#000000" fill-rule="evenodd" fill-opacity="1" /><path clip-path="url(#clip440)" d="M 0 0 M497.865 1499.26 L505.504 1499.26 L505.504 1472.89 L497.194 1474.56 L497.194 1470.3 L505.458 1468.63 L510.134 1468.63 L510.134 1499.26 L517.773 1499.26 L517.773 1503.19 L497.865 1503.19 L497.865 1499.26 Z" fill="#000000" fill-rule="evenodd" fill-opacity="1" /><path clip-path="url(#clip440)" d="M 0 0 M700.553 1499.26 L716.872 1499.26 L716.872 1503.19 L694.928 1503.19 L694.928 1499.26 Q697.59 1496.5 702.173 1491.88 Q706.779 1487.22 707.96 1485.88 Q710.205 1483.36 711.085 1481.62 Q711.988 1479.86 711.988 1478.17 Q711.988 1475.42 710.043 1473.68 Q708.122 1471.94 705.02 1471.94 Q702.821 1471.94 700.367 1472.71 Q697.937 1473.47 695.159 1475.02 L695.159 1470.3 Q697.983 1469.17 700.437 1468.59 Q702.891 1468.01 704.928 1468.01 Q710.298 1468.01 713.492 1470.69 Q716.687 1473.38 716.687 1477.87 Q716.687 1480 715.877 1481.92 Q715.09 1483.82 712.983 1486.41 Q712.404 1487.08 709.303 1490.3 Q706.201 1493.5 700.553 1499.26 Z" fill="#000000" fill-rule="evenodd" fill-opacity="1" /><path clip-path="url(#clip440)" d="M 0 0 M908.564 1484.56 Q911.92 1485.28 913.795 1487.55 Q915.693 1489.82 915.693 1493.15 Q915.693 1498.26 912.175 1501.07 Q908.656 1503.87 902.175 1503.87 Q899.999 1503.87 897.684 1503.43 Q895.393 1503.01 892.939 1502.15 L892.939 1497.64 Q894.883 1498.77 897.198 1499.35 Q899.513 1499.93 902.036 1499.93 Q906.434 1499.93 908.726 1498.19 Q911.041 1496.46 911.041 1493.15 Q911.041 1490.09 908.888 1488.38 Q906.758 1486.64 902.939 1486.64 L898.911 1486.64 L898.911 1482.8 L903.124 1482.8 Q906.573 1482.8 908.402 1481.44 Q910.23 1480.05 910.23 1477.45 Q910.23 1474.79 908.332 1473.38 Q906.457 1471.94 902.939 1471.94 Q901.018 1471.94 898.819 1472.36 Q896.619 1472.78 893.981 1473.66 L893.981 1469.49 Q896.643 1468.75 898.957 1468.38 Q901.295 1468.01 903.356 1468.01 Q908.68 1468.01 911.781 1470.44 Q914.883 1472.85 914.883 1476.97 Q914.883 1479.84 913.24 1481.83 Q911.596 1483.8 908.564 1484.56 Z" fill="#000000" fill-rule="evenodd" fill-opacity="1" /><path clip-path="url(#clip440)" d="M 0 0 M1105.74 1472.71 L1093.94 1491.16 L1105.74 1491.16 L1105.74 1472.71 M1104.51 1468.63 L1110.39 1468.63 L1110.39 1491.16 L1115.33 1491.16 L1115.33 1495.05 L1110.39 1495.05 L1110.39 1503.19 L1105.74 1503.19 L1105.74 1495.05 L1090.14 1495.05 L1090.14 1490.53 L1104.51 1468.63 Z" fill="#000000" fill-rule="evenodd" fill-opacity="1" /><path clip-path="url(#clip440)" d="M 0 0 M1291.43 1468.63 L1309.78 1468.63 L1309.78 1472.57 L1295.71 1472.57 L1295.71 1481.04 Q1296.73 1480.69 1297.75 1480.53 Q1298.76 1480.35 1299.78 1480.35 Q1305.57 1480.35 1308.95 1483.52 Q1312.33 1486.69 1312.33 1492.11 Q1312.33 1497.69 1308.86 1500.79 Q1305.39 1503.87 1299.07 1503.87 Q1296.89 1503.87 1294.62 1503.5 Q1292.38 1503.13 1289.97 1502.38 L1289.97 1497.69 Q1292.05 1498.82 1294.27 1499.38 Q1296.5 1499.93 1298.97 1499.93 Q1302.98 1499.93 1305.32 1497.82 Q1307.65 1495.72 1307.65 1492.11 Q1307.65 1488.5 1305.32 1486.39 Q1302.98 1484.28 1298.97 1484.28 Q1297.1 1484.28 1295.22 1484.7 Q1293.37 1485.12 1291.43 1486 L1291.43 1468.63 Z" fill="#000000" fill-rule="evenodd" fill-opacity="1" /><path clip-path="url(#clip440)" d="M 0 0 M1499.97 1484.05 Q1496.82 1484.05 1494.97 1486.2 Q1493.14 1488.36 1493.14 1492.11 Q1493.14 1495.83 1494.97 1498.01 Q1496.82 1500.16 1499.97 1500.16 Q1503.12 1500.16 1504.95 1498.01 Q1506.8 1495.83 1506.8 1492.11 Q1506.8 1488.36 1504.95 1486.2 Q1503.12 1484.05 1499.97 1484.05 M1509.25 1469.4 L1509.25 1473.66 Q1507.49 1472.82 1505.69 1472.38 Q1503.91 1471.94 1502.15 1471.94 Q1497.52 1471.94 1495.06 1475.07 Q1492.63 1478.19 1492.29 1484.51 Q1493.65 1482.5 1495.71 1481.44 Q1497.77 1480.35 1500.25 1480.35 Q1505.46 1480.35 1508.47 1483.52 Q1511.5 1486.67 1511.5 1492.11 Q1511.5 1497.43 1508.35 1500.65 Q1505.2 1503.87 1499.97 1503.87 Q1493.98 1503.87 1490.8 1499.28 Q1487.63 1494.68 1487.63 1485.95 Q1487.63 1477.76 1491.52 1472.89 Q1495.41 1468.01 1501.96 1468.01 Q1503.72 1468.01 1505.5 1468.36 Q1507.31 1468.7 1509.25 1469.4 Z" fill="#000000" fill-rule="evenodd" fill-opacity="1" /><path clip-path="url(#clip440)" d="M 0 0 M1686.87 1468.63 L1709.09 1468.63 L1709.09 1470.63 L1696.55 1503.19 L1691.66 1503.19 L1703.47 1472.57 L1686.87 1472.57 L1686.87 1468.63 Z" fill="#000000" fill-rule="evenodd" fill-opacity="1" /><path clip-path="url(#clip440)" d="M 0 0 M1896.4 1486.78 Q1893.06 1486.78 1891.14 1488.57 Q1889.25 1490.35 1889.25 1493.47 Q1889.25 1496.6 1891.14 1498.38 Q1893.06 1500.16 1896.4 1500.16 Q1899.73 1500.16 1901.65 1498.38 Q1903.57 1496.57 1903.57 1493.47 Q1903.57 1490.35 1901.65 1488.57 Q1899.75 1486.78 1896.4 1486.78 M1891.72 1484.79 Q1888.71 1484.05 1887.02 1481.99 Q1885.36 1479.93 1885.36 1476.97 Q1885.36 1472.82 1888.3 1470.42 Q1891.26 1468.01 1896.4 1468.01 Q1901.56 1468.01 1904.5 1470.42 Q1907.44 1472.82 1907.44 1476.97 Q1907.44 1479.93 1905.75 1481.99 Q1904.08 1484.05 1901.1 1484.79 Q1904.48 1485.58 1906.35 1487.87 Q1908.25 1490.16 1908.25 1493.47 Q1908.25 1498.5 1905.17 1501.18 Q1902.12 1503.87 1896.4 1503.87 Q1890.68 1503.87 1887.6 1501.18 Q1884.55 1498.5 1884.55 1493.47 Q1884.55 1490.16 1886.44 1487.87 Q1888.34 1485.58 1891.72 1484.79 M1890.01 1477.41 Q1890.01 1480.09 1891.68 1481.6 Q1893.37 1483.1 1896.4 1483.1 Q1899.41 1483.1 1901.1 1481.6 Q1902.81 1480.09 1902.81 1477.41 Q1902.81 1474.72 1901.1 1473.22 Q1899.41 1471.71 1896.4 1471.71 Q1893.37 1471.71 1891.68 1473.22 Q1890.01 1474.72 1890.01 1477.41 Z" fill="#000000" fill-rule="evenodd" fill-opacity="1" /><path clip-path="url(#clip440)" d="M 0 0 M2085.12 1502.48 L2085.12 1498.22 Q2086.87 1499.05 2088.68 1499.49 Q2090.49 1499.93 2092.22 1499.93 Q2096.85 1499.93 2099.28 1496.83 Q2101.74 1493.7 2102.08 1487.36 Q2100.74 1489.35 2098.68 1490.42 Q2096.62 1491.48 2094.12 1491.48 Q2088.93 1491.48 2085.9 1488.36 Q2082.89 1485.21 2082.89 1479.77 Q2082.89 1474.44 2086.04 1471.23 Q2089.19 1468.01 2094.42 1468.01 Q2100.42 1468.01 2103.56 1472.62 Q2106.74 1477.2 2106.74 1485.95 Q2106.74 1494.12 2102.85 1499 Q2098.98 1503.87 2092.43 1503.87 Q2090.67 1503.87 2088.87 1503.52 Q2087.06 1503.17 2085.12 1502.48 M2094.42 1487.82 Q2097.57 1487.82 2099.4 1485.67 Q2101.25 1483.52 2101.25 1479.77 Q2101.25 1476.04 2099.4 1473.89 Q2097.57 1471.71 2094.42 1471.71 Q2091.27 1471.71 2089.42 1473.89 Q2087.59 1476.04 2087.59 1479.77 Q2087.59 1483.52 2089.42 1485.67 Q2091.27 1487.82 2094.42 1487.82 Z" fill="#000000" fill-rule="evenodd" fill-opacity="1" /><path clip-path="url(#clip440)" d="M 0 0 M2267.92 1499.26 L2275.56 1499.26 L2275.56 1472.89 L2267.25 1474.56 L2267.25 1470.3 L2275.51 1468.63 L2280.19 1468.63 L2280.19 1499.26 L2287.83 1499.26 L2287.83 1503.19 L2267.92 1503.19 L2267.92 1499.26 Z" fill="#000000" fill-rule="evenodd" fill-opacity="1" /><path clip-path="url(#clip440)" d="M 0 0 M2307.27 1471.71 Q2303.66 1471.71 2301.83 1475.28 Q2300.02 1478.82 2300.02 1485.95 Q2300.02 1493.06 2301.83 1496.62 Q2303.66 1500.16 2307.27 1500.16 Q2310.9 1500.16 2312.71 1496.62 Q2314.54 1493.06 2314.54 1485.95 Q2314.54 1478.82 2312.71 1475.28 Q2310.9 1471.71 2307.27 1471.71 M2307.27 1468.01 Q2313.08 1468.01 2316.14 1472.62 Q2319.21 1477.2 2319.21 1485.95 Q2319.21 1494.68 2316.14 1499.28 Q2313.08 1503.87 2307.27 1503.87 Q2301.46 1503.87 2298.38 1499.28 Q2295.33 1494.68 2295.33 1485.95 Q2295.33 1477.2 2298.38 1472.62 Q2301.46 1468.01 2307.27 1468.01 Z" fill="#000000" fill-rule="evenodd" fill-opacity="1" /><path clip-path="url(#clip440)" d="M 0 0 M1315.59 1528.38 Q1315.59 1528.83 1315.3 1529.89 L1308.98 1555.08 Q1307.6 1560.68 1303.09 1564.61 Q1298.61 1568.54 1293.53 1568.54 Q1290.47 1568.54 1288.5 1566.9 Q1286.54 1565.28 1286.54 1562.81 Q1286.54 1560.62 1287.7 1559.55 Q1288.86 1558.52 1290.24 1558.52 Q1290.69 1558.52 1291.17 1558.65 Q1291.66 1558.78 1292.17 1559.33 Q1292.69 1559.87 1292.69 1560.81 Q1292.69 1562.32 1291.37 1563.51 Q1290.72 1564.06 1290.11 1564.19 Q1289.53 1564.32 1288.53 1564.32 Q1288.92 1565.22 1289.63 1565.83 Q1290.34 1566.44 1291.14 1566.67 Q1291.95 1566.93 1292.46 1566.99 Q1293.01 1567.09 1293.53 1567.09 Q1297.65 1567.09 1300.8 1562.93 Q1301.74 1561.68 1302.41 1560.42 Q1303.12 1559.2 1303.64 1557.68 Q1304.15 1556.2 1304.38 1555.4 Q1304.64 1554.59 1305.09 1552.76 Q1302.09 1555.75 1298.42 1555.75 Q1296.87 1555.75 1295.49 1555.33 Q1294.14 1554.91 1292.95 1554.05 Q1291.75 1553.14 1291.05 1551.57 Q1290.37 1549.99 1290.37 1547.89 Q1290.37 1545.67 1291.24 1542.64 Q1292.11 1539.62 1294.2 1534.05 Q1295.33 1530.92 1295.33 1529.41 Q1295.33 1528.67 1295.17 1528.22 Q1295.01 1527.73 1294.68 1527.57 Q1294.36 1527.38 1294.17 1527.35 Q1294.01 1527.31 1293.69 1527.31 Q1291.79 1527.31 1290.01 1529.25 Q1288.24 1531.18 1287.02 1535.49 Q1286.76 1536.3 1286.6 1536.49 Q1286.44 1536.69 1285.96 1536.69 Q1285.15 1536.65 1285.15 1536.01 Q1285.15 1535.75 1285.44 1534.75 Q1285.73 1533.72 1286.41 1532.21 Q1287.12 1530.66 1288.08 1529.28 Q1289.05 1527.86 1290.56 1526.86 Q1292.11 1525.86 1293.88 1525.86 Q1296.3 1525.86 1297.78 1527.44 Q1299.29 1528.99 1299.29 1531.28 Q1299.29 1532.21 1299.03 1533.05 Q1298.81 1533.85 1297.97 1536.01 Q1294.59 1544.71 1294.59 1548.96 Q1294.59 1549.99 1294.75 1550.86 Q1294.94 1551.69 1295.36 1552.53 Q1295.78 1553.34 1296.62 1553.82 Q1297.49 1554.27 1298.68 1554.27 Q1300.19 1554.27 1301.61 1553.56 Q1303.06 1552.82 1303.96 1551.82 Q1304.89 1550.82 1305.44 1549.99 Q1306.02 1549.12 1306.15 1548.67 L1309.11 1536.81 L1310.43 1531.53 Q1311.05 1528.67 1311.34 1527.96 Q1311.72 1527.28 1312.4 1526.93 Q1313.07 1526.57 1313.65 1526.57 Q1314.46 1526.57 1315.01 1527.06 Q1315.59 1527.54 1315.59 1528.38 Z" fill="#000000" fill-rule="evenodd" fill-opacity="1" /><polyline clip-path="url(#clip442)" style="stroke:#000000; stroke-width:2; stroke-opacity:0.1; fill:none" points="
  249.542,1404.32 2352.76,1404.32 
  "/>
<polyline clip-path="url(#clip442)" style="stroke:#000000; stroke-width:2; stroke-opacity:0.1; fill:none" points="
  249.542,1074.92 2352.76,1074.92 
  "/>
<polyline clip-path="url(#clip442)" style="stroke:#000000; stroke-width:2; stroke-opacity:0.1; fill:none" points="
  249.542,745.527 2352.76,745.527 
  "/>
<polyline clip-path="url(#clip442)" style="stroke:#000000; stroke-width:2; stroke-opacity:0.1; fill:none" points="
  249.542,416.13 2352.76,416.13 
  "/>
<polyline clip-path="url(#clip442)" style="stroke:#000000; stroke-width:2; stroke-opacity:0.1; fill:none" points="
  249.542,86.7331 2352.76,86.7331 
  "/>
<polyline clip-path="url(#clip440)" style="stroke:#000000; stroke-width:4; stroke-opacity:1; fill:none" points="
  249.542,1442.52 249.542,47.2441 
  "/>
<polyline clip-path="url(#clip440)" style="stroke:#000000; stroke-width:4; stroke-opacity:1; fill:none" points="
  249.542,1404.32 274.781,1404.32 
  "/>
<polyline clip-path="url(#clip440)" style="stroke:#000000; stroke-width:4; stroke-opacity:1; fill:none" points="
  249.542,1074.92 274.781,1074.92 
  "/>
<polyline clip-path="url(#clip440)" style="stroke:#000000; stroke-width:4; stroke-opacity:1; fill:none" points="
  249.542,745.527 274.781,745.527 
  "/>
<polyline clip-path="url(#clip440)" style="stroke:#000000; stroke-width:4; stroke-opacity:1; fill:none" points="
  249.542,416.13 274.781,416.13 
  "/>
<polyline clip-path="url(#clip440)" style="stroke:#000000; stroke-width:4; stroke-opacity:1; fill:none" points="
  249.542,86.7331 274.781,86.7331 
  "/>
<path clip-path="url(#clip440)" d="M 0 0 M126.205 1390.12 Q122.593 1390.12 120.765 1393.68 Q118.959 1397.23 118.959 1404.36 Q118.959 1411.46 120.765 1415.03 Q122.593 1418.57 126.205 1418.57 Q129.839 1418.57 131.644 1415.03 Q133.473 1411.46 133.473 1404.36 Q133.473 1397.23 131.644 1393.68 Q129.839 1390.12 126.205 1390.12 M126.205 1386.42 Q132.015 1386.42 135.07 1391.02 Q138.149 1395.61 138.149 1404.36 Q138.149 1413.08 135.07 1417.69 Q132.015 1422.27 126.205 1422.27 Q120.394 1422.27 117.316 1417.69 Q114.26 1413.08 114.26 1404.36 Q114.26 1395.61 117.316 1391.02 Q120.394 1386.42 126.205 1386.42 Z" fill="#000000" fill-rule="evenodd" fill-opacity="1" /><path clip-path="url(#clip440)" d="M 0 0 M146.366 1415.72 L151.251 1415.72 L151.251 1421.6 L146.366 1421.6 L146.366 1415.72 Z" fill="#000000" fill-rule="evenodd" fill-opacity="1" /><path clip-path="url(#clip440)" d="M 0 0 M171.436 1390.12 Q167.825 1390.12 165.996 1393.68 Q164.19 1397.23 164.19 1404.36 Q164.19 1411.46 165.996 1415.03 Q167.825 1418.57 171.436 1418.57 Q175.07 1418.57 176.876 1415.03 Q178.704 1411.46 178.704 1404.36 Q178.704 1397.23 176.876 1393.68 Q175.07 1390.12 171.436 1390.12 M171.436 1386.42 Q177.246 1386.42 180.301 1391.02 Q183.38 1395.61 183.38 1404.36 Q183.38 1413.08 180.301 1417.69 Q177.246 1422.27 171.436 1422.27 Q165.626 1422.27 162.547 1417.69 Q159.491 1413.08 159.491 1404.36 Q159.491 1395.61 162.547 1391.02 Q165.626 1386.42 171.436 1386.42 Z" fill="#000000" fill-rule="evenodd" fill-opacity="1" /><path clip-path="url(#clip440)" d="M 0 0 M201.598 1390.12 Q197.987 1390.12 196.158 1393.68 Q194.352 1397.23 194.352 1404.36 Q194.352 1411.46 196.158 1415.03 Q197.987 1418.57 201.598 1418.57 Q205.232 1418.57 207.037 1415.03 Q208.866 1411.46 208.866 1404.36 Q208.866 1397.23 207.037 1393.68 Q205.232 1390.12 201.598 1390.12 M201.598 1386.42 Q207.408 1386.42 210.463 1391.02 Q213.542 1395.61 213.542 1404.36 Q213.542 1413.08 210.463 1417.69 Q207.408 1422.27 201.598 1422.27 Q195.787 1422.27 192.709 1417.69 Q189.653 1413.08 189.653 1404.36 Q189.653 1395.61 192.709 1391.02 Q195.787 1386.42 201.598 1386.42 Z" fill="#000000" fill-rule="evenodd" fill-opacity="1" /><path clip-path="url(#clip440)" d="M 0 0 M127.2 1060.72 Q123.589 1060.72 121.76 1064.29 Q119.955 1067.83 119.955 1074.96 Q119.955 1082.06 121.76 1085.63 Q123.589 1089.17 127.2 1089.17 Q130.834 1089.17 132.64 1085.63 Q134.468 1082.06 134.468 1074.96 Q134.468 1067.83 132.64 1064.29 Q130.834 1060.72 127.2 1060.72 M127.2 1057.02 Q133.01 1057.02 136.066 1061.63 Q139.144 1066.21 139.144 1074.96 Q139.144 1083.69 136.066 1088.29 Q133.01 1092.87 127.2 1092.87 Q121.39 1092.87 118.311 1088.29 Q115.256 1083.69 115.256 1074.96 Q115.256 1066.21 118.311 1061.63 Q121.39 1057.02 127.2 1057.02 Z" fill="#000000" fill-rule="evenodd" fill-opacity="1" /><path clip-path="url(#clip440)" d="M 0 0 M147.362 1086.32 L152.246 1086.32 L152.246 1092.2 L147.362 1092.2 L147.362 1086.32 Z" fill="#000000" fill-rule="evenodd" fill-opacity="1" /><path clip-path="url(#clip440)" d="M 0 0 M166.459 1088.27 L182.778 1088.27 L182.778 1092.2 L160.834 1092.2 L160.834 1088.27 Q163.496 1085.51 168.079 1080.88 Q172.686 1076.23 173.866 1074.89 Q176.112 1072.37 176.991 1070.63 Q177.894 1068.87 177.894 1067.18 Q177.894 1064.43 175.95 1062.69 Q174.028 1060.95 170.927 1060.95 Q168.727 1060.95 166.274 1061.72 Q163.843 1062.48 161.065 1064.03 L161.065 1059.31 Q163.89 1058.18 166.343 1057.6 Q168.797 1057.02 170.834 1057.02 Q176.204 1057.02 179.399 1059.7 Q182.593 1062.39 182.593 1066.88 Q182.593 1069.01 181.783 1070.93 Q180.996 1072.83 178.889 1075.42 Q178.311 1076.09 175.209 1079.31 Q172.107 1082.5 166.459 1088.27 Z" fill="#000000" fill-rule="evenodd" fill-opacity="1" /><path clip-path="url(#clip440)" d="M 0 0 M192.639 1057.64 L210.996 1057.64 L210.996 1061.58 L196.922 1061.58 L196.922 1070.05 Q197.94 1069.7 198.959 1069.54 Q199.977 1069.36 200.996 1069.36 Q206.783 1069.36 210.162 1072.53 Q213.542 1075.7 213.542 1081.12 Q213.542 1086.69 210.07 1089.8 Q206.598 1092.87 200.278 1092.87 Q198.102 1092.87 195.834 1092.5 Q193.588 1092.13 191.181 1091.39 L191.181 1086.69 Q193.264 1087.83 195.487 1088.38 Q197.709 1088.94 200.186 1088.94 Q204.19 1088.94 206.528 1086.83 Q208.866 1084.73 208.866 1081.12 Q208.866 1077.5 206.528 1075.4 Q204.19 1073.29 200.186 1073.29 Q198.311 1073.29 196.436 1073.71 Q194.584 1074.13 192.639 1075 L192.639 1057.64 Z" fill="#000000" fill-rule="evenodd" fill-opacity="1" /><path clip-path="url(#clip440)" d="M 0 0 M126.205 731.325 Q122.593 731.325 120.765 734.89 Q118.959 738.432 118.959 745.562 Q118.959 752.668 120.765 756.233 Q122.593 759.774 126.205 759.774 Q129.839 759.774 131.644 756.233 Q133.473 752.668 133.473 745.562 Q133.473 738.432 131.644 734.89 Q129.839 731.325 126.205 731.325 M126.205 727.622 Q132.015 727.622 135.07 732.228 Q138.149 736.812 138.149 745.562 Q138.149 754.288 135.07 758.895 Q132.015 763.478 126.205 763.478 Q120.394 763.478 117.316 758.895 Q114.26 754.288 114.26 745.562 Q114.26 736.812 117.316 732.228 Q120.394 727.622 126.205 727.622 Z" fill="#000000" fill-rule="evenodd" fill-opacity="1" /><path clip-path="url(#clip440)" d="M 0 0 M146.366 756.927 L151.251 756.927 L151.251 762.807 L146.366 762.807 L146.366 756.927 Z" fill="#000000" fill-rule="evenodd" fill-opacity="1" /><path clip-path="url(#clip440)" d="M 0 0 M161.482 728.247 L179.839 728.247 L179.839 732.182 L165.765 732.182 L165.765 740.654 Q166.783 740.307 167.802 740.145 Q168.82 739.96 169.839 739.96 Q175.626 739.96 179.005 743.131 Q182.385 746.302 182.385 751.719 Q182.385 757.298 178.913 760.399 Q175.44 763.478 169.121 763.478 Q166.945 763.478 164.677 763.108 Q162.431 762.737 160.024 761.997 L160.024 757.298 Q162.107 758.432 164.329 758.987 Q166.552 759.543 169.028 759.543 Q173.033 759.543 175.371 757.436 Q177.709 755.33 177.709 751.719 Q177.709 748.108 175.371 746.001 Q173.033 743.895 169.028 743.895 Q167.153 743.895 165.278 744.312 Q163.427 744.728 161.482 745.608 L161.482 728.247 Z" fill="#000000" fill-rule="evenodd" fill-opacity="1" /><path clip-path="url(#clip440)" d="M 0 0 M201.598 731.325 Q197.987 731.325 196.158 734.89 Q194.352 738.432 194.352 745.562 Q194.352 752.668 196.158 756.233 Q197.987 759.774 201.598 759.774 Q205.232 759.774 207.037 756.233 Q208.866 752.668 208.866 745.562 Q208.866 738.432 207.037 734.89 Q205.232 731.325 201.598 731.325 M201.598 727.622 Q207.408 727.622 210.463 732.228 Q213.542 736.812 213.542 745.562 Q213.542 754.288 210.463 758.895 Q207.408 763.478 201.598 763.478 Q195.787 763.478 192.709 758.895 Q189.653 754.288 189.653 745.562 Q189.653 736.812 192.709 732.228 Q195.787 727.622 201.598 727.622 Z" fill="#000000" fill-rule="evenodd" fill-opacity="1" /><path clip-path="url(#clip440)" d="M 0 0 M127.2 401.929 Q123.589 401.929 121.76 405.493 Q119.955 409.035 119.955 416.165 Q119.955 423.271 121.76 426.836 Q123.589 430.378 127.2 430.378 Q130.834 430.378 132.64 426.836 Q134.468 423.271 134.468 416.165 Q134.468 409.035 132.64 405.493 Q130.834 401.929 127.2 401.929 M127.2 398.225 Q133.01 398.225 136.066 402.831 Q139.144 407.415 139.144 416.165 Q139.144 424.891 136.066 429.498 Q133.01 434.081 127.2 434.081 Q121.39 434.081 118.311 429.498 Q115.256 424.891 115.256 416.165 Q115.256 407.415 118.311 402.831 Q121.39 398.225 127.2 398.225 Z" fill="#000000" fill-rule="evenodd" fill-opacity="1" /><path clip-path="url(#clip440)" d="M 0 0 M147.362 427.53 L152.246 427.53 L152.246 433.41 L147.362 433.41 L147.362 427.53 Z" fill="#000000" fill-rule="evenodd" fill-opacity="1" /><path clip-path="url(#clip440)" d="M 0 0 M161.251 398.85 L183.473 398.85 L183.473 400.841 L170.927 433.41 L166.042 433.41 L177.848 402.785 L161.251 402.785 L161.251 398.85 Z" fill="#000000" fill-rule="evenodd" fill-opacity="1" /><path clip-path="url(#clip440)" d="M 0 0 M192.639 398.85 L210.996 398.85 L210.996 402.785 L196.922 402.785 L196.922 411.257 Q197.94 410.91 198.959 410.748 Q199.977 410.563 200.996 410.563 Q206.783 410.563 210.162 413.734 Q213.542 416.905 213.542 422.322 Q213.542 427.901 210.07 431.003 Q206.598 434.081 200.278 434.081 Q198.102 434.081 195.834 433.711 Q193.588 433.341 191.181 432.6 L191.181 427.901 Q193.264 429.035 195.487 429.591 Q197.709 430.146 200.186 430.146 Q204.19 430.146 206.528 428.04 Q208.866 425.933 208.866 422.322 Q208.866 418.711 206.528 416.604 Q204.19 414.498 200.186 414.498 Q198.311 414.498 196.436 414.915 Q194.584 415.331 192.639 416.211 L192.639 398.85 Z" fill="#000000" fill-rule="evenodd" fill-opacity="1" /><path clip-path="url(#clip440)" d="M 0 0 M117.015 100.078 L124.654 100.078 L124.654 73.7123 L116.343 75.379 L116.343 71.1198 L124.607 69.4531 L129.283 69.4531 L129.283 100.078 L136.922 100.078 L136.922 104.013 L117.015 104.013 L117.015 100.078 Z" fill="#000000" fill-rule="evenodd" fill-opacity="1" /><path clip-path="url(#clip440)" d="M 0 0 M146.366 98.1335 L151.251 98.1335 L151.251 104.013 L146.366 104.013 L146.366 98.1335 Z" fill="#000000" fill-rule="evenodd" fill-opacity="1" /><path clip-path="url(#clip440)" d="M 0 0 M171.436 72.5318 Q167.825 72.5318 165.996 76.0966 Q164.19 79.6382 164.19 86.7678 Q164.19 93.8743 165.996 97.4391 Q167.825 100.981 171.436 100.981 Q175.07 100.981 176.876 97.4391 Q178.704 93.8743 178.704 86.7678 Q178.704 79.6382 176.876 76.0966 Q175.07 72.5318 171.436 72.5318 M171.436 68.8281 Q177.246 68.8281 180.301 73.4346 Q183.38 78.0179 183.38 86.7678 Q183.38 95.4946 180.301 100.101 Q177.246 104.684 171.436 104.684 Q165.626 104.684 162.547 100.101 Q159.491 95.4946 159.491 86.7678 Q159.491 78.0179 162.547 73.4346 Q165.626 68.8281 171.436 68.8281 Z" fill="#000000" fill-rule="evenodd" fill-opacity="1" /><path clip-path="url(#clip440)" d="M 0 0 M201.598 72.5318 Q197.987 72.5318 196.158 76.0966 Q194.352 79.6382 194.352 86.7678 Q194.352 93.8743 196.158 97.4391 Q197.987 100.981 201.598 100.981 Q205.232 100.981 207.037 97.4391 Q208.866 93.8743 208.866 86.7678 Q208.866 79.6382 207.037 76.0966 Q205.232 72.5318 201.598 72.5318 M201.598 68.8281 Q207.408 68.8281 210.463 73.4346 Q213.542 78.0179 213.542 86.7678 Q213.542 95.4946 210.463 100.101 Q207.408 104.684 201.598 104.684 Q195.787 104.684 192.709 100.101 Q189.653 95.4946 189.653 86.7678 Q189.653 78.0179 192.709 73.4346 Q195.787 68.8281 201.598 68.8281 Z" fill="#000000" fill-rule="evenodd" fill-opacity="1" /><path clip-path="url(#clip440)" d="M 0 0 M29.7248 765.588 L35.1993 765.588 Q33.8307 768.071 33.1623 770.585 Q32.4621 773.068 32.4621 775.614 Q32.4621 781.311 36.0905 784.462 Q39.6872 787.613 46.212 787.613 Q52.7369 787.613 56.3653 784.462 Q59.9619 781.311 59.9619 775.614 Q59.9619 773.068 59.2935 770.585 Q58.5933 768.071 57.2247 765.588 L62.6355 765.588 Q63.7814 768.039 64.3543 770.68 Q64.9272 773.29 64.9272 776.25 Q64.9272 784.303 59.8664 789.046 Q54.8057 793.788 46.212 793.788 Q37.491 793.788 32.4939 789.014 Q27.4968 784.208 27.4968 775.869 Q27.4968 773.163 28.0697 770.585 Q28.6108 768.007 29.7248 765.588 Z" fill="#000000" fill-rule="evenodd" fill-opacity="1" /><path clip-path="url(#clip440)" d="M 0 0 M33.7671 731.945 L14.479 731.945 L14.479 726.089 L64.0042 726.089 L64.0042 731.945 L58.657 731.945 Q61.8398 733.791 63.3994 736.624 Q64.9272 739.425 64.9272 743.372 Q64.9272 749.833 59.771 753.907 Q54.6147 757.949 46.212 757.949 Q37.8093 757.949 32.6531 753.907 Q27.4968 749.833 27.4968 743.372 Q27.4968 739.425 29.0564 736.624 Q30.5842 733.791 33.7671 731.945 M46.212 751.902 Q52.6732 751.902 56.3653 749.26 Q60.0256 746.586 60.0256 741.939 Q60.0256 737.292 56.3653 734.619 Q52.6732 731.945 46.212 731.945 Q39.7508 731.945 36.0905 734.619 Q32.3984 737.292 32.3984 741.939 Q32.3984 746.586 36.0905 749.26 Q39.7508 751.902 46.212 751.902 Z" fill="#000000" fill-rule="evenodd" fill-opacity="1" /><path clip-path="url(#clip440)" d="M 0 0 M14.479 695.979 L19.3487 695.979 L19.3487 701.581 Q19.3487 704.732 20.6219 705.973 Q21.895 707.183 25.2052 707.183 L28.3562 707.183 L28.3562 697.538 L32.9077 697.538 L32.9077 707.183 L64.0042 707.183 L64.0042 713.071 L32.9077 713.071 L32.9077 718.673 L28.3562 718.673 L28.3562 713.071 L25.8736 713.071 Q19.9216 713.071 17.2162 710.302 Q14.479 707.533 14.479 701.517 L14.479 695.979 Z" fill="#000000" fill-rule="evenodd" fill-opacity="1" /><circle clip-path="url(#clip442)" cx="309.067" cy="1403.03" r="14" fill="#6b9e32" fill-rule="evenodd" fill-opacity="1" stroke="#000000" stroke-opacity="1" stroke-width="3.2"/>
<circle clip-path="url(#clip442)" cx="507.483" cy="1390.17" r="14" fill="#6b9e32" fill-rule="evenodd" fill-opacity="1" stroke="#000000" stroke-opacity="1" stroke-width="3.2"/>
<circle clip-path="url(#clip442)" cx="705.9" cy="1332.26" r="14" fill="#6b9e32" fill-rule="evenodd" fill-opacity="1" stroke="#000000" stroke-opacity="1" stroke-width="3.2"/>
<circle clip-path="url(#clip442)" cx="904.316" cy="1177.86" r="14" fill="#6b9e32" fill-rule="evenodd" fill-opacity="1" stroke="#000000" stroke-opacity="1" stroke-width="3.2"/>
<circle clip-path="url(#clip442)" cx="1102.73" cy="907.652" r="14" fill="#6b9e32" fill-rule="evenodd" fill-opacity="1" stroke="#000000" stroke-opacity="1" stroke-width="3.2"/>
<circle clip-path="url(#clip442)" cx="1301.15" cy="583.402" r="14" fill="#6b9e32" fill-rule="evenodd" fill-opacity="1" stroke="#000000" stroke-opacity="1" stroke-width="3.2"/>
<circle clip-path="url(#clip442)" cx="1499.57" cy="313.193" r="14" fill="#6b9e32" fill-rule="evenodd" fill-opacity="1" stroke="#000000" stroke-opacity="1" stroke-width="3.2"/>
<circle clip-path="url(#clip442)" cx="1697.98" cy="158.789" r="14" fill="#6b9e32" fill-rule="evenodd" fill-opacity="1" stroke="#000000" stroke-opacity="1" stroke-width="3.2"/>
<circle clip-path="url(#clip442)" cx="1896.4" cy="100.887" r="14" fill="#6b9e32" fill-rule="evenodd" fill-opacity="1" stroke="#000000" stroke-opacity="1" stroke-width="3.2"/>
<circle clip-path="url(#clip442)" cx="2094.81" cy="88.0198" r="14" fill="#6b9e32" fill-rule="evenodd" fill-opacity="1" stroke="#000000" stroke-opacity="1" stroke-width="3.2"/>
<circle clip-path="url(#clip442)" cx="2293.23" cy="86.7331" r="14" fill="#6b9e32" fill-rule="evenodd" fill-opacity="1" stroke="#000000" stroke-opacity="1" stroke-width="3.2"/>
<polyline clip-path="url(#clip442)" style="stroke:#009af9; stroke-width:8; stroke-opacity:1; fill:none" points="
  309.067,1403.03 507.483,1403.03 507.483,1390.17 705.9,1390.17 705.9,1332.26 904.316,1332.26 904.316,1177.86 1102.73,1177.86 1102.73,907.652 1301.15,907.652 
  1301.15,583.402 1499.57,583.402 1499.57,313.193 1697.98,313.193 1697.98,158.789 1896.4,158.789 1896.4,100.887 2094.81,100.887 2094.81,88.0198 2293.23,88.0198 
  2293.23,86.7331 
  "/>
<path clip-path="url(#clip440)" d="
M319.649 275.193 L936.239 275.193 L936.239 93.7534 L319.649 93.7534  Z
  " fill="#ffffff" fill-rule="evenodd" fill-opacity="1"/>
<polyline clip-path="url(#clip440)" style="stroke:#000000; stroke-width:4; stroke-opacity:1; fill:none" points="
  319.649,275.193 936.239,275.193 936.239,93.7534 319.649,93.7534 319.649,275.193 
  "/>
<polyline clip-path="url(#clip440)" style="stroke:#009af9; stroke-width:6; stroke-opacity:1; fill:none" points="
  343.018,184.473 483.232,184.473 
  "/>
<path clip-path="url(#clip440)" d="M 0 0 M544.195 181.986 Q544.195 187.116 541.595 192.07 Q539.03 197.024 534.99 200.08 Q530.949 203.102 526.838 203.102 Q524.379 203.102 522.728 201.767 Q521.112 200.396 520.233 198.464 Q519.566 200.853 518.125 206.58 Q516.685 212.307 516.685 212.869 Q516.685 213.185 516.755 213.326 Q516.825 213.466 517.142 213.642 Q517.458 213.853 518.231 213.923 Q519.004 214.028 520.304 214.028 Q520.971 214.028 521.217 214.028 Q521.498 214.063 521.744 214.239 Q522.025 214.415 522.025 214.801 Q522.025 216.242 520.725 216.242 Q519.566 216.242 517.177 216.136 Q514.788 216.031 513.593 216.031 Q512.574 216.031 510.536 216.136 Q508.499 216.242 507.55 216.242 Q506.602 216.242 506.602 215.399 Q506.602 214.907 506.742 214.59 Q506.847 214.309 507.129 214.169 Q507.41 214.063 507.656 214.028 Q507.866 214.028 508.288 214.028 Q509.904 214.028 510.607 213.747 Q511.309 213.501 511.555 212.974 Q511.836 212.482 512.153 211.077 L520.233 179.035 Q520.725 176.892 520.725 175.381 Q520.725 173.484 520.128 172.781 Q519.531 172.079 518.477 172.079 Q516.65 172.079 515.455 174.257 Q514.261 176.435 513.242 180.651 Q512.926 181.811 512.715 182.057 Q512.539 182.303 512.012 182.303 Q511.134 182.268 511.134 181.565 Q511.134 181.389 511.415 180.265 Q511.696 179.105 512.223 177.419 Q512.785 175.698 513.382 174.608 Q513.734 173.871 514.05 173.379 Q514.366 172.887 514.998 172.114 Q515.666 171.341 516.615 170.919 Q517.563 170.498 518.723 170.498 Q520.971 170.498 522.833 171.833 Q524.695 173.168 525.187 175.873 Q527.19 173.519 529.649 172.008 Q532.109 170.498 534.603 170.498 Q538.749 170.498 541.454 173.73 Q544.195 176.927 544.195 181.986 M538.995 178.824 Q538.995 175.627 537.765 173.871 Q536.571 172.079 534.392 172.079 Q531.687 172.079 528.56 174.819 Q525.468 177.419 524.836 179.843 L521.287 193.932 L521.077 195.091 Q521.077 195.302 521.182 195.935 Q521.323 196.532 521.709 197.516 Q522.131 198.499 522.693 199.378 Q523.29 200.221 524.344 200.853 Q525.433 201.486 526.768 201.486 Q528.911 201.486 531.23 199.588 Q533.584 197.691 535.341 194.108 Q536.43 191.789 537.695 186.8 Q538.995 181.776 538.995 178.824 Z" fill="#000000" fill-rule="evenodd" fill-opacity="1" /><path clip-path="url(#clip440)" d="M 0 0 M542.443 184.305 Q542.443 172.149 546.975 162.347 Q548.908 158.236 551.613 154.793 Q554.318 151.35 556.11 149.839 Q557.902 148.328 558.394 148.328 Q559.096 148.328 559.132 149.031 Q559.132 149.382 558.183 150.261 Q546.589 162.066 546.624 184.305 Q546.624 206.615 557.902 217.963 Q559.132 219.193 559.132 219.579 Q559.132 220.282 558.394 220.282 Q557.902 220.282 556.18 218.842 Q554.459 217.401 551.789 214.099 Q549.119 210.796 547.186 206.756 Q542.443 196.953 542.443 184.305 Z" fill="#000000" fill-rule="evenodd" fill-opacity="1" /><path clip-path="url(#clip440)" d="M 0 0 M603.274 173.238 Q603.274 173.73 602.958 174.889 L596.071 202.364 Q594.561 208.477 589.642 212.764 Q584.758 217.05 579.207 217.05 Q575.87 217.05 573.726 215.258 Q571.583 213.501 571.583 210.796 Q571.583 208.407 572.848 207.248 Q574.113 206.123 575.624 206.123 Q576.115 206.123 576.642 206.264 Q577.169 206.404 577.732 207.002 Q578.294 207.599 578.294 208.618 Q578.294 210.269 576.853 211.569 Q576.151 212.166 575.483 212.307 Q574.851 212.447 573.761 212.447 Q574.183 213.431 574.956 214.099 Q575.729 214.766 576.607 215.012 Q577.486 215.293 578.048 215.363 Q578.645 215.469 579.207 215.469 Q583.704 215.469 587.147 210.937 Q588.166 209.566 588.904 208.196 Q589.677 206.861 590.239 205.21 Q590.801 203.594 591.047 202.715 Q591.328 201.837 591.82 199.834 Q588.553 203.102 584.548 203.102 Q582.861 203.102 581.35 202.645 Q579.875 202.188 578.575 201.24 Q577.275 200.256 576.502 198.534 Q575.764 196.813 575.764 194.529 Q575.764 192.105 576.713 188.802 Q577.661 185.5 579.945 179.422 Q581.175 176.014 581.175 174.362 Q581.175 173.554 580.999 173.062 Q580.823 172.535 580.472 172.36 Q580.121 172.149 579.91 172.114 Q579.734 172.079 579.383 172.079 Q577.31 172.079 575.378 174.187 Q573.445 176.295 572.11 181.003 Q571.829 181.881 571.653 182.092 Q571.478 182.303 570.951 182.303 Q570.072 182.268 570.072 181.565 Q570.072 181.284 570.389 180.195 Q570.705 179.07 571.443 177.419 Q572.216 175.733 573.27 174.222 Q574.324 172.676 575.975 171.587 Q577.661 170.498 579.594 170.498 Q582.229 170.498 583.845 172.219 Q585.496 173.906 585.496 176.4 Q585.496 177.419 585.215 178.333 Q584.969 179.211 584.056 181.565 Q580.367 191.051 580.367 195.689 Q580.367 196.813 580.542 197.761 Q580.753 198.675 581.21 199.588 Q581.667 200.467 582.58 200.994 Q583.529 201.486 584.829 201.486 Q586.48 201.486 588.026 200.713 Q589.607 199.905 590.591 198.815 Q591.609 197.726 592.207 196.813 Q592.839 195.864 592.98 195.372 L596.212 182.443 L597.652 176.681 Q598.32 173.554 598.636 172.781 Q599.058 172.044 599.796 171.657 Q600.533 171.271 601.166 171.271 Q602.044 171.271 602.641 171.798 Q603.274 172.325 603.274 173.238 Z" fill="#000000" fill-rule="evenodd" fill-opacity="1" /><path clip-path="url(#clip440)" d="M 0 0 M669.169 196.883 Q669.977 197.27 670.013 198.078 Q670.048 198.886 669.38 199.378 Q668.713 199.869 667.869 199.483 L626.06 179.703 Q625.147 179.281 625.147 178.262 Q625.147 177.243 626.06 176.822 L667.869 157.042 Q668.713 156.655 669.38 157.147 Q670.048 157.639 670.013 158.447 Q669.977 159.255 669.169 159.641 L629.749 178.262 L669.169 196.883 M669.556 208.407 Q669.977 208.829 669.977 209.426 Q669.977 210.023 669.556 210.445 Q669.134 210.866 668.537 210.866 L626.377 210.866 Q625.779 210.866 625.358 210.445 Q624.936 210.023 624.936 209.426 Q624.936 208.829 625.358 208.407 Q625.779 207.985 626.377 207.985 L668.537 207.985 Q669.134 207.985 669.556 208.407 Z" fill="#000000" fill-rule="evenodd" fill-opacity="1" /><path clip-path="url(#clip440)" d="M 0 0 M718.705 157.323 Q718.705 158.868 717.44 160.028 Q716.211 161.152 714.876 161.152 Q713.646 161.152 712.873 160.414 Q712.135 159.641 712.135 158.552 Q712.135 157.112 713.365 155.917 Q714.595 154.723 716.035 154.723 Q717.23 154.723 717.967 155.461 Q718.705 156.198 718.705 157.323 M719.338 192 Q719.338 192.281 719.021 193.405 Q718.705 194.494 717.932 196.18 Q717.195 197.832 716.176 199.378 Q715.157 200.923 713.47 202.013 Q711.819 203.102 709.922 203.102 Q707.357 203.102 705.671 201.415 Q704.019 199.729 704.019 197.199 Q704.019 195.829 705.671 191.437 Q710.449 178.649 710.625 178.122 Q711.433 176.119 711.433 174.362 Q711.433 173.554 711.257 173.062 Q711.081 172.535 710.73 172.36 Q710.379 172.149 710.168 172.114 Q709.992 172.079 709.641 172.079 Q707.568 172.079 705.636 174.187 Q703.703 176.295 702.368 181.003 Q702.087 181.881 701.911 182.092 Q701.736 182.303 701.209 182.303 Q700.33 182.268 700.33 181.565 Q700.33 181.354 700.576 180.546 Q700.822 179.703 701.279 178.438 Q701.736 177.138 702.544 175.803 Q703.352 174.433 704.336 173.238 Q705.354 172.044 706.795 171.271 Q708.235 170.498 709.852 170.498 Q712.487 170.498 714.103 172.219 Q715.754 173.906 715.754 176.4 Q715.754 177.77 714.805 180.195 Q713.646 183.357 713.224 184.376 L710.414 191.929 Q709.395 194.67 709.079 195.513 Q708.798 196.321 708.552 197.305 Q708.341 198.253 708.341 199.132 Q708.341 200.361 708.727 200.923 Q709.149 201.486 710.062 201.486 Q712.592 201.486 714.454 198.991 Q716.316 196.462 717.405 192.597 Q717.44 192.491 717.476 192.316 Q717.757 191.437 718.038 191.332 Q718.178 191.297 718.459 191.297 Q719.338 191.297 719.338 192 Z" fill="#000000" fill-rule="evenodd" fill-opacity="1" /><path clip-path="url(#clip440)" d="M 0 0 M724.898 218.069 L724.898 151.069 Q724.898 148.399 726.338 148.399 Q727.778 148.399 727.778 150.542 L727.778 217.542 Q727.778 220.212 726.338 220.212 Q724.898 220.212 724.898 218.069 Z" fill="#000000" fill-rule="evenodd" fill-opacity="1" /><path clip-path="url(#clip440)" d="M 0 0 M784.32 166.317 Q784.32 172.219 782.423 178.86 Q780.561 185.465 777.61 190.805 Q774.659 196.11 770.794 199.624 Q766.929 203.102 763.24 203.102 Q760.886 203.102 759.13 201.802 Q757.408 200.467 756.459 198.253 Q755.511 196.005 755.054 193.545 Q754.597 191.051 754.597 188.346 Q754.597 184.305 755.476 179.914 Q756.354 175.487 757.83 171.481 Q759.305 167.441 761.378 163.787 Q763.451 160.098 765.735 157.428 Q768.054 154.723 770.653 153.142 Q773.253 151.561 775.678 151.561 Q777.434 151.561 778.84 152.334 Q780.28 153.071 781.194 154.371 Q782.107 155.636 782.739 157.147 Q783.407 158.658 783.723 160.414 Q784.039 162.136 784.18 163.576 Q784.32 164.982 784.32 166.317 M779.577 161.855 Q779.577 160.063 779.437 158.728 Q779.296 157.358 778.91 155.988 Q778.523 154.617 777.68 153.88 Q776.872 153.142 775.607 153.142 Q771.918 153.142 767.772 160.695 Q766.437 163.049 765.243 166.247 Q764.048 169.444 763.627 170.954 Q763.205 172.465 762.221 176.189 L777.259 176.189 Q779.577 166.598 779.577 161.855 M776.626 178.473 L761.659 178.473 Q759.34 187.256 759.34 192.737 Q759.34 197.516 760.324 199.518 Q761.343 201.486 763.24 201.486 Q765.419 201.486 767.456 199.307 Q769.494 197.094 771.567 193.089 Q774.307 187.889 776.626 178.473 Z" fill="#000000" fill-rule="evenodd" fill-opacity="1" /><path clip-path="url(#clip440)" d="M 0 0 M789.022 201.134 Q788.003 199.975 788.003 198.464 Q788.003 196.953 788.987 195.829 Q790.006 194.67 791.833 194.67 Q793.976 194.67 795.206 196.743 Q796.435 198.78 796.435 202.223 Q796.435 205.948 794.924 209.391 Q793.414 212.869 791.938 214.52 Q790.462 216.171 789.865 216.171 Q789.163 216.171 789.163 215.399 Q789.163 215.117 789.654 214.59 Q794.819 209.039 794.854 202.223 Q794.854 201.134 794.714 201.134 L794.538 201.275 Q793.308 202.294 791.833 202.294 Q790.041 202.294 789.022 201.134 Z" fill="#000000" fill-rule="evenodd" fill-opacity="1" /><path clip-path="url(#clip440)" d="M 0 0 M858.138 192 Q858.138 192.281 857.822 193.37 Q857.506 194.459 856.733 196.145 Q855.995 197.832 854.976 199.378 Q853.957 200.888 852.271 202.013 Q850.62 203.102 848.723 203.102 Q846.193 203.102 844.507 201.415 Q842.82 199.729 842.82 197.199 Q842.82 195.794 843.558 193.862 Q848.231 181.389 848.231 177.103 Q848.231 172.079 844.331 172.079 Q842.398 172.079 840.572 172.817 Q838.78 173.519 837.55 174.503 Q836.32 175.487 835.196 176.857 Q834.107 178.192 833.545 179.105 Q833.018 179.984 832.596 180.862 L831.683 184.446 Q831.472 185.43 830.453 189.259 L828.872 195.759 Q827.748 200.607 827.502 201.064 Q827.15 202.048 826.378 202.575 Q825.605 203.102 824.832 203.102 Q823.953 203.102 823.356 202.575 Q822.759 202.048 822.759 201.134 Q822.759 200.994 822.864 200.467 Q822.97 199.94 823.145 199.202 Q823.321 198.464 823.391 198.043 L827.572 181.424 Q828.345 178.403 828.521 177.454 Q828.731 176.47 828.731 175.381 Q828.731 172.079 826.483 172.079 Q824.656 172.079 823.461 174.257 Q822.267 176.435 821.248 180.651 Q820.932 181.811 820.721 182.057 Q820.545 182.303 820.018 182.303 Q819.14 182.268 819.14 181.565 Q819.14 181.389 819.421 180.23 Q819.702 179.07 820.229 177.419 Q820.791 175.733 821.318 174.608 Q821.775 173.765 822.021 173.379 Q822.302 172.957 822.97 172.149 Q823.672 171.306 824.586 170.919 Q825.534 170.498 826.694 170.498 Q829.294 170.498 831.191 172.184 Q833.088 173.835 833.334 176.752 Q838.007 170.498 844.542 170.498 Q848.406 170.498 850.62 172.535 Q852.833 174.573 852.833 178.192 Q852.833 179.035 852.658 180.124 Q852.517 181.178 852.166 182.513 Q851.849 183.849 851.568 184.867 Q851.287 185.886 850.725 187.538 Q850.163 189.154 849.917 189.856 Q849.671 190.559 849.074 192.21 Q848.512 193.826 848.441 194.002 Q847.142 197.27 847.142 199.132 Q847.142 200.361 847.528 200.923 Q847.95 201.486 848.863 201.486 Q851.322 201.486 853.149 199.061 Q855.011 196.602 856.206 192.597 Q856.487 191.718 856.628 191.508 Q856.803 191.297 857.295 191.297 Q858.138 191.297 858.138 192 Z" fill="#000000" fill-rule="evenodd" fill-opacity="1" /><path clip-path="url(#clip440)" d="M 0 0 M861.872 219.579 Q861.872 219.228 862.785 218.35 Q874.379 206.545 874.379 184.305 Q874.379 161.995 863.242 150.717 Q861.872 149.418 861.872 149.031 Q861.872 148.328 862.574 148.328 Q863.066 148.328 864.788 149.769 Q866.544 151.209 869.179 154.512 Q871.849 157.814 873.817 161.855 Q878.56 171.657 878.56 184.305 Q878.56 196.462 874.028 206.264 Q872.095 210.374 869.39 213.818 Q866.685 217.261 864.893 218.771 Q863.101 220.282 862.574 220.282 Q861.872 220.282 861.872 219.579 Z" fill="#000000" fill-rule="evenodd" fill-opacity="1" /></svg>
