<?xml version="1.0" encoding="utf-8"?>
<svg xmlns="http://www.w3.org/2000/svg" xmlns:xlink="http://www.w3.org/1999/xlink" width="600" height="400" viewBox="0 0 2400 1600">
<defs>
  <clipPath id="clip560">
    <rect x="0" y="0" width="2400" height="1600"/>
  </clipPath>
</defs>
<path clip-path="url(#clip560)" d="
M0 1600 L2400 1600 L2400 0 L0 0  Z
  " fill="#ffffff" fill-rule="evenodd" fill-opacity="1"/>
<defs>
  <clipPath id="clip561">
    <rect x="480" y="0" width="1681" height="1600"/>
  </clipPath>
</defs>
<defs>
  <clipPath id="clip562">
    <rect x="175" y="47" width="2178" height="1396"/>
  </clipPath>
</defs>
<path clip-path="url(#clip560)" d="
M249.542 1439.5 L2352.76 1439.5 L2352.76 47.2441 L249.542 47.2441  Z
  " fill="#ffffff" fill-rule="evenodd" fill-opacity="1"/>
<defs>
  <clipPath id="clip563">
    <rect x="249" y="47" width="2104" height="1393"/>
  </clipPath>
</defs>
<polyline clip-path="url(#clip563)" style="stroke:#000000; stroke-width:2; stroke-opacity:0.1; fill:none" points="
  308.654,1439.5 308.654,47.2441 
  "/>
<polyline clip-path="url(#clip563)" style="stroke:#000000; stroke-width:2; stroke-opacity:0.1; fill:none" points="
  805.557,1439.5 805.557,47.2441 
  "/>
<polyline clip-path="url(#clip563)" style="stroke:#000000; stroke-width:2; stroke-opacity:0.1; fill:none" points="
  1302.46,1439.5 1302.46,47.2441 
  "/>
<polyline clip-path="url(#clip563)" style="stroke:#000000; stroke-width:2; stroke-opacity:0.1; fill:none" points="
  1799.36,1439.5 1799.36,47.2441 
  "/>
<polyline clip-path="url(#clip563)" style="stroke:#000000; stroke-width:2; stroke-opacity:0.1; fill:none" points="
  2296.27,1439.5 2296.27,47.2441 
  "/>
<polyline clip-path="url(#clip560)" style="stroke:#000000; stroke-width:4; stroke-opacity:1; fill:none" points="
  249.542,1439.5 2352.76,1439.5 
  "/>
<polyline clip-path="url(#clip560)" style="stroke:#000000; stroke-width:4; stroke-opacity:1; fill:none" points="
  308.654,1439.5 308.654,1422.79 
  "/>
<polyline clip-path="url(#clip560)" style="stroke:#000000; stroke-width:4; stroke-opacity:1; fill:none" points="
  805.557,1439.5 805.557,1422.79 
  "/>
<polyline clip-path="url(#clip560)" style="stroke:#000000; stroke-width:4; stroke-opacity:1; fill:none" points="
  1302.46,1439.5 1302.46,1422.79 
  "/>
<polyline clip-path="url(#clip560)" style="stroke:#000000; stroke-width:4; stroke-opacity:1; fill:none" points="
  1799.36,1439.5 1799.36,1422.79 
  "/>
<polyline clip-path="url(#clip560)" style="stroke:#000000; stroke-width:4; stroke-opacity:1; fill:none" points="
  2296.27,1439.5 2296.27,1422.79 
  "/>
<path clip-path="url(#clip560)" d="M 0 0 M270.957 1468.69 Q267.346 1468.69 265.517 1472.26 Q263.712 1475.8 263.712 1482.93 Q263.712 1490.04 265.517 1493.6 Q267.346 1497.14 270.957 1497.14 Q274.591 1497.14 276.397 1493.6 Q278.226 1490.04 278.226 1482.93 Q278.226 1475.8 276.397 1472.26 Q274.591 1468.69 270.957 1468.69 M270.957 1464.99 Q276.767 1464.99 279.823 1469.6 Q282.902 1474.18 282.902 1482.93 Q282.902 1491.66 279.823 1496.26 Q276.767 1500.85 270.957 1500.85 Q265.147 1500.85 262.068 1496.26 Q259.013 1491.66 259.013 1482.93 Q259.013 1474.18 262.068 1469.6 Q265.147 1464.99 270.957 1464.99 Z" fill="#000000" fill-rule="evenodd" fill-opacity="1" /><path clip-path="url(#clip560)" d="M 0 0 M291.119 1494.29 L296.003 1494.29 L296.003 1500.17 L291.119 1500.17 L291.119 1494.29 Z" fill="#000000" fill-rule="evenodd" fill-opacity="1" /><path clip-path="url(#clip560)" d="M 0 0 M316.188 1468.69 Q312.577 1468.69 310.749 1472.26 Q308.943 1475.8 308.943 1482.93 Q308.943 1490.04 310.749 1493.6 Q312.577 1497.14 316.188 1497.14 Q319.823 1497.14 321.628 1493.6 Q323.457 1490.04 323.457 1482.93 Q323.457 1475.8 321.628 1472.26 Q319.823 1468.69 316.188 1468.69 M316.188 1464.99 Q321.999 1464.99 325.054 1469.6 Q328.133 1474.18 328.133 1482.93 Q328.133 1491.66 325.054 1496.26 Q321.999 1500.85 316.188 1500.85 Q310.378 1500.85 307.3 1496.26 Q304.244 1491.66 304.244 1482.93 Q304.244 1474.18 307.3 1469.6 Q310.378 1464.99 316.188 1464.99 Z" fill="#000000" fill-rule="evenodd" fill-opacity="1" /><path clip-path="url(#clip560)" d="M 0 0 M346.35 1468.69 Q342.739 1468.69 340.911 1472.26 Q339.105 1475.8 339.105 1482.93 Q339.105 1490.04 340.911 1493.6 Q342.739 1497.14 346.35 1497.14 Q349.985 1497.14 351.79 1493.6 Q353.619 1490.04 353.619 1482.93 Q353.619 1475.8 351.79 1472.26 Q349.985 1468.69 346.35 1468.69 M346.35 1464.99 Q352.161 1464.99 355.216 1469.6 Q358.295 1474.18 358.295 1482.93 Q358.295 1491.66 355.216 1496.26 Q352.161 1500.85 346.35 1500.85 Q340.54 1500.85 337.462 1496.26 Q334.406 1491.66 334.406 1482.93 Q334.406 1474.18 337.462 1469.6 Q340.54 1464.99 346.35 1464.99 Z" fill="#000000" fill-rule="evenodd" fill-opacity="1" /><path clip-path="url(#clip560)" d="M 0 0 M768.358 1468.69 Q764.747 1468.69 762.919 1472.26 Q761.113 1475.8 761.113 1482.93 Q761.113 1490.04 762.919 1493.6 Q764.747 1497.14 768.358 1497.14 Q771.993 1497.14 773.798 1493.6 Q775.627 1490.04 775.627 1482.93 Q775.627 1475.8 773.798 1472.26 Q771.993 1468.69 768.358 1468.69 M768.358 1464.99 Q774.169 1464.99 777.224 1469.6 Q780.303 1474.18 780.303 1482.93 Q780.303 1491.66 777.224 1496.26 Q774.169 1500.85 768.358 1500.85 Q762.548 1500.85 759.47 1496.26 Q756.414 1491.66 756.414 1482.93 Q756.414 1474.18 759.47 1469.6 Q762.548 1464.99 768.358 1464.99 Z" fill="#000000" fill-rule="evenodd" fill-opacity="1" /><path clip-path="url(#clip560)" d="M 0 0 M788.52 1494.29 L793.405 1494.29 L793.405 1500.17 L788.52 1500.17 L788.52 1494.29 Z" fill="#000000" fill-rule="evenodd" fill-opacity="1" /><path clip-path="url(#clip560)" d="M 0 0 M807.617 1496.24 L823.937 1496.24 L823.937 1500.17 L801.992 1500.17 L801.992 1496.24 Q804.654 1493.48 809.238 1488.85 Q813.844 1484.2 815.025 1482.86 Q817.27 1480.34 818.15 1478.6 Q819.053 1476.84 819.053 1475.15 Q819.053 1472.4 817.108 1470.66 Q815.187 1468.92 812.085 1468.92 Q809.886 1468.92 807.432 1469.69 Q805.002 1470.45 802.224 1472 L802.224 1467.28 Q805.048 1466.15 807.502 1465.57 Q809.955 1464.99 811.992 1464.99 Q817.363 1464.99 820.557 1467.67 Q823.752 1470.36 823.752 1474.85 Q823.752 1476.98 822.941 1478.9 Q822.154 1480.8 820.048 1483.39 Q819.469 1484.06 816.367 1487.28 Q813.266 1490.47 807.617 1496.24 Z" fill="#000000" fill-rule="evenodd" fill-opacity="1" /><path clip-path="url(#clip560)" d="M 0 0 M833.798 1465.61 L852.154 1465.61 L852.154 1469.55 L838.08 1469.55 L838.08 1478.02 Q839.099 1477.67 840.117 1477.51 Q841.136 1477.33 842.154 1477.33 Q847.941 1477.33 851.321 1480.5 Q854.7 1483.67 854.7 1489.09 Q854.7 1494.66 851.228 1497.77 Q847.756 1500.85 841.437 1500.85 Q839.261 1500.85 836.992 1500.47 Q834.747 1500.1 832.339 1499.36 L832.339 1494.66 Q834.423 1495.8 836.645 1496.35 Q838.867 1496.91 841.344 1496.91 Q845.349 1496.91 847.687 1494.8 Q850.025 1492.7 850.025 1489.09 Q850.025 1485.47 847.687 1483.37 Q845.349 1481.26 841.344 1481.26 Q839.469 1481.26 837.594 1481.68 Q835.742 1482.1 833.798 1482.97 L833.798 1465.61 Z" fill="#000000" fill-rule="evenodd" fill-opacity="1" /><path clip-path="url(#clip560)" d="M 0 0 M1264.76 1468.69 Q1261.15 1468.69 1259.32 1472.26 Q1257.52 1475.8 1257.52 1482.93 Q1257.52 1490.04 1259.32 1493.6 Q1261.15 1497.14 1264.76 1497.14 Q1268.4 1497.14 1270.2 1493.6 Q1272.03 1490.04 1272.03 1482.93 Q1272.03 1475.8 1270.2 1472.26 Q1268.4 1468.69 1264.76 1468.69 M1264.76 1464.99 Q1270.57 1464.99 1273.63 1469.6 Q1276.71 1474.18 1276.71 1482.93 Q1276.71 1491.66 1273.63 1496.26 Q1270.57 1500.85 1264.76 1500.85 Q1258.95 1500.85 1255.88 1496.26 Q1252.82 1491.66 1252.82 1482.93 Q1252.82 1474.18 1255.88 1469.6 Q1258.95 1464.99 1264.76 1464.99 Z" fill="#000000" fill-rule="evenodd" fill-opacity="1" /><path clip-path="url(#clip560)" d="M 0 0 M1284.93 1494.29 L1289.81 1494.29 L1289.81 1500.17 L1284.93 1500.17 L1284.93 1494.29 Z" fill="#000000" fill-rule="evenodd" fill-opacity="1" /><path clip-path="url(#clip560)" d="M 0 0 M1300.04 1465.61 L1318.4 1465.61 L1318.4 1469.55 L1304.32 1469.55 L1304.32 1478.02 Q1305.34 1477.67 1306.36 1477.51 Q1307.38 1477.33 1308.4 1477.33 Q1314.19 1477.33 1317.56 1480.5 Q1320.94 1483.67 1320.94 1489.09 Q1320.94 1494.66 1317.47 1497.77 Q1314 1500.85 1307.68 1500.85 Q1305.5 1500.85 1303.24 1500.47 Q1300.99 1500.1 1298.58 1499.36 L1298.58 1494.66 Q1300.67 1495.8 1302.89 1496.35 Q1305.11 1496.91 1307.59 1496.91 Q1311.59 1496.91 1313.93 1494.8 Q1316.27 1492.7 1316.27 1489.09 Q1316.27 1485.47 1313.93 1483.37 Q1311.59 1481.26 1307.59 1481.26 Q1305.71 1481.26 1303.84 1481.68 Q1301.99 1482.1 1300.04 1482.97 L1300.04 1465.61 Z" fill="#000000" fill-rule="evenodd" fill-opacity="1" /><path clip-path="url(#clip560)" d="M 0 0 M1340.16 1468.69 Q1336.55 1468.69 1334.72 1472.26 Q1332.91 1475.8 1332.91 1482.93 Q1332.91 1490.04 1334.72 1493.6 Q1336.55 1497.14 1340.16 1497.14 Q1343.79 1497.14 1345.6 1493.6 Q1347.43 1490.04 1347.43 1482.93 Q1347.43 1475.8 1345.6 1472.26 Q1343.79 1468.69 1340.16 1468.69 M1340.16 1464.99 Q1345.97 1464.99 1349.02 1469.6 Q1352.1 1474.18 1352.1 1482.93 Q1352.1 1491.66 1349.02 1496.26 Q1345.97 1500.85 1340.16 1500.85 Q1334.35 1500.85 1331.27 1496.26 Q1328.21 1491.66 1328.21 1482.93 Q1328.21 1474.18 1331.27 1469.6 Q1334.35 1464.99 1340.16 1464.99 Z" fill="#000000" fill-rule="evenodd" fill-opacity="1" /><path clip-path="url(#clip560)" d="M 0 0 M1762.17 1468.69 Q1758.55 1468.69 1756.73 1472.26 Q1754.92 1475.8 1754.92 1482.93 Q1754.92 1490.04 1756.73 1493.6 Q1758.55 1497.14 1762.17 1497.14 Q1765.8 1497.14 1767.61 1493.6 Q1769.43 1490.04 1769.43 1482.93 Q1769.43 1475.8 1767.61 1472.26 Q1765.8 1468.69 1762.17 1468.69 M1762.17 1464.99 Q1767.98 1464.99 1771.03 1469.6 Q1774.11 1474.18 1774.11 1482.93 Q1774.11 1491.66 1771.03 1496.26 Q1767.98 1500.85 1762.17 1500.85 Q1756.36 1500.85 1753.28 1496.26 Q1750.22 1491.66 1750.22 1482.93 Q1750.22 1474.18 1753.28 1469.6 Q1756.36 1464.99 1762.17 1464.99 Z" fill="#000000" fill-rule="evenodd" fill-opacity="1" /><path clip-path="url(#clip560)" d="M 0 0 M1782.33 1494.29 L1787.21 1494.29 L1787.21 1500.17 L1782.33 1500.17 L1782.33 1494.29 Z" fill="#000000" fill-rule="evenodd" fill-opacity="1" /><path clip-path="url(#clip560)" d="M 0 0 M1796.22 1465.61 L1818.44 1465.61 L1818.44 1467.6 L1805.89 1500.17 L1801.01 1500.17 L1812.81 1469.55 L1796.22 1469.55 L1796.22 1465.61 Z" fill="#000000" fill-rule="evenodd" fill-opacity="1" /><path clip-path="url(#clip560)" d="M 0 0 M1827.6 1465.61 L1845.96 1465.61 L1845.96 1469.55 L1831.89 1469.55 L1831.89 1478.02 Q1832.91 1477.67 1833.92 1477.51 Q1834.94 1477.33 1835.96 1477.33 Q1841.75 1477.33 1845.13 1480.5 Q1848.51 1483.67 1848.51 1489.09 Q1848.51 1494.66 1845.04 1497.77 Q1841.56 1500.85 1835.24 1500.85 Q1833.07 1500.85 1830.8 1500.47 Q1828.55 1500.1 1826.15 1499.36 L1826.15 1494.66 Q1828.23 1495.8 1830.45 1496.35 Q1832.67 1496.91 1835.15 1496.91 Q1839.16 1496.91 1841.49 1494.8 Q1843.83 1492.7 1843.83 1489.09 Q1843.83 1485.47 1841.49 1483.37 Q1839.16 1481.26 1835.15 1481.26 Q1833.28 1481.26 1831.4 1481.68 Q1829.55 1482.1 1827.6 1482.97 L1827.6 1465.61 Z" fill="#000000" fill-rule="evenodd" fill-opacity="1" /><path clip-path="url(#clip560)" d="M 0 0 M2248.34 1496.24 L2255.98 1496.24 L2255.98 1469.87 L2247.67 1471.54 L2247.67 1467.28 L2255.93 1465.61 L2260.61 1465.61 L2260.61 1496.24 L2268.25 1496.24 L2268.25 1500.17 L2248.34 1500.17 L2248.34 1496.24 Z" fill="#000000" fill-rule="evenodd" fill-opacity="1" /><path clip-path="url(#clip560)" d="M 0 0 M2277.69 1494.29 L2282.58 1494.29 L2282.58 1500.17 L2277.69 1500.17 L2277.69 1494.29 Z" fill="#000000" fill-rule="evenodd" fill-opacity="1" /><path clip-path="url(#clip560)" d="M 0 0 M2302.76 1468.69 Q2299.15 1468.69 2297.32 1472.26 Q2295.52 1475.8 2295.52 1482.93 Q2295.52 1490.04 2297.32 1493.6 Q2299.15 1497.14 2302.76 1497.14 Q2306.39 1497.14 2308.2 1493.6 Q2310.03 1490.04 2310.03 1482.93 Q2310.03 1475.8 2308.2 1472.26 Q2306.39 1468.69 2302.76 1468.69 M2302.76 1464.99 Q2308.57 1464.99 2311.63 1469.6 Q2314.7 1474.18 2314.7 1482.93 Q2314.7 1491.66 2311.63 1496.26 Q2308.57 1500.85 2302.76 1500.85 Q2296.95 1500.85 2293.87 1496.26 Q2290.82 1491.66 2290.82 1482.93 Q2290.82 1474.18 2293.87 1469.6 Q2296.95 1464.99 2302.76 1464.99 Z" fill="#000000" fill-rule="evenodd" fill-opacity="1" /><path clip-path="url(#clip560)" d="M 0 0 M2332.92 1468.69 Q2329.31 1468.69 2327.48 1472.26 Q2325.68 1475.8 2325.68 1482.93 Q2325.68 1490.04 2327.48 1493.6 Q2329.31 1497.14 2332.92 1497.14 Q2336.56 1497.14 2338.36 1493.6 Q2340.19 1490.04 2340.19 1482.93 Q2340.19 1475.8 2338.36 1472.26 Q2336.56 1468.69 2332.92 1468.69 M2332.92 1464.99 Q2338.73 1464.99 2341.79 1469.6 Q2344.87 1474.18 2344.87 1482.93 Q2344.87 1491.66 2341.79 1496.26 Q2338.73 1500.85 2332.92 1500.85 Q2327.11 1500.85 2324.03 1496.26 Q2320.98 1491.66 2320.98 1482.93 Q2320.98 1474.18 2324.03 1469.6 Q2327.11 1464.99 2332.92 1464.99 Z" fill="#000000" fill-rule="evenodd" fill-opacity="1" /><path clip-path="url(#clip560)" d="M 0 0 M1313.08 1535.75 Q1313.08 1541.16 1311.34 1547.24 Q1309.64 1553.3 1306.93 1558.19 Q1304.23 1563.06 1300.68 1566.28 Q1297.14 1569.47 1293.76 1569.47 Q1291.6 1569.47 1289.99 1568.27 Q1288.41 1567.05 1287.54 1565.02 Q1286.68 1562.96 1286.26 1560.71 Q1285.84 1558.42 1285.84 1555.94 Q1285.84 1552.24 1286.64 1548.21 Q1287.45 1544.15 1288.8 1540.48 Q1290.15 1536.78 1292.05 1533.43 Q1293.95 1530.05 1296.05 1527.6 Q1298.17 1525.12 1300.56 1523.67 Q1302.94 1522.22 1305.16 1522.22 Q1306.77 1522.22 1308.06 1522.93 Q1309.38 1523.6 1310.22 1524.8 Q1311.05 1525.96 1311.63 1527.34 Q1312.25 1528.73 1312.54 1530.34 Q1312.83 1531.91 1312.96 1533.23 Q1313.08 1534.52 1313.08 1535.75 M1308.74 1531.66 Q1308.74 1530.01 1308.61 1528.79 Q1308.48 1527.53 1308.12 1526.28 Q1307.77 1525.02 1307 1524.35 Q1306.26 1523.67 1305.1 1523.67 Q1301.72 1523.67 1297.91 1530.59 Q1296.69 1532.75 1295.6 1535.68 Q1294.5 1538.61 1294.11 1540 Q1293.73 1541.38 1292.83 1544.8 L1306.61 1544.8 Q1308.74 1536 1308.74 1531.66 M1306.03 1546.89 L1292.31 1546.89 Q1290.19 1554.94 1290.19 1559.96 Q1290.19 1564.34 1291.09 1566.18 Q1292.02 1567.98 1293.76 1567.98 Q1295.76 1567.98 1297.63 1565.99 Q1299.49 1563.96 1301.39 1560.29 Q1303.91 1555.52 1306.03 1546.89 Z" fill="#000000" fill-rule="evenodd" fill-opacity="1" /><polyline clip-path="url(#clip563)" style="stroke:#000000; stroke-width:2; stroke-opacity:0.1; fill:none" points="
  249.542,1400.1 2352.76,1400.1 
  "/>
<polyline clip-path="url(#clip563)" style="stroke:#000000; stroke-width:2; stroke-opacity:0.1; fill:none" points="
  249.542,1133.24 2352.76,1133.24 
  "/>
<polyline clip-path="url(#clip563)" style="stroke:#000000; stroke-width:2; stroke-opacity:0.1; fill:none" points="
  249.542,866.377 2352.76,866.377 
  "/>
<polyline clip-path="url(#clip563)" style="stroke:#000000; stroke-width:2; stroke-opacity:0.1; fill:none" points="
  249.542,599.516 2352.76,599.516 
  "/>
<polyline clip-path="url(#clip563)" style="stroke:#000000; stroke-width:2; stroke-opacity:0.1; fill:none" points="
  249.542,332.656 2352.76,332.656 
  "/>
<polyline clip-path="url(#clip563)" style="stroke:#000000; stroke-width:2; stroke-opacity:0.1; fill:none" points="
  249.542,65.795 2352.76,65.795 
  "/>
<polyline clip-path="url(#clip560)" style="stroke:#000000; stroke-width:4; stroke-opacity:1; fill:none" points="
  249.542,1439.5 249.542,47.2441 
  "/>
<polyline clip-path="url(#clip560)" style="stroke:#000000; stroke-width:4; stroke-opacity:1; fill:none" points="
  249.542,1400.1 274.781,1400.1 
  "/>
<polyline clip-path="url(#clip560)" style="stroke:#000000; stroke-width:4; stroke-opacity:1; fill:none" points="
  249.542,1133.24 274.781,1133.24 
  "/>
<polyline clip-path="url(#clip560)" style="stroke:#000000; stroke-width:4; stroke-opacity:1; fill:none" points="
  249.542,866.377 274.781,866.377 
  "/>
<polyline clip-path="url(#clip560)" style="stroke:#000000; stroke-width:4; stroke-opacity:1; fill:none" points="
  249.542,599.516 274.781,599.516 
  "/>
<polyline clip-path="url(#clip560)" style="stroke:#000000; stroke-width:4; stroke-opacity:1; fill:none" points="
  249.542,332.656 274.781,332.656 
  "/>
<polyline clip-path="url(#clip560)" style="stroke:#000000; stroke-width:4; stroke-opacity:1; fill:none" points="
  249.542,65.795 274.781,65.795 
  "/>
<path clip-path="url(#clip560)" d="M 0 0 M126.205 1385.9 Q122.593 1385.9 120.765 1389.46 Q118.959 1393 118.959 1400.13 Q118.959 1407.24 120.765 1410.8 Q122.593 1414.35 126.205 1414.35 Q129.839 1414.35 131.644 1410.8 Q133.473 1407.24 133.473 1400.13 Q133.473 1393 131.644 1389.46 Q129.839 1385.9 126.205 1385.9 M126.205 1382.19 Q132.015 1382.19 135.07 1386.8 Q138.149 1391.38 138.149 1400.13 Q138.149 1408.86 135.07 1413.47 Q132.015 1418.05 126.205 1418.05 Q120.394 1418.05 117.316 1413.47 Q114.26 1408.86 114.26 1400.13 Q114.26 1391.38 117.316 1386.8 Q120.394 1382.19 126.205 1382.19 Z" fill="#000000" fill-rule="evenodd" fill-opacity="1" /><path clip-path="url(#clip560)" d="M 0 0 M146.366 1411.5 L151.251 1411.5 L151.251 1417.38 L146.366 1417.38 L146.366 1411.5 Z" fill="#000000" fill-rule="evenodd" fill-opacity="1" /><path clip-path="url(#clip560)" d="M 0 0 M171.436 1385.9 Q167.825 1385.9 165.996 1389.46 Q164.19 1393 164.19 1400.13 Q164.19 1407.24 165.996 1410.8 Q167.825 1414.35 171.436 1414.35 Q175.07 1414.35 176.876 1410.8 Q178.704 1407.24 178.704 1400.13 Q178.704 1393 176.876 1389.46 Q175.07 1385.9 171.436 1385.9 M171.436 1382.19 Q177.246 1382.19 180.301 1386.8 Q183.38 1391.38 183.38 1400.13 Q183.38 1408.86 180.301 1413.47 Q177.246 1418.05 171.436 1418.05 Q165.626 1418.05 162.547 1413.47 Q159.491 1408.86 159.491 1400.13 Q159.491 1391.38 162.547 1386.8 Q165.626 1382.19 171.436 1382.19 Z" fill="#000000" fill-rule="evenodd" fill-opacity="1" /><path clip-path="url(#clip560)" d="M 0 0 M201.598 1385.9 Q197.987 1385.9 196.158 1389.46 Q194.352 1393 194.352 1400.13 Q194.352 1407.24 196.158 1410.8 Q197.987 1414.35 201.598 1414.35 Q205.232 1414.35 207.037 1410.8 Q208.866 1407.24 208.866 1400.13 Q208.866 1393 207.037 1389.46 Q205.232 1385.9 201.598 1385.9 M201.598 1382.19 Q207.408 1382.19 210.463 1386.8 Q213.542 1391.38 213.542 1400.13 Q213.542 1408.86 210.463 1413.47 Q207.408 1418.05 201.598 1418.05 Q195.787 1418.05 192.709 1413.47 Q189.653 1408.86 189.653 1400.13 Q189.653 1391.38 192.709 1386.8 Q195.787 1382.19 201.598 1382.19 Z" fill="#000000" fill-rule="evenodd" fill-opacity="1" /><path clip-path="url(#clip560)" d="M 0 0 M127.2 1119.04 Q123.589 1119.04 121.76 1122.6 Q119.955 1126.14 119.955 1133.27 Q119.955 1140.38 121.76 1143.94 Q123.589 1147.49 127.2 1147.49 Q130.834 1147.49 132.64 1143.94 Q134.468 1140.38 134.468 1133.27 Q134.468 1126.14 132.64 1122.6 Q130.834 1119.04 127.2 1119.04 M127.2 1115.33 Q133.01 1115.33 136.066 1119.94 Q139.144 1124.52 139.144 1133.27 Q139.144 1142 136.066 1146.61 Q133.01 1151.19 127.2 1151.19 Q121.39 1151.19 118.311 1146.61 Q115.256 1142 115.256 1133.27 Q115.256 1124.52 118.311 1119.94 Q121.39 1115.33 127.2 1115.33 Z" fill="#000000" fill-rule="evenodd" fill-opacity="1" /><path clip-path="url(#clip560)" d="M 0 0 M147.362 1144.64 L152.246 1144.64 L152.246 1150.52 L147.362 1150.52 L147.362 1144.64 Z" fill="#000000" fill-rule="evenodd" fill-opacity="1" /><path clip-path="url(#clip560)" d="M 0 0 M172.431 1119.04 Q168.82 1119.04 166.991 1122.6 Q165.186 1126.14 165.186 1133.27 Q165.186 1140.38 166.991 1143.94 Q168.82 1147.49 172.431 1147.49 Q176.065 1147.49 177.871 1143.94 Q179.7 1140.38 179.7 1133.27 Q179.7 1126.14 177.871 1122.6 Q176.065 1119.04 172.431 1119.04 M172.431 1115.33 Q178.241 1115.33 181.297 1119.94 Q184.376 1124.52 184.376 1133.27 Q184.376 1142 181.297 1146.61 Q178.241 1151.19 172.431 1151.19 Q166.621 1151.19 163.542 1146.61 Q160.487 1142 160.487 1133.27 Q160.487 1124.52 163.542 1119.94 Q166.621 1115.33 172.431 1115.33 Z" fill="#000000" fill-rule="evenodd" fill-opacity="1" /><path clip-path="url(#clip560)" d="M 0 0 M192.639 1115.96 L210.996 1115.96 L210.996 1119.89 L196.922 1119.89 L196.922 1128.37 Q197.94 1128.02 198.959 1127.86 Q199.977 1127.67 200.996 1127.67 Q206.783 1127.67 210.162 1130.84 Q213.542 1134.01 213.542 1139.43 Q213.542 1145.01 210.07 1148.11 Q206.598 1151.19 200.278 1151.19 Q198.102 1151.19 195.834 1150.82 Q193.588 1150.45 191.181 1149.71 L191.181 1145.01 Q193.264 1146.14 195.487 1146.7 Q197.709 1147.25 200.186 1147.25 Q204.19 1147.25 206.528 1145.15 Q208.866 1143.04 208.866 1139.43 Q208.866 1135.82 206.528 1133.71 Q204.19 1131.61 200.186 1131.61 Q198.311 1131.61 196.436 1132.02 Q194.584 1132.44 192.639 1133.32 L192.639 1115.96 Z" fill="#000000" fill-rule="evenodd" fill-opacity="1" /><path clip-path="url(#clip560)" d="M 0 0 M126.205 852.176 Q122.593 852.176 120.765 855.741 Q118.959 859.282 118.959 866.412 Q118.959 873.518 120.765 877.083 Q122.593 880.625 126.205 880.625 Q129.839 880.625 131.644 877.083 Q133.473 873.518 133.473 866.412 Q133.473 859.282 131.644 855.741 Q129.839 852.176 126.205 852.176 M126.205 848.472 Q132.015 848.472 135.07 853.078 Q138.149 857.662 138.149 866.412 Q138.149 875.139 135.07 879.745 Q132.015 884.328 126.205 884.328 Q120.394 884.328 117.316 879.745 Q114.26 875.139 114.26 866.412 Q114.26 857.662 117.316 853.078 Q120.394 848.472 126.205 848.472 Z" fill="#000000" fill-rule="evenodd" fill-opacity="1" /><path clip-path="url(#clip560)" d="M 0 0 M146.366 877.777 L151.251 877.777 L151.251 883.657 L146.366 883.657 L146.366 877.777 Z" fill="#000000" fill-rule="evenodd" fill-opacity="1" /><path clip-path="url(#clip560)" d="M 0 0 M162.246 879.722 L169.885 879.722 L169.885 853.356 L161.575 855.023 L161.575 850.764 L169.839 849.097 L174.514 849.097 L174.514 879.722 L182.153 879.722 L182.153 883.657 L162.246 883.657 L162.246 879.722 Z" fill="#000000" fill-rule="evenodd" fill-opacity="1" /><path clip-path="url(#clip560)" d="M 0 0 M201.598 852.176 Q197.987 852.176 196.158 855.741 Q194.352 859.282 194.352 866.412 Q194.352 873.518 196.158 877.083 Q197.987 880.625 201.598 880.625 Q205.232 880.625 207.037 877.083 Q208.866 873.518 208.866 866.412 Q208.866 859.282 207.037 855.741 Q205.232 852.176 201.598 852.176 M201.598 848.472 Q207.408 848.472 210.463 853.078 Q213.542 857.662 213.542 866.412 Q213.542 875.139 210.463 879.745 Q207.408 884.328 201.598 884.328 Q195.787 884.328 192.709 879.745 Q189.653 875.139 189.653 866.412 Q189.653 857.662 192.709 853.078 Q195.787 848.472 201.598 848.472 Z" fill="#000000" fill-rule="evenodd" fill-opacity="1" /><path clip-path="url(#clip560)" d="M 0 0 M127.2 585.315 Q123.589 585.315 121.76 588.88 Q119.955 592.421 119.955 599.551 Q119.955 606.657 121.76 610.222 Q123.589 613.764 127.2 613.764 Q130.834 613.764 132.64 610.222 Q134.468 606.657 134.468 599.551 Q134.468 592.421 132.64 588.88 Q130.834 585.315 127.2 585.315 M127.2 581.611 Q133.01 581.611 136.066 586.218 Q139.144 590.801 139.144 599.551 Q139.144 608.278 136.066 612.884 Q133.01 617.468 127.2 617.468 Q121.39 617.468 118.311 612.884 Q115.256 608.278 115.256 599.551 Q115.256 590.801 118.311 586.218 Q121.39 581.611 127.2 581.611 Z" fill="#000000" fill-rule="evenodd" fill-opacity="1" /><path clip-path="url(#clip560)" d="M 0 0 M147.362 610.917 L152.246 610.917 L152.246 616.796 L147.362 616.796 L147.362 610.917 Z" fill="#000000" fill-rule="evenodd" fill-opacity="1" /><path clip-path="url(#clip560)" d="M 0 0 M163.241 612.861 L170.88 612.861 L170.88 586.496 L162.57 588.162 L162.57 583.903 L170.834 582.236 L175.51 582.236 L175.51 612.861 L183.149 612.861 L183.149 616.796 L163.241 616.796 L163.241 612.861 Z" fill="#000000" fill-rule="evenodd" fill-opacity="1" /><path clip-path="url(#clip560)" d="M 0 0 M192.639 582.236 L210.996 582.236 L210.996 586.171 L196.922 586.171 L196.922 594.644 Q197.94 594.296 198.959 594.134 Q199.977 593.949 200.996 593.949 Q206.783 593.949 210.162 597.121 Q213.542 600.292 213.542 605.708 Q213.542 611.287 210.07 614.389 Q206.598 617.468 200.278 617.468 Q198.102 617.468 195.834 617.097 Q193.588 616.727 191.181 615.986 L191.181 611.287 Q193.264 612.421 195.487 612.977 Q197.709 613.532 200.186 613.532 Q204.19 613.532 206.528 611.426 Q208.866 609.32 208.866 605.708 Q208.866 602.097 206.528 599.991 Q204.19 597.884 200.186 597.884 Q198.311 597.884 196.436 598.301 Q194.584 598.718 192.639 599.597 L192.639 582.236 Z" fill="#000000" fill-rule="evenodd" fill-opacity="1" /><path clip-path="url(#clip560)" d="M 0 0 M126.205 318.454 Q122.593 318.454 120.765 322.019 Q118.959 325.561 118.959 332.69 Q118.959 339.797 120.765 343.362 Q122.593 346.903 126.205 346.903 Q129.839 346.903 131.644 343.362 Q133.473 339.797 133.473 332.69 Q133.473 325.561 131.644 322.019 Q129.839 318.454 126.205 318.454 M126.205 314.751 Q132.015 314.751 135.07 319.357 Q138.149 323.94 138.149 332.69 Q138.149 341.417 135.07 346.024 Q132.015 350.607 126.205 350.607 Q120.394 350.607 117.316 346.024 Q114.26 341.417 114.26 332.69 Q114.26 323.94 117.316 319.357 Q120.394 314.751 126.205 314.751 Z" fill="#000000" fill-rule="evenodd" fill-opacity="1" /><path clip-path="url(#clip560)" d="M 0 0 M146.366 344.056 L151.251 344.056 L151.251 349.936 L146.366 349.936 L146.366 344.056 Z" fill="#000000" fill-rule="evenodd" fill-opacity="1" /><path clip-path="url(#clip560)" d="M 0 0 M165.464 346 L181.783 346 L181.783 349.936 L159.839 349.936 L159.839 346 Q162.501 343.246 167.084 338.616 Q171.69 333.964 172.871 332.621 Q175.116 330.098 175.996 328.362 Q176.899 326.602 176.899 324.913 Q176.899 322.158 174.954 320.422 Q173.033 318.686 169.931 318.686 Q167.732 318.686 165.278 319.45 Q162.848 320.214 160.07 321.764 L160.07 317.042 Q162.894 315.908 165.348 315.329 Q167.802 314.751 169.839 314.751 Q175.209 314.751 178.403 317.436 Q181.598 320.121 181.598 324.612 Q181.598 326.741 180.788 328.663 Q180.001 330.561 177.894 333.153 Q177.315 333.825 174.214 337.042 Q171.112 340.237 165.464 346 Z" fill="#000000" fill-rule="evenodd" fill-opacity="1" /><path clip-path="url(#clip560)" d="M 0 0 M201.598 318.454 Q197.987 318.454 196.158 322.019 Q194.352 325.561 194.352 332.69 Q194.352 339.797 196.158 343.362 Q197.987 346.903 201.598 346.903 Q205.232 346.903 207.037 343.362 Q208.866 339.797 208.866 332.69 Q208.866 325.561 207.037 322.019 Q205.232 318.454 201.598 318.454 M201.598 314.751 Q207.408 314.751 210.463 319.357 Q213.542 323.94 213.542 332.69 Q213.542 341.417 210.463 346.024 Q207.408 350.607 201.598 350.607 Q195.787 350.607 192.709 346.024 Q189.653 341.417 189.653 332.69 Q189.653 323.94 192.709 319.357 Q195.787 314.751 201.598 314.751 Z" fill="#000000" fill-rule="evenodd" fill-opacity="1" /><path clip-path="url(#clip560)" d="M 0 0 M127.2 51.5936 Q123.589 51.5936 121.76 55.1584 Q119.955 58.7001 119.955 65.8297 Q119.955 72.9361 121.76 76.5009 Q123.589 80.0426 127.2 80.0426 Q130.834 80.0426 132.64 76.5009 Q134.468 72.9361 134.468 65.8297 Q134.468 58.7001 132.64 55.1584 Q130.834 51.5936 127.2 51.5936 M127.2 47.89 Q133.01 47.89 136.066 52.4964 Q139.144 57.0797 139.144 65.8297 Q139.144 74.5565 136.066 79.1629 Q133.01 83.7462 127.2 83.7462 Q121.39 83.7462 118.311 79.1629 Q115.256 74.5565 115.256 65.8297 Q115.256 57.0797 118.311 52.4964 Q121.39 47.89 127.2 47.89 Z" fill="#000000" fill-rule="evenodd" fill-opacity="1" /><path clip-path="url(#clip560)" d="M 0 0 M147.362 77.1954 L152.246 77.1954 L152.246 83.075 L147.362 83.075 L147.362 77.1954 Z" fill="#000000" fill-rule="evenodd" fill-opacity="1" /><path clip-path="url(#clip560)" d="M 0 0 M166.459 79.1398 L182.778 79.1398 L182.778 83.075 L160.834 83.075 L160.834 79.1398 Q163.496 76.3852 168.079 71.7556 Q172.686 67.1028 173.866 65.7602 Q176.112 63.2371 176.991 61.501 Q177.894 59.7417 177.894 58.0519 Q177.894 55.2973 175.95 53.5612 Q174.028 51.8251 170.927 51.8251 Q168.727 51.8251 166.274 52.589 Q163.843 53.3529 161.065 54.9038 L161.065 50.1816 Q163.89 49.0474 166.343 48.4687 Q168.797 47.89 170.834 47.89 Q176.204 47.89 179.399 50.5751 Q182.593 53.2603 182.593 57.751 Q182.593 59.8806 181.783 61.8019 Q180.996 63.7001 178.889 66.2926 Q178.311 66.9639 175.209 70.1815 Q172.107 73.3759 166.459 79.1398 Z" fill="#000000" fill-rule="evenodd" fill-opacity="1" /><path clip-path="url(#clip560)" d="M 0 0 M192.639 48.515 L210.996 48.515 L210.996 52.4501 L196.922 52.4501 L196.922 60.9223 Q197.94 60.5751 198.959 60.413 Q199.977 60.2279 200.996 60.2279 Q206.783 60.2279 210.162 63.3991 Q213.542 66.5704 213.542 71.9871 Q213.542 77.5657 210.07 80.6676 Q206.598 83.7462 200.278 83.7462 Q198.102 83.7462 195.834 83.3759 Q193.588 83.0055 191.181 82.2648 L191.181 77.5657 Q193.264 78.7 195.487 79.2555 Q197.709 79.8111 200.186 79.8111 Q204.19 79.8111 206.528 77.7046 Q208.866 75.5981 208.866 71.9871 Q208.866 68.376 206.528 66.2695 Q204.19 64.163 200.186 64.163 Q198.311 64.163 196.436 64.5797 Q194.584 64.9963 192.639 65.876 L192.639 48.515 Z" fill="#000000" fill-rule="evenodd" fill-opacity="1" /><path clip-path="url(#clip560)" d="M 0 0 M16.4842 901.529 L16.4842 895.1 L58.5933 895.1 L58.5933 871.96 L64.0042 871.96 L64.0042 901.529 L16.4842 901.529 Z" fill="#000000" fill-rule="evenodd" fill-opacity="1" /><path clip-path="url(#clip560)" d="M 0 0 M28.3562 865.467 L28.3562 859.611 L64.0042 859.611 L64.0042 865.467 L28.3562 865.467 M14.479 865.467 L14.479 859.611 L21.895 859.611 L21.895 865.467 L14.479 865.467 Z" fill="#000000" fill-rule="evenodd" fill-opacity="1" /><path clip-path="url(#clip560)" d="M 0 0 M14.479 847.58 L14.479 841.691 L43.7294 841.691 L28.3562 824.217 L28.3562 816.738 L45.0344 835.644 L64.0042 815.942 L64.0042 823.581 L46.5939 841.691 L64.0042 841.691 L64.0042 847.58 L14.479 847.58 Z" fill="#000000" fill-rule="evenodd" fill-opacity="1" /><path clip-path="url(#clip560)" d="M 0 0 M44.7161 781.44 L47.5806 781.44 L47.5806 808.367 Q53.6281 807.985 56.8109 804.738 Q59.9619 801.46 59.9619 795.635 Q59.9619 792.262 59.1344 789.111 Q58.3069 785.928 56.6518 782.809 L62.1899 782.809 Q63.5267 785.96 64.227 789.27 Q64.9272 792.58 64.9272 795.986 Q64.9272 804.516 59.9619 809.513 Q54.9967 814.478 46.5303 814.478 Q37.7774 814.478 32.6531 809.767 Q27.4968 805.025 27.4968 797.004 Q27.4968 789.811 32.1438 785.641 Q36.7589 781.44 44.7161 781.44 M42.9973 787.296 Q38.1912 787.36 35.3266 790.002 Q32.4621 792.612 32.4621 796.94 Q32.4621 801.842 35.2312 804.802 Q38.0002 807.73 43.0292 808.176 L42.9973 787.296 Z" fill="#000000" fill-rule="evenodd" fill-opacity="1" /><path clip-path="url(#clip560)" d="M 0 0 M14.479 771.828 L14.479 765.971 L64.0042 765.971 L64.0042 771.828 L14.479 771.828 Z" fill="#000000" fill-rule="evenodd" fill-opacity="1" /><path clip-path="url(#clip560)" d="M 0 0 M28.3562 753.717 L28.3562 747.861 L64.0042 747.861 L64.0042 753.717 L28.3562 753.717 M14.479 753.717 L14.479 747.861 L21.895 747.861 L21.895 753.717 L14.479 753.717 Z" fill="#000000" fill-rule="evenodd" fill-opacity="1" /><path clip-path="url(#clip560)" d="M 0 0 M42.4881 705.974 L64.0042 705.974 L64.0042 711.831 L42.679 711.831 Q37.6183 711.831 35.1038 713.804 Q32.5894 715.778 32.5894 719.724 Q32.5894 724.467 35.6131 727.204 Q38.6368 729.941 43.8567 729.941 L64.0042 729.941 L64.0042 735.83 L14.479 735.83 L14.479 729.941 L33.8944 729.941 Q30.6797 727.841 29.0883 725.008 Q27.4968 722.143 27.4968 718.419 Q27.4968 712.277 31.3163 709.126 Q35.1038 705.974 42.4881 705.974 Z" fill="#000000" fill-rule="evenodd" fill-opacity="1" /><path clip-path="url(#clip560)" d="M 0 0 M32.4621 680.48 Q32.4621 685.19 36.1542 687.928 Q39.8145 690.665 46.212 690.665 Q52.6095 690.665 56.3017 687.96 Q59.9619 685.222 59.9619 680.48 Q59.9619 675.801 56.2698 673.064 Q52.5777 670.327 46.212 670.327 Q39.8781 670.327 36.186 673.064 Q32.4621 675.801 32.4621 680.48 M27.4968 680.48 Q27.4968 672.841 32.4621 668.48 Q37.4273 664.12 46.212 664.12 Q54.9649 664.12 59.9619 668.48 Q64.9272 672.841 64.9272 680.48 Q64.9272 688.151 59.9619 692.511 Q54.9649 696.84 46.212 696.84 Q37.4273 696.84 32.4621 692.511 Q27.4968 688.151 27.4968 680.48 Z" fill="#000000" fill-rule="evenodd" fill-opacity="1" /><path clip-path="url(#clip560)" d="M 0 0 M32.4621 640.599 Q32.4621 645.309 36.1542 648.047 Q39.8145 650.784 46.212 650.784 Q52.6095 650.784 56.3017 648.078 Q59.9619 645.341 59.9619 640.599 Q59.9619 635.92 56.2698 633.183 Q52.5777 630.445 46.212 630.445 Q39.8781 630.445 36.186 633.183 Q32.4621 635.92 32.4621 640.599 M27.4968 640.599 Q27.4968 632.96 32.4621 628.599 Q37.4273 624.239 46.212 624.239 Q54.9649 624.239 59.9619 628.599 Q64.9272 632.96 64.9272 640.599 Q64.9272 648.269 59.9619 652.63 Q54.9649 656.959 46.212 656.959 Q37.4273 656.959 32.4621 652.63 Q27.4968 648.269 27.4968 640.599 Z" fill="#000000" fill-rule="evenodd" fill-opacity="1" /><path clip-path="url(#clip560)" d="M 0 0 M33.7671 591.073 L14.479 591.073 L14.479 585.217 L64.0042 585.217 L64.0042 591.073 L58.657 591.073 Q61.8398 592.92 63.3994 595.752 Q64.9272 598.553 64.9272 602.5 Q64.9272 608.961 59.771 613.035 Q54.6147 617.077 46.212 617.077 Q37.8093 617.077 32.6531 613.035 Q27.4968 608.961 27.4968 602.5 Q27.4968 598.553 29.0564 595.752 Q30.5842 592.92 33.7671 591.073 M46.212 611.03 Q52.6732 611.03 56.3653 608.388 Q60.0256 605.715 60.0256 601.068 Q60.0256 596.421 56.3653 593.747 Q52.6732 591.073 46.212 591.073 Q39.7508 591.073 36.0905 593.747 Q32.3984 596.421 32.3984 601.068 Q32.3984 605.715 36.0905 608.388 Q39.7508 611.03 46.212 611.03 Z" fill="#000000" fill-rule="evenodd" fill-opacity="1" /><polyline clip-path="url(#clip563)" style="stroke:#009af9; stroke-width:8; stroke-opacity:1; fill:none" points="
  309.067,1400.1 309.358,1400.1 311.63,1400.1 312.233,1400.1 313.047,1400.1 315.325,1400.1 317.03,1400.1 320.607,1400.1 321.184,1400.1 326.088,1400.1 
  330.991,1400.1 332.65,1400.1 333.704,1400.1 335.485,1400.1 343.22,1400.1 346.498,1400.1 346.586,1400.1 346.903,1400.1 349.45,1400.09 350.809,1400.09 
  353.345,1400.09 353.704,1400.09 355.186,1400.09 357.082,1400.09 360.15,1400.08 360.219,1400.08 360.902,1400.08 361.155,1400.08 363.008,1400.08 364.438,1400.08 
  364.664,1400.08 368.099,1400.07 368.48,1400.07 369.984,1400.07 370.462,1400.07 372.346,1400.06 372.428,1400.06 374.491,1400.05 376.967,1400.04 380.378,1400.03 
  383.26,1400.02 384.372,1400.01 386.02,1400 388.492,1399.98 389.284,1399.98 389.742,1399.97 389.962,1399.97 395.182,1399.93 402.132,1399.86 404.816,1399.82 
  405.339,1399.81 406.889,1399.79 407.214,1399.79 408.168,1399.77 408.626,1399.76 410.187,1399.74 426.085,1399.38 430.348,1399.25 430.484,1399.25 433.904,1399.13 
  437.194,1399.01 438.104,1398.97 440.786,1398.86 448.543,1398.49 451.348,1398.33 452.347,1398.27 454.376,1398.15 455.141,1398.1 455.192,1398.1 455.871,1398.06 
  457.13,1397.98 458.092,1397.91 460.863,1397.72 461.211,1397.7 463.767,1397.51 464.695,1397.43 465.423,1397.38 466.475,1397.29 468.077,1397.16 473.284,1396.7 
  473.647,1396.66 474.536,1396.58 476.318,1396.4 477.877,1396.24 479.13,1396.11 479.841,1396.04 479.903,1396.03 480.834,1395.93 482.275,1395.77 482.639,1395.73 
  484.494,1395.51 486.982,1395.21 487.245,1395.18 487.434,1395.16 488.625,1395.01 492.066,1394.55 492.339,1394.52 493.18,1394.4 494.07,1394.28 494.251,1394.25 
  503.539,1392.82 510.731,1391.55 515.285,1390.66 517.747,1390.16 521.346,1389.38 521.585,1389.33 524.374,1388.69 527.76,1387.89 528.575,1387.69 529.971,1387.34 
  531.409,1386.97 533.088,1386.54 534.59,1386.14 534.758,1386.09 535.853,1385.79 536.13,1385.72 537.672,1385.29 537.764,1385.26 537.968,1385.2 541.454,1384.2 
  541.869,1384.07 543.718,1383.51 550.122,1381.47 556.289,1379.34 556.729,1379.18 560.224,1377.89 561.822,1377.28 565.888,1375.68 566.328,1375.5 569.235,1374.3 
  573.698,1372.37 574.077,1372.21 574.563,1371.99 574.859,1371.86 575.068,1371.76 578.738,1370.08 580.593,1369.2 583.257,1367.91 584.308,1367.39 584.79,1367.15 
  585.164,1366.96 586.664,1366.2 589.176,1364.9 590.563,1364.17 593.74,1362.45 593.745,1362.45 594.241,1362.17 595.785,1361.31 596.479,1360.92 597.367,1360.42 
  599.328,1359.29 602.272,1357.55 602.354,1357.5 610.761,1352.25 618.28,1347.19 619.186,1346.56 619.986,1345.99 626.466,1341.27 632.11,1336.94 634.696,1334.88 
  635.117,1334.54 636.393,1333.51 637.321,1332.75 639.027,1331.34 640.492,1330.11 642.016,1328.82 644.984,1326.25 645.428,1325.86 651.637,1320.28 654.226,1317.87 
  655.761,1316.42 660.69,1311.65 662.2,1310.15 664.446,1307.9 666.987,1305.3 672.164,1299.86 672.514,1299.48 674.812,1297 677.618,1293.91 679.95,1291.3 
  680.304,1290.9 680.767,1290.37 681.478,1289.56 682.357,1288.56 683.749,1286.96 685.253,1285.21 685.576,1284.83 686.164,1284.14 686.459,1283.79 687.563,1282.49 
  689.476,1280.2 690.65,1278.79 691.132,1278.2 692.048,1277.09 692.457,1276.59 698.653,1268.86 713.198,1249.53 713.607,1248.97 715.005,1247.02 716.319,1245.17 
  718.412,1242.2 724.51,1233.36 724.67,1233.12 726.91,1229.8 730.949,1223.7 731.656,1222.62 735.07,1217.35 736.021,1215.87 736.332,1215.38 738.539,1211.9 
  739.518,1210.34 740.449,1208.86 742.844,1205 745.09,1201.35 747.224,1197.84 748.867,1195.11 749.13,1194.67 754.107,1186.28 760.667,1174.91 761.199,1173.98 
  762.224,1172.17 765.761,1165.86 774.807,1149.29 774.82,1149.27 776.605,1145.92 777.281,1144.65 779.041,1141.32 779.899,1139.69 781.616,1136.41 781.631,1136.38 
  783.435,1132.91 784.026,1131.77 784.547,1130.76 788.133,1123.76 791.437,1117.22 791.873,1116.35 796.391,1107.28 797.306,1105.42 800.89,1098.09 802.666,1094.42 
  802.981,1093.77 806.128,1087.21 806.904,1085.59 807.232,1084.9 808.519,1082.19 808.659,1081.89 809.319,1080.5 811.702,1075.43 812.939,1072.79 813.288,1072.04 
  817.741,1062.42 818.764,1060.19 819.019,1059.64 819.704,1058.14 823.489,1049.81 824.908,1046.67 824.983,1046.5 828.257,1039.19 830.404,1034.36 831.611,1031.63 
  836.086,1021.43 837.501,1018.17 837.946,1017.15 839.706,1013.09 849.746,989.538 851.407,985.587 851.485,985.401 859.318,966.551 864.619,953.606 865.113,952.391 
  869.827,940.744 871.609,936.311 878.751,918.395 878.774,918.336 879.609,916.225 881.22,912.144 881.661,911.026 882.431,909.069 882.769,908.21 883.515,906.31 
  888.788,892.817 889.106,892.002 896.733,872.271 896.746,872.237 898.808,866.863 902.606,856.923 904.32,852.42 905.25,849.975 906.37,847.023 908.228,842.117 
  909.886,837.732 911.484,833.493 912.702,830.259 915.284,823.388 917.078,818.601 918.15,815.736 918.509,814.778 923.996,800.06 929.018,786.523 934.788,770.899 
  935.475,769.036 935.702,768.419 937.887,762.481 938.715,760.227 939.049,759.32 945.519,741.675 945.611,741.422 945.892,740.657 946.217,739.766 947.558,736.102 
  948.732,732.891 951.154,726.258 953.553,719.684 953.577,719.62 957.672,708.384 962.359,695.511 962.483,695.169 963.861,691.383 964.657,689.194 969.454,676.004 
  969.459,675.989 970.518,673.078 975.45,659.514 975.564,659.2 975.84,658.44 979.044,649.632 979.506,648.363 982.328,640.61 985.273,632.522 990.57,617.996 
  996.748,601.094 997.345,599.465 999.958,592.334 1000.04,592.103 1000.53,590.778 1005.81,576.402 1005.93,576.072 1009.84,565.491 1010.01,565.026 1010.66,563.247 
  1010.84,562.76 1015.05,551.4 1018.94,540.94 1022.13,532.377 1022.52,531.336 1022.85,530.472 1026.91,519.627 1027.65,517.655 1031.15,508.374 1033.5,502.164 
  1034.47,499.615 1036.03,495.506 1042.25,479.219 1043.55,475.85 1045.59,470.561 1047.55,465.471 1050.06,459.01 1053.38,450.495 1054.44,447.79 1055.3,445.61 
  1057.21,440.762 1057.21,440.753 1058.64,437.129 1065.13,420.824 1065.23,420.584 1065.56,419.759 1065.72,419.352 1065.87,418.987 1073.11,401.078 1076.51,392.802 
  1084.17,374.358 1084.44,373.711 1086.67,368.425 1088.2,364.805 1091.58,356.89 1092.61,354.48 1093.55,352.318 1094.95,349.062 1096.59,345.294 1097.44,343.348 
  1098.43,341.073 1099,339.769 1099.07,339.625 1102.87,331.018 1103.23,330.201 1103.86,328.779 1108.07,319.399 1109.84,315.506 1112.25,310.228 1119.78,294.041 
  1121.62,290.159 1123.48,286.274 1131.19,270.455 1131.98,268.859 1132,268.811 1132.12,268.579 1132.38,268.052 1134.43,263.954 1134.93,262.967 1137.97,256.967 
  1139.55,253.886 1142.28,248.623 1143.57,246.156 1146.49,240.635 1148.02,237.761 1148.91,236.118 1150.53,233.129 1150.67,232.871 1154.16,226.509 1156.01,223.192 
  1156.16,222.937 1159.56,216.928 1159.62,216.831 1161.39,213.745 1162.42,211.978 1168.06,202.447 1169.11,200.7 1169.45,200.149 1170.78,197.956 1171.05,197.521 
  1171.07,197.487 1173.96,192.829 1174.95,191.255 1176.24,189.21 1179.01,184.907 1179.33,184.411 1183.64,177.876 1186.94,173.014 1188.64,170.557 1189.49,169.345 
  1191.51,166.48 1191.8,166.075 1192.41,165.22 1194.83,161.89 1200.57,154.24 1201.83,152.609 1203.39,150.628 1204.03,149.82 1208.42,144.404 1210.55,141.859 
  1210.94,141.401 1211.52,140.726 1211.85,140.334 1212.09,140.052 1212.68,139.375 1212.86,139.161 1218.45,132.904 1219.79,131.465 1220.39,130.824 1221.81,129.33 
  1226.01,125.05 1227.46,123.62 1228.54,122.578 1230.24,120.965 1231.34,119.937 1232.6,118.776 1235.15,116.495 1235.96,115.788 1241.82,110.912 1243.24,109.801 
  1243.91,109.277 1249.07,105.486 1250.48,104.512 1253.03,102.809 1254.29,101.998 1254.73,101.724 1256.82,100.434 1257.92,99.7799 1258.11,99.668 1259.2,99.0384 
  1260.86,98.1131 1261.47,97.7793 1261.95,97.5219 1262.06,97.4625 1266.73,95.11 1266.74,95.1062 1268.49,94.2994 1269.24,93.9661 1269.79,93.7267 1270.18,93.5574 
  1270.97,93.226 1272.31,92.6786 1275.29,91.5433 1275.69,91.4013 1283.3,89.0826 1286.01,88.4429 1287.02,88.2285 1287.3,88.1703 1290.66,87.5692 1293.56,87.1696 
  1294.08,87.1101 1294.69,87.0453 1295.63,86.9534 1297.24,86.8245 1298.65,86.7401 1303.25,86.6476 1304.89,86.6826 1308.2,86.8627 1308.65,86.8982 1310.82,87.1086 
  1311.28,87.161 1313.68,87.4803 1315.38,87.7528 1315.94,87.8507 1317.39,88.1248 1320.14,88.7209 1321.3,89.0026 1321.44,89.0378 1321.58,89.0713 1325.82,90.2671 
  1327.09,90.6726 1331.85,92.3763 1335.99,94.1022 1340.6,96.2856 1342.03,97.0221 1345.14,98.7087 1345.19,98.7391 1345.69,99.0235 1346.36,99.4103 1348.61,100.742 
  1348.91,100.925 1351.15,102.334 1351.93,102.834 1353.78,104.066 1355.73,105.402 1359.38,108.048 1362.46,110.407 1368.07,115.02 1369.19,115.986 1373.09,119.481 
  1373.14,119.53 1376.58,122.768 1376.81,122.993 1380.09,126.226 1381.3,127.457 1381.56,127.718 1384.39,130.68 1387.82,134.385 1390.65,137.547 1392.32,139.469 
  1394.55,142.078 1396.21,144.05 1396.66,144.598 1398.17,146.429 1411.7,164.094 1412.5,165.213 1413.86,167.118 1414.82,168.468 1418.33,173.527 1419.86,175.767 
  1419.94,175.89 1420.76,177.104 1422.33,179.448 1423.07,180.565 1426.81,186.295 1428.53,188.974 1429.35,190.268 1429.64,190.728 1431.4,193.535 1432.6,195.468 
  1435.1,199.535 1437.3,203.178 1439.84,207.436 1440.18,208.013 1440.97,209.358 1441.5,210.251 1445.76,217.623 1448.22,221.969 1449.08,223.5 1454.72,233.724 
  1455.06,234.351 1457.14,238.208 1459.8,243.204 1460.94,245.361 1462.69,248.699 1463.65,250.555 1465.61,254.35 1466.63,256.34 1469.08,261.146 1473.47,269.916 
  1474.44,271.886 1475.19,273.395 1475.7,274.446 1476.29,275.635 1476.42,275.907 1477.45,278.013 1479.31,281.843 1482.07,287.582 1483.23,290.009 1483.71,291.027 
  1488.23,300.635 1494.58,314.41 1497.84,321.584 1498.87,323.881 1501.31,329.342 1506.1,340.189 1506.91,342.041 1507.93,344.373 1508.14,344.844 1508.59,345.884 
  1511.42,352.415 1511.76,353.204 1516.09,363.32 1517.14,365.797 1517.66,367.014 1519.39,371.127 1520.32,373.32 1520.85,374.593 1521.51,376.176 1523.28,380.402 
  1530.15,397.013 1530.77,398.545 1532.03,401.613 1533.98,406.423 1536.63,412.952 1547.06,439.092 1550.91,448.903 1550.99,449.091 1551.93,451.49 1555.1,459.629 
  1555.54,460.756 1558.35,468.023 1558.66,468.81 1563,480.074 1563,480.074 1568.75,495.134 1572.87,505.991 1576.08,514.508 1580.68,526.756 1582.54,531.717 
  1582.77,532.325 1585.63,539.991 1586.44,542.178 1586.82,543.179 1590.5,553.104 1591.82,556.654 1592.01,557.182 1593.25,560.533 1600.09,579.054 1602.5,585.616 
  1606.12,595.483 1606.4,596.246 1607.14,598.266 1609.82,605.588 1611.55,610.336 1613.62,615.998 1614.04,617.151 1614.98,619.729 1616.48,623.825 1621.38,637.28 
  1622.43,640.156 1622.66,640.787 1626.42,651.124 1626.44,651.166 1627.74,654.759 1631.2,664.266 1633.58,670.813 1633.65,671.015 1633.68,671.074 1633.69,671.114 
  1634.72,673.953 1637.14,680.602 1637.62,681.917 1638.27,683.706 1650.68,717.802 1651.34,719.601 1652.78,723.541 1653.25,724.854 1655.72,731.603 1655.77,731.755 
  1656.6,734.003 1657.53,736.549 1657.61,736.782 1658.74,739.858 1659.13,740.934 1659.92,743.092 1661.8,748.212 1662.32,749.629 1663.92,754.001 1664.15,754.616 
  1665.6,758.58 1667.19,762.895 1667.98,765.039 1668.05,765.237 1669.31,768.651 1669.55,769.318 1670.85,772.856 1671.44,774.435 1671.81,775.452 1672.26,776.662 
  1674.64,783.115 1677.6,791.108 1678.53,793.619 1683.11,805.925 1685.03,811.075 1686.1,813.93 1687.34,817.244 1688.6,820.62 1689.07,821.879 1690.54,825.791 
  1695.65,839.367 1696.21,840.843 1699.86,850.471 1702.64,857.784 1702.73,858.006 1703.07,858.907 1703.81,860.852 1704.85,863.573 1705.78,865.99 1706.17,866.998 
  1707.78,871.217 1710.5,878.286 1714.68,889.087 1718,897.609 1719.28,900.881 1720.1,902.982 1727.42,921.55 1728.84,925.13 1731.86,932.68 1732,933.03 
  1732.44,934.127 1736.69,944.703 1740.24,953.463 1743.15,960.583 1743.55,961.553 1743.89,962.393 1745.72,966.844 1747.6,971.397 1748.48,973.516 1752.23,982.517 
  1753.48,985.511 1755.05,989.246 1756.79,993.355 1759.47,999.696 1762.79,1007.45 1763.55,1009.22 1765.8,1014.44 1767.04,1017.29 1769.45,1022.84 1770.74,1025.78 
  1771,1026.37 1774.23,1033.72 1777.01,1039.96 1778.42,1043.11 1785.61,1058.99 1786.51,1060.96 1787.62,1063.38 1789.36,1067.15 1790.29,1069.15 1790.45,1069.49 
  1791.21,1071.13 1792.37,1073.62 1794.17,1077.46 1794.57,1078.31 1794.69,1078.56 1794.9,1079.02 1794.93,1079.07 1795.05,1079.32 1795.45,1080.16 1802.25,1094.41 
  1804.77,1099.61 1807.96,1106.13 1808.29,1106.79 1808.33,1106.88 1808.53,1107.28 1813.13,1116.51 1813.37,1116.99 1815.91,1122.03 1819.5,1129.06 1824.77,1139.21 
  1825.33,1140.27 1826.65,1142.78 1827.82,1145 1829.72,1148.55 1830,1149.08 1834.27,1156.98 1834.7,1157.76 1834.91,1158.15 1836.76,1161.51 1840.56,1168.37 
  1841.81,1170.6 1842.19,1171.26 1843.27,1173.19 1844.99,1176.2 1846.9,1179.53 1847.35,1180.31 1848.25,1181.87 1850.02,1184.91 1850.23,1185.27 1851.21,1186.95 
  1855.92,1194.89 1860.45,1202.35 1860.57,1202.55 1862.11,1205.06 1863.21,1206.83 1864.4,1208.74 1866.53,1212.13 1867.52,1213.7 1870.63,1218.57 1880.3,1233.2 
  1880.71,1233.8 1881.68,1235.22 1894.48,1253.32 1895.32,1254.47 1896.39,1255.91 1898.84,1259.2 1900,1260.73 1902.29,1263.74 1902.69,1264.25 1906.71,1269.41 
  1908.29,1271.41 1911.86,1275.85 1911.87,1275.86 1913.32,1277.63 1913.55,1277.91 1915.09,1279.78 1917.14,1282.22 1917.22,1282.32 1918.2,1283.49 1919.92,1285.5 
  1927.03,1293.61 1928.29,1295 1933.35,1300.49 1937.64,1304.99 1949.32,1316.57 1949.63,1316.86 1952.68,1319.72 1953.46,1320.45 1955.41,1322.22 1959.63,1325.98 
  1964.57,1330.23 1968.61,1333.57 1972,1336.3 1978.94,1341.63 1979.66,1342.17 1980.41,1342.73 1981,1343.16 1982.62,1344.34 1982.96,1344.58 1983.7,1345.11 
  1984,1345.33 1984.14,1345.42 1986.48,1347.08 1988.25,1348.3 1990.67,1349.95 1991.84,1350.72 1992.07,1350.88 1992.23,1350.99 1993.87,1352.06 1995.5,1353.12 
  1999.5,1355.64 2000.74,1356.4 2003.86,1358.27 2007.28,1360.26 2008.82,1361.14 2012.98,1363.43 2018.76,1366.46 2018.87,1366.51 2021.51,1367.83 2023.03,1368.57 
  2023.37,1368.74 2024.06,1369.07 2025.79,1369.9 2028,1370.92 2031.07,1372.31 2031.19,1372.36 2033.85,1373.52 2035.97,1374.42 2036.86,1374.79 2037.48,1375.05 
  2039.19,1375.74 2039.45,1375.85 2040.77,1376.37 2046.27,1378.48 2050.04,1379.84 2050.04,1379.84 2050.3,1379.94 2050.68,1380.07 2051.11,1380.22 2052.36,1380.65 
  2052.72,1380.77 2056.7,1382.1 2065.56,1384.81 2067.18,1385.27 2068.98,1385.77 2069.21,1385.83 2069.23,1385.84 2069.71,1385.97 2069.92,1386.03 2072.03,1386.59 
  2074.49,1387.22 2077.03,1387.86 2081.22,1388.85 2083.6,1389.39 2085.28,1389.75 2085.3,1389.76 2085.73,1389.85 2086.65,1390.05 2088.51,1390.44 2089.07,1390.55 
  2089.71,1390.68 2091.78,1391.09 2092.83,1391.29 2095.11,1391.72 2097.35,1392.13 2098.64,1392.36 2107.08,1393.73 2110.14,1394.17 2110.65,1394.25 2114.17,1394.73 
  2114.82,1394.81 2115.3,1394.88 2115.73,1394.93 2117.31,1395.13 2120.21,1395.49 2120.61,1395.53 2120.77,1395.55 2121.38,1395.62 2122.5,1395.75 2124.23,1395.94 
  2126.9,1396.23 2127.13,1396.25 2129.62,1396.5 2130.01,1396.54 2130.83,1396.62 2131.65,1396.7 2134.56,1396.96 2137.35,1397.2 2139.73,1397.39 2140.35,1397.44 
  2142.01,1397.57 2149.3,1398.07 2149.51,1398.09 2159.83,1398.66 2161.66,1398.75 2161.78,1398.75 2162.76,1398.8 2163.1,1398.81 2163.95,1398.85 2164.42,1398.87 
  2165.11,1398.9 2166.2,1398.95 2167.98,1399.02 2170.03,1399.1 2176.32,1399.31 2176.43,1399.31 2176.63,1399.32 2180.28,1399.42 2183.32,1399.5 2188.27,1399.62 
  2189.38,1399.64 2190.54,1399.66 2191.45,1399.68 2198.95,1399.8 2199.15,1399.81 2199.67,1399.81 2204.12,1399.87 2209.59,1399.93 2210.37,1399.94 2210.74,1399.94 
  2215.06,1399.97 2215.33,1399.98 2216.71,1399.99 2224.04,1400.03 2229.35,1400.05 2231.26,1400.06 2236.39,1400.07 2237.37,1400.07 2237.62,1400.07 2238.85,1400.08 
  2240.3,1400.08 2244.1,1400.08 2245.36,1400.09 2247.69,1400.09 2248.47,1400.09 2254.17,1400.09 2258.18,1400.1 2259.05,1400.1 2261.66,1400.1 2262.11,1400.1 
  2262.45,1400.1 2264.57,1400.1 2266.14,1400.1 2267.29,1400.1 2268.17,1400.1 2274.82,1400.1 2276.57,1400.1 2277.18,1400.1 2277.52,1400.1 2279.11,1400.1 
  2281.88,1400.1 2281.94,1400.1 2283.85,1400.1 2284.87,1400.1 2288.87,1400.1 2290.5,1400.1 2291.53,1400.1 2292.22,1400.1 2292.95,1400.1 2293.23,1400.1 
  
  "/>
<path clip-path="url(#clip560)" d="
M1494.12 275.093 L2282.65 275.093 L2282.65 93.6527 L1494.12 93.6527  Z
  " fill="#ffffff" fill-rule="evenodd" fill-opacity="1"/>
<polyline clip-path="url(#clip560)" style="stroke:#000000; stroke-width:4; stroke-opacity:1; fill:none" points="
  1494.12,275.093 2282.65,275.093 2282.65,93.6527 1494.12,93.6527 1494.12,275.093 
  "/>
<polyline clip-path="url(#clip560)" style="stroke:#009af9; stroke-width:6; stroke-opacity:1; fill:none" points="
  1517.49,184.373 1657.71,184.373 
  "/>
<path clip-path="url(#clip560)" d="M 0 0 M1718.67 181.886 Q1718.67 187.015 1716.07 191.969 Q1713.5 196.923 1709.46 199.98 Q1705.42 203.001 1701.31 203.001 Q1698.85 203.001 1697.2 201.666 Q1695.58 200.296 1694.71 198.363 Q1694.04 200.753 1692.6 206.479 Q1691.16 212.206 1691.16 212.768 Q1691.16 213.084 1691.23 213.225 Q1691.3 213.366 1691.61 213.541 Q1691.93 213.752 1692.7 213.822 Q1693.48 213.928 1694.78 213.928 Q1695.44 213.928 1695.69 213.928 Q1695.97 213.963 1696.22 214.138 Q1696.5 214.314 1696.5 214.701 Q1696.5 216.141 1695.2 216.141 Q1694.04 216.141 1691.65 216.036 Q1689.26 215.93 1688.07 215.93 Q1687.05 215.93 1685.01 216.036 Q1682.97 216.141 1682.02 216.141 Q1681.07 216.141 1681.07 215.298 Q1681.07 214.806 1681.21 214.49 Q1681.32 214.209 1681.6 214.068 Q1681.88 213.963 1682.13 213.928 Q1682.34 213.928 1682.76 213.928 Q1684.38 213.928 1685.08 213.647 Q1685.78 213.401 1686.03 212.874 Q1686.31 212.382 1686.63 210.976 L1694.71 178.935 Q1695.2 176.791 1695.2 175.281 Q1695.2 173.383 1694.6 172.681 Q1694 171.978 1692.95 171.978 Q1691.12 171.978 1689.93 174.156 Q1688.73 176.335 1687.71 180.551 Q1687.4 181.71 1687.19 181.956 Q1687.01 182.202 1686.48 182.202 Q1685.61 182.167 1685.61 181.464 Q1685.61 181.288 1685.89 180.164 Q1686.17 179.005 1686.7 177.318 Q1687.26 175.597 1687.85 174.508 Q1688.21 173.77 1688.52 173.278 Q1688.84 172.786 1689.47 172.013 Q1690.14 171.24 1691.09 170.819 Q1692.04 170.397 1693.2 170.397 Q1695.44 170.397 1697.31 171.732 Q1699.17 173.067 1699.66 175.772 Q1701.66 173.419 1704.12 171.908 Q1706.58 170.397 1709.08 170.397 Q1713.22 170.397 1715.93 173.629 Q1718.67 176.826 1718.67 181.886 M1713.47 178.724 Q1713.47 175.527 1712.24 173.77 Q1711.04 171.978 1708.86 171.978 Q1706.16 171.978 1703.03 174.718 Q1699.94 177.318 1699.31 179.743 L1695.76 193.831 L1695.55 194.991 Q1695.55 195.201 1695.65 195.834 Q1695.8 196.431 1696.18 197.415 Q1696.6 198.399 1697.17 199.277 Q1697.76 200.12 1698.82 200.753 Q1699.91 201.385 1701.24 201.385 Q1703.38 201.385 1705.7 199.488 Q1708.06 197.59 1709.81 194.007 Q1710.9 191.688 1712.17 186.699 Q1713.47 181.675 1713.47 178.724 Z" fill="#000000" fill-rule="evenodd" fill-opacity="1" /><path clip-path="url(#clip560)" d="M 0 0 M1716.92 184.205 Q1716.92 172.048 1721.45 162.246 Q1723.38 158.135 1726.09 154.692 Q1728.79 151.249 1730.58 149.738 Q1732.37 148.228 1732.87 148.228 Q1733.57 148.228 1733.6 148.93 Q1733.6 149.282 1732.66 150.16 Q1721.06 161.965 1721.1 184.205 Q1721.1 206.514 1732.37 217.863 Q1733.6 219.092 1733.6 219.479 Q1733.6 220.181 1732.87 220.181 Q1732.37 220.181 1730.65 218.741 Q1728.93 217.3 1726.26 213.998 Q1723.59 210.695 1721.66 206.655 Q1716.92 196.853 1716.92 184.205 Z" fill="#000000" fill-rule="evenodd" fill-opacity="1" /><path clip-path="url(#clip560)" d="M 0 0 M1777.75 173.137 Q1777.75 173.629 1777.43 174.789 L1770.54 202.263 Q1769.03 208.377 1764.11 212.663 Q1759.23 216.949 1753.68 216.949 Q1750.34 216.949 1748.2 215.157 Q1746.06 213.401 1746.06 210.695 Q1746.06 208.306 1747.32 207.147 Q1748.59 206.023 1750.1 206.023 Q1750.59 206.023 1751.12 206.163 Q1751.64 206.304 1752.2 206.901 Q1752.77 207.498 1752.77 208.517 Q1752.77 210.168 1751.33 211.468 Q1750.62 212.066 1749.96 212.206 Q1749.32 212.347 1748.23 212.347 Q1748.66 213.33 1749.43 213.998 Q1750.2 214.665 1751.08 214.911 Q1751.96 215.192 1752.52 215.263 Q1753.12 215.368 1753.68 215.368 Q1758.18 215.368 1761.62 210.836 Q1762.64 209.466 1763.38 208.095 Q1764.15 206.76 1764.71 205.109 Q1765.27 203.493 1765.52 202.615 Q1765.8 201.736 1766.29 199.734 Q1763.03 203.001 1759.02 203.001 Q1757.33 203.001 1755.82 202.544 Q1754.35 202.088 1753.05 201.139 Q1751.75 200.155 1750.97 198.434 Q1750.24 196.712 1750.24 194.428 Q1750.24 192.004 1751.19 188.702 Q1752.13 185.399 1754.42 179.321 Q1755.65 175.913 1755.65 174.262 Q1755.65 173.454 1755.47 172.962 Q1755.3 172.435 1754.94 172.259 Q1754.59 172.048 1754.38 172.013 Q1754.21 171.978 1753.86 171.978 Q1751.78 171.978 1749.85 174.086 Q1747.92 176.194 1746.58 180.902 Q1746.3 181.78 1746.13 181.991 Q1745.95 182.202 1745.42 182.202 Q1744.55 182.167 1744.55 181.464 Q1744.55 181.183 1744.86 180.094 Q1745.18 178.97 1745.92 177.318 Q1746.69 175.632 1747.74 174.121 Q1748.8 172.575 1750.45 171.486 Q1752.13 170.397 1754.07 170.397 Q1756.7 170.397 1758.32 172.119 Q1759.97 173.805 1759.97 176.299 Q1759.97 177.318 1759.69 178.232 Q1759.44 179.11 1758.53 181.464 Q1754.84 190.95 1754.84 195.588 Q1754.84 196.712 1755.01 197.661 Q1755.23 198.574 1755.68 199.488 Q1756.14 200.366 1757.05 200.893 Q1758 201.385 1759.3 201.385 Q1760.95 201.385 1762.5 200.612 Q1764.08 199.804 1765.06 198.715 Q1766.08 197.626 1766.68 196.712 Q1767.31 195.764 1767.45 195.272 L1770.68 182.342 L1772.13 176.581 Q1772.79 173.454 1773.11 172.681 Q1773.53 171.943 1774.27 171.556 Q1775.01 171.17 1775.64 171.17 Q1776.52 171.17 1777.11 171.697 Q1777.75 172.224 1777.75 173.137 Z" fill="#000000" fill-rule="evenodd" fill-opacity="1" /><path clip-path="url(#clip560)" d="M 0 0 M1799.41 191.266 Q1799.48 190.388 1800.85 190.388 L1844.94 190.388 Q1847.01 190.388 1847.05 191.196 Q1847.05 192.075 1845.08 192.039 L1801.34 192.039 Q1799.41 192.075 1799.41 191.266 M1799.41 177.213 Q1799.41 176.335 1800.92 176.37 L1844.87 176.37 Q1847.01 176.37 1847.05 177.213 Q1847.05 178.021 1845.22 178.021 L1800.85 178.021 Q1799.41 178.021 1799.41 177.213 Z" fill="#000000" fill-rule="evenodd" fill-opacity="1" /><path clip-path="url(#clip560)" d="M 0 0 M1874.8 190.599 Q1874.8 188.456 1875.96 187.648 Q1877.12 186.804 1878.35 186.804 Q1880 186.804 1880.95 187.858 Q1881.94 188.877 1881.94 190.318 Q1881.94 191.758 1880.95 192.812 Q1880 193.831 1878.35 193.831 Q1877.54 193.831 1877.12 193.691 Q1878.07 196.993 1880.95 199.382 Q1883.87 201.771 1887.7 201.771 Q1892.51 201.771 1895.39 197.099 Q1897.11 194.077 1897.11 187.226 Q1897.11 181.183 1895.81 178.162 Q1893.81 173.559 1889.7 173.559 Q1883.87 173.559 1880.42 178.583 Q1880 179.216 1879.51 179.251 Q1878.81 179.251 1878.63 178.864 Q1878.49 178.443 1878.49 177.353 L1878.49 156.062 Q1878.49 154.341 1879.19 154.341 Q1879.48 154.341 1880.07 154.552 Q1884.61 156.554 1889.63 156.59 Q1894.79 156.59 1899.43 154.481 Q1899.78 154.271 1899.99 154.271 Q1900.7 154.271 1900.73 155.079 Q1900.73 155.36 1900.13 156.203 Q1899.57 157.011 1898.34 158.1 Q1897.11 159.154 1895.53 160.173 Q1893.95 161.192 1891.63 161.895 Q1889.35 162.562 1886.82 162.562 Q1883.8 162.562 1880.71 161.614 L1880.71 175.632 Q1884.43 171.978 1889.84 171.978 Q1895.6 171.978 1899.57 176.616 Q1903.54 181.253 1903.54 187.718 Q1903.54 194.499 1898.83 199.136 Q1894.16 203.774 1887.84 203.774 Q1882.08 203.774 1878.42 199.663 Q1874.8 195.553 1874.8 190.599 Z" fill="#000000" fill-rule="evenodd" fill-opacity="1" /><path clip-path="url(#clip560)" d="M 0 0 M1910.44 217.968 L1910.44 150.968 Q1910.44 148.298 1911.88 148.298 Q1913.32 148.298 1913.32 150.441 L1913.32 217.441 Q1913.32 220.111 1911.88 220.111 Q1910.44 220.111 1910.44 217.968 Z" fill="#000000" fill-rule="evenodd" fill-opacity="1" /><path clip-path="url(#clip560)" d="M 0 0 M1969.86 166.216 Q1969.86 172.119 1967.96 178.759 Q1966.1 185.364 1963.15 190.704 Q1960.2 196.009 1956.33 199.523 Q1952.47 203.001 1948.78 203.001 Q1946.42 203.001 1944.67 201.701 Q1942.95 200.366 1942 198.153 Q1941.05 195.904 1940.59 193.445 Q1940.14 190.95 1940.14 188.245 Q1940.14 184.205 1941.01 179.813 Q1941.89 175.386 1943.37 171.381 Q1944.84 167.34 1946.92 163.687 Q1948.99 159.997 1951.27 157.327 Q1953.59 154.622 1956.19 153.041 Q1958.79 151.46 1961.22 151.46 Q1962.97 151.46 1964.38 152.233 Q1965.82 152.971 1966.73 154.271 Q1967.65 155.535 1968.28 157.046 Q1968.95 158.557 1969.26 160.314 Q1969.58 162.035 1969.72 163.476 Q1969.86 164.881 1969.86 166.216 M1965.12 161.754 Q1965.12 159.962 1964.98 158.627 Q1964.83 157.257 1964.45 155.887 Q1964.06 154.517 1963.22 153.779 Q1962.41 153.041 1961.15 153.041 Q1957.46 153.041 1953.31 160.595 Q1951.98 162.949 1950.78 166.146 Q1949.59 169.343 1949.16 170.854 Q1948.74 172.365 1947.76 176.089 L1962.8 176.089 Q1965.12 166.497 1965.12 161.754 M1962.16 178.372 L1947.2 178.372 Q1944.88 187.156 1944.88 192.637 Q1944.88 197.415 1945.86 199.417 Q1946.88 201.385 1948.78 201.385 Q1950.96 201.385 1952.99 199.207 Q1955.03 196.993 1957.11 192.988 Q1959.85 187.788 1962.16 178.372 Z" fill="#000000" fill-rule="evenodd" fill-opacity="1" /><path clip-path="url(#clip560)" d="M 0 0 M1974.56 201.034 Q1973.54 199.874 1973.54 198.363 Q1973.54 196.853 1974.53 195.728 Q1975.54 194.569 1977.37 194.569 Q1979.51 194.569 1980.74 196.642 Q1981.97 198.68 1981.97 202.123 Q1981.97 205.847 1980.46 209.29 Q1978.95 212.768 1977.48 214.42 Q1976 216.071 1975.4 216.071 Q1974.7 216.071 1974.7 215.298 Q1974.7 215.017 1975.19 214.49 Q1980.36 208.939 1980.39 202.123 Q1980.39 201.034 1980.25 201.034 L1980.08 201.174 Q1978.85 202.193 1977.37 202.193 Q1975.58 202.193 1974.56 201.034 Z" fill="#000000" fill-rule="evenodd" fill-opacity="1" /><path clip-path="url(#clip560)" d="M 0 0 M2043.68 191.899 Q2043.68 192.18 2043.36 193.269 Q2043.04 194.358 2042.27 196.045 Q2041.53 197.731 2040.51 199.277 Q2039.5 200.788 2037.81 201.912 Q2036.16 203.001 2034.26 203.001 Q2031.73 203.001 2030.04 201.315 Q2028.36 199.628 2028.36 197.099 Q2028.36 195.693 2029.1 193.761 Q2033.77 181.288 2033.77 177.002 Q2033.77 171.978 2029.87 171.978 Q2027.94 171.978 2026.11 172.716 Q2024.32 173.419 2023.09 174.402 Q2021.86 175.386 2020.73 176.756 Q2019.65 178.091 2019.08 179.005 Q2018.56 179.883 2018.13 180.761 L2017.22 184.345 Q2017.01 185.329 2015.99 189.158 L2014.41 195.658 Q2013.29 200.507 2013.04 200.963 Q2012.69 201.947 2011.92 202.474 Q2011.14 203.001 2010.37 203.001 Q2009.49 203.001 2008.89 202.474 Q2008.3 201.947 2008.3 201.034 Q2008.3 200.893 2008.4 200.366 Q2008.51 199.839 2008.68 199.101 Q2008.86 198.363 2008.93 197.942 L2013.11 181.324 Q2013.88 178.302 2014.06 177.353 Q2014.27 176.37 2014.27 175.281 Q2014.27 171.978 2012.02 171.978 Q2010.19 171.978 2009 174.156 Q2007.81 176.335 2006.79 180.551 Q2006.47 181.71 2006.26 181.956 Q2006.08 182.202 2005.56 182.202 Q2004.68 182.167 2004.68 181.464 Q2004.68 181.288 2004.96 180.129 Q2005.24 178.97 2005.77 177.318 Q2006.33 175.632 2006.86 174.508 Q2007.31 173.664 2007.56 173.278 Q2007.84 172.856 2008.51 172.048 Q2009.21 171.205 2010.12 170.819 Q2011.07 170.397 2012.23 170.397 Q2014.83 170.397 2016.73 172.083 Q2018.63 173.735 2018.87 176.651 Q2023.55 170.397 2030.08 170.397 Q2033.94 170.397 2036.16 172.435 Q2038.37 174.473 2038.37 178.091 Q2038.37 178.935 2038.2 180.024 Q2038.06 181.078 2037.7 182.413 Q2037.39 183.748 2037.11 184.767 Q2036.83 185.786 2036.26 187.437 Q2035.7 189.053 2035.46 189.756 Q2035.21 190.458 2034.61 192.11 Q2034.05 193.726 2033.98 193.901 Q2032.68 197.169 2032.68 199.031 Q2032.68 200.261 2033.07 200.823 Q2033.49 201.385 2034.4 201.385 Q2036.86 201.385 2038.69 198.961 Q2040.55 196.501 2041.74 192.496 Q2042.03 191.618 2042.17 191.407 Q2042.34 191.196 2042.83 191.196 Q2043.68 191.196 2043.68 191.899 Z" fill="#000000" fill-rule="evenodd" fill-opacity="1" /><path clip-path="url(#clip560)" d="M 0 0 M2067.37 191.266 Q2067.44 190.388 2068.81 190.388 L2112.9 190.388 Q2114.98 190.388 2115.01 191.196 Q2115.01 192.075 2113.05 192.039 L2069.3 192.039 Q2067.37 192.075 2067.37 191.266 M2067.37 177.213 Q2067.37 176.335 2068.88 176.37 L2112.83 176.37 Q2114.98 176.37 2115.01 177.213 Q2115.01 178.021 2113.19 178.021 L2068.81 178.021 Q2067.37 178.021 2067.37 177.213 Z" fill="#000000" fill-rule="evenodd" fill-opacity="1" /><path clip-path="url(#clip560)" d="M 0 0 M2142.77 161.122 L2142.77 158.873 Q2151.41 158.873 2155.87 154.271 Q2157.1 154.271 2157.31 154.552 Q2157.52 154.833 2157.52 156.133 L2157.52 196.501 Q2157.52 198.645 2158.58 199.312 Q2159.63 199.98 2164.23 199.98 L2166.52 199.98 L2166.52 202.193 Q2163.99 201.982 2154.85 201.982 Q2145.72 201.982 2143.22 202.193 L2143.22 199.98 L2145.51 199.98 Q2150.04 199.98 2151.13 199.347 Q2152.22 198.68 2152.22 196.501 L2152.22 159.225 Q2148.46 161.122 2142.77 161.122 Z" fill="#000000" fill-rule="evenodd" fill-opacity="1" /><path clip-path="url(#clip560)" d="M 0 0 M2172.65 179.18 Q2172.65 168.605 2175.32 162.843 Q2179.04 154.271 2187.83 154.271 Q2189.69 154.271 2191.62 154.798 Q2193.59 155.29 2196.05 157.222 Q2198.54 159.154 2200.05 162.316 Q2202.93 168.43 2202.93 179.18 Q2202.93 189.685 2200.26 195.412 Q2196.36 203.774 2187.76 203.774 Q2184.52 203.774 2181.22 202.123 Q2177.95 200.471 2175.88 196.501 Q2172.65 190.564 2172.65 179.18 M2178.62 178.302 Q2178.62 189.158 2179.39 193.48 Q2180.27 198.153 2182.66 200.19 Q2185.09 202.193 2187.76 202.193 Q2190.64 202.193 2193.03 200.05 Q2195.45 197.872 2196.19 193.199 Q2197 188.596 2196.96 178.302 Q2196.96 168.289 2196.26 164.284 Q2195.31 159.611 2192.78 157.749 Q2190.29 155.852 2187.76 155.852 Q2186.81 155.852 2185.79 156.133 Q2184.8 156.414 2183.36 157.222 Q2181.92 158.03 2180.8 160.033 Q2179.71 162.035 2179.18 165.057 Q2178.62 168.957 2178.62 178.302 Z" fill="#000000" fill-rule="evenodd" fill-opacity="1" /><path clip-path="url(#clip560)" d="M 0 0 M2208.28 219.479 Q2208.28 219.127 2209.19 218.249 Q2220.79 206.444 2220.79 184.205 Q2220.79 161.895 2209.65 150.617 Q2208.28 149.317 2208.28 148.93 Q2208.28 148.228 2208.98 148.228 Q2209.48 148.228 2211.2 149.668 Q2212.95 151.109 2215.59 154.411 Q2218.26 157.714 2220.23 161.754 Q2224.97 171.556 2224.97 184.205 Q2224.97 196.361 2220.44 206.163 Q2218.51 210.274 2215.8 213.717 Q2213.09 217.16 2211.3 218.671 Q2209.51 220.181 2208.98 220.181 Q2208.28 220.181 2208.28 219.479 Z" fill="#000000" fill-rule="evenodd" fill-opacity="1" /></svg>
