<?xml version="1.0" encoding="utf-8"?>
<svg xmlns="http://www.w3.org/2000/svg" xmlns:xlink="http://www.w3.org/1999/xlink" width="600" height="400" viewBox="0 0 2400 1600">
<defs>
  <clipPath id="clip390">
    <rect x="0" y="0" width="2400" height="1600"/>
  </clipPath>
</defs>
<path clip-path="url(#clip390)" d="
M0 1600 L2400 1600 L2400 0 L0 0  Z
  " fill="#ffffff" fill-rule="evenodd" fill-opacity="1"/>
<defs>
  <clipPath id="clip391">
    <rect x="480" y="0" width="1681" height="1600"/>
  </clipPath>
</defs>
<path clip-path="url(#clip390)" d="
M246.598 1486.45 L2352.76 1486.45 L2352.76 47.2441 L246.598 47.2441  Z
  " fill="#ffffff" fill-rule="evenodd" fill-opacity="1"/>
<defs>
  <clipPath id="clip392">
    <rect x="246" y="47" width="2107" height="1440"/>
  </clipPath>
</defs>
<polyline clip-path="url(#clip392)" style="stroke:#000000; stroke-width:2; stroke-opacity:0.1; fill:none" points="
  303.854,1486.45 303.854,47.2441 
  "/>
<polyline clip-path="url(#clip392)" style="stroke:#000000; stroke-width:2; stroke-opacity:0.1; fill:none" points="
  801.414,1486.45 801.414,47.2441 
  "/>
<polyline clip-path="url(#clip392)" style="stroke:#000000; stroke-width:2; stroke-opacity:0.1; fill:none" points="
  1298.98,1486.45 1298.98,47.2441 
  "/>
<polyline clip-path="url(#clip392)" style="stroke:#000000; stroke-width:2; stroke-opacity:0.1; fill:none" points="
  1796.54,1486.45 1796.54,47.2441 
  "/>
<polyline clip-path="url(#clip392)" style="stroke:#000000; stroke-width:2; stroke-opacity:0.1; fill:none" points="
  2294.1,1486.45 2294.1,47.2441 
  "/>
<polyline clip-path="url(#clip390)" style="stroke:#000000; stroke-width:4; stroke-opacity:1; fill:none" points="
  246.598,1486.45 2352.76,1486.45 
  "/>
<polyline clip-path="url(#clip390)" style="stroke:#000000; stroke-width:4; stroke-opacity:1; fill:none" points="
  303.854,1486.45 303.854,1469.18 
  "/>
<polyline clip-path="url(#clip390)" style="stroke:#000000; stroke-width:4; stroke-opacity:1; fill:none" points="
  801.414,1486.45 801.414,1469.18 
  "/>
<polyline clip-path="url(#clip390)" style="stroke:#000000; stroke-width:4; stroke-opacity:1; fill:none" points="
  1298.98,1486.45 1298.98,1469.18 
  "/>
<polyline clip-path="url(#clip390)" style="stroke:#000000; stroke-width:4; stroke-opacity:1; fill:none" points="
  1796.54,1486.45 1796.54,1469.18 
  "/>
<polyline clip-path="url(#clip390)" style="stroke:#000000; stroke-width:4; stroke-opacity:1; fill:none" points="
  2294.1,1486.45 2294.1,1469.18 
  "/>
<path clip-path="url(#clip390)" d="M 0 0 M266.157 1515.64 Q262.546 1515.64 260.717 1519.2 Q258.912 1522.75 258.912 1529.87 Q258.912 1536.98 260.717 1540.55 Q262.546 1544.09 266.157 1544.09 Q269.791 1544.09 271.597 1540.55 Q273.426 1536.98 273.426 1529.87 Q273.426 1522.75 271.597 1519.2 Q269.791 1515.64 266.157 1515.64 M266.157 1511.93 Q271.967 1511.93 275.023 1516.54 Q278.102 1521.12 278.102 1529.87 Q278.102 1538.6 275.023 1543.21 Q271.967 1547.79 266.157 1547.79 Q260.347 1547.79 257.268 1543.21 Q254.213 1538.6 254.213 1529.87 Q254.213 1521.12 257.268 1516.54 Q260.347 1511.93 266.157 1511.93 Z" fill="#000000" fill-rule="evenodd" fill-opacity="1" /><path clip-path="url(#clip390)" d="M 0 0 M286.319 1541.24 L291.203 1541.24 L291.203 1547.12 L286.319 1547.12 L286.319 1541.24 Z" fill="#000000" fill-rule="evenodd" fill-opacity="1" /><path clip-path="url(#clip390)" d="M 0 0 M311.388 1515.64 Q307.777 1515.64 305.949 1519.2 Q304.143 1522.75 304.143 1529.87 Q304.143 1536.98 305.949 1540.55 Q307.777 1544.09 311.388 1544.09 Q315.023 1544.09 316.828 1540.55 Q318.657 1536.98 318.657 1529.87 Q318.657 1522.75 316.828 1519.2 Q315.023 1515.64 311.388 1515.64 M311.388 1511.93 Q317.199 1511.93 320.254 1516.54 Q323.333 1521.12 323.333 1529.87 Q323.333 1538.6 320.254 1543.21 Q317.199 1547.79 311.388 1547.79 Q305.578 1547.79 302.5 1543.21 Q299.444 1538.6 299.444 1529.87 Q299.444 1521.12 302.5 1516.54 Q305.578 1511.93 311.388 1511.93 Z" fill="#000000" fill-rule="evenodd" fill-opacity="1" /><path clip-path="url(#clip390)" d="M 0 0 M341.55 1515.64 Q337.939 1515.64 336.111 1519.2 Q334.305 1522.75 334.305 1529.87 Q334.305 1536.98 336.111 1540.55 Q337.939 1544.09 341.55 1544.09 Q345.185 1544.09 346.99 1540.55 Q348.819 1536.98 348.819 1529.87 Q348.819 1522.75 346.99 1519.2 Q345.185 1515.64 341.55 1515.64 M341.55 1511.93 Q347.36 1511.93 350.416 1516.54 Q353.495 1521.12 353.495 1529.87 Q353.495 1538.6 350.416 1543.21 Q347.36 1547.79 341.55 1547.79 Q335.74 1547.79 332.661 1543.21 Q329.606 1538.6 329.606 1529.87 Q329.606 1521.12 332.661 1516.54 Q335.74 1511.93 341.55 1511.93 Z" fill="#000000" fill-rule="evenodd" fill-opacity="1" /><path clip-path="url(#clip390)" d="M 0 0 M764.216 1515.64 Q760.604 1515.64 758.776 1519.2 Q756.97 1522.75 756.97 1529.87 Q756.97 1536.98 758.776 1540.55 Q760.604 1544.09 764.216 1544.09 Q767.85 1544.09 769.655 1540.55 Q771.484 1536.98 771.484 1529.87 Q771.484 1522.75 769.655 1519.2 Q767.85 1515.64 764.216 1515.64 M764.216 1511.93 Q770.026 1511.93 773.081 1516.54 Q776.16 1521.12 776.16 1529.87 Q776.16 1538.6 773.081 1543.21 Q770.026 1547.79 764.216 1547.79 Q758.405 1547.79 755.327 1543.21 Q752.271 1538.6 752.271 1529.87 Q752.271 1521.12 755.327 1516.54 Q758.405 1511.93 764.216 1511.93 Z" fill="#000000" fill-rule="evenodd" fill-opacity="1" /><path clip-path="url(#clip390)" d="M 0 0 M784.377 1541.24 L789.262 1541.24 L789.262 1547.12 L784.377 1547.12 L784.377 1541.24 Z" fill="#000000" fill-rule="evenodd" fill-opacity="1" /><path clip-path="url(#clip390)" d="M 0 0 M803.475 1543.18 L819.794 1543.18 L819.794 1547.12 L797.85 1547.12 L797.85 1543.18 Q800.512 1540.43 805.095 1535.8 Q809.701 1531.15 810.882 1529.81 Q813.127 1527.28 814.007 1525.55 Q814.91 1523.79 814.91 1522.1 Q814.91 1519.34 812.965 1517.61 Q811.044 1515.87 807.942 1515.87 Q805.743 1515.87 803.289 1516.63 Q800.859 1517.4 798.081 1518.95 L798.081 1514.23 Q800.905 1513.09 803.359 1512.51 Q805.813 1511.93 807.85 1511.93 Q813.22 1511.93 816.414 1514.62 Q819.609 1517.31 819.609 1521.8 Q819.609 1523.93 818.799 1525.85 Q818.012 1527.74 815.905 1530.34 Q815.326 1531.01 812.225 1534.23 Q809.123 1537.42 803.475 1543.18 Z" fill="#000000" fill-rule="evenodd" fill-opacity="1" /><path clip-path="url(#clip390)" d="M 0 0 M829.655 1512.56 L848.011 1512.56 L848.011 1516.5 L833.937 1516.5 L833.937 1524.97 Q834.956 1524.62 835.974 1524.46 Q836.993 1524.27 838.011 1524.27 Q843.798 1524.27 847.178 1527.44 Q850.558 1530.62 850.558 1536.03 Q850.558 1541.61 847.085 1544.71 Q843.613 1547.79 837.294 1547.79 Q835.118 1547.79 832.849 1547.42 Q830.604 1547.05 828.197 1546.31 L828.197 1541.61 Q830.28 1542.74 832.502 1543.3 Q834.724 1543.86 837.201 1543.86 Q841.206 1543.86 843.544 1541.75 Q845.882 1539.64 845.882 1536.03 Q845.882 1532.42 843.544 1530.31 Q841.206 1528.21 837.201 1528.21 Q835.326 1528.21 833.451 1528.62 Q831.599 1529.04 829.655 1529.92 L829.655 1512.56 Z" fill="#000000" fill-rule="evenodd" fill-opacity="1" /><path clip-path="url(#clip390)" d="M 0 0 M1261.28 1515.64 Q1257.67 1515.64 1255.84 1519.2 Q1254.03 1522.75 1254.03 1529.87 Q1254.03 1536.98 1255.84 1540.55 Q1257.67 1544.09 1261.28 1544.09 Q1264.91 1544.09 1266.72 1540.55 Q1268.55 1536.98 1268.55 1529.87 Q1268.55 1522.75 1266.72 1519.2 Q1264.91 1515.64 1261.28 1515.64 M1261.28 1511.93 Q1267.09 1511.93 1270.14 1516.54 Q1273.22 1521.12 1273.22 1529.87 Q1273.22 1538.6 1270.14 1543.21 Q1267.09 1547.79 1261.28 1547.79 Q1255.47 1547.79 1252.39 1543.21 Q1249.33 1538.6 1249.33 1529.87 Q1249.33 1521.12 1252.39 1516.54 Q1255.47 1511.93 1261.28 1511.93 Z" fill="#000000" fill-rule="evenodd" fill-opacity="1" /><path clip-path="url(#clip390)" d="M 0 0 M1281.44 1541.24 L1286.32 1541.24 L1286.32 1547.12 L1281.44 1547.12 L1281.44 1541.24 Z" fill="#000000" fill-rule="evenodd" fill-opacity="1" /><path clip-path="url(#clip390)" d="M 0 0 M1296.56 1512.56 L1314.91 1512.56 L1314.91 1516.5 L1300.84 1516.5 L1300.84 1524.97 Q1301.86 1524.62 1302.88 1524.46 Q1303.89 1524.27 1304.91 1524.27 Q1310.7 1524.27 1314.08 1527.44 Q1317.46 1530.62 1317.46 1536.03 Q1317.46 1541.61 1313.99 1544.71 Q1310.51 1547.79 1304.19 1547.79 Q1302.02 1547.79 1299.75 1547.42 Q1297.51 1547.05 1295.1 1546.31 L1295.1 1541.61 Q1297.18 1542.74 1299.4 1543.3 Q1301.63 1543.86 1304.1 1543.86 Q1308.11 1543.86 1310.44 1541.75 Q1312.78 1539.64 1312.78 1536.03 Q1312.78 1532.42 1310.44 1530.31 Q1308.11 1528.21 1304.1 1528.21 Q1302.23 1528.21 1300.35 1528.62 Q1298.5 1529.04 1296.56 1529.92 L1296.56 1512.56 Z" fill="#000000" fill-rule="evenodd" fill-opacity="1" /><path clip-path="url(#clip390)" d="M 0 0 M1336.67 1515.64 Q1333.06 1515.64 1331.23 1519.2 Q1329.43 1522.75 1329.43 1529.87 Q1329.43 1536.98 1331.23 1540.55 Q1333.06 1544.09 1336.67 1544.09 Q1340.31 1544.09 1342.11 1540.55 Q1343.94 1536.98 1343.94 1529.87 Q1343.94 1522.75 1342.11 1519.2 Q1340.31 1515.64 1336.67 1515.64 M1336.67 1511.93 Q1342.48 1511.93 1345.54 1516.54 Q1348.62 1521.12 1348.62 1529.87 Q1348.62 1538.6 1345.54 1543.21 Q1342.48 1547.79 1336.67 1547.79 Q1330.86 1547.79 1327.78 1543.21 Q1324.73 1538.6 1324.73 1529.87 Q1324.73 1521.12 1327.78 1516.54 Q1330.86 1511.93 1336.67 1511.93 Z" fill="#000000" fill-rule="evenodd" fill-opacity="1" /><path clip-path="url(#clip390)" d="M 0 0 M1759.34 1515.64 Q1755.73 1515.64 1753.9 1519.2 Q1752.09 1522.75 1752.09 1529.87 Q1752.09 1536.98 1753.9 1540.55 Q1755.73 1544.09 1759.34 1544.09 Q1762.97 1544.09 1764.78 1540.55 Q1766.61 1536.98 1766.61 1529.87 Q1766.61 1522.75 1764.78 1519.2 Q1762.97 1515.64 1759.34 1515.64 M1759.34 1511.93 Q1765.15 1511.93 1768.2 1516.54 Q1771.28 1521.12 1771.28 1529.87 Q1771.28 1538.6 1768.2 1543.21 Q1765.15 1547.79 1759.34 1547.79 Q1753.53 1547.79 1750.45 1543.21 Q1747.39 1538.6 1747.39 1529.87 Q1747.39 1521.12 1750.45 1516.54 Q1753.53 1511.93 1759.34 1511.93 Z" fill="#000000" fill-rule="evenodd" fill-opacity="1" /><path clip-path="url(#clip390)" d="M 0 0 M1779.5 1541.24 L1784.38 1541.24 L1784.38 1547.12 L1779.5 1547.12 L1779.5 1541.24 Z" fill="#000000" fill-rule="evenodd" fill-opacity="1" /><path clip-path="url(#clip390)" d="M 0 0 M1793.39 1512.56 L1815.61 1512.56 L1815.61 1514.55 L1803.06 1547.12 L1798.18 1547.12 L1809.98 1516.5 L1793.39 1516.5 L1793.39 1512.56 Z" fill="#000000" fill-rule="evenodd" fill-opacity="1" /><path clip-path="url(#clip390)" d="M 0 0 M1824.78 1512.56 L1843.13 1512.56 L1843.13 1516.5 L1829.06 1516.5 L1829.06 1524.97 Q1830.08 1524.62 1831.1 1524.46 Q1832.11 1524.27 1833.13 1524.27 Q1838.92 1524.27 1842.3 1527.44 Q1845.68 1530.62 1845.68 1536.03 Q1845.68 1541.61 1842.21 1544.71 Q1838.73 1547.79 1832.42 1547.79 Q1830.24 1547.79 1827.97 1547.42 Q1825.73 1547.05 1823.32 1546.31 L1823.32 1541.61 Q1825.4 1542.74 1827.62 1543.3 Q1829.85 1543.86 1832.32 1543.86 Q1836.33 1543.86 1838.67 1541.75 Q1841 1539.64 1841 1536.03 Q1841 1532.42 1838.67 1530.31 Q1836.33 1528.21 1832.32 1528.21 Q1830.45 1528.21 1828.57 1528.62 Q1826.72 1529.04 1824.78 1529.92 L1824.78 1512.56 Z" fill="#000000" fill-rule="evenodd" fill-opacity="1" /><path clip-path="url(#clip390)" d="M 0 0 M2246.17 1543.18 L2253.81 1543.18 L2253.81 1516.82 L2245.5 1518.49 L2245.5 1514.23 L2253.76 1512.56 L2258.44 1512.56 L2258.44 1543.18 L2266.08 1543.18 L2266.08 1547.12 L2246.17 1547.12 L2246.17 1543.18 Z" fill="#000000" fill-rule="evenodd" fill-opacity="1" /><path clip-path="url(#clip390)" d="M 0 0 M2275.52 1541.24 L2280.4 1541.24 L2280.4 1547.12 L2275.52 1547.12 L2275.52 1541.24 Z" fill="#000000" fill-rule="evenodd" fill-opacity="1" /><path clip-path="url(#clip390)" d="M 0 0 M2300.59 1515.64 Q2296.98 1515.64 2295.15 1519.2 Q2293.34 1522.75 2293.34 1529.87 Q2293.34 1536.98 2295.15 1540.55 Q2296.98 1544.09 2300.59 1544.09 Q2304.22 1544.09 2306.03 1540.55 Q2307.86 1536.98 2307.86 1529.87 Q2307.86 1522.75 2306.03 1519.2 Q2304.22 1515.64 2300.59 1515.64 M2300.59 1511.93 Q2306.4 1511.93 2309.46 1516.54 Q2312.53 1521.12 2312.53 1529.87 Q2312.53 1538.6 2309.46 1543.21 Q2306.4 1547.79 2300.59 1547.79 Q2294.78 1547.79 2291.7 1543.21 Q2288.64 1538.6 2288.64 1529.87 Q2288.64 1521.12 2291.7 1516.54 Q2294.78 1511.93 2300.59 1511.93 Z" fill="#000000" fill-rule="evenodd" fill-opacity="1" /><path clip-path="url(#clip390)" d="M 0 0 M2330.75 1515.64 Q2327.14 1515.64 2325.31 1519.2 Q2323.51 1522.75 2323.51 1529.87 Q2323.51 1536.98 2325.31 1540.55 Q2327.14 1544.09 2330.75 1544.09 Q2334.39 1544.09 2336.19 1540.55 Q2338.02 1536.98 2338.02 1529.87 Q2338.02 1522.75 2336.19 1519.2 Q2334.39 1515.64 2330.75 1515.64 M2330.75 1511.93 Q2336.56 1511.93 2339.62 1516.54 Q2342.7 1521.12 2342.7 1529.87 Q2342.7 1538.6 2339.62 1543.21 Q2336.56 1547.79 2330.75 1547.79 Q2324.94 1547.79 2321.86 1543.21 Q2318.81 1538.6 2318.81 1529.87 Q2318.81 1521.12 2321.86 1516.54 Q2324.94 1511.93 2330.75 1511.93 Z" fill="#000000" fill-rule="evenodd" fill-opacity="1" /><polyline clip-path="url(#clip392)" style="stroke:#000000; stroke-width:2; stroke-opacity:0.1; fill:none" points="
  246.598,1445.72 2352.76,1445.72 
  "/>
<polyline clip-path="url(#clip392)" style="stroke:#000000; stroke-width:2; stroke-opacity:0.1; fill:none" points="
  246.598,1133.59 2352.76,1133.59 
  "/>
<polyline clip-path="url(#clip392)" style="stroke:#000000; stroke-width:2; stroke-opacity:0.1; fill:none" points="
  246.598,821.47 2352.76,821.47 
  "/>
<polyline clip-path="url(#clip392)" style="stroke:#000000; stroke-width:2; stroke-opacity:0.1; fill:none" points="
  246.598,509.348 2352.76,509.348 
  "/>
<polyline clip-path="url(#clip392)" style="stroke:#000000; stroke-width:2; stroke-opacity:0.1; fill:none" points="
  246.598,197.225 2352.76,197.225 
  "/>
<polyline clip-path="url(#clip390)" style="stroke:#000000; stroke-width:4; stroke-opacity:1; fill:none" points="
  246.598,1486.45 246.598,47.2441 
  "/>
<polyline clip-path="url(#clip390)" style="stroke:#000000; stroke-width:4; stroke-opacity:1; fill:none" points="
  246.598,1445.72 271.872,1445.72 
  "/>
<polyline clip-path="url(#clip390)" style="stroke:#000000; stroke-width:4; stroke-opacity:1; fill:none" points="
  246.598,1133.59 271.872,1133.59 
  "/>
<polyline clip-path="url(#clip390)" style="stroke:#000000; stroke-width:4; stroke-opacity:1; fill:none" points="
  246.598,821.47 271.872,821.47 
  "/>
<polyline clip-path="url(#clip390)" style="stroke:#000000; stroke-width:4; stroke-opacity:1; fill:none" points="
  246.598,509.348 271.872,509.348 
  "/>
<polyline clip-path="url(#clip390)" style="stroke:#000000; stroke-width:4; stroke-opacity:1; fill:none" points="
  246.598,197.225 271.872,197.225 
  "/>
<path clip-path="url(#clip390)" d="M 0 0 M62.9365 1431.51 Q59.3254 1431.51 57.4967 1435.08 Q55.6912 1438.62 55.6912 1445.75 Q55.6912 1452.86 57.4967 1456.42 Q59.3254 1459.96 62.9365 1459.96 Q66.5707 1459.96 68.3763 1456.42 Q70.205 1452.86 70.205 1445.75 Q70.205 1438.62 68.3763 1435.08 Q66.5707 1431.51 62.9365 1431.51 M62.9365 1427.81 Q68.7467 1427.81 71.8022 1432.42 Q74.8809 1437 74.8809 1445.75 Q74.8809 1454.48 71.8022 1459.08 Q68.7467 1463.67 62.9365 1463.67 Q57.1264 1463.67 54.0477 1459.08 Q50.9921 1454.48 50.9921 1445.75 Q50.9921 1437 54.0477 1432.42 Q57.1264 1427.81 62.9365 1427.81 Z" fill="#000000" fill-rule="evenodd" fill-opacity="1" /><path clip-path="url(#clip390)" d="M 0 0 M83.0984 1457.12 L87.9827 1457.12 L87.9827 1463 L83.0984 1463 L83.0984 1457.12 Z" fill="#000000" fill-rule="evenodd" fill-opacity="1" /><path clip-path="url(#clip390)" d="M 0 0 M108.168 1431.51 Q104.557 1431.51 102.728 1435.08 Q100.922 1438.62 100.922 1445.75 Q100.922 1452.86 102.728 1456.42 Q104.557 1459.96 108.168 1459.96 Q111.802 1459.96 113.608 1456.42 Q115.436 1452.86 115.436 1445.75 Q115.436 1438.62 113.608 1435.08 Q111.802 1431.51 108.168 1431.51 M108.168 1427.81 Q113.978 1427.81 117.033 1432.42 Q120.112 1437 120.112 1445.75 Q120.112 1454.48 117.033 1459.08 Q113.978 1463.67 108.168 1463.67 Q102.358 1463.67 99.2789 1459.08 Q96.2234 1454.48 96.2234 1445.75 Q96.2234 1437 99.2789 1432.42 Q102.358 1427.81 108.168 1427.81 Z" fill="#000000" fill-rule="evenodd" fill-opacity="1" /><path clip-path="url(#clip390)" d="M 0 0 M138.33 1431.51 Q134.719 1431.51 132.89 1435.08 Q131.084 1438.62 131.084 1445.75 Q131.084 1452.86 132.89 1456.42 Q134.719 1459.96 138.33 1459.96 Q141.964 1459.96 143.769 1456.42 Q145.598 1452.86 145.598 1445.75 Q145.598 1438.62 143.769 1435.08 Q141.964 1431.51 138.33 1431.51 M138.33 1427.81 Q144.14 1427.81 147.195 1432.42 Q150.274 1437 150.274 1445.75 Q150.274 1454.48 147.195 1459.08 Q144.14 1463.67 138.33 1463.67 Q132.519 1463.67 129.441 1459.08 Q126.385 1454.48 126.385 1445.75 Q126.385 1437 129.441 1432.42 Q132.519 1427.81 138.33 1427.81 Z" fill="#000000" fill-rule="evenodd" fill-opacity="1" /><path clip-path="url(#clip390)" d="M 0 0 M168.491 1431.51 Q164.88 1431.51 163.052 1435.08 Q161.246 1438.62 161.246 1445.75 Q161.246 1452.86 163.052 1456.42 Q164.88 1459.96 168.491 1459.96 Q172.126 1459.96 173.931 1456.42 Q175.76 1452.86 175.76 1445.75 Q175.76 1438.62 173.931 1435.08 Q172.126 1431.51 168.491 1431.51 M168.491 1427.81 Q174.302 1427.81 177.357 1432.42 Q180.436 1437 180.436 1445.75 Q180.436 1454.48 177.357 1459.08 Q174.302 1463.67 168.491 1463.67 Q162.681 1463.67 159.603 1459.08 Q156.547 1454.48 156.547 1445.75 Q156.547 1437 159.603 1432.42 Q162.681 1427.81 168.491 1427.81 Z" fill="#000000" fill-rule="evenodd" fill-opacity="1" /><path clip-path="url(#clip390)" d="M 0 0 M198.653 1431.51 Q195.042 1431.51 193.214 1435.08 Q191.408 1438.62 191.408 1445.75 Q191.408 1452.86 193.214 1456.42 Q195.042 1459.96 198.653 1459.96 Q202.288 1459.96 204.093 1456.42 Q205.922 1452.86 205.922 1445.75 Q205.922 1438.62 204.093 1435.08 Q202.288 1431.51 198.653 1431.51 M198.653 1427.81 Q204.464 1427.81 207.519 1432.42 Q210.598 1437 210.598 1445.75 Q210.598 1454.48 207.519 1459.08 Q204.464 1463.67 198.653 1463.67 Q192.843 1463.67 189.765 1459.08 Q186.709 1454.48 186.709 1445.75 Q186.709 1437 189.765 1432.42 Q192.843 1427.81 198.653 1427.81 Z" fill="#000000" fill-rule="evenodd" fill-opacity="1" /><path clip-path="url(#clip390)" d="M 0 0 M63.9319 1119.39 Q60.3208 1119.39 58.4921 1122.96 Q56.6865 1126.5 56.6865 1133.63 Q56.6865 1140.73 58.4921 1144.3 Q60.3208 1147.84 63.9319 1147.84 Q67.5661 1147.84 69.3717 1144.3 Q71.2004 1140.73 71.2004 1133.63 Q71.2004 1126.5 69.3717 1122.96 Q67.5661 1119.39 63.9319 1119.39 M63.9319 1115.69 Q69.742 1115.69 72.7976 1120.29 Q75.8763 1124.88 75.8763 1133.63 Q75.8763 1142.35 72.7976 1146.96 Q69.742 1151.54 63.9319 1151.54 Q58.1217 1151.54 55.043 1146.96 Q51.9875 1142.35 51.9875 1133.63 Q51.9875 1124.88 55.043 1120.29 Q58.1217 1115.69 63.9319 1115.69 Z" fill="#000000" fill-rule="evenodd" fill-opacity="1" /><path clip-path="url(#clip390)" d="M 0 0 M84.0938 1144.99 L88.978 1144.99 L88.978 1150.87 L84.0938 1150.87 L84.0938 1144.99 Z" fill="#000000" fill-rule="evenodd" fill-opacity="1" /><path clip-path="url(#clip390)" d="M 0 0 M109.163 1119.39 Q105.552 1119.39 103.723 1122.96 Q101.918 1126.5 101.918 1133.63 Q101.918 1140.73 103.723 1144.3 Q105.552 1147.84 109.163 1147.84 Q112.797 1147.84 114.603 1144.3 Q116.432 1140.73 116.432 1133.63 Q116.432 1126.5 114.603 1122.96 Q112.797 1119.39 109.163 1119.39 M109.163 1115.69 Q114.973 1115.69 118.029 1120.29 Q121.107 1124.88 121.107 1133.63 Q121.107 1142.35 118.029 1146.96 Q114.973 1151.54 109.163 1151.54 Q103.353 1151.54 100.274 1146.96 Q97.2187 1142.35 97.2187 1133.63 Q97.2187 1124.88 100.274 1120.29 Q103.353 1115.69 109.163 1115.69 Z" fill="#000000" fill-rule="evenodd" fill-opacity="1" /><path clip-path="url(#clip390)" d="M 0 0 M139.325 1119.39 Q135.714 1119.39 133.885 1122.96 Q132.08 1126.5 132.08 1133.63 Q132.08 1140.73 133.885 1144.3 Q135.714 1147.84 139.325 1147.84 Q142.959 1147.84 144.765 1144.3 Q146.593 1140.73 146.593 1133.63 Q146.593 1126.5 144.765 1122.96 Q142.959 1119.39 139.325 1119.39 M139.325 1115.69 Q145.135 1115.69 148.191 1120.29 Q151.269 1124.88 151.269 1133.63 Q151.269 1142.35 148.191 1146.96 Q145.135 1151.54 139.325 1151.54 Q133.515 1151.54 130.436 1146.96 Q127.381 1142.35 127.381 1133.63 Q127.381 1124.88 130.436 1120.29 Q133.515 1115.69 139.325 1115.69 Z" fill="#000000" fill-rule="evenodd" fill-opacity="1" /><path clip-path="url(#clip390)" d="M 0 0 M169.487 1119.39 Q165.876 1119.39 164.047 1122.96 Q162.242 1126.5 162.242 1133.63 Q162.242 1140.73 164.047 1144.3 Q165.876 1147.84 169.487 1147.84 Q173.121 1147.84 174.927 1144.3 Q176.755 1140.73 176.755 1133.63 Q176.755 1126.5 174.927 1122.96 Q173.121 1119.39 169.487 1119.39 M169.487 1115.69 Q175.297 1115.69 178.353 1120.29 Q181.431 1124.88 181.431 1133.63 Q181.431 1142.35 178.353 1146.96 Q175.297 1151.54 169.487 1151.54 Q163.677 1151.54 160.598 1146.96 Q157.542 1142.35 157.542 1133.63 Q157.542 1124.88 160.598 1120.29 Q163.677 1115.69 169.487 1115.69 Z" fill="#000000" fill-rule="evenodd" fill-opacity="1" /><path clip-path="url(#clip390)" d="M 0 0 M189.695 1116.31 L208.051 1116.31 L208.051 1120.25 L193.977 1120.25 L193.977 1128.72 Q194.996 1128.37 196.014 1128.21 Q197.033 1128.03 198.052 1128.03 Q203.839 1128.03 207.218 1131.2 Q210.598 1134.37 210.598 1139.79 Q210.598 1145.36 207.126 1148.47 Q203.653 1151.54 197.334 1151.54 Q195.158 1151.54 192.89 1151.17 Q190.644 1150.8 188.237 1150.06 L188.237 1145.36 Q190.32 1146.5 192.542 1147.05 Q194.765 1147.61 197.241 1147.61 Q201.246 1147.61 203.584 1145.5 Q205.922 1143.4 205.922 1139.79 Q205.922 1136.17 203.584 1134.07 Q201.246 1131.96 197.241 1131.96 Q195.366 1131.96 193.491 1132.38 Q191.64 1132.79 189.695 1133.67 L189.695 1116.31 Z" fill="#000000" fill-rule="evenodd" fill-opacity="1" /><path clip-path="url(#clip390)" d="M 0 0 M62.9365 807.269 Q59.3254 807.269 57.4967 810.834 Q55.6912 814.376 55.6912 821.505 Q55.6912 828.612 57.4967 832.176 Q59.3254 835.718 62.9365 835.718 Q66.5707 835.718 68.3763 832.176 Q70.205 828.612 70.205 821.505 Q70.205 814.376 68.3763 810.834 Q66.5707 807.269 62.9365 807.269 M62.9365 803.565 Q68.7467 803.565 71.8022 808.172 Q74.8809 812.755 74.8809 821.505 Q74.8809 830.232 71.8022 834.838 Q68.7467 839.422 62.9365 839.422 Q57.1264 839.422 54.0477 834.838 Q50.9921 830.232 50.9921 821.505 Q50.9921 812.755 54.0477 808.172 Q57.1264 803.565 62.9365 803.565 Z" fill="#000000" fill-rule="evenodd" fill-opacity="1" /><path clip-path="url(#clip390)" d="M 0 0 M83.0984 832.871 L87.9827 832.871 L87.9827 838.75 L83.0984 838.75 L83.0984 832.871 Z" fill="#000000" fill-rule="evenodd" fill-opacity="1" /><path clip-path="url(#clip390)" d="M 0 0 M108.168 807.269 Q104.557 807.269 102.728 810.834 Q100.922 814.376 100.922 821.505 Q100.922 828.612 102.728 832.176 Q104.557 835.718 108.168 835.718 Q111.802 835.718 113.608 832.176 Q115.436 828.612 115.436 821.505 Q115.436 814.376 113.608 810.834 Q111.802 807.269 108.168 807.269 M108.168 803.565 Q113.978 803.565 117.033 808.172 Q120.112 812.755 120.112 821.505 Q120.112 830.232 117.033 834.838 Q113.978 839.422 108.168 839.422 Q102.358 839.422 99.2789 834.838 Q96.2234 830.232 96.2234 821.505 Q96.2234 812.755 99.2789 808.172 Q102.358 803.565 108.168 803.565 Z" fill="#000000" fill-rule="evenodd" fill-opacity="1" /><path clip-path="url(#clip390)" d="M 0 0 M138.33 807.269 Q134.719 807.269 132.89 810.834 Q131.084 814.376 131.084 821.505 Q131.084 828.612 132.89 832.176 Q134.719 835.718 138.33 835.718 Q141.964 835.718 143.769 832.176 Q145.598 828.612 145.598 821.505 Q145.598 814.376 143.769 810.834 Q141.964 807.269 138.33 807.269 M138.33 803.565 Q144.14 803.565 147.195 808.172 Q150.274 812.755 150.274 821.505 Q150.274 830.232 147.195 834.838 Q144.14 839.422 138.33 839.422 Q132.519 839.422 129.441 834.838 Q126.385 830.232 126.385 821.505 Q126.385 812.755 129.441 808.172 Q132.519 803.565 138.33 803.565 Z" fill="#000000" fill-rule="evenodd" fill-opacity="1" /><path clip-path="url(#clip390)" d="M 0 0 M159.302 834.815 L166.941 834.815 L166.941 808.45 L158.63 810.116 L158.63 805.857 L166.894 804.19 L171.57 804.19 L171.57 834.815 L179.209 834.815 L179.209 838.75 L159.302 838.75 L159.302 834.815 Z" fill="#000000" fill-rule="evenodd" fill-opacity="1" /><path clip-path="url(#clip390)" d="M 0 0 M198.653 807.269 Q195.042 807.269 193.214 810.834 Q191.408 814.376 191.408 821.505 Q191.408 828.612 193.214 832.176 Q195.042 835.718 198.653 835.718 Q202.288 835.718 204.093 832.176 Q205.922 828.612 205.922 821.505 Q205.922 814.376 204.093 810.834 Q202.288 807.269 198.653 807.269 M198.653 803.565 Q204.464 803.565 207.519 808.172 Q210.598 812.755 210.598 821.505 Q210.598 830.232 207.519 834.838 Q204.464 839.422 198.653 839.422 Q192.843 839.422 189.765 834.838 Q186.709 830.232 186.709 821.505 Q186.709 812.755 189.765 808.172 Q192.843 803.565 198.653 803.565 Z" fill="#000000" fill-rule="evenodd" fill-opacity="1" /><path clip-path="url(#clip390)" d="M 0 0 M63.9319 495.147 Q60.3208 495.147 58.4921 498.711 Q56.6865 502.253 56.6865 509.383 Q56.6865 516.489 58.4921 520.054 Q60.3208 523.595 63.9319 523.595 Q67.5661 523.595 69.3717 520.054 Q71.2004 516.489 71.2004 509.383 Q71.2004 502.253 69.3717 498.711 Q67.5661 495.147 63.9319 495.147 M63.9319 491.443 Q69.742 491.443 72.7976 496.049 Q75.8763 500.633 75.8763 509.383 Q75.8763 518.109 72.7976 522.716 Q69.742 527.299 63.9319 527.299 Q58.1217 527.299 55.043 522.716 Q51.9875 518.109 51.9875 509.383 Q51.9875 500.633 55.043 496.049 Q58.1217 491.443 63.9319 491.443 Z" fill="#000000" fill-rule="evenodd" fill-opacity="1" /><path clip-path="url(#clip390)" d="M 0 0 M84.0938 520.748 L88.978 520.748 L88.978 526.628 L84.0938 526.628 L84.0938 520.748 Z" fill="#000000" fill-rule="evenodd" fill-opacity="1" /><path clip-path="url(#clip390)" d="M 0 0 M109.163 495.147 Q105.552 495.147 103.723 498.711 Q101.918 502.253 101.918 509.383 Q101.918 516.489 103.723 520.054 Q105.552 523.595 109.163 523.595 Q112.797 523.595 114.603 520.054 Q116.432 516.489 116.432 509.383 Q116.432 502.253 114.603 498.711 Q112.797 495.147 109.163 495.147 M109.163 491.443 Q114.973 491.443 118.029 496.049 Q121.107 500.633 121.107 509.383 Q121.107 518.109 118.029 522.716 Q114.973 527.299 109.163 527.299 Q103.353 527.299 100.274 522.716 Q97.2187 518.109 97.2187 509.383 Q97.2187 500.633 100.274 496.049 Q103.353 491.443 109.163 491.443 Z" fill="#000000" fill-rule="evenodd" fill-opacity="1" /><path clip-path="url(#clip390)" d="M 0 0 M139.325 495.147 Q135.714 495.147 133.885 498.711 Q132.08 502.253 132.08 509.383 Q132.08 516.489 133.885 520.054 Q135.714 523.595 139.325 523.595 Q142.959 523.595 144.765 520.054 Q146.593 516.489 146.593 509.383 Q146.593 502.253 144.765 498.711 Q142.959 495.147 139.325 495.147 M139.325 491.443 Q145.135 491.443 148.191 496.049 Q151.269 500.633 151.269 509.383 Q151.269 518.109 148.191 522.716 Q145.135 527.299 139.325 527.299 Q133.515 527.299 130.436 522.716 Q127.381 518.109 127.381 509.383 Q127.381 500.633 130.436 496.049 Q133.515 491.443 139.325 491.443 Z" fill="#000000" fill-rule="evenodd" fill-opacity="1" /><path clip-path="url(#clip390)" d="M 0 0 M160.297 522.693 L167.936 522.693 L167.936 496.327 L159.626 497.994 L159.626 493.734 L167.89 492.068 L172.566 492.068 L172.566 522.693 L180.204 522.693 L180.204 526.628 L160.297 526.628 L160.297 522.693 Z" fill="#000000" fill-rule="evenodd" fill-opacity="1" /><path clip-path="url(#clip390)" d="M 0 0 M189.695 492.068 L208.051 492.068 L208.051 496.003 L193.977 496.003 L193.977 504.475 Q194.996 504.128 196.014 503.966 Q197.033 503.781 198.052 503.781 Q203.839 503.781 207.218 506.952 Q210.598 510.123 210.598 515.54 Q210.598 521.119 207.126 524.22 Q203.653 527.299 197.334 527.299 Q195.158 527.299 192.89 526.929 Q190.644 526.558 188.237 525.818 L188.237 521.119 Q190.32 522.253 192.542 522.808 Q194.765 523.364 197.241 523.364 Q201.246 523.364 203.584 521.257 Q205.922 519.151 205.922 515.54 Q205.922 511.929 203.584 509.822 Q201.246 507.716 197.241 507.716 Q195.366 507.716 193.491 508.133 Q191.64 508.549 189.695 509.429 L189.695 492.068 Z" fill="#000000" fill-rule="evenodd" fill-opacity="1" /><path clip-path="url(#clip390)" d="M 0 0 M62.9365 183.024 Q59.3254 183.024 57.4967 186.589 Q55.6912 190.13 55.6912 197.26 Q55.6912 204.366 57.4967 207.931 Q59.3254 211.473 62.9365 211.473 Q66.5707 211.473 68.3763 207.931 Q70.205 204.366 70.205 197.26 Q70.205 190.13 68.3763 186.589 Q66.5707 183.024 62.9365 183.024 M62.9365 179.32 Q68.7467 179.32 71.8022 183.927 Q74.8809 188.51 74.8809 197.26 Q74.8809 205.987 71.8022 210.593 Q68.7467 215.177 62.9365 215.177 Q57.1264 215.177 54.0477 210.593 Q50.9921 205.987 50.9921 197.26 Q50.9921 188.51 54.0477 183.927 Q57.1264 179.32 62.9365 179.32 Z" fill="#000000" fill-rule="evenodd" fill-opacity="1" /><path clip-path="url(#clip390)" d="M 0 0 M83.0984 208.626 L87.9827 208.626 L87.9827 214.505 L83.0984 214.505 L83.0984 208.626 Z" fill="#000000" fill-rule="evenodd" fill-opacity="1" /><path clip-path="url(#clip390)" d="M 0 0 M108.168 183.024 Q104.557 183.024 102.728 186.589 Q100.922 190.13 100.922 197.26 Q100.922 204.366 102.728 207.931 Q104.557 211.473 108.168 211.473 Q111.802 211.473 113.608 207.931 Q115.436 204.366 115.436 197.26 Q115.436 190.13 113.608 186.589 Q111.802 183.024 108.168 183.024 M108.168 179.32 Q113.978 179.32 117.033 183.927 Q120.112 188.51 120.112 197.26 Q120.112 205.987 117.033 210.593 Q113.978 215.177 108.168 215.177 Q102.358 215.177 99.2789 210.593 Q96.2234 205.987 96.2234 197.26 Q96.2234 188.51 99.2789 183.927 Q102.358 179.32 108.168 179.32 Z" fill="#000000" fill-rule="evenodd" fill-opacity="1" /><path clip-path="url(#clip390)" d="M 0 0 M138.33 183.024 Q134.719 183.024 132.89 186.589 Q131.084 190.13 131.084 197.26 Q131.084 204.366 132.89 207.931 Q134.719 211.473 138.33 211.473 Q141.964 211.473 143.769 207.931 Q145.598 204.366 145.598 197.26 Q145.598 190.13 143.769 186.589 Q141.964 183.024 138.33 183.024 M138.33 179.32 Q144.14 179.32 147.195 183.927 Q150.274 188.51 150.274 197.26 Q150.274 205.987 147.195 210.593 Q144.14 215.177 138.33 215.177 Q132.519 215.177 129.441 210.593 Q126.385 205.987 126.385 197.26 Q126.385 188.51 129.441 183.927 Q132.519 179.32 138.33 179.32 Z" fill="#000000" fill-rule="evenodd" fill-opacity="1" /><path clip-path="url(#clip390)" d="M 0 0 M162.519 210.57 L178.839 210.57 L178.839 214.505 L156.894 214.505 L156.894 210.57 Q159.556 207.815 164.14 203.186 Q168.746 198.533 169.927 197.19 Q172.172 194.667 173.052 192.931 Q173.954 191.172 173.954 189.482 Q173.954 186.728 172.01 184.991 Q170.089 183.255 166.987 183.255 Q164.788 183.255 162.334 184.019 Q159.904 184.783 157.126 186.334 L157.126 181.612 Q159.95 180.478 162.404 179.899 Q164.857 179.32 166.894 179.32 Q172.265 179.32 175.459 182.005 Q178.653 184.691 178.653 189.181 Q178.653 191.311 177.843 193.232 Q177.056 195.13 174.95 197.723 Q174.371 198.394 171.269 201.612 Q168.167 204.806 162.519 210.57 Z" fill="#000000" fill-rule="evenodd" fill-opacity="1" /><path clip-path="url(#clip390)" d="M 0 0 M198.653 183.024 Q195.042 183.024 193.214 186.589 Q191.408 190.13 191.408 197.26 Q191.408 204.366 193.214 207.931 Q195.042 211.473 198.653 211.473 Q202.288 211.473 204.093 207.931 Q205.922 204.366 205.922 197.26 Q205.922 190.13 204.093 186.589 Q202.288 183.024 198.653 183.024 M198.653 179.32 Q204.464 179.32 207.519 183.927 Q210.598 188.51 210.598 197.26 Q210.598 205.987 207.519 210.593 Q204.464 215.177 198.653 215.177 Q192.843 215.177 189.765 210.593 Q186.709 205.987 186.709 197.26 Q186.709 188.51 189.765 183.927 Q192.843 179.32 198.653 179.32 Z" fill="#000000" fill-rule="evenodd" fill-opacity="1" /><polyline clip-path="url(#clip392)" style="stroke:#009af9; stroke-width:4; stroke-opacity:1; fill:none" points="
  306.206,1445.72 306.241,1445.72 306.853,1445.72 308.999,1445.72 309.15,1445.72 312.428,1445.72 313.901,1445.72 316.225,1445.72 317.225,1445.72 318.618,1445.72 
  319.336,1445.71 320.194,1445.71 325.454,1445.71 326.701,1445.71 327.27,1445.71 330.475,1445.71 334.153,1445.7 339.1,1445.68 343.224,1445.65 347.444,1445.6 
  354.607,1445.49 363.59,1445.23 364.493,1445.19 365.727,1445.14 368.95,1444.99 373.079,1444.75 375.007,1444.62 375.092,1444.61 382.801,1443.95 386.812,1443.5 
  390.85,1442.97 396.466,1442.09 400.481,1441.33 406.083,1440.09 406.151,1440.08 408.649,1439.44 412.705,1438.31 414.185,1437.86 414.245,1437.84 417.166,1436.9 
  417.547,1436.77 421.879,1435.2 422.623,1434.91 423.242,1434.67 423.758,1434.46 426.574,1433.28 427.738,1432.77 429.286,1432.07 429.795,1431.83 430.426,1431.53 
  432.109,1430.71 434.96,1429.25 435.659,1428.87 437.369,1427.93 439.582,1426.66 440.942,1425.85 443.117,1424.5 443.218,1424.44 445.67,1422.83 446.697,1422.14 
  448.323,1421 449.215,1420.37 449.881,1419.88 451.424,1418.74 453.524,1417.12 454.303,1416.51 456.448,1414.77 464.638,1407.45 464.841,1407.25 464.945,1407.15 
  466.265,1405.86 468.432,1403.69 469.437,1402.65 470.97,1401.03 475.504,1396.01 480.488,1390.07 481.149,1389.25 482.29,1387.81 484.103,1385.48 484.251,1385.28 
  485.828,1383.2 487.119,1381.45 495.072,1370.01 495.74,1368.99 500.184,1362 509.9,1345.31 513.474,1338.68 513.88,1337.91 519.306,1327.29 521.213,1323.41 
  522.892,1319.93 528.523,1307.83 531.363,1301.47 533.533,1296.49 534.346,1294.6 536.486,1289.56 536.671,1289.11 541.798,1276.62 543.756,1271.7 544.442,1269.96 
  549.601,1256.53 551.41,1251.69 554.651,1242.85 556.328,1238.19 556.895,1236.6 557.316,1235.42 561.474,1223.53 564.842,1213.64 566.187,1209.63 572.54,1190.19 
  575.808,1179.88 577.924,1173.1 578.408,1171.54 578.76,1170.4 579.182,1169.03 580.083,1166.09 581.779,1160.52 584.362,1151.94 584.469,1151.58 584.537,1151.35 
  595.01,1115.29 598.461,1102.99 604.487,1081.04 607.929,1068.24 610.054,1060.25 615.118,1040.94 615.45,1039.66 616.098,1037.16 617.302,1032.5 617.476,1031.82 
  619.31,1024.68 624.865,1002.77 625.901,998.636 629.996,982.182 633.302,968.754 633.838,966.567 634.431,964.142 636.863,954.16 644.397,922.854 644.989,920.375 
  646.38,914.527 650.255,898.162 650.836,895.695 653.487,884.417 653.972,882.352 656.2,872.825 660.166,855.794 660.388,854.837 674.463,793.733 675.194,790.54 
  676.388,785.321 678.649,775.426 679.582,771.341 680.716,766.375 680.932,765.428 683.091,755.964 683.464,754.329 684.531,749.65 686.666,740.286 688.517,732.166 
  690.545,723.271 691.86,717.504 696.472,697.294 698.164,689.893 702.9,669.202 702.952,668.973 707.301,650.042 707.542,648.992 709.064,642.386 709.869,638.896 
  712.242,628.627 714.258,619.926 715.165,616.02 716.989,608.175 720.762,592.017 723.805,579.056 724.308,576.92 726.15,569.115 730.435,551.072 732.172,543.805 
  735.041,531.859 735.547,529.759 735.683,529.197 735.698,529.134 742.878,499.659 742.964,499.31 745.786,487.888 745.832,487.699 753.043,458.953 758.168,438.938 
  758.737,436.737 760.611,429.527 761.898,424.604 762.1,423.832 763.228,419.542 765.269,411.825 765.812,409.784 765.818,409.762 767.36,403.987 769.343,396.62 
  773.97,379.672 774.955,376.113 776.43,370.81 781.748,352.009 781.969,351.238 782.693,348.72 783.78,344.96 784.783,341.508 787.457,332.397 790.059,323.658 
  792.563,315.375 798.184,297.232 799.504,293.064 802.031,285.183 805.545,274.447 807.403,268.877 809.753,261.94 810.506,259.741 810.624,259.398 812.074,255.203 
  812.291,254.582 815.329,245.959 815.794,244.657 816.571,242.494 817.039,241.196 818.423,237.392 824.257,221.831 827.064,214.627 827.404,213.766 830.411,206.28 
  832.957,200.108 834.147,197.275 834.38,196.725 834.414,196.646 835.985,192.97 841.05,181.532 842.868,177.579 844.77,173.532 845.689,171.61 847.129,168.639 
  847.939,166.991 850.832,161.239 850.987,160.936 855.468,152.462 857.023,149.641 857.069,149.56 857.264,149.21 858.775,146.537 860.83,142.996 861.379,142.069 
  863.209,139.034 863.267,138.939 863.818,138.043 864.835,136.409 866.708,133.472 872.298,125.245 872.473,125.001 883.179,111.576 884.01,110.661 884.026,110.643 
  884.051,110.616 885.581,108.979 887.224,107.29 888.872,105.666 891.332,103.376 893.636,101.376 893.907,101.15 894.39,100.752 895.054,100.215 896.487,99.0947 
  897.983,97.9837 898.985,97.2717 899.937,96.6202 900.909,95.9794 901.417,95.6549 903.546,94.3665 903.824,94.2069 904.589,93.7787 908.34,91.9011 908.687,91.7459 
  912.832,90.1355 918.48,88.6602 918.571,88.6431 919.611,88.464 921.332,88.2286 922.003,88.1575 923.747,88.0268 926.338,87.9763 926.611,87.9809 927.191,87.9972 
  930.432,88.2452 930.689,88.2762 932.888,88.6102 935.064,89.0607 937.994,89.8544 941.303,91.008 943.431,91.8929 945.661,92.9393 946.253,93.2379 946.632,93.4332 
  948.049,94.1946 948.82,94.6297 953.175,97.3558 954.201,98.0638 954.689,98.4095 958.578,101.367 959.633,102.23 960.031,102.563 963.555,105.669 966.468,108.452 
  967.713,109.702 968.468,110.476 969.325,111.371 970.72,112.863 970.997,113.165 977.439,120.659 978.705,122.238 978.793,122.35 979.018,122.635 986.521,132.758 
  986.743,133.076 987.455,134.101 987.887,134.729 988.35,135.406 989.621,137.288 991.073,139.479 993.438,143.138 997.46,149.622 997.985,150.492 999.599,153.202 
  1004.1,161.021 1004.15,161.111 1004.32,161.417 1006,164.437 1006.92,166.121 1014,179.583 1015.28,182.122 1015.62,182.798 1016.58,184.719 1017.01,185.573 
  1017.75,187.086 1018.34,188.285 1022.81,197.582 1024,200.117 1027.68,208.102 1029.07,211.181 1033.05,220.149 1034.72,223.99 1036.13,227.281 1042.42,242.266 
  1048.44,257.132 1049.19,259.025 1052.46,267.358 1053.18,269.22 1057.08,279.369 1058.3,282.596 1059.8,286.561 1065.99,303.275 1071.24,317.825 1071.25,317.84 
  1072.89,322.435 1074.08,325.799 1074.14,325.982 1077.3,334.964 1078.41,338.143 1079.08,340.079 1082.75,350.696 1083.11,351.744 1086.11,360.556 1089.92,371.837 
  1090.49,373.521 1092.59,379.809 1094.18,384.587 1094.42,385.32 1102.36,409.52 1103.37,412.631 1104.81,417.075 1105.31,418.616 1110.81,435.755 1113.29,443.538 
  1119.22,462.286 1120.09,465.046 1123.35,475.433 1126.42,485.278 1126.97,487.029 1127.78,489.642 1128.62,492.354 1130.35,497.916 1132.29,504.184 1133.02,506.541 
  1134.35,510.848 1139.97,529.093 1147,552.032 1147.07,552.244 1150.86,564.673 1151.01,565.15 1152.38,569.65 1154.25,575.793 1154.73,577.341 1163.12,604.893 
  1163.9,607.472 1164.57,609.659 1167.51,619.34 1168.27,621.836 1171.61,632.799 1171.92,633.821 1172.94,637.143 1174.18,641.218 1176.99,650.448 1178.63,655.8 
  1183.95,673.2 1184.67,675.547 1189.07,689.896 1194.22,706.636 1195.75,711.572 1199.58,723.953 1199.71,724.367 1200.6,727.249 1202.71,734.034 1205.33,742.447 
  1206.21,745.251 1206.31,745.581 1212.53,765.407 1216.3,777.358 1220.18,789.579 1220.2,789.639 1221.53,793.815 1221.54,793.833 1224.69,803.678 1226.54,809.45 
  1227.36,811.99 1228.65,815.982 1228.71,816.184 1232.5,827.883 1232.59,828.141 1235.3,836.456 1239.25,848.5 1239.66,849.73 1239.94,850.58 1243.12,860.194 
  1248.1,875.117 1248.48,876.239 1250.68,882.774 1253.41,890.852 1254.44,893.867 1255.6,897.285 1257.49,902.785 1258.77,906.514 1259.76,909.394 1264.07,921.817 
  1268.52,934.487 1275.48,954.032 1279.14,964.153 1280.18,967.02 1280.64,968.259 1281.64,970.999 1284.9,979.855 1285.7,982.022 1289.6,992.469 1290.37,994.512 
  1290.7,995.4 1291.22,996.774 1294.27,1004.82 1295.05,1006.86 1295.5,1008.05 1295.56,1008.19 1296.43,1010.48 1300.63,1021.35 1302.46,1026.03 1303.72,1029.24 
  1304.68,1031.69 1306.67,1036.71 1307.06,1037.69 1307.38,1038.49 1309.25,1043.17 1310.99,1047.51 1317.55,1063.57 1318.91,1066.84 1319.6,1068.51 1322.11,1074.51 
  1322.8,1076.14 1324.09,1079.2 1324.29,1079.67 1325.03,1081.41 1328.32,1089.09 1338.45,1112.15 1339.44,1114.33 1339.73,1114.98 1341.29,1118.43 1343.91,1124.17 
  1345.3,1127.17 1345.35,1127.28 1346.11,1128.93 1346.16,1129.04 1346.6,1129.99 1348.32,1133.67 1350.65,1138.62 1351.86,1141.16 1352.85,1143.26 1359.19,1156.34 
  1359.41,1156.77 1361.94,1161.88 1362.1,1162.22 1375.16,1187.61 1375.81,1188.84 1376.56,1190.24 1377.96,1192.86 1378.16,1193.23 1379.19,1195.15 1380.67,1197.87 
  1384,1203.92 1385.35,1206.35 1385.71,1206.99 1387.59,1210.33 1388.12,1211.27 1390.6,1215.63 1391.25,1216.75 1393.06,1219.88 1393.97,1221.44 1394.31,1222.03 
  1395.3,1223.71 1395.6,1224.22 1396.7,1226.09 1397.83,1227.99 1398.5,1229.11 1401.49,1234.06 1401.51,1234.09 1404.82,1239.49 1406.54,1242.26 1407.48,1243.76 
  1409.23,1246.52 1409.3,1246.63 1412.44,1251.53 1412.68,1251.9 1414.2,1254.25 1417.14,1258.71 1418.5,1260.75 1419.01,1261.5 1419.31,1261.95 1422.85,1267.16 
  1426.03,1271.75 1426.23,1272.04 1433.48,1282.16 1434.25,1283.22 1438.97,1289.55 1439.29,1289.96 1441.77,1293.21 1443.25,1295.12 1444.67,1296.94 1451.83,1305.86 
  1454.17,1308.69 1454.33,1308.88 1455.93,1310.79 1457.28,1312.38 1462.03,1317.87 1465.21,1321.46 1467.53,1324.02 1467.59,1324.09 1470.22,1326.94 1475.86,1332.9 
  1477.79,1334.88 1479.59,1336.7 1485.78,1342.82 1488.99,1345.88 1489.56,1346.41 1491.95,1348.64 1494.91,1351.34 1495.05,1351.46 1501.51,1357.15 1503.23,1358.62 
  1504.06,1359.32 1508.49,1362.99 1511.95,1365.78 1514.76,1367.98 1515.18,1368.31 1515.22,1368.34 1522.5,1373.81 1526.52,1376.7 1527.47,1377.37 1527.71,1377.53 
  1530.37,1379.38 1537.07,1383.85 1540.41,1385.98 1540.47,1386.02 1542.94,1387.56 1546.13,1389.5 1546.93,1389.98 1548.06,1390.65 1549.09,1391.26 1554.51,1394.35 
  1555.1,1394.68 1555.14,1394.7 1557.46,1395.98 1557.82,1396.18 1558.8,1396.7 1559.34,1397 1560.08,1397.39 1562.79,1398.81 1562.85,1398.84 1564.48,1399.69 
  1566.2,1400.56 1567.33,1401.13 1567.64,1401.28 1567.77,1401.35 1569.54,1402.21 1570.47,1402.67 1573.63,1404.17 1574.13,1404.41 1580.01,1407.09 1580.24,1407.19 
  1580.55,1407.33 1582.37,1408.13 1582.92,1408.36 1583.58,1408.65 1586.26,1409.78 1588.54,1410.73 1592.98,1412.51 1593.14,1412.57 1593.5,1412.71 1598.27,1414.53 
  1599.09,1414.84 1604.8,1416.89 1605.8,1417.23 1608.17,1418.04 1610.92,1418.96 1611.32,1419.09 1613.98,1419.95 1614.06,1419.98 1617.17,1420.95 1620.5,1421.96 
  1623.01,1422.7 1628.38,1424.21 1629.95,1424.64 1630.52,1424.79 1635.88,1426.19 1641.51,1427.57 1642.61,1427.83 1643.93,1428.14 1646.03,1428.62 1649.45,1429.38 
  1650.43,1429.59 1652.33,1430 1654.27,1430.4 1654.7,1430.49 1656.22,1430.8 1663.96,1432.3 1665.63,1432.6 1669.65,1433.32 1671.79,1433.68 1672.45,1433.79 
  1674.53,1434.14 1677.97,1434.69 1678.83,1434.82 1679.21,1434.88 1685.8,1435.86 1688.42,1436.23 1690.42,1436.5 1690.78,1436.55 1695.01,1437.1 1695.54,1437.17 
  1695.86,1437.21 1697.02,1437.35 1699.71,1437.68 1701.07,1437.84 1702.72,1438.03 1708.58,1438.69 1710.99,1438.94 1713.08,1439.15 1714.2,1439.27 1717.46,1439.58 
  1717.75,1439.61 1722.63,1440.06 1723.52,1440.14 1724.45,1440.22 1724.9,1440.26 1725.99,1440.35 1726.07,1440.36 1727.12,1440.45 1728.54,1440.56 1728.83,1440.59 
  1730.64,1440.73 1730.77,1440.74 1730.89,1440.75 1731.67,1440.82 1732.8,1440.9 1736.7,1441.2 1737.33,1441.24 1739.47,1441.4 1740.95,1441.5 1743.07,1441.65 
  1743.83,1441.7 1744.6,1441.75 1745.32,1441.79 1749.49,1442.06 1751.66,1442.19 1752.72,1442.25 1754.18,1442.34 1754.84,1442.37 1755.91,1442.43 1762.16,1442.77 
  1762.49,1442.78 1763.3,1442.82 1764.17,1442.87 1764.36,1442.88 1766.01,1442.96 1766.94,1443 1768.53,1443.08 1769.23,1443.11 1769.47,1443.12 1770.05,1443.14 
  1775.98,1443.4 1778.48,1443.5 1780.08,1443.57 1780.17,1443.57 1780.87,1443.6 1782.91,1443.67 1784.7,1443.74 1786.6,1443.81 1792.18,1443.99 1793.69,1444.04 
  1796.35,1444.12 1798.4,1444.18 1799.77,1444.22 1806.72,1444.41 1812.4,1444.54 1812.43,1444.54 1813.02,1444.56 1813.07,1444.56 1818.1,1444.67 1820.64,1444.72 
  1823.06,1444.77 1823.1,1444.77 1826.96,1444.84 1826.98,1444.84 1832.67,1444.93 1832.9,1444.94 1836.59,1444.99 1837.06,1445 1840.17,1445.05 1840.35,1445.05 
  1842.3,1445.08 1843.75,1445.1 1844.31,1445.1 1846.7,1445.13 1847.57,1445.14 1847.6,1445.14 1849.16,1445.16 1850.29,1445.18 1850.72,1445.18 1852.65,1445.2 
  1854.39,1445.22 1854.53,1445.22 1854.68,1445.23 1855.42,1445.23 1855.56,1445.23 1856.48,1445.24 1859.07,1445.27 1859.41,1445.27 1860,1445.28 1865.95,1445.33 
  1871.39,1445.38 1876.52,1445.42 1877.8,1445.42 1878.54,1445.43 1879.58,1445.44 1882.21,1445.45 1883.26,1445.46 1885.86,1445.47 1886.02,1445.48 1891.09,1445.5 
  1893.05,1445.51 1897.85,1445.54 1902.24,1445.55 1903.06,1445.56 1907.2,1445.57 1910.87,1445.59 1911.04,1445.59 1913.12,1445.59 1914.98,1445.6 1915.95,1445.6 
  1918.76,1445.61 1919.36,1445.61 1919.69,1445.61 1919.93,1445.61 1920.49,1445.61 1920.79,1445.62 1923.5,1445.62 1923.87,1445.62 1925.46,1445.63 1927.77,1445.63 
  1929.17,1445.64 1930.11,1445.64 1930.25,1445.64 1933.61,1445.64 1935.9,1445.65 1936.09,1445.65 1936.62,1445.65 1938.37,1445.65 1942.72,1445.66 1945.63,1445.66 
  1954.01,1445.68 1956.26,1445.68 1956.34,1445.68 1956.44,1445.68 1957.01,1445.68 1957.85,1445.68 1961.67,1445.68 1961.97,1445.68 1967.04,1445.69 1967.25,1445.69 
  1967.46,1445.69 1968.48,1445.69 1973.85,1445.69 1974.68,1445.69 1975.78,1445.7 1977.64,1445.7 1977.98,1445.7 1979.27,1445.7 1980.1,1445.7 1981.07,1445.7 
  1984.16,1445.7 1985.7,1445.7 1986.51,1445.7 1987.38,1445.7 1988.73,1445.7 1989.65,1445.7 1992.16,1445.7 1997.24,1445.71 2002.22,1445.71 2004.72,1445.71 
  2007.2,1445.71 2008.67,1445.71 2009.53,1445.71 2010.65,1445.71 2013.46,1445.71 2013.5,1445.71 2014.96,1445.71 2016.49,1445.71 2016.5,1445.71 2017.67,1445.71 
  2021.18,1445.71 2023.96,1445.71 2025.41,1445.71 2025.66,1445.71 2025.84,1445.71 2025.89,1445.71 2027.24,1445.71 2027.34,1445.71 2030.82,1445.71 2033.29,1445.71 
  2037.83,1445.71 2038,1445.71 2040.03,1445.71 2042.52,1445.71 2042.78,1445.71 2044.55,1445.71 2046.15,1445.71 2046.84,1445.71 2047.52,1445.71 2048.7,1445.71 
  2050.68,1445.71 2052.21,1445.71 2054.56,1445.71 2054.98,1445.71 2055.03,1445.71 2055.34,1445.71 2055.55,1445.71 2058.78,1445.71 2061.26,1445.71 2063.07,1445.71 
  2063.21,1445.71 2064.54,1445.71 2068.84,1445.72 2068.86,1445.72 2069.72,1445.72 2070.81,1445.72 2072.46,1445.72 2076.64,1445.72 2076.69,1445.72 2077.38,1445.72 
  2078.1,1445.72 2078.65,1445.72 2080.29,1445.72 2080.71,1445.72 2080.93,1445.72 2081.9,1445.72 2082.73,1445.72 2084.6,1445.72 2085.1,1445.72 2085.27,1445.72 
  2085.59,1445.72 2090.9,1445.72 2091.71,1445.72 2094.98,1445.72 2096.89,1445.72 2096.9,1445.72 2098.15,1445.72 2100.48,1445.72 2102.89,1445.72 2103.35,1445.72 
  2105.47,1445.72 2106.04,1445.72 2115.67,1445.72 2118.8,1445.72 2119.82,1445.72 2124.73,1445.72 2126.75,1445.72 2126.8,1445.72 2126.95,1445.72 2129.04,1445.72 
  2133.04,1445.72 2138.9,1445.72 2140.25,1445.72 2140.9,1445.72 2144.28,1445.72 2147.48,1445.72 2150.09,1445.72 2150.16,1445.72 2152.31,1445.72 2152.57,1445.72 
  2153.07,1445.72 2153.2,1445.72 2156.21,1445.72 2157.1,1445.72 2160.69,1445.72 2165.17,1445.72 2165.33,1445.72 2168.29,1445.72 2169.13,1445.72 2169.19,1445.72 
  2170.55,1445.72 2173.83,1445.72 2175.44,1445.72 2181.25,1445.72 2181.5,1445.72 2181.83,1445.72 2182.77,1445.72 2183.06,1445.72 2183.75,1445.72 2184.03,1445.72 
  2184.62,1445.72 2184.92,1445.72 2185.27,1445.72 2191.82,1445.72 2194.45,1445.72 2195.59,1445.72 2195.9,1445.72 2196.72,1445.72 2199.35,1445.72 2199.73,1445.72 
  2200.63,1445.72 2205.08,1445.72 2206.6,1445.72 2207.26,1445.72 2208.89,1445.72 2211.49,1445.72 2211.9,1445.72 2213.51,1445.72 2215.22,1445.72 2215.5,1445.72 
  2215.71,1445.72 2218.6,1445.72 2219.84,1445.72 2220.52,1445.72 2223.61,1445.72 2223.85,1445.72 2223.94,1445.72 2224.04,1445.72 2225.47,1445.72 2227.53,1445.72 
  2230.09,1445.72 2230.43,1445.72 2231.2,1445.72 2231.57,1445.72 2232.14,1445.72 2232.82,1445.72 2247.6,1445.72 2247.72,1445.72 2247.77,1445.72 2248.4,1445.72 
  2251.21,1445.72 2255.26,1445.72 2255.74,1445.72 2259.44,1445.72 2264.66,1445.72 2266.01,1445.72 2268.69,1445.72 2268.7,1445.72 2274.93,1445.72 2275.73,1445.72 
  2277.2,1445.72 2277.25,1445.72 2277.33,1445.72 2284.67,1445.72 2287.1,1445.72 2287.43,1445.72 2287.97,1445.72 2290.76,1445.72 2291.62,1445.72 2293.15,1445.72 
  
  "/>
<path clip-path="url(#clip390)" d="
M1496.71 216.178 L2282.55 216.178 L2282.55 95.2176 L1496.71 95.2176  Z
  " fill="#ffffff" fill-rule="evenodd" fill-opacity="1"/>
<polyline clip-path="url(#clip390)" style="stroke:#000000; stroke-width:4; stroke-opacity:1; fill:none" points="
  1496.71,216.178 2282.55,216.178 2282.55,95.2176 1496.71,95.2176 1496.71,216.178 
  "/>
<polyline clip-path="url(#clip390)" style="stroke:#009af9; stroke-width:4; stroke-opacity:1; fill:none" points="
  1520.11,155.698 1660.52,155.698 
  "/>
<path clip-path="url(#clip390)" d="M 0 0 M1683.92 138.418 L1688.62 138.418 L1688.62 159.413 Q1688.62 164.968 1690.63 167.422 Q1692.65 169.853 1697.16 169.853 Q1701.65 169.853 1703.67 167.422 Q1705.68 164.968 1705.68 159.413 L1705.68 138.418 L1710.38 138.418 L1710.38 159.992 Q1710.38 166.751 1707.02 170.2 Q1703.69 173.649 1697.16 173.649 Q1690.61 173.649 1687.25 170.2 Q1683.92 166.751 1683.92 159.992 L1683.92 138.418 Z" fill="#000000" fill-rule="evenodd" fill-opacity="1" /><path clip-path="url(#clip390)" d="M 0 0 M1740.52 157.329 L1740.52 172.978 L1736.26 172.978 L1736.26 157.468 Q1736.26 153.788 1734.82 151.959 Q1733.39 150.13 1730.52 150.13 Q1727.07 150.13 1725.08 152.33 Q1723.09 154.529 1723.09 158.325 L1723.09 172.978 L1718.81 172.978 L1718.81 147.052 L1723.09 147.052 L1723.09 151.08 Q1724.62 148.742 1726.68 147.584 Q1728.76 146.427 1731.47 146.427 Q1735.93 146.427 1738.23 149.205 Q1740.52 151.959 1740.52 157.329 Z" fill="#000000" fill-rule="evenodd" fill-opacity="1" /><path clip-path="url(#clip390)" d="M 0 0 M1770.56 157.329 L1770.56 172.978 L1766.31 172.978 L1766.31 157.468 Q1766.31 153.788 1764.87 151.959 Q1763.43 150.13 1760.56 150.13 Q1757.12 150.13 1755.12 152.33 Q1753.13 154.529 1753.13 158.325 L1753.13 172.978 L1748.85 172.978 L1748.85 147.052 L1753.13 147.052 L1753.13 151.08 Q1754.66 148.742 1756.72 147.584 Q1758.81 146.427 1761.51 146.427 Q1765.98 146.427 1768.27 149.205 Q1770.56 151.959 1770.56 157.329 Z" fill="#000000" fill-rule="evenodd" fill-opacity="1" /><path clip-path="url(#clip390)" d="M 0 0 M1789.11 150.038 Q1785.68 150.038 1783.69 152.723 Q1781.7 155.385 1781.7 160.038 Q1781.7 164.691 1783.67 167.376 Q1785.66 170.038 1789.11 170.038 Q1792.51 170.038 1794.5 167.353 Q1796.49 164.667 1796.49 160.038 Q1796.49 155.431 1794.5 152.746 Q1792.51 150.038 1789.11 150.038 M1789.11 146.427 Q1794.66 146.427 1797.83 150.038 Q1801 153.649 1801 160.038 Q1801 166.404 1797.83 170.038 Q1794.66 173.649 1789.11 173.649 Q1783.53 173.649 1780.36 170.038 Q1777.21 166.404 1777.21 160.038 Q1777.21 153.649 1780.36 150.038 Q1783.53 146.427 1789.11 146.427 Z" fill="#000000" fill-rule="evenodd" fill-opacity="1" /><path clip-path="url(#clip390)" d="M 0 0 M1823.09 151.033 Q1822.37 150.617 1821.51 150.431 Q1820.68 150.223 1819.66 150.223 Q1816.05 150.223 1814.11 152.584 Q1812.18 154.922 1812.18 159.32 L1812.18 172.978 L1807.9 172.978 L1807.9 147.052 L1812.18 147.052 L1812.18 151.08 Q1813.53 148.718 1815.68 147.584 Q1817.83 146.427 1820.91 146.427 Q1821.35 146.427 1821.88 146.496 Q1822.42 146.543 1823.06 146.658 L1823.09 151.033 Z" fill="#000000" fill-rule="evenodd" fill-opacity="1" /><path clip-path="url(#clip390)" d="M 0 0 M1846.91 152.029 Q1848.5 149.158 1850.73 147.793 Q1852.95 146.427 1855.96 146.427 Q1860.01 146.427 1862.21 149.274 Q1864.41 152.098 1864.41 157.329 L1864.41 172.978 L1860.12 172.978 L1860.12 157.468 Q1860.12 153.742 1858.8 151.936 Q1857.49 150.13 1854.78 150.13 Q1851.47 150.13 1849.55 152.33 Q1847.62 154.529 1847.62 158.325 L1847.62 172.978 L1843.34 172.978 L1843.34 157.468 Q1843.34 153.718 1842.02 151.936 Q1840.7 150.13 1837.95 150.13 Q1834.68 150.13 1832.76 152.353 Q1830.84 154.552 1830.84 158.325 L1830.84 172.978 L1826.56 172.978 L1826.56 147.052 L1830.84 147.052 L1830.84 151.08 Q1832.3 148.695 1834.34 147.561 Q1836.37 146.427 1839.18 146.427 Q1842 146.427 1843.97 147.862 Q1845.96 149.297 1846.91 152.029 Z" fill="#000000" fill-rule="evenodd" fill-opacity="1" /><path clip-path="url(#clip390)" d="M 0 0 M1884.68 159.945 Q1879.52 159.945 1877.53 161.126 Q1875.54 162.306 1875.54 165.154 Q1875.54 167.422 1877.02 168.765 Q1878.53 170.084 1881.1 170.084 Q1884.64 170.084 1886.77 167.584 Q1888.92 165.061 1888.92 160.894 L1888.92 159.945 L1884.68 159.945 M1893.18 158.186 L1893.18 172.978 L1888.92 172.978 L1888.92 169.042 Q1887.46 171.403 1885.29 172.538 Q1883.11 173.649 1879.96 173.649 Q1875.98 173.649 1873.62 171.427 Q1871.28 169.181 1871.28 165.431 Q1871.28 161.056 1874.2 158.834 Q1877.14 156.612 1882.95 156.612 L1888.92 156.612 L1888.92 156.195 Q1888.92 153.255 1886.98 151.658 Q1885.05 150.038 1881.56 150.038 Q1879.34 150.038 1877.23 150.57 Q1875.12 151.103 1873.18 152.167 L1873.18 148.232 Q1875.52 147.33 1877.72 146.89 Q1879.92 146.427 1882 146.427 Q1887.62 146.427 1890.4 149.343 Q1893.18 152.26 1893.18 158.186 Z" fill="#000000" fill-rule="evenodd" fill-opacity="1" /><path clip-path="url(#clip390)" d="M 0 0 M1901.95 136.959 L1906.21 136.959 L1906.21 172.978 L1901.95 172.978 L1901.95 136.959 Z" fill="#000000" fill-rule="evenodd" fill-opacity="1" /><path clip-path="url(#clip390)" d="M 0 0 M1915.12 147.052 L1919.38 147.052 L1919.38 172.978 L1915.12 172.978 L1915.12 147.052 M1915.12 136.959 L1919.38 136.959 L1919.38 142.353 L1915.12 142.353 L1915.12 136.959 Z" fill="#000000" fill-rule="evenodd" fill-opacity="1" /><path clip-path="url(#clip390)" d="M 0 0 M1926.44 147.052 L1946.67 147.052 L1946.67 150.941 L1930.66 169.575 L1946.67 169.575 L1946.67 172.978 L1925.86 172.978 L1925.86 169.089 L1941.88 150.455 L1926.44 150.455 L1926.44 147.052 Z" fill="#000000" fill-rule="evenodd" fill-opacity="1" /><path clip-path="url(#clip390)" d="M 0 0 M1975.35 158.95 L1975.35 161.033 L1955.77 161.033 Q1956.05 165.431 1958.41 167.746 Q1960.79 170.038 1965.03 170.038 Q1967.48 170.038 1969.78 169.436 Q1972.09 168.834 1974.36 167.63 L1974.36 171.658 Q1972.07 172.63 1969.66 173.14 Q1967.25 173.649 1964.78 173.649 Q1958.57 173.649 1954.94 170.038 Q1951.33 166.427 1951.33 160.269 Q1951.33 153.904 1954.75 150.177 Q1958.2 146.427 1964.04 146.427 Q1969.27 146.427 1972.3 149.806 Q1975.35 153.163 1975.35 158.95 M1971.1 157.7 Q1971.05 154.205 1969.13 152.121 Q1967.23 150.038 1964.08 150.038 Q1960.52 150.038 1958.36 152.052 Q1956.23 154.066 1955.91 157.723 L1971.1 157.7 Z" fill="#000000" fill-rule="evenodd" fill-opacity="1" /><path clip-path="url(#clip390)" d="M 0 0 M1999.41 150.987 L1999.41 136.959 L2003.67 136.959 L2003.67 172.978 L1999.41 172.978 L1999.41 169.089 Q1998.06 171.403 1996 172.538 Q1993.97 173.649 1991.1 173.649 Q1986.4 173.649 1983.43 169.899 Q1980.49 166.149 1980.49 160.038 Q1980.49 153.927 1983.43 150.177 Q1986.4 146.427 1991.1 146.427 Q1993.97 146.427 1996 147.561 Q1998.06 148.672 1999.41 150.987 M1984.89 160.038 Q1984.89 164.737 1986.81 167.422 Q1988.76 170.084 1992.14 170.084 Q1995.52 170.084 1997.46 167.422 Q1999.41 164.737 1999.41 160.038 Q1999.41 155.339 1997.46 152.677 Q1995.52 149.992 1992.14 149.992 Q1988.76 149.992 1986.81 152.677 Q1984.89 155.339 1984.89 160.038 Z" fill="#000000" fill-rule="evenodd" fill-opacity="1" /><path clip-path="url(#clip390)" d="M 0 0 M2031.63 169.089 L2031.63 182.839 L2027.35 182.839 L2027.35 147.052 L2031.63 147.052 L2031.63 150.987 Q2032.97 148.672 2035.01 147.561 Q2037.07 146.427 2039.91 146.427 Q2044.64 146.427 2047.58 150.177 Q2050.54 153.927 2050.54 160.038 Q2050.54 166.149 2047.58 169.899 Q2044.64 173.649 2039.91 173.649 Q2037.07 173.649 2035.01 172.538 Q2032.97 171.403 2031.63 169.089 M2046.12 160.038 Q2046.12 155.339 2044.17 152.677 Q2042.25 149.992 2038.87 149.992 Q2035.49 149.992 2033.55 152.677 Q2031.63 155.339 2031.63 160.038 Q2031.63 164.737 2033.55 167.422 Q2035.49 170.084 2038.87 170.084 Q2042.25 170.084 2044.17 167.422 Q2046.12 164.737 2046.12 160.038 Z" fill="#000000" fill-rule="evenodd" fill-opacity="1" /><path clip-path="url(#clip390)" d="M 0 0 M2067.65 150.038 Q2064.22 150.038 2062.23 152.723 Q2060.24 155.385 2060.24 160.038 Q2060.24 164.691 2062.21 167.376 Q2064.2 170.038 2067.65 170.038 Q2071.05 170.038 2073.04 167.353 Q2075.03 164.667 2075.03 160.038 Q2075.03 155.431 2073.04 152.746 Q2071.05 150.038 2067.65 150.038 M2067.65 146.427 Q2073.2 146.427 2076.37 150.038 Q2079.54 153.649 2079.54 160.038 Q2079.54 166.404 2076.37 170.038 Q2073.2 173.649 2067.65 173.649 Q2062.07 173.649 2058.9 170.038 Q2055.75 166.404 2055.75 160.038 Q2055.75 153.649 2058.9 150.038 Q2062.07 146.427 2067.65 146.427 Z" fill="#000000" fill-rule="evenodd" fill-opacity="1" /><path clip-path="url(#clip390)" d="M 0 0 M2103.13 147.816 L2103.13 151.843 Q2101.33 150.917 2099.38 150.455 Q2097.44 149.992 2095.35 149.992 Q2092.18 149.992 2090.59 150.964 Q2089.01 151.936 2089.01 153.88 Q2089.01 155.362 2090.15 156.218 Q2091.28 157.052 2094.71 157.816 L2096.16 158.14 Q2100.7 159.112 2102.6 160.894 Q2104.52 162.654 2104.52 165.825 Q2104.52 169.436 2101.65 171.542 Q2098.8 173.649 2093.8 173.649 Q2091.72 173.649 2089.45 173.232 Q2087.21 172.839 2084.71 172.028 L2084.71 167.63 Q2087.07 168.857 2089.36 169.482 Q2091.65 170.084 2093.9 170.084 Q2096.91 170.084 2098.53 169.066 Q2100.15 168.024 2100.15 166.149 Q2100.15 164.413 2098.97 163.487 Q2097.81 162.561 2093.85 161.704 L2092.37 161.357 Q2088.41 160.524 2086.65 158.811 Q2084.89 157.075 2084.89 154.066 Q2084.89 150.408 2087.48 148.418 Q2090.08 146.427 2094.85 146.427 Q2097.21 146.427 2099.29 146.774 Q2101.37 147.121 2103.13 147.816 Z" fill="#000000" fill-rule="evenodd" fill-opacity="1" /><path clip-path="url(#clip390)" d="M 0 0 M2115.52 139.691 L2115.52 147.052 L2124.29 147.052 L2124.29 150.362 L2115.52 150.362 L2115.52 164.436 Q2115.52 167.607 2116.37 168.51 Q2117.25 169.413 2119.91 169.413 L2124.29 169.413 L2124.29 172.978 L2119.91 172.978 Q2114.98 172.978 2113.11 171.149 Q2111.23 169.297 2111.23 164.436 L2111.23 150.362 L2108.11 150.362 L2108.11 147.052 L2111.23 147.052 L2111.23 139.691 L2115.52 139.691 Z" fill="#000000" fill-rule="evenodd" fill-opacity="1" /><path clip-path="url(#clip390)" d="M 0 0 M2152.07 158.95 L2152.07 161.033 L2132.48 161.033 Q2132.76 165.431 2135.12 167.746 Q2137.51 170.038 2141.74 170.038 Q2144.2 170.038 2146.49 169.436 Q2148.8 168.834 2151.07 167.63 L2151.07 171.658 Q2148.78 172.63 2146.37 173.14 Q2143.97 173.649 2141.49 173.649 Q2135.28 173.649 2131.65 170.038 Q2128.04 166.427 2128.04 160.269 Q2128.04 153.904 2131.47 150.177 Q2134.91 146.427 2140.75 146.427 Q2145.98 146.427 2149.01 149.806 Q2152.07 153.163 2152.07 158.95 M2147.81 157.7 Q2147.76 154.205 2145.84 152.121 Q2143.94 150.038 2140.79 150.038 Q2137.23 150.038 2135.08 152.052 Q2132.95 154.066 2132.62 157.723 L2147.81 157.7 Z" fill="#000000" fill-rule="evenodd" fill-opacity="1" /><path clip-path="url(#clip390)" d="M 0 0 M2174.08 151.033 Q2173.36 150.617 2172.51 150.431 Q2171.67 150.223 2170.65 150.223 Q2167.04 150.223 2165.1 152.584 Q2163.18 154.922 2163.18 159.32 L2163.18 172.978 L2158.9 172.978 L2158.9 147.052 L2163.18 147.052 L2163.18 151.08 Q2164.52 148.718 2166.67 147.584 Q2168.83 146.427 2171.9 146.427 Q2172.34 146.427 2172.88 146.496 Q2173.41 146.543 2174.06 146.658 L2174.08 151.033 Z" fill="#000000" fill-rule="evenodd" fill-opacity="1" /><path clip-path="url(#clip390)" d="M 0 0 M2178.55 147.052 L2182.81 147.052 L2182.81 172.978 L2178.55 172.978 L2178.55 147.052 M2178.55 136.959 L2182.81 136.959 L2182.81 142.353 L2178.55 142.353 L2178.55 136.959 Z" fill="#000000" fill-rule="evenodd" fill-opacity="1" /><path clip-path="url(#clip390)" d="M 0 0 M2201.77 150.038 Q2198.34 150.038 2196.35 152.723 Q2194.36 155.385 2194.36 160.038 Q2194.36 164.691 2196.33 167.376 Q2198.32 170.038 2201.77 170.038 Q2205.17 170.038 2207.16 167.353 Q2209.15 164.667 2209.15 160.038 Q2209.15 155.431 2207.16 152.746 Q2205.17 150.038 2201.77 150.038 M2201.77 146.427 Q2207.32 146.427 2210.49 150.038 Q2213.66 153.649 2213.66 160.038 Q2213.66 166.404 2210.49 170.038 Q2207.32 173.649 2201.77 173.649 Q2196.19 173.649 2193.02 170.038 Q2189.87 166.404 2189.87 160.038 Q2189.87 153.649 2193.02 150.038 Q2196.19 146.427 2201.77 146.427 Z" fill="#000000" fill-rule="evenodd" fill-opacity="1" /><path clip-path="url(#clip390)" d="M 0 0 M2235.75 151.033 Q2235.03 150.617 2234.17 150.431 Q2233.34 150.223 2232.32 150.223 Q2228.71 150.223 2226.77 152.584 Q2224.84 154.922 2224.84 159.32 L2224.84 172.978 L2220.56 172.978 L2220.56 147.052 L2224.84 147.052 L2224.84 151.08 Q2226.19 148.718 2228.34 147.584 Q2230.49 146.427 2233.57 146.427 Q2234.01 146.427 2234.54 146.496 Q2235.08 146.543 2235.72 146.658 L2235.75 151.033 Z" fill="#000000" fill-rule="evenodd" fill-opacity="1" /></svg>
