<?xml version="1.0" encoding="utf-8"?>
<svg xmlns="http://www.w3.org/2000/svg" xmlns:xlink="http://www.w3.org/1999/xlink" width="600" height="400" viewBox="0 0 2400 1600">
<defs>
  <clipPath id="clip960">
    <rect x="0" y="0" width="2400" height="1600"/>
  </clipPath>
</defs>
<path clip-path="url(#clip960)" d="
M0 1600 L2400 1600 L2400 0 L0 0  Z
  " fill="#ffffff" fill-rule="evenodd" fill-opacity="1"/>
<defs>
  <clipPath id="clip961">
    <rect x="480" y="0" width="1681" height="1600"/>
  </clipPath>
</defs>
<defs>
  <clipPath id="clip962">
    <rect x="249" y="47" width="2104" height="1405"/>
  </clipPath>
</defs>
<path clip-path="url(#clip960)" d="
M249.542 1450.96 L2352.76 1450.96 L2352.76 47.2441 L249.542 47.2441  Z
  " fill="#ffffff" fill-rule="evenodd" fill-opacity="1"/>
<polyline clip-path="url(#clip962)" style="stroke:#000000; stroke-width:2; stroke-opacity:0.1; fill:none" points="
  309.067,1450.96 309.067,47.2441 
  "/>
<polyline clip-path="url(#clip962)" style="stroke:#000000; stroke-width:2; stroke-opacity:0.1; fill:none" points="
  705.9,1450.96 705.9,47.2441 
  "/>
<polyline clip-path="url(#clip962)" style="stroke:#000000; stroke-width:2; stroke-opacity:0.1; fill:none" points="
  1102.73,1450.96 1102.73,47.2441 
  "/>
<polyline clip-path="url(#clip962)" style="stroke:#000000; stroke-width:2; stroke-opacity:0.1; fill:none" points="
  1499.57,1450.96 1499.57,47.2441 
  "/>
<polyline clip-path="url(#clip962)" style="stroke:#000000; stroke-width:2; stroke-opacity:0.1; fill:none" points="
  1896.4,1450.96 1896.4,47.2441 
  "/>
<polyline clip-path="url(#clip962)" style="stroke:#000000; stroke-width:2; stroke-opacity:0.1; fill:none" points="
  2293.23,1450.96 2293.23,47.2441 
  "/>
<polyline clip-path="url(#clip960)" style="stroke:#000000; stroke-width:4; stroke-opacity:1; fill:none" points="
  249.542,1450.96 2352.76,1450.96 
  "/>
<polyline clip-path="url(#clip960)" style="stroke:#000000; stroke-width:4; stroke-opacity:1; fill:none" points="
  309.067,1450.96 309.067,1434.12 
  "/>
<polyline clip-path="url(#clip960)" style="stroke:#000000; stroke-width:4; stroke-opacity:1; fill:none" points="
  705.9,1450.96 705.9,1434.12 
  "/>
<polyline clip-path="url(#clip960)" style="stroke:#000000; stroke-width:4; stroke-opacity:1; fill:none" points="
  1102.73,1450.96 1102.73,1434.12 
  "/>
<polyline clip-path="url(#clip960)" style="stroke:#000000; stroke-width:4; stroke-opacity:1; fill:none" points="
  1499.57,1450.96 1499.57,1434.12 
  "/>
<polyline clip-path="url(#clip960)" style="stroke:#000000; stroke-width:4; stroke-opacity:1; fill:none" points="
  1896.4,1450.96 1896.4,1434.12 
  "/>
<polyline clip-path="url(#clip960)" style="stroke:#000000; stroke-width:4; stroke-opacity:1; fill:none" points="
  2293.23,1450.96 2293.23,1434.12 
  "/>
<path clip-path="url(#clip960)" d="M 0 0 M309.067 1480.15 Q305.456 1480.15 303.627 1483.72 Q301.822 1487.26 301.822 1494.39 Q301.822 1501.49 303.627 1505.06 Q305.456 1508.6 309.067 1508.6 Q312.701 1508.6 314.507 1505.06 Q316.335 1501.49 316.335 1494.39 Q316.335 1487.26 314.507 1483.72 Q312.701 1480.15 309.067 1480.15 M309.067 1476.45 Q314.877 1476.45 317.933 1481.05 Q321.011 1485.64 321.011 1494.39 Q321.011 1503.11 317.933 1507.72 Q314.877 1512.3 309.067 1512.3 Q303.257 1512.3 300.178 1507.72 Q297.123 1503.11 297.123 1494.39 Q297.123 1485.64 300.178 1481.05 Q303.257 1476.45 309.067 1476.45 Z" fill="#000000" fill-rule="evenodd" fill-opacity="1" /><path clip-path="url(#clip960)" d="M 0 0 M680.587 1507.7 L688.226 1507.7 L688.226 1481.33 L679.916 1483 L679.916 1478.74 L688.18 1477.07 L692.856 1477.07 L692.856 1507.7 L700.495 1507.7 L700.495 1511.63 L680.587 1511.63 L680.587 1507.7 Z" fill="#000000" fill-rule="evenodd" fill-opacity="1" /><path clip-path="url(#clip960)" d="M 0 0 M719.939 1480.15 Q716.328 1480.15 714.499 1483.72 Q712.694 1487.26 712.694 1494.39 Q712.694 1501.49 714.499 1505.06 Q716.328 1508.6 719.939 1508.6 Q723.573 1508.6 725.379 1505.06 Q727.208 1501.49 727.208 1494.39 Q727.208 1487.26 725.379 1483.72 Q723.573 1480.15 719.939 1480.15 M719.939 1476.45 Q725.749 1476.45 728.805 1481.05 Q731.883 1485.64 731.883 1494.39 Q731.883 1503.11 728.805 1507.72 Q725.749 1512.3 719.939 1512.3 Q714.129 1512.3 711.05 1507.72 Q707.995 1503.11 707.995 1494.39 Q707.995 1485.64 711.05 1481.05 Q714.129 1476.45 719.939 1476.45 Z" fill="#000000" fill-rule="evenodd" fill-opacity="1" /><path clip-path="url(#clip960)" d="M 0 0 M1081.51 1507.7 L1097.83 1507.7 L1097.83 1511.63 L1075.88 1511.63 L1075.88 1507.7 Q1078.54 1504.94 1083.13 1500.31 Q1087.73 1495.66 1088.91 1494.32 Q1091.16 1491.79 1092.04 1490.06 Q1092.94 1488.3 1092.94 1486.61 Q1092.94 1483.85 1091 1482.12 Q1089.08 1480.38 1085.97 1480.38 Q1083.77 1480.38 1081.32 1481.15 Q1078.89 1481.91 1076.11 1483.46 L1076.11 1478.74 Q1078.94 1477.6 1081.39 1477.03 Q1083.84 1476.45 1085.88 1476.45 Q1091.25 1476.45 1094.45 1479.13 Q1097.64 1481.82 1097.64 1486.31 Q1097.64 1488.44 1096.83 1490.36 Q1096.04 1492.26 1093.94 1494.85 Q1093.36 1495.52 1090.26 1498.74 Q1087.15 1501.93 1081.51 1507.7 Z" fill="#000000" fill-rule="evenodd" fill-opacity="1" /><path clip-path="url(#clip960)" d="M 0 0 M1117.64 1480.15 Q1114.03 1480.15 1112.2 1483.72 Q1110.39 1487.26 1110.39 1494.39 Q1110.39 1501.49 1112.2 1505.06 Q1114.03 1508.6 1117.64 1508.6 Q1121.27 1508.6 1123.08 1505.06 Q1124.91 1501.49 1124.91 1494.39 Q1124.91 1487.26 1123.08 1483.72 Q1121.27 1480.15 1117.64 1480.15 M1117.64 1476.45 Q1123.45 1476.45 1126.51 1481.05 Q1129.58 1485.64 1129.58 1494.39 Q1129.58 1503.11 1126.51 1507.72 Q1123.45 1512.3 1117.64 1512.3 Q1111.83 1512.3 1108.75 1507.72 Q1105.7 1503.11 1105.7 1494.39 Q1105.7 1485.64 1108.75 1481.05 Q1111.83 1476.45 1117.64 1476.45 Z" fill="#000000" fill-rule="evenodd" fill-opacity="1" /><path clip-path="url(#clip960)" d="M 0 0 M1488.41 1493 Q1491.76 1493.72 1493.64 1495.98 Q1495.54 1498.25 1495.54 1501.59 Q1495.54 1506.7 1492.02 1509.5 Q1488.5 1512.3 1482.02 1512.3 Q1479.84 1512.3 1477.53 1511.86 Q1475.24 1511.45 1472.78 1510.59 L1472.78 1506.08 Q1474.73 1507.21 1477.04 1507.79 Q1479.36 1508.37 1481.88 1508.37 Q1486.28 1508.37 1488.57 1506.63 Q1490.88 1504.9 1490.88 1501.59 Q1490.88 1498.53 1488.73 1496.82 Q1486.6 1495.08 1482.78 1495.08 L1478.76 1495.08 L1478.76 1491.24 L1482.97 1491.24 Q1486.42 1491.24 1488.25 1489.87 Q1490.07 1488.48 1490.07 1485.89 Q1490.07 1483.23 1488.18 1481.82 Q1486.3 1480.38 1482.78 1480.38 Q1480.86 1480.38 1478.66 1480.8 Q1476.46 1481.22 1473.82 1482.1 L1473.82 1477.93 Q1476.49 1477.19 1478.8 1476.82 Q1481.14 1476.45 1483.2 1476.45 Q1488.52 1476.45 1491.63 1478.88 Q1494.73 1481.29 1494.73 1485.41 Q1494.73 1488.28 1493.08 1490.27 Q1491.44 1492.23 1488.41 1493 Z" fill="#000000" fill-rule="evenodd" fill-opacity="1" /><path clip-path="url(#clip960)" d="M 0 0 M1514.4 1480.15 Q1510.79 1480.15 1508.96 1483.72 Q1507.16 1487.26 1507.16 1494.39 Q1507.16 1501.49 1508.96 1505.06 Q1510.79 1508.6 1514.4 1508.6 Q1518.04 1508.6 1519.84 1505.06 Q1521.67 1501.49 1521.67 1494.39 Q1521.67 1487.26 1519.84 1483.72 Q1518.04 1480.15 1514.4 1480.15 M1514.4 1476.45 Q1520.21 1476.45 1523.27 1481.05 Q1526.35 1485.64 1526.35 1494.39 Q1526.35 1503.11 1523.27 1507.72 Q1520.21 1512.3 1514.4 1512.3 Q1508.59 1512.3 1505.51 1507.72 Q1502.46 1503.11 1502.46 1494.39 Q1502.46 1485.64 1505.51 1481.05 Q1508.59 1476.45 1514.4 1476.45 Z" fill="#000000" fill-rule="evenodd" fill-opacity="1" /><path clip-path="url(#clip960)" d="M 0 0 M1884.57 1481.15 L1872.76 1499.6 L1884.57 1499.6 L1884.57 1481.15 M1883.34 1477.07 L1889.22 1477.07 L1889.22 1499.6 L1894.15 1499.6 L1894.15 1503.48 L1889.22 1503.48 L1889.22 1511.63 L1884.57 1511.63 L1884.57 1503.48 L1868.97 1503.48 L1868.97 1498.97 L1883.34 1477.07 Z" fill="#000000" fill-rule="evenodd" fill-opacity="1" /><path clip-path="url(#clip960)" d="M 0 0 M1911.88 1480.15 Q1908.27 1480.15 1906.44 1483.72 Q1904.64 1487.26 1904.64 1494.39 Q1904.64 1501.49 1906.44 1505.06 Q1908.27 1508.6 1911.88 1508.6 Q1915.52 1508.6 1917.32 1505.06 Q1919.15 1501.49 1919.15 1494.39 Q1919.15 1487.26 1917.32 1483.72 Q1915.52 1480.15 1911.88 1480.15 M1911.88 1476.45 Q1917.69 1476.45 1920.75 1481.05 Q1923.83 1485.64 1923.83 1494.39 Q1923.83 1503.11 1920.75 1507.72 Q1917.69 1512.3 1911.88 1512.3 Q1906.07 1512.3 1903 1507.72 Q1899.94 1503.11 1899.94 1494.39 Q1899.94 1485.64 1903 1481.05 Q1906.07 1476.45 1911.88 1476.45 Z" fill="#000000" fill-rule="evenodd" fill-opacity="1" /><path clip-path="url(#clip960)" d="M 0 0 M2267.93 1477.07 L2286.29 1477.07 L2286.29 1481.01 L2272.21 1481.01 L2272.21 1489.48 Q2273.23 1489.13 2274.25 1488.97 Q2275.27 1488.79 2276.29 1488.79 Q2282.07 1488.79 2285.45 1491.96 Q2288.83 1495.13 2288.83 1500.54 Q2288.83 1506.12 2285.36 1509.22 Q2281.89 1512.3 2275.57 1512.3 Q2273.39 1512.3 2271.12 1511.93 Q2268.88 1511.56 2266.47 1510.82 L2266.47 1506.12 Q2268.56 1507.26 2270.78 1507.81 Q2273 1508.37 2275.48 1508.37 Q2279.48 1508.37 2281.82 1506.26 Q2284.16 1504.16 2284.16 1500.54 Q2284.16 1496.93 2281.82 1494.83 Q2279.48 1492.72 2275.48 1492.72 Q2273.6 1492.72 2271.73 1493.14 Q2269.87 1493.55 2267.93 1494.43 L2267.93 1477.07 Z" fill="#000000" fill-rule="evenodd" fill-opacity="1" /><path clip-path="url(#clip960)" d="M 0 0 M2308.05 1480.15 Q2304.43 1480.15 2302.61 1483.72 Q2300.8 1487.26 2300.8 1494.39 Q2300.8 1501.49 2302.61 1505.06 Q2304.43 1508.6 2308.05 1508.6 Q2311.68 1508.6 2313.49 1505.06 Q2315.31 1501.49 2315.31 1494.39 Q2315.31 1487.26 2313.49 1483.72 Q2311.68 1480.15 2308.05 1480.15 M2308.05 1476.45 Q2313.86 1476.45 2316.91 1481.05 Q2319.99 1485.64 2319.99 1494.39 Q2319.99 1503.11 2316.91 1507.72 Q2313.86 1512.3 2308.05 1512.3 Q2302.24 1512.3 2299.16 1507.72 Q2296.1 1503.11 2296.1 1494.39 Q2296.1 1485.64 2299.16 1481.05 Q2302.24 1476.45 2308.05 1476.45 Z" fill="#000000" fill-rule="evenodd" fill-opacity="1" /><path clip-path="url(#clip960)" d="M 0 0 M1317.31 1555.28 Q1317.31 1555.54 1317.02 1556.53 Q1316.73 1557.53 1316.02 1559.08 Q1315.35 1560.62 1314.41 1562.04 Q1313.48 1563.43 1311.93 1564.46 Q1310.42 1565.46 1308.68 1565.46 Q1306.36 1565.46 1304.82 1563.91 Q1303.27 1562.36 1303.27 1560.04 Q1303.27 1558.76 1303.95 1556.98 Q1308.23 1545.55 1308.23 1541.62 Q1308.23 1537.02 1304.65 1537.02 Q1302.88 1537.02 1301.21 1537.69 Q1299.57 1538.34 1298.44 1539.24 Q1297.31 1540.14 1296.28 1541.4 Q1295.28 1542.62 1294.77 1543.46 Q1294.28 1544.26 1293.9 1545.07 L1293.06 1548.35 Q1292.87 1549.26 1291.93 1552.77 L1290.48 1558.72 Q1289.45 1563.17 1289.23 1563.59 Q1288.91 1564.49 1288.2 1564.97 Q1287.49 1565.46 1286.78 1565.46 Q1285.98 1565.46 1285.43 1564.97 Q1284.88 1564.49 1284.88 1563.65 Q1284.88 1563.52 1284.98 1563.04 Q1285.07 1562.56 1285.23 1561.88 Q1285.4 1561.2 1285.46 1560.82 L1289.29 1545.58 Q1290 1542.81 1290.16 1541.94 Q1290.36 1541.04 1290.36 1540.04 Q1290.36 1537.02 1288.29 1537.02 Q1286.62 1537.02 1285.52 1539.01 Q1284.43 1541.01 1283.5 1544.88 Q1283.21 1545.94 1283.01 1546.16 Q1282.85 1546.39 1282.37 1546.39 Q1281.56 1546.36 1281.56 1545.71 Q1281.56 1545.55 1281.82 1544.49 Q1282.08 1543.43 1282.56 1541.91 Q1283.08 1540.37 1283.56 1539.34 Q1283.98 1538.56 1284.2 1538.21 Q1284.46 1537.82 1285.07 1537.08 Q1285.72 1536.31 1286.56 1535.95 Q1287.42 1535.57 1288.49 1535.57 Q1290.87 1535.57 1292.61 1537.11 Q1294.35 1538.63 1294.57 1541.3 Q1298.86 1535.57 1304.85 1535.57 Q1308.39 1535.57 1310.42 1537.44 Q1312.45 1539.3 1312.45 1542.62 Q1312.45 1543.39 1312.29 1544.39 Q1312.16 1545.36 1311.84 1546.58 Q1311.55 1547.81 1311.29 1548.74 Q1311.03 1549.67 1310.52 1551.19 Q1310 1552.67 1309.78 1553.31 Q1309.55 1553.96 1309 1555.47 Q1308.49 1556.95 1308.42 1557.11 Q1307.23 1560.11 1307.23 1561.82 Q1307.23 1562.94 1307.59 1563.46 Q1307.97 1563.97 1308.81 1563.97 Q1311.06 1563.97 1312.74 1561.75 Q1314.45 1559.5 1315.54 1555.83 Q1315.8 1555.02 1315.93 1554.83 Q1316.09 1554.63 1316.54 1554.63 Q1317.31 1554.63 1317.31 1555.28 Z" fill="#000000" fill-rule="evenodd" fill-opacity="1" /><polyline clip-path="url(#clip962)" style="stroke:#000000; stroke-width:2; stroke-opacity:0.1; fill:none" points="
  249.542,1411.23 2352.76,1411.23 
  "/>
<polyline clip-path="url(#clip962)" style="stroke:#000000; stroke-width:2; stroke-opacity:0.1; fill:none" points="
  249.542,1142.18 2352.76,1142.18 
  "/>
<polyline clip-path="url(#clip962)" style="stroke:#000000; stroke-width:2; stroke-opacity:0.1; fill:none" points="
  249.542,873.12 2352.76,873.12 
  "/>
<polyline clip-path="url(#clip962)" style="stroke:#000000; stroke-width:2; stroke-opacity:0.1; fill:none" points="
  249.542,604.064 2352.76,604.064 
  "/>
<polyline clip-path="url(#clip962)" style="stroke:#000000; stroke-width:2; stroke-opacity:0.1; fill:none" points="
  249.542,335.008 2352.76,335.008 
  "/>
<polyline clip-path="url(#clip962)" style="stroke:#000000; stroke-width:2; stroke-opacity:0.1; fill:none" points="
  249.542,65.9519 2352.76,65.9519 
  "/>
<polyline clip-path="url(#clip960)" style="stroke:#000000; stroke-width:4; stroke-opacity:1; fill:none" points="
  249.542,1450.96 249.542,47.2441 
  "/>
<polyline clip-path="url(#clip960)" style="stroke:#000000; stroke-width:4; stroke-opacity:1; fill:none" points="
  249.542,1411.23 274.781,1411.23 
  "/>
<polyline clip-path="url(#clip960)" style="stroke:#000000; stroke-width:4; stroke-opacity:1; fill:none" points="
  249.542,1142.18 274.781,1142.18 
  "/>
<polyline clip-path="url(#clip960)" style="stroke:#000000; stroke-width:4; stroke-opacity:1; fill:none" points="
  249.542,873.12 274.781,873.12 
  "/>
<polyline clip-path="url(#clip960)" style="stroke:#000000; stroke-width:4; stroke-opacity:1; fill:none" points="
  249.542,604.064 274.781,604.064 
  "/>
<polyline clip-path="url(#clip960)" style="stroke:#000000; stroke-width:4; stroke-opacity:1; fill:none" points="
  249.542,335.008 274.781,335.008 
  "/>
<polyline clip-path="url(#clip960)" style="stroke:#000000; stroke-width:4; stroke-opacity:1; fill:none" points="
  249.542,65.9519 274.781,65.9519 
  "/>
<path clip-path="url(#clip960)" d="M 0 0 M126.205 1397.03 Q122.593 1397.03 120.765 1400.6 Q118.959 1404.14 118.959 1411.27 Q118.959 1418.37 120.765 1421.94 Q122.593 1425.48 126.205 1425.48 Q129.839 1425.48 131.644 1421.94 Q133.473 1418.37 133.473 1411.27 Q133.473 1404.14 131.644 1400.6 Q129.839 1397.03 126.205 1397.03 M126.205 1393.33 Q132.015 1393.33 135.07 1397.93 Q138.149 1402.52 138.149 1411.27 Q138.149 1419.99 135.07 1424.6 Q132.015 1429.18 126.205 1429.18 Q120.394 1429.18 117.316 1424.6 Q114.26 1419.99 114.26 1411.27 Q114.26 1402.52 117.316 1397.93 Q120.394 1393.33 126.205 1393.33 Z" fill="#000000" fill-rule="evenodd" fill-opacity="1" /><path clip-path="url(#clip960)" d="M 0 0 M146.366 1422.63 L151.251 1422.63 L151.251 1428.51 L146.366 1428.51 L146.366 1422.63 Z" fill="#000000" fill-rule="evenodd" fill-opacity="1" /><path clip-path="url(#clip960)" d="M 0 0 M171.436 1397.03 Q167.825 1397.03 165.996 1400.6 Q164.19 1404.14 164.19 1411.27 Q164.19 1418.37 165.996 1421.94 Q167.825 1425.48 171.436 1425.48 Q175.07 1425.48 176.876 1421.94 Q178.704 1418.37 178.704 1411.27 Q178.704 1404.14 176.876 1400.6 Q175.07 1397.03 171.436 1397.03 M171.436 1393.33 Q177.246 1393.33 180.301 1397.93 Q183.38 1402.52 183.38 1411.27 Q183.38 1419.99 180.301 1424.6 Q177.246 1429.18 171.436 1429.18 Q165.626 1429.18 162.547 1424.6 Q159.491 1419.99 159.491 1411.27 Q159.491 1402.52 162.547 1397.93 Q165.626 1393.33 171.436 1393.33 Z" fill="#000000" fill-rule="evenodd" fill-opacity="1" /><path clip-path="url(#clip960)" d="M 0 0 M201.598 1397.03 Q197.987 1397.03 196.158 1400.6 Q194.352 1404.14 194.352 1411.27 Q194.352 1418.37 196.158 1421.94 Q197.987 1425.48 201.598 1425.48 Q205.232 1425.48 207.037 1421.94 Q208.866 1418.37 208.866 1411.27 Q208.866 1404.14 207.037 1400.6 Q205.232 1397.03 201.598 1397.03 M201.598 1393.33 Q207.408 1393.33 210.463 1397.93 Q213.542 1402.52 213.542 1411.27 Q213.542 1419.99 210.463 1424.6 Q207.408 1429.18 201.598 1429.18 Q195.787 1429.18 192.709 1424.6 Q189.653 1419.99 189.653 1411.27 Q189.653 1402.52 192.709 1397.93 Q195.787 1393.33 201.598 1393.33 Z" fill="#000000" fill-rule="evenodd" fill-opacity="1" /><path clip-path="url(#clip960)" d="M 0 0 M127.2 1127.98 Q123.589 1127.98 121.76 1131.54 Q119.955 1135.08 119.955 1142.21 Q119.955 1149.32 121.76 1152.88 Q123.589 1156.42 127.2 1156.42 Q130.834 1156.42 132.64 1152.88 Q134.468 1149.32 134.468 1142.21 Q134.468 1135.08 132.64 1131.54 Q130.834 1127.98 127.2 1127.98 M127.2 1124.27 Q133.01 1124.27 136.066 1128.88 Q139.144 1133.46 139.144 1142.21 Q139.144 1150.94 136.066 1155.54 Q133.01 1160.13 127.2 1160.13 Q121.39 1160.13 118.311 1155.54 Q115.256 1150.94 115.256 1142.21 Q115.256 1133.46 118.311 1128.88 Q121.39 1124.27 127.2 1124.27 Z" fill="#000000" fill-rule="evenodd" fill-opacity="1" /><path clip-path="url(#clip960)" d="M 0 0 M147.362 1153.58 L152.246 1153.58 L152.246 1159.46 L147.362 1159.46 L147.362 1153.58 Z" fill="#000000" fill-rule="evenodd" fill-opacity="1" /><path clip-path="url(#clip960)" d="M 0 0 M172.431 1127.98 Q168.82 1127.98 166.991 1131.54 Q165.186 1135.08 165.186 1142.21 Q165.186 1149.32 166.991 1152.88 Q168.82 1156.42 172.431 1156.42 Q176.065 1156.42 177.871 1152.88 Q179.7 1149.32 179.7 1142.21 Q179.7 1135.08 177.871 1131.54 Q176.065 1127.98 172.431 1127.98 M172.431 1124.27 Q178.241 1124.27 181.297 1128.88 Q184.376 1133.46 184.376 1142.21 Q184.376 1150.94 181.297 1155.54 Q178.241 1160.13 172.431 1160.13 Q166.621 1160.13 163.542 1155.54 Q160.487 1150.94 160.487 1142.21 Q160.487 1133.46 163.542 1128.88 Q166.621 1124.27 172.431 1124.27 Z" fill="#000000" fill-rule="evenodd" fill-opacity="1" /><path clip-path="url(#clip960)" d="M 0 0 M192.639 1124.9 L210.996 1124.9 L210.996 1128.83 L196.922 1128.83 L196.922 1137.3 Q197.94 1136.96 198.959 1136.79 Q199.977 1136.61 200.996 1136.61 Q206.783 1136.61 210.162 1139.78 Q213.542 1142.95 213.542 1148.37 Q213.542 1153.95 210.07 1157.05 Q206.598 1160.13 200.278 1160.13 Q198.102 1160.13 195.834 1159.76 Q193.588 1159.39 191.181 1158.65 L191.181 1153.95 Q193.264 1155.08 195.487 1155.64 Q197.709 1156.19 200.186 1156.19 Q204.19 1156.19 206.528 1154.09 Q208.866 1151.98 208.866 1148.37 Q208.866 1144.76 206.528 1142.65 Q204.19 1140.54 200.186 1140.54 Q198.311 1140.54 196.436 1140.96 Q194.584 1141.38 192.639 1142.26 L192.639 1124.9 Z" fill="#000000" fill-rule="evenodd" fill-opacity="1" /><path clip-path="url(#clip960)" d="M 0 0 M126.205 858.919 Q122.593 858.919 120.765 862.484 Q118.959 866.025 118.959 873.155 Q118.959 880.261 120.765 883.826 Q122.593 887.368 126.205 887.368 Q129.839 887.368 131.644 883.826 Q133.473 880.261 133.473 873.155 Q133.473 866.025 131.644 862.484 Q129.839 858.919 126.205 858.919 M126.205 855.215 Q132.015 855.215 135.07 859.822 Q138.149 864.405 138.149 873.155 Q138.149 881.882 135.07 886.488 Q132.015 891.072 126.205 891.072 Q120.394 891.072 117.316 886.488 Q114.26 881.882 114.26 873.155 Q114.26 864.405 117.316 859.822 Q120.394 855.215 126.205 855.215 Z" fill="#000000" fill-rule="evenodd" fill-opacity="1" /><path clip-path="url(#clip960)" d="M 0 0 M146.366 884.521 L151.251 884.521 L151.251 890.4 L146.366 890.4 L146.366 884.521 Z" fill="#000000" fill-rule="evenodd" fill-opacity="1" /><path clip-path="url(#clip960)" d="M 0 0 M162.246 886.465 L169.885 886.465 L169.885 860.099 L161.575 861.766 L161.575 857.507 L169.839 855.84 L174.514 855.84 L174.514 886.465 L182.153 886.465 L182.153 890.4 L162.246 890.4 L162.246 886.465 Z" fill="#000000" fill-rule="evenodd" fill-opacity="1" /><path clip-path="url(#clip960)" d="M 0 0 M201.598 858.919 Q197.987 858.919 196.158 862.484 Q194.352 866.025 194.352 873.155 Q194.352 880.261 196.158 883.826 Q197.987 887.368 201.598 887.368 Q205.232 887.368 207.037 883.826 Q208.866 880.261 208.866 873.155 Q208.866 866.025 207.037 862.484 Q205.232 858.919 201.598 858.919 M201.598 855.215 Q207.408 855.215 210.463 859.822 Q213.542 864.405 213.542 873.155 Q213.542 881.882 210.463 886.488 Q207.408 891.072 201.598 891.072 Q195.787 891.072 192.709 886.488 Q189.653 881.882 189.653 873.155 Q189.653 864.405 192.709 859.822 Q195.787 855.215 201.598 855.215 Z" fill="#000000" fill-rule="evenodd" fill-opacity="1" /><path clip-path="url(#clip960)" d="M 0 0 M127.2 589.863 Q123.589 589.863 121.76 593.428 Q119.955 596.969 119.955 604.099 Q119.955 611.205 121.76 614.77 Q123.589 618.312 127.2 618.312 Q130.834 618.312 132.64 614.77 Q134.468 611.205 134.468 604.099 Q134.468 596.969 132.64 593.428 Q130.834 589.863 127.2 589.863 M127.2 586.159 Q133.01 586.159 136.066 590.766 Q139.144 595.349 139.144 604.099 Q139.144 612.826 136.066 617.432 Q133.01 622.015 127.2 622.015 Q121.39 622.015 118.311 617.432 Q115.256 612.826 115.256 604.099 Q115.256 595.349 118.311 590.766 Q121.39 586.159 127.2 586.159 Z" fill="#000000" fill-rule="evenodd" fill-opacity="1" /><path clip-path="url(#clip960)" d="M 0 0 M147.362 615.465 L152.246 615.465 L152.246 621.344 L147.362 621.344 L147.362 615.465 Z" fill="#000000" fill-rule="evenodd" fill-opacity="1" /><path clip-path="url(#clip960)" d="M 0 0 M163.241 617.409 L170.88 617.409 L170.88 591.043 L162.57 592.71 L162.57 588.451 L170.834 586.784 L175.51 586.784 L175.51 617.409 L183.149 617.409 L183.149 621.344 L163.241 621.344 L163.241 617.409 Z" fill="#000000" fill-rule="evenodd" fill-opacity="1" /><path clip-path="url(#clip960)" d="M 0 0 M192.639 586.784 L210.996 586.784 L210.996 590.719 L196.922 590.719 L196.922 599.191 Q197.94 598.844 198.959 598.682 Q199.977 598.497 200.996 598.497 Q206.783 598.497 210.162 601.668 Q213.542 604.84 213.542 610.256 Q213.542 615.835 210.07 618.937 Q206.598 622.015 200.278 622.015 Q198.102 622.015 195.834 621.645 Q193.588 621.275 191.181 620.534 L191.181 615.835 Q193.264 616.969 195.487 617.525 Q197.709 618.08 200.186 618.08 Q204.19 618.08 206.528 615.974 Q208.866 613.867 208.866 610.256 Q208.866 606.645 206.528 604.539 Q204.19 602.432 200.186 602.432 Q198.311 602.432 196.436 602.849 Q194.584 603.266 192.639 604.145 L192.639 586.784 Z" fill="#000000" fill-rule="evenodd" fill-opacity="1" /><path clip-path="url(#clip960)" d="M 0 0 M126.205 320.807 Q122.593 320.807 120.765 324.371 Q118.959 327.913 118.959 335.043 Q118.959 342.149 120.765 345.714 Q122.593 349.256 126.205 349.256 Q129.839 349.256 131.644 345.714 Q133.473 342.149 133.473 335.043 Q133.473 327.913 131.644 324.371 Q129.839 320.807 126.205 320.807 M126.205 317.103 Q132.015 317.103 135.07 321.709 Q138.149 326.293 138.149 335.043 Q138.149 343.77 135.07 348.376 Q132.015 352.959 126.205 352.959 Q120.394 352.959 117.316 348.376 Q114.26 343.77 114.26 335.043 Q114.26 326.293 117.316 321.709 Q120.394 317.103 126.205 317.103 Z" fill="#000000" fill-rule="evenodd" fill-opacity="1" /><path clip-path="url(#clip960)" d="M 0 0 M146.366 346.408 L151.251 346.408 L151.251 352.288 L146.366 352.288 L146.366 346.408 Z" fill="#000000" fill-rule="evenodd" fill-opacity="1" /><path clip-path="url(#clip960)" d="M 0 0 M165.464 348.353 L181.783 348.353 L181.783 352.288 L159.839 352.288 L159.839 348.353 Q162.501 345.598 167.084 340.969 Q171.69 336.316 172.871 334.973 Q175.116 332.45 175.996 330.714 Q176.899 328.955 176.899 327.265 Q176.899 324.51 174.954 322.774 Q173.033 321.038 169.931 321.038 Q167.732 321.038 165.278 321.802 Q162.848 322.566 160.07 324.117 L160.07 319.395 Q162.894 318.26 165.348 317.682 Q167.802 317.103 169.839 317.103 Q175.209 317.103 178.403 319.788 Q181.598 322.473 181.598 326.964 Q181.598 329.094 180.788 331.015 Q180.001 332.913 177.894 335.506 Q177.315 336.177 174.214 339.395 Q171.112 342.589 165.464 348.353 Z" fill="#000000" fill-rule="evenodd" fill-opacity="1" /><path clip-path="url(#clip960)" d="M 0 0 M201.598 320.807 Q197.987 320.807 196.158 324.371 Q194.352 327.913 194.352 335.043 Q194.352 342.149 196.158 345.714 Q197.987 349.256 201.598 349.256 Q205.232 349.256 207.037 345.714 Q208.866 342.149 208.866 335.043 Q208.866 327.913 207.037 324.371 Q205.232 320.807 201.598 320.807 M201.598 317.103 Q207.408 317.103 210.463 321.709 Q213.542 326.293 213.542 335.043 Q213.542 343.77 210.463 348.376 Q207.408 352.959 201.598 352.959 Q195.787 352.959 192.709 348.376 Q189.653 343.77 189.653 335.043 Q189.653 326.293 192.709 321.709 Q195.787 317.103 201.598 317.103 Z" fill="#000000" fill-rule="evenodd" fill-opacity="1" /><path clip-path="url(#clip960)" d="M 0 0 M127.2 51.7506 Q123.589 51.7506 121.76 55.3154 Q119.955 58.857 119.955 65.9866 Q119.955 73.0931 121.76 76.6579 Q123.589 80.1995 127.2 80.1995 Q130.834 80.1995 132.64 76.6579 Q134.468 73.0931 134.468 65.9866 Q134.468 58.857 132.64 55.3154 Q130.834 51.7506 127.2 51.7506 M127.2 48.0469 Q133.01 48.0469 136.066 52.6534 Q139.144 57.2367 139.144 65.9866 Q139.144 74.7134 136.066 79.3199 Q133.01 83.9032 127.2 83.9032 Q121.39 83.9032 118.311 79.3199 Q115.256 74.7134 115.256 65.9866 Q115.256 57.2367 118.311 52.6534 Q121.39 48.0469 127.2 48.0469 Z" fill="#000000" fill-rule="evenodd" fill-opacity="1" /><path clip-path="url(#clip960)" d="M 0 0 M147.362 77.3523 L152.246 77.3523 L152.246 83.2319 L147.362 83.2319 L147.362 77.3523 Z" fill="#000000" fill-rule="evenodd" fill-opacity="1" /><path clip-path="url(#clip960)" d="M 0 0 M166.459 79.2967 L182.778 79.2967 L182.778 83.2319 L160.834 83.2319 L160.834 79.2967 Q163.496 76.5421 168.079 71.9125 Q172.686 67.2598 173.866 65.9172 Q176.112 63.394 176.991 61.6579 Q177.894 59.8987 177.894 58.2089 Q177.894 55.4543 175.95 53.7182 Q174.028 51.9821 170.927 51.9821 Q168.727 51.9821 166.274 52.746 Q163.843 53.5098 161.065 55.0608 L161.065 50.3386 Q163.89 49.2043 166.343 48.6256 Q168.797 48.0469 170.834 48.0469 Q176.204 48.0469 179.399 50.7321 Q182.593 53.4172 182.593 57.908 Q182.593 60.0376 181.783 61.9589 Q180.996 63.857 178.889 66.4496 Q178.311 67.1209 175.209 70.3385 Q172.107 73.5329 166.459 79.2967 Z" fill="#000000" fill-rule="evenodd" fill-opacity="1" /><path clip-path="url(#clip960)" d="M 0 0 M192.639 48.6719 L210.996 48.6719 L210.996 52.6071 L196.922 52.6071 L196.922 61.0792 Q197.94 60.732 198.959 60.57 Q199.977 60.3848 200.996 60.3848 Q206.783 60.3848 210.162 63.5561 Q213.542 66.7274 213.542 72.144 Q213.542 77.7227 210.07 80.8245 Q206.598 83.9032 200.278 83.9032 Q198.102 83.9032 195.834 83.5328 Q193.588 83.1625 191.181 82.4217 L191.181 77.7227 Q193.264 78.8569 195.487 79.4125 Q197.709 79.968 200.186 79.968 Q204.19 79.968 206.528 77.8616 Q208.866 75.7551 208.866 72.144 Q208.866 68.5329 206.528 66.4264 Q204.19 64.32 200.186 64.32 Q198.311 64.32 196.436 64.7366 Q194.584 65.1533 192.639 66.0329 L192.639 48.6719 Z" fill="#000000" fill-rule="evenodd" fill-opacity="1" /><path clip-path="url(#clip960)" d="M 0 0 M16.4842 907.258 L16.4842 900.829 L58.5933 900.829 L58.5933 877.689 L64.0042 877.689 L64.0042 907.258 L16.4842 907.258 Z" fill="#000000" fill-rule="evenodd" fill-opacity="1" /><path clip-path="url(#clip960)" d="M 0 0 M28.3562 871.196 L28.3562 865.34 L64.0042 865.34 L64.0042 871.196 L28.3562 871.196 M14.479 871.196 L14.479 865.34 L21.895 865.34 L21.895 871.196 L14.479 871.196 Z" fill="#000000" fill-rule="evenodd" fill-opacity="1" /><path clip-path="url(#clip960)" d="M 0 0 M14.479 853.309 L14.479 847.421 L43.7294 847.421 L28.3562 829.947 L28.3562 822.467 L45.0344 841.373 L64.0042 821.671 L64.0042 829.31 L46.5939 847.421 L64.0042 847.421 L64.0042 853.309 L14.479 853.309 Z" fill="#000000" fill-rule="evenodd" fill-opacity="1" /><path clip-path="url(#clip960)" d="M 0 0 M44.7161 787.169 L47.5806 787.169 L47.5806 814.096 Q53.6281 813.714 56.8109 810.468 Q59.9619 807.189 59.9619 801.365 Q59.9619 797.991 59.1344 794.84 Q58.3069 791.657 56.6518 788.538 L62.1899 788.538 Q63.5267 791.689 64.227 794.999 Q64.9272 798.309 64.9272 801.715 Q64.9272 810.245 59.9619 815.242 Q54.9967 820.207 46.5303 820.207 Q37.7774 820.207 32.6531 815.496 Q27.4968 810.754 27.4968 802.733 Q27.4968 795.54 32.1438 791.37 Q36.7589 787.169 44.7161 787.169 M42.9973 793.026 Q38.1912 793.089 35.3266 795.731 Q32.4621 798.341 32.4621 802.67 Q32.4621 807.571 35.2312 810.531 Q38.0002 813.459 43.0292 813.905 L42.9973 793.026 Z" fill="#000000" fill-rule="evenodd" fill-opacity="1" /><path clip-path="url(#clip960)" d="M 0 0 M14.479 777.557 L14.479 771.7 L64.0042 771.7 L64.0042 777.557 L14.479 777.557 Z" fill="#000000" fill-rule="evenodd" fill-opacity="1" /><path clip-path="url(#clip960)" d="M 0 0 M28.3562 759.446 L28.3562 753.59 L64.0042 753.59 L64.0042 759.446 L28.3562 759.446 M14.479 759.446 L14.479 753.59 L21.895 753.59 L21.895 759.446 L14.479 759.446 Z" fill="#000000" fill-rule="evenodd" fill-opacity="1" /><path clip-path="url(#clip960)" d="M 0 0 M42.4881 711.704 L64.0042 711.704 L64.0042 717.56 L42.679 717.56 Q37.6183 717.56 35.1038 719.533 Q32.5894 721.507 32.5894 725.454 Q32.5894 730.196 35.6131 732.933 Q38.6368 735.671 43.8567 735.671 L64.0042 735.671 L64.0042 741.559 L14.479 741.559 L14.479 735.671 L33.8944 735.671 Q30.6797 733.57 29.0883 730.737 Q27.4968 727.873 27.4968 724.149 Q27.4968 718.006 31.3163 714.855 Q35.1038 711.704 42.4881 711.704 Z" fill="#000000" fill-rule="evenodd" fill-opacity="1" /><path clip-path="url(#clip960)" d="M 0 0 M32.4621 686.209 Q32.4621 690.92 36.1542 693.657 Q39.8145 696.394 46.212 696.394 Q52.6095 696.394 56.3017 693.689 Q59.9619 690.951 59.9619 686.209 Q59.9619 681.53 56.2698 678.793 Q52.5777 676.056 46.212 676.056 Q39.8781 676.056 36.186 678.793 Q32.4621 681.53 32.4621 686.209 M27.4968 686.209 Q27.4968 678.57 32.4621 674.21 Q37.4273 669.849 46.212 669.849 Q54.9649 669.849 59.9619 674.21 Q64.9272 678.57 64.9272 686.209 Q64.9272 693.88 59.9619 698.24 Q54.9649 702.569 46.212 702.569 Q37.4273 702.569 32.4621 698.24 Q27.4968 693.88 27.4968 686.209 Z" fill="#000000" fill-rule="evenodd" fill-opacity="1" /><path clip-path="url(#clip960)" d="M 0 0 M32.4621 646.328 Q32.4621 651.038 36.1542 653.776 Q39.8145 656.513 46.212 656.513 Q52.6095 656.513 56.3017 653.808 Q59.9619 651.07 59.9619 646.328 Q59.9619 641.649 56.2698 638.912 Q52.5777 636.175 46.212 636.175 Q39.8781 636.175 36.186 638.912 Q32.4621 641.649 32.4621 646.328 M27.4968 646.328 Q27.4968 638.689 32.4621 634.328 Q37.4273 629.968 46.212 629.968 Q54.9649 629.968 59.9619 634.328 Q64.9272 638.689 64.9272 646.328 Q64.9272 653.999 59.9619 658.359 Q54.9649 662.688 46.212 662.688 Q37.4273 662.688 32.4621 658.359 Q27.4968 653.999 27.4968 646.328 Z" fill="#000000" fill-rule="evenodd" fill-opacity="1" /><path clip-path="url(#clip960)" d="M 0 0 M33.7671 596.803 L14.479 596.803 L14.479 590.946 L64.0042 590.946 L64.0042 596.803 L58.657 596.803 Q61.8398 598.649 63.3994 601.481 Q64.9272 604.282 64.9272 608.229 Q64.9272 614.69 59.771 618.764 Q54.6147 622.807 46.212 622.807 Q37.8093 622.807 32.6531 618.764 Q27.4968 614.69 27.4968 608.229 Q27.4968 604.282 29.0564 601.481 Q30.5842 598.649 33.7671 596.803 M46.212 616.759 Q52.6732 616.759 56.3653 614.117 Q60.0256 611.444 60.0256 606.797 Q60.0256 602.15 56.3653 599.476 Q52.6732 596.803 46.212 596.803 Q39.7508 596.803 36.0905 599.476 Q32.3984 602.15 32.3984 606.797 Q32.3984 611.444 36.0905 614.117 Q39.7508 616.759 46.212 616.759 Z" fill="#000000" fill-rule="evenodd" fill-opacity="1" /><polyline clip-path="url(#clip962)" style="stroke:#009af9; stroke-width:8; stroke-opacity:1; fill:none" points="
  309.067,1411.23 348.75,1411.23 388.434,1411.23 428.117,1411.23 467.8,1411.23 507.483,1243.07 547.167,906.752 586.85,528.392 626.533,234.112 666.216,86.9719 
  705.9,86.9719 745.583,197.327 785.266,370.742 824.95,565.834 864.633,753.7 904.316,918.083 943.999,1052.58 983.683,1157.19 1023.37,1235.35 1063.05,1291.89 
  1102.73,1331.67 1142.42,1359.02 1182.1,1377.45 1221.78,1389.65 1261.47,1397.6 1301.15,1402.71 1340.83,1405.96 1380.52,1408 1420.2,1409.26 1459.88,1410.04 
  1499.57,1410.52 1539.25,1410.81 1578.93,1410.98 1618.62,1411.08 1658.3,1411.15 1697.98,1411.18 1737.67,1411.2 1777.35,1411.22 1817.03,1411.22 1856.71,1411.23 
  1896.4,1411.23 1936.08,1411.23 1975.76,1411.23 2015.45,1411.23 2055.13,1411.23 2094.81,1411.23 2134.5,1411.23 2174.18,1411.23 2213.86,1411.23 2253.55,1411.23 
  2293.23,1411.23 
  "/>
<circle clip-path="url(#clip962)" cx="309.067" cy="1411.23" r="14" fill="#009af9" fill-rule="evenodd" fill-opacity="1" stroke="#000000" stroke-opacity="1" stroke-width="3.2"/>
<circle clip-path="url(#clip962)" cx="348.75" cy="1411.23" r="14" fill="#009af9" fill-rule="evenodd" fill-opacity="1" stroke="#000000" stroke-opacity="1" stroke-width="3.2"/>
<circle clip-path="url(#clip962)" cx="388.434" cy="1411.23" r="14" fill="#009af9" fill-rule="evenodd" fill-opacity="1" stroke="#000000" stroke-opacity="1" stroke-width="3.2"/>
<circle clip-path="url(#clip962)" cx="428.117" cy="1411.23" r="14" fill="#009af9" fill-rule="evenodd" fill-opacity="1" stroke="#000000" stroke-opacity="1" stroke-width="3.2"/>
<circle clip-path="url(#clip962)" cx="467.8" cy="1411.23" r="14" fill="#009af9" fill-rule="evenodd" fill-opacity="1" stroke="#000000" stroke-opacity="1" stroke-width="3.2"/>
<circle clip-path="url(#clip962)" cx="507.483" cy="1243.07" r="14" fill="#009af9" fill-rule="evenodd" fill-opacity="1" stroke="#000000" stroke-opacity="1" stroke-width="3.2"/>
<circle clip-path="url(#clip962)" cx="547.167" cy="906.752" r="14" fill="#009af9" fill-rule="evenodd" fill-opacity="1" stroke="#000000" stroke-opacity="1" stroke-width="3.2"/>
<circle clip-path="url(#clip962)" cx="586.85" cy="528.392" r="14" fill="#009af9" fill-rule="evenodd" fill-opacity="1" stroke="#000000" stroke-opacity="1" stroke-width="3.2"/>
<circle clip-path="url(#clip962)" cx="626.533" cy="234.112" r="14" fill="#009af9" fill-rule="evenodd" fill-opacity="1" stroke="#000000" stroke-opacity="1" stroke-width="3.2"/>
<circle clip-path="url(#clip962)" cx="666.216" cy="86.9719" r="14" fill="#009af9" fill-rule="evenodd" fill-opacity="1" stroke="#000000" stroke-opacity="1" stroke-width="3.2"/>
<circle clip-path="url(#clip962)" cx="705.9" cy="86.9719" r="14" fill="#009af9" fill-rule="evenodd" fill-opacity="1" stroke="#000000" stroke-opacity="1" stroke-width="3.2"/>
<circle clip-path="url(#clip962)" cx="745.583" cy="197.327" r="14" fill="#009af9" fill-rule="evenodd" fill-opacity="1" stroke="#000000" stroke-opacity="1" stroke-width="3.2"/>
<circle clip-path="url(#clip962)" cx="785.266" cy="370.742" r="14" fill="#009af9" fill-rule="evenodd" fill-opacity="1" stroke="#000000" stroke-opacity="1" stroke-width="3.2"/>
<circle clip-path="url(#clip962)" cx="824.95" cy="565.834" r="14" fill="#009af9" fill-rule="evenodd" fill-opacity="1" stroke="#000000" stroke-opacity="1" stroke-width="3.2"/>
<circle clip-path="url(#clip962)" cx="864.633" cy="753.7" r="14" fill="#009af9" fill-rule="evenodd" fill-opacity="1" stroke="#000000" stroke-opacity="1" stroke-width="3.2"/>
<circle clip-path="url(#clip962)" cx="904.316" cy="918.083" r="14" fill="#009af9" fill-rule="evenodd" fill-opacity="1" stroke="#000000" stroke-opacity="1" stroke-width="3.2"/>
<circle clip-path="url(#clip962)" cx="943.999" cy="1052.58" r="14" fill="#009af9" fill-rule="evenodd" fill-opacity="1" stroke="#000000" stroke-opacity="1" stroke-width="3.2"/>
<circle clip-path="url(#clip962)" cx="983.683" cy="1157.19" r="14" fill="#009af9" fill-rule="evenodd" fill-opacity="1" stroke="#000000" stroke-opacity="1" stroke-width="3.2"/>
<circle clip-path="url(#clip962)" cx="1023.37" cy="1235.35" r="14" fill="#009af9" fill-rule="evenodd" fill-opacity="1" stroke="#000000" stroke-opacity="1" stroke-width="3.2"/>
<circle clip-path="url(#clip962)" cx="1063.05" cy="1291.89" r="14" fill="#009af9" fill-rule="evenodd" fill-opacity="1" stroke="#000000" stroke-opacity="1" stroke-width="3.2"/>
<circle clip-path="url(#clip962)" cx="1102.73" cy="1331.67" r="14" fill="#009af9" fill-rule="evenodd" fill-opacity="1" stroke="#000000" stroke-opacity="1" stroke-width="3.2"/>
<circle clip-path="url(#clip962)" cx="1142.42" cy="1359.02" r="14" fill="#009af9" fill-rule="evenodd" fill-opacity="1" stroke="#000000" stroke-opacity="1" stroke-width="3.2"/>
<circle clip-path="url(#clip962)" cx="1182.1" cy="1377.45" r="14" fill="#009af9" fill-rule="evenodd" fill-opacity="1" stroke="#000000" stroke-opacity="1" stroke-width="3.2"/>
<circle clip-path="url(#clip962)" cx="1221.78" cy="1389.65" r="14" fill="#009af9" fill-rule="evenodd" fill-opacity="1" stroke="#000000" stroke-opacity="1" stroke-width="3.2"/>
<circle clip-path="url(#clip962)" cx="1261.47" cy="1397.6" r="14" fill="#009af9" fill-rule="evenodd" fill-opacity="1" stroke="#000000" stroke-opacity="1" stroke-width="3.2"/>
<circle clip-path="url(#clip962)" cx="1301.15" cy="1402.71" r="14" fill="#009af9" fill-rule="evenodd" fill-opacity="1" stroke="#000000" stroke-opacity="1" stroke-width="3.2"/>
<circle clip-path="url(#clip962)" cx="1340.83" cy="1405.96" r="14" fill="#009af9" fill-rule="evenodd" fill-opacity="1" stroke="#000000" stroke-opacity="1" stroke-width="3.2"/>
<circle clip-path="url(#clip962)" cx="1380.52" cy="1408" r="14" fill="#009af9" fill-rule="evenodd" fill-opacity="1" stroke="#000000" stroke-opacity="1" stroke-width="3.2"/>
<circle clip-path="url(#clip962)" cx="1420.2" cy="1409.26" r="14" fill="#009af9" fill-rule="evenodd" fill-opacity="1" stroke="#000000" stroke-opacity="1" stroke-width="3.2"/>
<circle clip-path="url(#clip962)" cx="1459.88" cy="1410.04" r="14" fill="#009af9" fill-rule="evenodd" fill-opacity="1" stroke="#000000" stroke-opacity="1" stroke-width="3.2"/>
<circle clip-path="url(#clip962)" cx="1499.57" cy="1410.52" r="14" fill="#009af9" fill-rule="evenodd" fill-opacity="1" stroke="#000000" stroke-opacity="1" stroke-width="3.2"/>
<circle clip-path="url(#clip962)" cx="1539.25" cy="1410.81" r="14" fill="#009af9" fill-rule="evenodd" fill-opacity="1" stroke="#000000" stroke-opacity="1" stroke-width="3.2"/>
<circle clip-path="url(#clip962)" cx="1578.93" cy="1410.98" r="14" fill="#009af9" fill-rule="evenodd" fill-opacity="1" stroke="#000000" stroke-opacity="1" stroke-width="3.2"/>
<circle clip-path="url(#clip962)" cx="1618.62" cy="1411.08" r="14" fill="#009af9" fill-rule="evenodd" fill-opacity="1" stroke="#000000" stroke-opacity="1" stroke-width="3.2"/>
<circle clip-path="url(#clip962)" cx="1658.3" cy="1411.15" r="14" fill="#009af9" fill-rule="evenodd" fill-opacity="1" stroke="#000000" stroke-opacity="1" stroke-width="3.2"/>
<circle clip-path="url(#clip962)" cx="1697.98" cy="1411.18" r="14" fill="#009af9" fill-rule="evenodd" fill-opacity="1" stroke="#000000" stroke-opacity="1" stroke-width="3.2"/>
<circle clip-path="url(#clip962)" cx="1737.67" cy="1411.2" r="14" fill="#009af9" fill-rule="evenodd" fill-opacity="1" stroke="#000000" stroke-opacity="1" stroke-width="3.2"/>
<circle clip-path="url(#clip962)" cx="1777.35" cy="1411.22" r="14" fill="#009af9" fill-rule="evenodd" fill-opacity="1" stroke="#000000" stroke-opacity="1" stroke-width="3.2"/>
<circle clip-path="url(#clip962)" cx="1817.03" cy="1411.22" r="14" fill="#009af9" fill-rule="evenodd" fill-opacity="1" stroke="#000000" stroke-opacity="1" stroke-width="3.2"/>
<circle clip-path="url(#clip962)" cx="1856.71" cy="1411.23" r="14" fill="#009af9" fill-rule="evenodd" fill-opacity="1" stroke="#000000" stroke-opacity="1" stroke-width="3.2"/>
<circle clip-path="url(#clip962)" cx="1896.4" cy="1411.23" r="14" fill="#009af9" fill-rule="evenodd" fill-opacity="1" stroke="#000000" stroke-opacity="1" stroke-width="3.2"/>
<circle clip-path="url(#clip962)" cx="1936.08" cy="1411.23" r="14" fill="#009af9" fill-rule="evenodd" fill-opacity="1" stroke="#000000" stroke-opacity="1" stroke-width="3.2"/>
<circle clip-path="url(#clip962)" cx="1975.76" cy="1411.23" r="14" fill="#009af9" fill-rule="evenodd" fill-opacity="1" stroke="#000000" stroke-opacity="1" stroke-width="3.2"/>
<circle clip-path="url(#clip962)" cx="2015.45" cy="1411.23" r="14" fill="#009af9" fill-rule="evenodd" fill-opacity="1" stroke="#000000" stroke-opacity="1" stroke-width="3.2"/>
<circle clip-path="url(#clip962)" cx="2055.13" cy="1411.23" r="14" fill="#009af9" fill-rule="evenodd" fill-opacity="1" stroke="#000000" stroke-opacity="1" stroke-width="3.2"/>
<circle clip-path="url(#clip962)" cx="2094.81" cy="1411.23" r="14" fill="#009af9" fill-rule="evenodd" fill-opacity="1" stroke="#000000" stroke-opacity="1" stroke-width="3.2"/>
<circle clip-path="url(#clip962)" cx="2134.5" cy="1411.23" r="14" fill="#009af9" fill-rule="evenodd" fill-opacity="1" stroke="#000000" stroke-opacity="1" stroke-width="3.2"/>
<circle clip-path="url(#clip962)" cx="2174.18" cy="1411.23" r="14" fill="#009af9" fill-rule="evenodd" fill-opacity="1" stroke="#000000" stroke-opacity="1" stroke-width="3.2"/>
<circle clip-path="url(#clip962)" cx="2213.86" cy="1411.23" r="14" fill="#009af9" fill-rule="evenodd" fill-opacity="1" stroke="#000000" stroke-opacity="1" stroke-width="3.2"/>
<circle clip-path="url(#clip962)" cx="2253.55" cy="1411.23" r="14" fill="#009af9" fill-rule="evenodd" fill-opacity="1" stroke="#000000" stroke-opacity="1" stroke-width="3.2"/>
<circle clip-path="url(#clip962)" cx="2293.23" cy="1411.23" r="14" fill="#009af9" fill-rule="evenodd" fill-opacity="1" stroke="#000000" stroke-opacity="1" stroke-width="3.2"/>
<path clip-path="url(#clip960)" d="
M1492.8 275.475 L2282.65 275.475 L2282.65 94.0346 L1492.8 94.0346  Z
  " fill="#ffffff" fill-rule="evenodd" fill-opacity="1"/>
<polyline clip-path="url(#clip960)" style="stroke:#000000; stroke-width:4; stroke-opacity:1; fill:none" points="
  1492.8,275.475 2282.65,275.475 2282.65,94.0346 1492.8,94.0346 1492.8,275.475 
  "/>
<polyline clip-path="url(#clip960)" style="stroke:#009af9; stroke-width:6; stroke-opacity:1; fill:none" points="
  1516.17,184.755 1656.38,184.755 
  "/>
<circle clip-path="url(#clip960)" cx="1586.27" cy="184.755" r="34" fill="#009af9" fill-rule="evenodd" fill-opacity="1" stroke="#000000" stroke-opacity="1" stroke-width="7.68"/>
<path clip-path="url(#clip960)" d="M 0 0 M1717.34 182.268 Q1717.34 187.397 1714.74 192.351 Q1712.18 197.305 1708.14 200.362 Q1704.1 203.383 1699.99 203.383 Q1697.53 203.383 1695.88 202.048 Q1694.26 200.678 1693.38 198.745 Q1692.71 201.134 1691.27 206.861 Q1689.83 212.588 1689.83 213.15 Q1689.83 213.466 1689.9 213.607 Q1689.97 213.747 1690.29 213.923 Q1690.61 214.134 1691.38 214.204 Q1692.15 214.31 1693.45 214.31 Q1694.12 214.31 1694.37 214.31 Q1694.65 214.345 1694.89 214.52 Q1695.17 214.696 1695.17 215.083 Q1695.17 216.523 1693.87 216.523 Q1692.71 216.523 1690.33 216.418 Q1687.94 216.312 1686.74 216.312 Q1685.72 216.312 1683.69 216.418 Q1681.65 216.523 1680.7 216.523 Q1679.75 216.523 1679.75 215.68 Q1679.75 215.188 1679.89 214.872 Q1680 214.591 1680.28 214.45 Q1680.56 214.345 1680.8 214.31 Q1681.02 214.31 1681.44 214.31 Q1683.05 214.31 1683.76 214.029 Q1684.46 213.783 1684.7 213.256 Q1684.99 212.764 1685.3 211.358 L1693.38 179.316 Q1693.87 177.173 1693.87 175.663 Q1693.87 173.765 1693.28 173.063 Q1692.68 172.36 1691.63 172.36 Q1689.8 172.36 1688.6 174.538 Q1687.41 176.717 1686.39 180.933 Q1686.07 182.092 1685.86 182.338 Q1685.69 182.584 1685.16 182.584 Q1684.28 182.549 1684.28 181.846 Q1684.28 181.67 1684.56 180.546 Q1684.84 179.387 1685.37 177.7 Q1685.93 175.979 1686.53 174.89 Q1686.88 174.152 1687.2 173.66 Q1687.52 173.168 1688.15 172.395 Q1688.81 171.622 1689.76 171.201 Q1690.71 170.779 1691.87 170.779 Q1694.12 170.779 1695.98 172.114 Q1697.84 173.449 1698.34 176.154 Q1700.34 173.8 1702.8 172.29 Q1705.26 170.779 1707.75 170.779 Q1711.9 170.779 1714.6 174.011 Q1717.34 177.208 1717.34 182.268 M1712.14 179.106 Q1712.14 175.908 1710.91 174.152 Q1709.72 172.36 1707.54 172.36 Q1704.84 172.36 1701.71 175.1 Q1698.62 177.7 1697.98 180.125 L1694.44 194.213 L1694.23 195.373 Q1694.23 195.583 1694.33 196.216 Q1694.47 196.813 1694.86 197.797 Q1695.28 198.781 1695.84 199.659 Q1696.44 200.502 1697.49 201.134 Q1698.58 201.767 1699.92 201.767 Q1702.06 201.767 1704.38 199.87 Q1706.73 197.972 1708.49 194.389 Q1709.58 192.07 1710.84 187.081 Q1712.14 182.057 1712.14 179.106 Z" fill="#000000" fill-rule="evenodd" fill-opacity="1" /><path clip-path="url(#clip960)" d="M 0 0 M1715.59 184.587 Q1715.59 172.43 1720.12 162.628 Q1722.06 158.517 1724.76 155.074 Q1727.47 151.631 1729.26 150.12 Q1731.05 148.61 1731.54 148.61 Q1732.25 148.61 1732.28 149.312 Q1732.28 149.664 1731.33 150.542 Q1719.74 162.347 1719.77 184.587 Q1719.77 206.896 1731.05 218.245 Q1732.28 219.474 1732.28 219.861 Q1732.28 220.563 1731.54 220.563 Q1731.05 220.563 1729.33 219.123 Q1727.61 217.682 1724.94 214.38 Q1722.27 211.077 1720.34 207.037 Q1715.59 197.235 1715.59 184.587 Z" fill="#000000" fill-rule="evenodd" fill-opacity="1" /><path clip-path="url(#clip960)" d="M 0 0 M1776.42 173.519 Q1776.42 174.011 1776.11 175.171 L1769.22 202.645 Q1767.71 208.758 1762.79 213.045 Q1757.91 217.331 1752.36 217.331 Q1749.02 217.331 1746.88 215.539 Q1744.73 213.783 1744.73 211.077 Q1744.73 208.688 1746 207.529 Q1747.26 206.405 1748.77 206.405 Q1749.26 206.405 1749.79 206.545 Q1750.32 206.686 1750.88 207.283 Q1751.44 207.88 1751.44 208.899 Q1751.44 210.55 1750 211.85 Q1749.3 212.448 1748.63 212.588 Q1748 212.729 1746.91 212.729 Q1747.33 213.712 1748.1 214.38 Q1748.88 215.047 1749.76 215.293 Q1750.63 215.574 1751.2 215.645 Q1751.79 215.75 1752.36 215.75 Q1756.85 215.75 1760.3 211.218 Q1761.32 209.848 1762.05 208.477 Q1762.83 207.142 1763.39 205.491 Q1763.95 203.875 1764.2 202.997 Q1764.48 202.118 1764.97 200.116 Q1761.7 203.383 1757.7 203.383 Q1756.01 203.383 1754.5 202.926 Q1753.02 202.47 1751.72 201.521 Q1750.42 200.537 1749.65 198.816 Q1748.91 197.094 1748.91 194.81 Q1748.91 192.386 1749.86 189.084 Q1750.81 185.781 1753.09 179.703 Q1754.32 176.295 1754.32 174.644 Q1754.32 173.836 1754.15 173.344 Q1753.97 172.817 1753.62 172.641 Q1753.27 172.43 1753.06 172.395 Q1752.88 172.36 1752.53 172.36 Q1750.46 172.36 1748.53 174.468 Q1746.59 176.576 1745.26 181.284 Q1744.98 182.162 1744.8 182.373 Q1744.63 182.584 1744.1 182.584 Q1743.22 182.549 1743.22 181.846 Q1743.22 181.565 1743.54 180.476 Q1743.85 179.352 1744.59 177.7 Q1745.36 176.014 1746.42 174.503 Q1747.47 172.957 1749.12 171.868 Q1750.81 170.779 1752.74 170.779 Q1755.38 170.779 1756.99 172.501 Q1758.65 174.187 1758.65 176.681 Q1758.65 177.7 1758.36 178.614 Q1758.12 179.492 1757.2 181.846 Q1753.52 191.332 1753.52 195.97 Q1753.52 197.094 1753.69 198.043 Q1753.9 198.956 1754.36 199.87 Q1754.82 200.748 1755.73 201.275 Q1756.68 201.767 1757.98 201.767 Q1759.63 201.767 1761.17 200.994 Q1762.76 200.186 1763.74 199.097 Q1764.76 198.008 1765.36 197.094 Q1765.99 196.145 1766.13 195.654 L1769.36 182.724 L1770.8 176.963 Q1771.47 173.836 1771.79 173.063 Q1772.21 172.325 1772.94 171.938 Q1773.68 171.552 1774.31 171.552 Q1775.19 171.552 1775.79 172.079 Q1776.42 172.606 1776.42 173.519 Z" fill="#000000" fill-rule="evenodd" fill-opacity="1" /><path clip-path="url(#clip960)" d="M 0 0 M1798.09 191.648 Q1798.16 190.77 1799.53 190.77 L1843.62 190.77 Q1845.69 190.77 1845.73 191.578 Q1845.73 192.456 1843.76 192.421 L1800.02 192.421 Q1798.09 192.456 1798.09 191.648 M1798.09 177.595 Q1798.09 176.717 1799.6 176.752 L1843.55 176.752 Q1845.69 176.752 1845.73 177.595 Q1845.73 178.403 1843.9 178.403 L1799.53 178.403 Q1798.09 178.403 1798.09 177.595 Z" fill="#000000" fill-rule="evenodd" fill-opacity="1" /><path clip-path="url(#clip960)" d="M 0 0 M1873.48 190.981 Q1873.48 188.838 1874.64 188.03 Q1875.8 187.186 1877.03 187.186 Q1878.68 187.186 1879.63 188.24 Q1880.61 189.259 1880.61 190.7 Q1880.61 192.14 1879.63 193.194 Q1878.68 194.213 1877.03 194.213 Q1876.22 194.213 1875.8 194.073 Q1876.75 197.375 1879.63 199.764 Q1882.54 202.153 1886.37 202.153 Q1891.19 202.153 1894.07 197.481 Q1895.79 194.459 1895.79 187.608 Q1895.79 181.565 1894.49 178.544 Q1892.49 173.941 1888.38 173.941 Q1882.54 173.941 1879.1 178.965 Q1878.68 179.598 1878.19 179.633 Q1877.48 179.633 1877.31 179.246 Q1877.17 178.825 1877.17 177.735 L1877.17 156.444 Q1877.17 154.723 1877.87 154.723 Q1878.15 154.723 1878.75 154.934 Q1883.28 156.936 1888.31 156.971 Q1893.47 156.971 1898.11 154.863 Q1898.46 154.653 1898.67 154.653 Q1899.37 154.653 1899.41 155.461 Q1899.41 155.742 1898.81 156.585 Q1898.25 157.393 1897.02 158.482 Q1895.79 159.536 1894.21 160.555 Q1892.63 161.574 1890.31 162.277 Q1888.02 162.944 1885.5 162.944 Q1882.47 162.944 1879.38 161.996 L1879.38 176.014 Q1883.11 172.36 1888.52 172.36 Q1894.28 172.36 1898.25 176.998 Q1902.22 181.635 1902.22 188.1 Q1902.22 194.881 1897.51 199.518 Q1892.84 204.156 1886.51 204.156 Q1880.75 204.156 1877.1 200.045 Q1873.48 195.935 1873.48 190.981 Z" fill="#000000" fill-rule="evenodd" fill-opacity="1" /><path clip-path="url(#clip960)" d="M 0 0 M1909.11 218.35 L1909.11 151.35 Q1909.11 148.68 1910.55 148.68 Q1911.99 148.68 1911.99 150.823 L1911.99 217.823 Q1911.99 220.493 1910.55 220.493 Q1909.11 220.493 1909.11 218.35 Z" fill="#000000" fill-rule="evenodd" fill-opacity="1" /><path clip-path="url(#clip960)" d="M 0 0 M1968.54 166.598 Q1968.54 172.501 1966.64 179.141 Q1964.78 185.746 1961.82 191.086 Q1958.87 196.391 1955.01 199.905 Q1951.14 203.383 1947.45 203.383 Q1945.1 203.383 1943.34 202.083 Q1941.62 200.748 1940.67 198.535 Q1939.73 196.286 1939.27 193.827 Q1938.81 191.332 1938.81 188.627 Q1938.81 184.587 1939.69 180.195 Q1940.57 175.768 1942.04 171.763 Q1943.52 167.722 1945.59 164.068 Q1947.67 160.379 1949.95 157.709 Q1952.27 155.004 1954.87 153.423 Q1957.47 151.842 1959.89 151.842 Q1961.65 151.842 1963.05 152.615 Q1964.49 153.353 1965.41 154.653 Q1966.32 155.917 1966.95 157.428 Q1967.62 158.939 1967.94 160.696 Q1968.25 162.417 1968.39 163.858 Q1968.54 165.263 1968.54 166.598 M1963.79 162.136 Q1963.79 160.344 1963.65 159.009 Q1963.51 157.639 1963.12 156.269 Q1962.74 154.899 1961.89 154.161 Q1961.09 153.423 1959.82 153.423 Q1956.13 153.423 1951.99 160.977 Q1950.65 163.331 1949.46 166.528 Q1948.26 169.725 1947.84 171.236 Q1947.42 172.746 1946.44 176.471 L1961.47 176.471 Q1963.79 166.879 1963.79 162.136 M1960.84 178.754 L1945.87 178.754 Q1943.56 187.538 1943.56 193.019 Q1943.56 197.797 1944.54 199.799 Q1945.56 201.767 1947.45 201.767 Q1949.63 201.767 1951.67 199.589 Q1953.71 197.375 1955.78 193.37 Q1958.52 188.17 1960.84 178.754 Z" fill="#000000" fill-rule="evenodd" fill-opacity="1" /><path clip-path="url(#clip960)" d="M 0 0 M1992.18 191.648 Q1992.25 190.77 1993.62 190.77 L2037.71 190.77 Q2039.79 190.77 2039.82 191.578 Q2039.82 192.456 2037.85 192.421 L1994.11 192.421 Q1992.18 192.456 1992.18 191.648 M1992.18 177.595 Q1992.18 176.717 1993.69 176.752 L2037.64 176.752 Q2039.79 176.752 2039.82 177.595 Q2039.82 178.403 2037.99 178.403 L1993.62 178.403 Q1992.18 178.403 1992.18 177.595 Z" fill="#000000" fill-rule="evenodd" fill-opacity="1" /><path clip-path="url(#clip960)" d="M 0 0 M2068.66 201.416 Q2067.57 200.256 2067.57 198.745 Q2067.57 197.235 2068.66 196.145 Q2069.75 195.021 2071.4 195.021 Q2072.98 195.021 2074.04 196.075 Q2075.13 197.094 2075.13 198.781 Q2075.13 200.432 2073.97 201.521 Q2072.84 202.575 2071.4 202.575 Q2069.75 202.575 2068.66 201.416 Z" fill="#000000" fill-rule="evenodd" fill-opacity="1" /><path clip-path="url(#clip960)" d="M 0 0 M2098.78 190.981 Q2098.78 188.838 2099.94 188.03 Q2101.1 187.186 2102.33 187.186 Q2103.98 187.186 2104.93 188.24 Q2105.91 189.259 2105.91 190.7 Q2105.91 192.14 2104.93 193.194 Q2103.98 194.213 2102.33 194.213 Q2101.52 194.213 2101.1 194.073 Q2102.05 197.375 2104.93 199.764 Q2107.84 202.153 2111.67 202.153 Q2116.49 202.153 2119.37 197.481 Q2121.09 194.459 2121.09 187.608 Q2121.09 181.565 2119.79 178.544 Q2117.79 173.941 2113.68 173.941 Q2107.84 173.941 2104.4 178.965 Q2103.98 179.598 2103.49 179.633 Q2102.79 179.633 2102.61 179.246 Q2102.47 178.825 2102.47 177.735 L2102.47 156.444 Q2102.47 154.723 2103.17 154.723 Q2103.45 154.723 2104.05 154.934 Q2108.58 156.936 2113.61 156.971 Q2118.77 156.971 2123.41 154.863 Q2123.76 154.653 2123.97 154.653 Q2124.67 154.653 2124.71 155.461 Q2124.71 155.742 2124.11 156.585 Q2123.55 157.393 2122.32 158.482 Q2121.09 159.536 2119.51 160.555 Q2117.93 161.574 2115.61 162.277 Q2113.33 162.944 2110.8 162.944 Q2107.77 162.944 2104.68 161.996 L2104.68 176.014 Q2108.41 172.36 2113.82 172.36 Q2119.58 172.36 2123.55 176.998 Q2127.52 181.635 2127.52 188.1 Q2127.52 194.881 2122.81 199.518 Q2118.14 204.156 2111.81 204.156 Q2106.05 204.156 2102.4 200.045 Q2098.78 195.935 2098.78 190.981 Z" fill="#000000" fill-rule="evenodd" fill-opacity="1" /><path clip-path="url(#clip960)" d="M 0 0 M2135.43 201.416 Q2134.41 200.256 2134.41 198.745 Q2134.41 197.235 2135.4 196.11 Q2136.42 194.951 2138.24 194.951 Q2140.39 194.951 2141.62 197.024 Q2142.84 199.062 2142.84 202.505 Q2142.84 206.229 2141.33 209.672 Q2139.82 213.15 2138.35 214.801 Q2136.87 216.453 2136.27 216.453 Q2135.57 216.453 2135.57 215.68 Q2135.57 215.399 2136.06 214.872 Q2141.23 209.321 2141.26 202.505 Q2141.26 201.416 2141.12 201.416 L2140.95 201.556 Q2139.72 202.575 2138.24 202.575 Q2136.45 202.575 2135.43 201.416 Z" fill="#000000" fill-rule="evenodd" fill-opacity="1" /><path clip-path="url(#clip960)" d="M 0 0 M2204.55 192.281 Q2204.55 192.562 2204.23 193.651 Q2203.92 194.74 2203.14 196.427 Q2202.41 198.113 2201.39 199.659 Q2200.37 201.17 2198.68 202.294 Q2197.03 203.383 2195.13 203.383 Q2192.6 203.383 2190.92 201.697 Q2189.23 200.01 2189.23 197.481 Q2189.23 196.075 2189.97 194.143 Q2194.64 181.67 2194.64 177.384 Q2194.64 172.36 2190.74 172.36 Q2188.81 172.36 2186.98 173.098 Q2185.19 173.8 2183.96 174.784 Q2182.73 175.768 2181.61 177.138 Q2180.52 178.473 2179.95 179.387 Q2179.43 180.265 2179.01 181.143 L2178.09 184.727 Q2177.88 185.711 2176.86 189.54 L2175.28 196.04 Q2174.16 200.889 2173.91 201.345 Q2173.56 202.329 2172.79 202.856 Q2172.01 203.383 2171.24 203.383 Q2170.36 203.383 2169.77 202.856 Q2169.17 202.329 2169.17 201.416 Q2169.17 201.275 2169.27 200.748 Q2169.38 200.221 2169.56 199.483 Q2169.73 198.745 2169.8 198.324 L2173.98 181.706 Q2174.75 178.684 2174.93 177.735 Q2175.14 176.752 2175.14 175.663 Q2175.14 172.36 2172.89 172.36 Q2171.07 172.36 2169.87 174.538 Q2168.68 176.717 2167.66 180.933 Q2167.34 182.092 2167.13 182.338 Q2166.96 182.584 2166.43 182.584 Q2165.55 182.549 2165.55 181.846 Q2165.55 181.67 2165.83 180.511 Q2166.11 179.352 2166.64 177.7 Q2167.2 176.014 2167.73 174.89 Q2168.18 174.046 2168.43 173.66 Q2168.71 173.238 2169.38 172.43 Q2170.08 171.587 2171 171.201 Q2171.94 170.779 2173.1 170.779 Q2175.7 170.779 2177.6 172.465 Q2179.5 174.117 2179.74 177.033 Q2184.42 170.779 2190.95 170.779 Q2194.82 170.779 2197.03 172.817 Q2199.24 174.854 2199.24 178.473 Q2199.24 179.316 2199.07 180.406 Q2198.93 181.46 2198.58 182.795 Q2198.26 184.13 2197.98 185.149 Q2197.7 186.168 2197.13 187.819 Q2196.57 189.435 2196.33 190.138 Q2196.08 190.84 2195.48 192.492 Q2194.92 194.108 2194.85 194.283 Q2193.55 197.551 2193.55 199.413 Q2193.55 200.643 2193.94 201.205 Q2194.36 201.767 2195.27 201.767 Q2197.73 201.767 2199.56 199.343 Q2201.42 196.883 2202.62 192.878 Q2202.9 192 2203.04 191.789 Q2203.21 191.578 2203.7 191.578 Q2204.55 191.578 2204.55 192.281 Z" fill="#000000" fill-rule="evenodd" fill-opacity="1" /><path clip-path="url(#clip960)" d="M 0 0 M2208.28 219.861 Q2208.28 219.509 2209.19 218.631 Q2220.79 206.826 2220.79 184.587 Q2220.79 162.277 2209.65 150.999 Q2208.28 149.699 2208.28 149.312 Q2208.28 148.61 2208.98 148.61 Q2209.48 148.61 2211.2 150.05 Q2212.95 151.491 2215.59 154.793 Q2218.26 158.096 2220.23 162.136 Q2224.97 171.938 2224.97 184.587 Q2224.97 196.743 2220.44 206.545 Q2218.51 210.656 2215.8 214.099 Q2213.09 217.542 2211.3 219.053 Q2209.51 220.563 2208.98 220.563 Q2208.28 220.563 2208.28 219.861 Z" fill="#000000" fill-rule="evenodd" fill-opacity="1" /></svg>
