<?xml version="1.0" encoding="utf-8"?>
<svg xmlns="http://www.w3.org/2000/svg" xmlns:xlink="http://www.w3.org/1999/xlink" width="600" height="400" viewBox="0 0 2400 1600">
<defs>
  <clipPath id="clip280">
    <rect x="0" y="0" width="2400" height="1600"/>
  </clipPath>
</defs>
<path clip-path="url(#clip280)" d="
M0 1600 L2400 1600 L2400 0 L0 0  Z
  " fill="#ffffff" fill-rule="evenodd" fill-opacity="1"/>
<defs>
  <clipPath id="clip281">
    <rect x="480" y="0" width="1681" height="1600"/>
  </clipPath>
</defs>
<defs>
  <clipPath id="clip282">
    <rect x="203" y="47" width="2150" height="1405"/>
  </clipPath>
</defs>
<path clip-path="url(#clip280)" d="
M203.964 1450.96 L2352.76 1450.96 L2352.76 47.2441 L203.964 47.2441  Z
  " fill="#ffffff" fill-rule="evenodd" fill-opacity="1"/>
<polyline clip-path="url(#clip282)" style="stroke:#000000; stroke-width:2; stroke-opacity:0.1; fill:none" points="
  264.778,1450.96 264.778,47.2441 
  "/>
<polyline clip-path="url(#clip282)" style="stroke:#000000; stroke-width:2; stroke-opacity:0.1; fill:none" points="
  670.211,1450.96 670.211,47.2441 
  "/>
<polyline clip-path="url(#clip282)" style="stroke:#000000; stroke-width:2; stroke-opacity:0.1; fill:none" points="
  1075.64,1450.96 1075.64,47.2441 
  "/>
<polyline clip-path="url(#clip282)" style="stroke:#000000; stroke-width:2; stroke-opacity:0.1; fill:none" points="
  1481.08,1450.96 1481.08,47.2441 
  "/>
<polyline clip-path="url(#clip282)" style="stroke:#000000; stroke-width:2; stroke-opacity:0.1; fill:none" points="
  1886.51,1450.96 1886.51,47.2441 
  "/>
<polyline clip-path="url(#clip282)" style="stroke:#000000; stroke-width:2; stroke-opacity:0.1; fill:none" points="
  2291.94,1450.96 2291.94,47.2441 
  "/>
<polyline clip-path="url(#clip280)" style="stroke:#000000; stroke-width:4; stroke-opacity:1; fill:none" points="
  203.964,1450.96 2352.76,1450.96 
  "/>
<polyline clip-path="url(#clip280)" style="stroke:#000000; stroke-width:4; stroke-opacity:1; fill:none" points="
  264.778,1450.96 264.778,1434.12 
  "/>
<polyline clip-path="url(#clip280)" style="stroke:#000000; stroke-width:4; stroke-opacity:1; fill:none" points="
  670.211,1450.96 670.211,1434.12 
  "/>
<polyline clip-path="url(#clip280)" style="stroke:#000000; stroke-width:4; stroke-opacity:1; fill:none" points="
  1075.64,1450.96 1075.64,1434.12 
  "/>
<polyline clip-path="url(#clip280)" style="stroke:#000000; stroke-width:4; stroke-opacity:1; fill:none" points="
  1481.08,1450.96 1481.08,1434.12 
  "/>
<polyline clip-path="url(#clip280)" style="stroke:#000000; stroke-width:4; stroke-opacity:1; fill:none" points="
  1886.51,1450.96 1886.51,1434.12 
  "/>
<polyline clip-path="url(#clip280)" style="stroke:#000000; stroke-width:4; stroke-opacity:1; fill:none" points="
  2291.94,1450.96 2291.94,1434.12 
  "/>
<path clip-path="url(#clip280)" d="M 0 0 M264.778 1480.15 Q261.167 1480.15 259.339 1483.72 Q257.533 1487.26 257.533 1494.39 Q257.533 1501.49 259.339 1505.06 Q261.167 1508.6 264.778 1508.6 Q268.413 1508.6 270.218 1505.06 Q272.047 1501.49 272.047 1494.39 Q272.047 1487.26 270.218 1483.72 Q268.413 1480.15 264.778 1480.15 M264.778 1476.45 Q270.589 1476.45 273.644 1481.05 Q276.723 1485.64 276.723 1494.39 Q276.723 1503.11 273.644 1507.72 Q270.589 1512.3 264.778 1512.3 Q258.968 1512.3 255.89 1507.72 Q252.834 1503.11 252.834 1494.39 Q252.834 1485.64 255.89 1481.05 Q258.968 1476.45 264.778 1476.45 Z" fill="#000000" fill-rule="evenodd" fill-opacity="1" /><path clip-path="url(#clip280)" d="M 0 0 M644.899 1507.7 L652.537 1507.7 L652.537 1481.33 L644.227 1483 L644.227 1478.74 L652.491 1477.07 L657.167 1477.07 L657.167 1507.7 L664.806 1507.7 L664.806 1511.63 L644.899 1511.63 L644.899 1507.7 Z" fill="#000000" fill-rule="evenodd" fill-opacity="1" /><path clip-path="url(#clip280)" d="M 0 0 M684.25 1480.15 Q680.639 1480.15 678.81 1483.72 Q677.005 1487.26 677.005 1494.39 Q677.005 1501.49 678.81 1505.06 Q680.639 1508.6 684.25 1508.6 Q687.884 1508.6 689.69 1505.06 Q691.519 1501.49 691.519 1494.39 Q691.519 1487.26 689.69 1483.72 Q687.884 1480.15 684.25 1480.15 M684.25 1476.45 Q690.06 1476.45 693.116 1481.05 Q696.195 1485.64 696.195 1494.39 Q696.195 1503.11 693.116 1507.72 Q690.06 1512.3 684.25 1512.3 Q678.44 1512.3 675.361 1507.72 Q672.306 1503.11 672.306 1494.39 Q672.306 1485.64 675.361 1481.05 Q678.44 1476.45 684.25 1476.45 Z" fill="#000000" fill-rule="evenodd" fill-opacity="1" /><path clip-path="url(#clip280)" d="M 0 0 M1054.42 1507.7 L1070.74 1507.7 L1070.74 1511.63 L1048.79 1511.63 L1048.79 1507.7 Q1051.45 1504.94 1056.04 1500.31 Q1060.64 1495.66 1061.82 1494.32 Q1064.07 1491.79 1064.95 1490.06 Q1065.85 1488.3 1065.85 1486.61 Q1065.85 1483.85 1063.91 1482.12 Q1061.99 1480.38 1058.88 1480.38 Q1056.69 1480.38 1054.23 1481.15 Q1051.8 1481.91 1049.02 1483.46 L1049.02 1478.74 Q1051.85 1477.6 1054.3 1477.03 Q1056.75 1476.45 1058.79 1476.45 Q1064.16 1476.45 1067.36 1479.13 Q1070.55 1481.82 1070.55 1486.31 Q1070.55 1488.44 1069.74 1490.36 Q1068.95 1492.26 1066.85 1494.85 Q1066.27 1495.52 1063.17 1498.74 Q1060.06 1501.93 1054.42 1507.7 Z" fill="#000000" fill-rule="evenodd" fill-opacity="1" /><path clip-path="url(#clip280)" d="M 0 0 M1090.55 1480.15 Q1086.94 1480.15 1085.11 1483.72 Q1083.31 1487.26 1083.31 1494.39 Q1083.31 1501.49 1085.11 1505.06 Q1086.94 1508.6 1090.55 1508.6 Q1094.19 1508.6 1095.99 1505.06 Q1097.82 1501.49 1097.82 1494.39 Q1097.82 1487.26 1095.99 1483.72 Q1094.19 1480.15 1090.55 1480.15 M1090.55 1476.45 Q1096.36 1476.45 1099.42 1481.05 Q1102.5 1485.64 1102.5 1494.39 Q1102.5 1503.11 1099.42 1507.72 Q1096.36 1512.3 1090.55 1512.3 Q1084.74 1512.3 1081.66 1507.72 Q1078.61 1503.11 1078.61 1494.39 Q1078.61 1485.64 1081.66 1481.05 Q1084.74 1476.45 1090.55 1476.45 Z" fill="#000000" fill-rule="evenodd" fill-opacity="1" /><path clip-path="url(#clip280)" d="M 0 0 M1469.92 1493 Q1473.28 1493.72 1475.15 1495.98 Q1477.05 1498.25 1477.05 1501.59 Q1477.05 1506.7 1473.53 1509.5 Q1470.01 1512.3 1463.53 1512.3 Q1461.35 1512.3 1459.04 1511.86 Q1456.75 1511.45 1454.29 1510.59 L1454.29 1506.08 Q1456.24 1507.21 1458.55 1507.79 Q1460.87 1508.37 1463.39 1508.37 Q1467.79 1508.37 1470.08 1506.63 Q1472.4 1504.9 1472.4 1501.59 Q1472.4 1498.53 1470.24 1496.82 Q1468.11 1495.08 1464.29 1495.08 L1460.27 1495.08 L1460.27 1491.24 L1464.48 1491.24 Q1467.93 1491.24 1469.76 1489.87 Q1471.59 1488.48 1471.59 1485.89 Q1471.59 1483.23 1469.69 1481.82 Q1467.81 1480.38 1464.29 1480.38 Q1462.37 1480.38 1460.17 1480.8 Q1457.97 1481.22 1455.34 1482.1 L1455.34 1477.93 Q1458 1477.19 1460.31 1476.82 Q1462.65 1476.45 1464.71 1476.45 Q1470.03 1476.45 1473.14 1478.88 Q1476.24 1481.29 1476.24 1485.41 Q1476.24 1488.28 1474.59 1490.27 Q1472.95 1492.23 1469.92 1493 Z" fill="#000000" fill-rule="evenodd" fill-opacity="1" /><path clip-path="url(#clip280)" d="M 0 0 M1495.91 1480.15 Q1492.3 1480.15 1490.47 1483.72 Q1488.67 1487.26 1488.67 1494.39 Q1488.67 1501.49 1490.47 1505.06 Q1492.3 1508.6 1495.91 1508.6 Q1499.55 1508.6 1501.35 1505.06 Q1503.18 1501.49 1503.18 1494.39 Q1503.18 1487.26 1501.35 1483.72 Q1499.55 1480.15 1495.91 1480.15 M1495.91 1476.45 Q1501.72 1476.45 1504.78 1481.05 Q1507.86 1485.64 1507.86 1494.39 Q1507.86 1503.11 1504.78 1507.72 Q1501.72 1512.3 1495.91 1512.3 Q1490.1 1512.3 1487.03 1507.72 Q1483.97 1503.11 1483.97 1494.39 Q1483.97 1485.64 1487.03 1481.05 Q1490.1 1476.45 1495.91 1476.45 Z" fill="#000000" fill-rule="evenodd" fill-opacity="1" /><path clip-path="url(#clip280)" d="M 0 0 M1874.68 1481.15 L1862.87 1499.6 L1874.68 1499.6 L1874.68 1481.15 M1873.45 1477.07 L1879.33 1477.07 L1879.33 1499.6 L1884.26 1499.6 L1884.26 1503.48 L1879.33 1503.48 L1879.33 1511.63 L1874.68 1511.63 L1874.68 1503.48 L1859.08 1503.48 L1859.08 1498.97 L1873.45 1477.07 Z" fill="#000000" fill-rule="evenodd" fill-opacity="1" /><path clip-path="url(#clip280)" d="M 0 0 M1901.99 1480.15 Q1898.38 1480.15 1896.55 1483.72 Q1894.75 1487.26 1894.75 1494.39 Q1894.75 1501.49 1896.55 1505.06 Q1898.38 1508.6 1901.99 1508.6 Q1905.63 1508.6 1907.43 1505.06 Q1909.26 1501.49 1909.26 1494.39 Q1909.26 1487.26 1907.43 1483.72 Q1905.63 1480.15 1901.99 1480.15 M1901.99 1476.45 Q1907.8 1476.45 1910.86 1481.05 Q1913.94 1485.64 1913.94 1494.39 Q1913.94 1503.11 1910.86 1507.72 Q1907.8 1512.3 1901.99 1512.3 Q1896.18 1512.3 1893.11 1507.72 Q1890.05 1503.11 1890.05 1494.39 Q1890.05 1485.64 1893.11 1481.05 Q1896.18 1476.45 1901.99 1476.45 Z" fill="#000000" fill-rule="evenodd" fill-opacity="1" /><path clip-path="url(#clip280)" d="M 0 0 M2266.64 1477.07 L2285 1477.07 L2285 1481.01 L2270.92 1481.01 L2270.92 1489.48 Q2271.94 1489.13 2272.96 1488.97 Q2273.98 1488.79 2275 1488.79 Q2280.78 1488.79 2284.16 1491.96 Q2287.54 1495.13 2287.54 1500.54 Q2287.54 1506.12 2284.07 1509.22 Q2280.6 1512.3 2274.28 1512.3 Q2272.1 1512.3 2269.83 1511.93 Q2267.59 1511.56 2265.18 1510.82 L2265.18 1506.12 Q2267.27 1507.26 2269.49 1507.81 Q2271.71 1508.37 2274.19 1508.37 Q2278.19 1508.37 2280.53 1506.26 Q2282.87 1504.16 2282.87 1500.54 Q2282.87 1496.93 2280.53 1494.83 Q2278.19 1492.72 2274.19 1492.72 Q2272.31 1492.72 2270.44 1493.14 Q2268.58 1493.55 2266.64 1494.43 L2266.64 1477.07 Z" fill="#000000" fill-rule="evenodd" fill-opacity="1" /><path clip-path="url(#clip280)" d="M 0 0 M2306.76 1480.15 Q2303.14 1480.15 2301.32 1483.72 Q2299.51 1487.26 2299.51 1494.39 Q2299.51 1501.49 2301.32 1505.06 Q2303.14 1508.6 2306.76 1508.6 Q2310.39 1508.6 2312.2 1505.06 Q2314.02 1501.49 2314.02 1494.39 Q2314.02 1487.26 2312.2 1483.72 Q2310.39 1480.15 2306.76 1480.15 M2306.76 1476.45 Q2312.57 1476.45 2315.62 1481.05 Q2318.7 1485.64 2318.7 1494.39 Q2318.7 1503.11 2315.62 1507.72 Q2312.57 1512.3 2306.76 1512.3 Q2300.95 1512.3 2297.87 1507.72 Q2294.81 1503.11 2294.81 1494.39 Q2294.81 1485.64 2297.87 1481.05 Q2300.95 1476.45 2306.76 1476.45 Z" fill="#000000" fill-rule="evenodd" fill-opacity="1" /><path clip-path="url(#clip280)" d="M 0 0 M1294.52 1555.28 Q1294.52 1555.54 1294.23 1556.53 Q1293.94 1557.53 1293.23 1559.08 Q1292.56 1560.62 1291.62 1562.04 Q1290.69 1563.43 1289.14 1564.46 Q1287.63 1565.46 1285.89 1565.46 Q1283.57 1565.46 1282.03 1563.91 Q1280.48 1562.36 1280.48 1560.04 Q1280.48 1558.76 1281.16 1556.98 Q1285.44 1545.55 1285.44 1541.62 Q1285.44 1537.02 1281.87 1537.02 Q1280.09 1537.02 1278.42 1537.69 Q1276.78 1538.34 1275.65 1539.24 Q1274.52 1540.14 1273.49 1541.4 Q1272.49 1542.62 1271.98 1543.46 Q1271.5 1544.26 1271.11 1545.07 L1270.27 1548.35 Q1270.08 1549.26 1269.14 1552.77 L1267.7 1558.72 Q1266.66 1563.17 1266.44 1563.59 Q1266.12 1564.49 1265.41 1564.97 Q1264.7 1565.46 1263.99 1565.46 Q1263.19 1565.46 1262.64 1564.97 Q1262.09 1564.49 1262.09 1563.65 Q1262.09 1563.52 1262.19 1563.04 Q1262.28 1562.56 1262.45 1561.88 Q1262.61 1561.2 1262.67 1560.82 L1266.5 1545.58 Q1267.21 1542.81 1267.37 1541.94 Q1267.57 1541.04 1267.57 1540.04 Q1267.57 1537.02 1265.51 1537.02 Q1263.83 1537.02 1262.74 1539.01 Q1261.64 1541.01 1260.71 1544.88 Q1260.42 1545.94 1260.22 1546.16 Q1260.06 1546.39 1259.58 1546.39 Q1258.77 1546.36 1258.77 1545.71 Q1258.77 1545.55 1259.03 1544.49 Q1259.29 1543.43 1259.77 1541.91 Q1260.29 1540.37 1260.77 1539.34 Q1261.19 1538.56 1261.41 1538.21 Q1261.67 1537.82 1262.28 1537.08 Q1262.93 1536.31 1263.77 1535.95 Q1264.64 1535.57 1265.7 1535.57 Q1268.08 1535.57 1269.82 1537.11 Q1271.56 1538.63 1271.79 1541.3 Q1276.07 1535.57 1282.06 1535.57 Q1285.6 1535.57 1287.63 1537.44 Q1289.66 1539.3 1289.66 1542.62 Q1289.66 1543.39 1289.5 1544.39 Q1289.37 1545.36 1289.05 1546.58 Q1288.76 1547.81 1288.5 1548.74 Q1288.24 1549.67 1287.73 1551.19 Q1287.21 1552.67 1286.99 1553.31 Q1286.76 1553.96 1286.21 1555.47 Q1285.7 1556.95 1285.63 1557.11 Q1284.44 1560.11 1284.44 1561.82 Q1284.44 1562.94 1284.8 1563.46 Q1285.18 1563.97 1286.02 1563.97 Q1288.27 1563.97 1289.95 1561.75 Q1291.66 1559.5 1292.75 1555.83 Q1293.01 1555.02 1293.14 1554.83 Q1293.3 1554.63 1293.75 1554.63 Q1294.52 1554.63 1294.52 1555.28 Z" fill="#000000" fill-rule="evenodd" fill-opacity="1" /><polyline clip-path="url(#clip282)" style="stroke:#000000; stroke-width:2; stroke-opacity:0.1; fill:none" points="
  203.964,1156.29 2352.76,1156.29 
  "/>
<polyline clip-path="url(#clip282)" style="stroke:#000000; stroke-width:2; stroke-opacity:0.1; fill:none" points="
  203.964,802 2352.76,802 
  "/>
<polyline clip-path="url(#clip282)" style="stroke:#000000; stroke-width:2; stroke-opacity:0.1; fill:none" points="
  203.964,447.71 2352.76,447.71 
  "/>
<polyline clip-path="url(#clip282)" style="stroke:#000000; stroke-width:2; stroke-opacity:0.1; fill:none" points="
  203.964,93.4212 2352.76,93.4212 
  "/>
<polyline clip-path="url(#clip280)" style="stroke:#000000; stroke-width:4; stroke-opacity:1; fill:none" points="
  203.964,1450.96 203.964,47.2441 
  "/>
<polyline clip-path="url(#clip280)" style="stroke:#000000; stroke-width:4; stroke-opacity:1; fill:none" points="
  203.964,1156.29 229.749,1156.29 
  "/>
<polyline clip-path="url(#clip280)" style="stroke:#000000; stroke-width:4; stroke-opacity:1; fill:none" points="
  203.964,802 229.749,802 
  "/>
<polyline clip-path="url(#clip280)" style="stroke:#000000; stroke-width:4; stroke-opacity:1; fill:none" points="
  203.964,447.71 229.749,447.71 
  "/>
<polyline clip-path="url(#clip280)" style="stroke:#000000; stroke-width:4; stroke-opacity:1; fill:none" points="
  203.964,93.4212 229.749,93.4212 
  "/>
<path clip-path="url(#clip280)" d="M 0 0 M147.061 1139.01 L165.417 1139.01 L165.417 1142.94 L151.343 1142.94 L151.343 1151.42 Q152.362 1151.07 153.38 1150.91 Q154.399 1150.72 155.417 1150.72 Q161.204 1150.72 164.584 1153.89 Q167.964 1157.06 167.964 1162.48 Q167.964 1168.06 164.491 1171.16 Q161.019 1174.24 154.7 1174.24 Q152.524 1174.24 150.255 1173.87 Q148.01 1173.5 145.603 1172.76 L145.603 1168.06 Q147.686 1169.19 149.908 1169.75 Q152.13 1170.31 154.607 1170.31 Q158.612 1170.31 160.95 1168.2 Q163.288 1166.09 163.288 1162.48 Q163.288 1158.87 160.95 1156.76 Q158.612 1154.66 154.607 1154.66 Q152.732 1154.66 150.857 1155.07 Q149.005 1155.49 147.061 1156.37 L147.061 1139.01 Z" fill="#000000" fill-rule="evenodd" fill-opacity="1" /><path clip-path="url(#clip280)" d="M 0 0 M116.668 815.345 L124.306 815.345 L124.306 788.979 L115.996 790.646 L115.996 786.386 L124.26 784.72 L128.936 784.72 L128.936 815.345 L136.575 815.345 L136.575 819.28 L116.668 819.28 L116.668 815.345 Z" fill="#000000" fill-rule="evenodd" fill-opacity="1" /><path clip-path="url(#clip280)" d="M 0 0 M156.019 787.798 Q152.408 787.798 150.579 791.363 Q148.774 794.905 148.774 802.034 Q148.774 809.141 150.579 812.706 Q152.408 816.247 156.019 816.247 Q159.653 816.247 161.459 812.706 Q163.288 809.141 163.288 802.034 Q163.288 794.905 161.459 791.363 Q159.653 787.798 156.019 787.798 M156.019 784.095 Q161.829 784.095 164.885 788.701 Q167.964 793.284 167.964 802.034 Q167.964 810.761 164.885 815.368 Q161.829 819.951 156.019 819.951 Q150.209 819.951 147.13 815.368 Q144.075 810.761 144.075 802.034 Q144.075 793.284 147.13 788.701 Q150.209 784.095 156.019 784.095 Z" fill="#000000" fill-rule="evenodd" fill-opacity="1" /><path clip-path="url(#clip280)" d="M 0 0 M117.663 461.055 L125.302 461.055 L125.302 434.69 L116.992 436.356 L116.992 432.097 L125.255 430.43 L129.931 430.43 L129.931 461.055 L137.57 461.055 L137.57 464.99 L117.663 464.99 L117.663 461.055 Z" fill="#000000" fill-rule="evenodd" fill-opacity="1" /><path clip-path="url(#clip280)" d="M 0 0 M147.061 430.43 L165.417 430.43 L165.417 434.366 L151.343 434.366 L151.343 442.838 Q152.362 442.491 153.38 442.329 Q154.399 442.143 155.417 442.143 Q161.204 442.143 164.584 445.315 Q167.964 448.486 167.964 453.903 Q167.964 459.481 164.491 462.583 Q161.019 465.662 154.7 465.662 Q152.524 465.662 150.255 465.291 Q148.01 464.921 145.603 464.18 L145.603 459.481 Q147.686 460.615 149.908 461.171 Q152.13 461.727 154.607 461.727 Q158.612 461.727 160.95 459.62 Q163.288 457.514 163.288 453.903 Q163.288 450.291 160.95 448.185 Q158.612 446.079 154.607 446.079 Q152.732 446.079 150.857 446.495 Q149.005 446.912 147.061 447.791 L147.061 430.43 Z" fill="#000000" fill-rule="evenodd" fill-opacity="1" /><path clip-path="url(#clip280)" d="M 0 0 M119.885 106.766 L136.204 106.766 L136.204 110.701 L114.26 110.701 L114.26 106.766 Q116.922 104.011 121.505 99.3818 Q126.112 94.7291 127.292 93.3865 Q129.538 90.8634 130.417 89.1273 Q131.32 87.368 131.32 85.6782 Q131.32 82.9236 129.376 81.1875 Q127.455 79.4514 124.353 79.4514 Q122.154 79.4514 119.7 80.2153 Q117.269 80.9791 114.492 82.5301 L114.492 77.8079 Q117.316 76.6736 119.769 76.0949 Q122.223 75.5162 124.26 75.5162 Q129.63 75.5162 132.825 78.2014 Q136.019 80.8866 136.019 85.3773 Q136.019 87.5069 135.209 89.4282 Q134.422 91.3263 132.316 93.9189 Q131.737 94.5902 128.635 97.8078 Q125.533 101.002 119.885 106.766 Z" fill="#000000" fill-rule="evenodd" fill-opacity="1" /><path clip-path="url(#clip280)" d="M 0 0 M156.019 79.2199 Q152.408 79.2199 150.579 82.7847 Q148.774 86.3263 148.774 93.4559 Q148.774 100.562 150.579 104.127 Q152.408 107.669 156.019 107.669 Q159.653 107.669 161.459 104.127 Q163.288 100.562 163.288 93.4559 Q163.288 86.3263 161.459 82.7847 Q159.653 79.2199 156.019 79.2199 M156.019 75.5162 Q161.829 75.5162 164.885 80.1227 Q167.964 84.706 167.964 93.4559 Q167.964 102.183 164.885 106.789 Q161.829 111.373 156.019 111.373 Q150.209 111.373 147.13 106.789 Q144.075 102.183 144.075 93.4559 Q144.075 84.706 147.13 80.1227 Q150.209 75.5162 156.019 75.5162 Z" fill="#000000" fill-rule="evenodd" fill-opacity="1" /><path clip-path="url(#clip280)" d="M 0 0 M16.4842 1116.23 L16.4842 1107.57 L56.238 1086.5 L16.4842 1086.5 L16.4842 1080.26 L64.0042 1080.26 L64.0042 1088.92 L24.2503 1109.99 L64.0042 1109.99 L64.0042 1116.23 L16.4842 1116.23 Z" fill="#000000" fill-rule="evenodd" fill-opacity="1" /><path clip-path="url(#clip280)" d="M 0 0 M44.7161 1037.23 L47.5806 1037.23 L47.5806 1064.16 Q53.6281 1063.77 56.8109 1060.53 Q59.9619 1057.25 59.9619 1051.43 Q59.9619 1048.05 59.1344 1044.9 Q58.3069 1041.72 56.6518 1038.6 L62.1899 1038.6 Q63.5267 1041.75 64.227 1045.06 Q64.9272 1048.37 64.9272 1051.78 Q64.9272 1060.31 59.9619 1065.3 Q54.9967 1070.27 46.5303 1070.27 Q37.7774 1070.27 32.6531 1065.56 Q27.4968 1060.81 27.4968 1052.79 Q27.4968 1045.6 32.1438 1041.43 Q36.7589 1037.23 44.7161 1037.23 M42.9973 1043.09 Q38.1912 1043.15 35.3266 1045.79 Q32.4621 1048.4 32.4621 1052.73 Q32.4621 1057.63 35.2312 1060.59 Q38.0002 1063.52 43.0292 1063.97 L42.9973 1043.09 Z" fill="#000000" fill-rule="evenodd" fill-opacity="1" /><path clip-path="url(#clip280)" d="M 0 0 M45.7664 1004.16 Q39.4007 1004.16 35.8996 1006.8 Q32.3984 1009.41 32.3984 1014.15 Q32.3984 1018.86 35.8996 1021.51 Q39.4007 1024.12 45.7664 1024.12 Q52.1003 1024.12 55.6014 1021.51 Q59.1026 1018.86 59.1026 1014.15 Q59.1026 1009.41 55.6014 1006.8 Q52.1003 1004.16 45.7664 1004.16 M59.58 998.304 Q68.683 998.304 73.1071 1002.35 Q77.5631 1006.39 77.5631 1014.73 Q77.5631 1017.81 77.0857 1020.55 Q76.6401 1023.29 75.6852 1025.87 L69.9879 1025.87 Q71.3884 1023.29 72.0568 1020.77 Q72.7252 1018.26 72.7252 1015.65 Q72.7252 1009.89 69.7015 1007.02 Q66.7096 1004.16 60.6303 1004.16 L57.7339 1004.16 Q60.885 1005.97 62.4446 1008.81 Q64.0042 1011.64 64.0042 1015.59 Q64.0042 1022.14 59.0071 1026.15 Q54.01 1030.16 45.7664 1030.16 Q37.491 1030.16 32.4939 1026.15 Q27.4968 1022.14 27.4968 1015.59 Q27.4968 1011.64 29.0564 1008.81 Q30.616 1005.97 33.7671 1004.16 L28.3562 1004.16 L28.3562 998.304 L59.58 998.304 Z" fill="#000000" fill-rule="evenodd" fill-opacity="1" /><path clip-path="url(#clip280)" d="M 0 0 M46.0847 970.04 Q46.0847 977.138 47.7079 979.875 Q49.3312 982.612 53.2461 982.612 Q56.3653 982.612 58.2114 980.575 Q60.0256 978.506 60.0256 974.973 Q60.0256 970.104 56.5881 967.175 Q53.1188 964.215 47.3897 964.215 L46.0847 964.215 L46.0847 970.04 M43.6657 958.359 L64.0042 958.359 L64.0042 964.215 L58.5933 964.215 Q61.8398 966.221 63.3994 969.212 Q64.9272 972.204 64.9272 976.533 Q64.9272 982.007 61.8716 985.254 Q58.7843 988.469 53.6281 988.469 Q47.6125 988.469 44.5569 984.458 Q41.5014 980.416 41.5014 972.427 L41.5014 964.215 L40.9285 964.215 Q36.8862 964.215 34.6901 966.889 Q32.4621 969.531 32.4621 974.337 Q32.4621 977.392 33.1941 980.289 Q33.9262 983.185 35.3903 985.859 L29.9795 985.859 Q28.7381 982.644 28.1334 979.62 Q27.4968 976.597 27.4968 973.732 Q27.4968 965.998 31.5072 962.178 Q35.5176 958.359 43.6657 958.359 Z" fill="#000000" fill-rule="evenodd" fill-opacity="1" /><path clip-path="url(#clip280)" d="M 0 0 M18.2347 940.503 L28.3562 940.503 L28.3562 928.44 L32.9077 928.44 L32.9077 940.503 L52.2594 940.503 Q56.6199 940.503 57.8613 939.325 Q59.1026 938.116 59.1026 934.456 L59.1026 928.44 L64.0042 928.44 L64.0042 934.456 Q64.0042 941.235 61.4897 943.813 Q58.9434 946.391 52.2594 946.391 L32.9077 946.391 L32.9077 950.688 L28.3562 950.688 L28.3562 946.391 L18.2347 946.391 L18.2347 940.503 Z" fill="#000000" fill-rule="evenodd" fill-opacity="1" /><path clip-path="url(#clip280)" d="M 0 0 M28.3562 920.738 L28.3562 914.881 L64.0042 914.881 L64.0042 920.738 L28.3562 920.738 M14.479 920.738 L14.479 914.881 L21.895 914.881 L21.895 920.738 L14.479 920.738 Z" fill="#000000" fill-rule="evenodd" fill-opacity="1" /><path clip-path="url(#clip280)" d="M 0 0 M28.3562 906.828 L28.3562 900.622 L58.275 889.482 L28.3562 878.342 L28.3562 872.135 L64.0042 885.503 L64.0042 893.46 L28.3562 906.828 Z" fill="#000000" fill-rule="evenodd" fill-opacity="1" /><path clip-path="url(#clip280)" d="M 0 0 M44.7161 833.559 L47.5806 833.559 L47.5806 860.486 Q53.6281 860.104 56.8109 856.858 Q59.9619 853.579 59.9619 847.755 Q59.9619 844.381 59.1344 841.23 Q58.3069 838.047 56.6518 834.928 L62.1899 834.928 Q63.5267 838.079 64.227 841.389 Q64.9272 844.699 64.9272 848.105 Q64.9272 856.635 59.9619 861.632 Q54.9967 866.597 46.5303 866.597 Q37.7774 866.597 32.6531 861.887 Q27.4968 857.144 27.4968 849.123 Q27.4968 841.93 32.1438 837.761 Q36.7589 833.559 44.7161 833.559 M42.9973 839.416 Q38.1912 839.479 35.3266 842.121 Q32.4621 844.731 32.4621 849.06 Q32.4621 853.961 35.2312 856.921 Q38.0002 859.85 43.0292 860.295 L42.9973 839.416 Z" fill="#000000" fill-rule="evenodd" fill-opacity="1" /><path clip-path="url(#clip280)" d="M 0 0 M14.479 803.227 L14.479 797.37 L64.0042 797.37 L64.0042 803.227 L14.479 803.227 Z" fill="#000000" fill-rule="evenodd" fill-opacity="1" /><path clip-path="url(#clip280)" d="M 0 0 M32.4621 771.303 Q32.4621 776.013 36.1542 778.75 Q39.8145 781.488 46.212 781.488 Q52.6095 781.488 56.3017 778.782 Q59.9619 776.045 59.9619 771.303 Q59.9619 766.624 56.2698 763.887 Q52.5777 761.149 46.212 761.149 Q39.8781 761.149 36.186 763.887 Q32.4621 766.624 32.4621 771.303 M27.4968 771.303 Q27.4968 763.664 32.4621 759.303 Q37.4273 754.943 46.212 754.943 Q54.9649 754.943 59.9619 759.303 Q64.9272 763.664 64.9272 771.303 Q64.9272 778.973 59.9619 783.334 Q54.9649 787.662 46.212 787.662 Q37.4273 787.662 32.4621 783.334 Q27.4968 778.973 27.4968 771.303 Z" fill="#000000" fill-rule="evenodd" fill-opacity="1" /><path clip-path="url(#clip280)" d="M 0 0 M45.7664 721.777 Q39.4007 721.777 35.8996 724.419 Q32.3984 727.029 32.3984 731.772 Q32.3984 736.482 35.8996 739.124 Q39.4007 741.734 45.7664 741.734 Q52.1003 741.734 55.6014 739.124 Q59.1026 736.482 59.1026 731.772 Q59.1026 727.029 55.6014 724.419 Q52.1003 721.777 45.7664 721.777 M59.58 715.921 Q68.683 715.921 73.1071 719.963 Q77.5631 724.005 77.5631 732.344 Q77.5631 735.432 77.0857 738.169 Q76.6401 740.906 75.6852 743.484 L69.9879 743.484 Q71.3884 740.906 72.0568 738.392 Q72.7252 735.877 72.7252 733.267 Q72.7252 727.507 69.7015 724.642 Q66.7096 721.777 60.6303 721.777 L57.7339 721.777 Q60.885 723.592 62.4446 726.424 Q64.0042 729.257 64.0042 733.204 Q64.0042 739.761 59.0071 743.771 Q54.01 747.781 45.7664 747.781 Q37.491 747.781 32.4939 743.771 Q27.4968 739.761 27.4968 733.204 Q27.4968 729.257 29.0564 726.424 Q30.616 723.592 33.7671 721.777 L28.3562 721.777 L28.3562 715.921 L59.58 715.921 Z" fill="#000000" fill-rule="evenodd" fill-opacity="1" /><path clip-path="url(#clip280)" d="M 0 0 M43.5384 706.818 L43.5384 689.662 L48.7583 689.662 L48.7583 706.818 L43.5384 706.818 Z" fill="#000000" fill-rule="evenodd" fill-opacity="1" /><path clip-path="url(#clip280)" d="M 0 0 M14.479 680.337 L14.479 674.48 L64.0042 674.48 L64.0042 680.337 L14.479 680.337 Z" fill="#000000" fill-rule="evenodd" fill-opacity="1" /><path clip-path="url(#clip280)" d="M 0 0 M28.3562 662.226 L28.3562 656.37 L64.0042 656.37 L64.0042 662.226 L28.3562 662.226 M14.479 662.226 L14.479 656.37 L21.895 656.37 L21.895 662.226 L14.479 662.226 Z" fill="#000000" fill-rule="evenodd" fill-opacity="1" /><path clip-path="url(#clip280)" d="M 0 0 M14.479 644.339 L14.479 638.45 L43.7294 638.45 L28.3562 620.976 L28.3562 613.497 L45.0344 632.403 L64.0042 612.701 L64.0042 620.34 L46.5939 638.45 L64.0042 638.45 L64.0042 644.339 L14.479 644.339 Z" fill="#000000" fill-rule="evenodd" fill-opacity="1" /><path clip-path="url(#clip280)" d="M 0 0 M44.7161 578.199 L47.5806 578.199 L47.5806 605.126 Q53.6281 604.744 56.8109 601.497 Q59.9619 598.219 59.9619 592.394 Q59.9619 589.021 59.1344 585.87 Q58.3069 582.687 56.6518 579.567 L62.1899 579.567 Q63.5267 582.719 64.227 586.029 Q64.9272 589.339 64.9272 592.745 Q64.9272 601.275 59.9619 606.272 Q54.9967 611.237 46.5303 611.237 Q37.7774 611.237 32.6531 606.526 Q27.4968 601.784 27.4968 593.763 Q27.4968 586.57 32.1438 582.4 Q36.7589 578.199 44.7161 578.199 M42.9973 584.055 Q38.1912 584.119 35.3266 586.761 Q32.4621 589.371 32.4621 593.699 Q32.4621 598.601 35.2312 601.561 Q38.0002 604.489 43.0292 604.935 L42.9973 584.055 Z" fill="#000000" fill-rule="evenodd" fill-opacity="1" /><path clip-path="url(#clip280)" d="M 0 0 M14.479 568.587 L14.479 562.73 L64.0042 562.73 L64.0042 568.587 L14.479 568.587 Z" fill="#000000" fill-rule="evenodd" fill-opacity="1" /><path clip-path="url(#clip280)" d="M 0 0 M28.3562 550.476 L28.3562 544.62 L64.0042 544.62 L64.0042 550.476 L28.3562 550.476 M14.479 550.476 L14.479 544.62 L21.895 544.62 L21.895 550.476 L14.479 550.476 Z" fill="#000000" fill-rule="evenodd" fill-opacity="1" /><path clip-path="url(#clip280)" d="M 0 0 M42.4881 502.733 L64.0042 502.733 L64.0042 508.59 L42.679 508.59 Q37.6183 508.59 35.1038 510.563 Q32.5894 512.537 32.5894 516.483 Q32.5894 521.226 35.6131 523.963 Q38.6368 526.7 43.8567 526.7 L64.0042 526.7 L64.0042 532.589 L14.479 532.589 L14.479 526.7 L33.8944 526.7 Q30.6797 524.6 29.0883 521.767 Q27.4968 518.902 27.4968 515.178 Q27.4968 509.035 31.3163 505.884 Q35.1038 502.733 42.4881 502.733 Z" fill="#000000" fill-rule="evenodd" fill-opacity="1" /><path clip-path="url(#clip280)" d="M 0 0 M32.4621 477.239 Q32.4621 481.949 36.1542 484.687 Q39.8145 487.424 46.212 487.424 Q52.6095 487.424 56.3017 484.718 Q59.9619 481.981 59.9619 477.239 Q59.9619 472.56 56.2698 469.823 Q52.5777 467.085 46.212 467.085 Q39.8781 467.085 36.186 469.823 Q32.4621 472.56 32.4621 477.239 M27.4968 477.239 Q27.4968 469.6 32.4621 465.239 Q37.4273 460.879 46.212 460.879 Q54.9649 460.879 59.9619 465.239 Q64.9272 469.6 64.9272 477.239 Q64.9272 484.909 59.9619 489.27 Q54.9649 493.599 46.212 493.599 Q37.4273 493.599 32.4621 489.27 Q27.4968 484.909 27.4968 477.239 Z" fill="#000000" fill-rule="evenodd" fill-opacity="1" /><path clip-path="url(#clip280)" d="M 0 0 M32.4621 437.358 Q32.4621 442.068 36.1542 444.805 Q39.8145 447.543 46.212 447.543 Q52.6095 447.543 56.3017 444.837 Q59.9619 442.1 59.9619 437.358 Q59.9619 432.679 56.2698 429.942 Q52.5777 427.204 46.212 427.204 Q39.8781 427.204 36.186 429.942 Q32.4621 432.679 32.4621 437.358 M27.4968 437.358 Q27.4968 429.719 32.4621 425.358 Q37.4273 420.998 46.212 420.998 Q54.9649 420.998 59.9619 425.358 Q64.9272 429.719 64.9272 437.358 Q64.9272 445.028 59.9619 449.389 Q54.9649 453.717 46.212 453.717 Q37.4273 453.717 32.4621 449.389 Q27.4968 445.028 27.4968 437.358 Z" fill="#000000" fill-rule="evenodd" fill-opacity="1" /><path clip-path="url(#clip280)" d="M 0 0 M33.7671 387.832 L14.479 387.832 L14.479 381.976 L64.0042 381.976 L64.0042 387.832 L58.657 387.832 Q61.8398 389.678 63.3994 392.511 Q64.9272 395.312 64.9272 399.259 Q64.9272 405.72 59.771 409.794 Q54.6147 413.836 46.212 413.836 Q37.8093 413.836 32.6531 409.794 Q27.4968 405.72 27.4968 399.259 Q27.4968 395.312 29.0564 392.511 Q30.5842 389.678 33.7671 387.832 M46.212 407.789 Q52.6732 407.789 56.3653 405.147 Q60.0256 402.474 60.0256 397.827 Q60.0256 393.18 56.3653 390.506 Q52.6732 387.832 46.212 387.832 Q39.7508 387.832 36.0905 390.506 Q32.3984 393.18 32.3984 397.827 Q32.3984 402.474 36.0905 405.147 Q39.7508 407.789 46.212 407.789 Z" fill="#000000" fill-rule="evenodd" fill-opacity="1" /><polyline clip-path="url(#clip282)" style="stroke:#009af9; stroke-width:8; stroke-opacity:1; fill:none" points="
  467.495,1265 508.038,1342.85 548.581,1382.5 589.124,1402.89 629.668,1411.23 670.211,1411.23 710.754,1405.07 751.297,1394.14 791.841,1379.43 832.384,1361.62 
  872.927,1341.24 913.47,1318.67 954.014,1294.24 994.557,1268.18 1035.1,1240.71 1075.64,1211.98 1116.19,1182.13 1156.73,1151.28 1197.27,1119.54 1237.82,1086.98 
  1278.36,1053.67 1318.9,1019.69 1359.45,985.089 1399.99,949.912 1440.53,914.207 1481.08,878.011 1521.62,841.359 1562.16,804.283 1602.71,766.81 1643.25,728.966 
  1683.79,690.774 1724.34,652.254 1764.88,613.427 1805.42,574.308 1845.97,534.915 1886.51,495.262 1927.05,455.362 1967.6,415.229 2008.14,374.873 2048.68,334.306 
  2089.22,293.536 2129.77,252.575 2170.31,211.43 2210.85,170.11 2251.4,128.621 2291.94,86.9719 
  "/>
<circle clip-path="url(#clip282)" cx="467.495" cy="1265" r="14" fill="#009af9" fill-rule="evenodd" fill-opacity="1" stroke="#000000" stroke-opacity="1" stroke-width="3.2"/>
<circle clip-path="url(#clip282)" cx="508.038" cy="1342.85" r="14" fill="#009af9" fill-rule="evenodd" fill-opacity="1" stroke="#000000" stroke-opacity="1" stroke-width="3.2"/>
<circle clip-path="url(#clip282)" cx="548.581" cy="1382.5" r="14" fill="#009af9" fill-rule="evenodd" fill-opacity="1" stroke="#000000" stroke-opacity="1" stroke-width="3.2"/>
<circle clip-path="url(#clip282)" cx="589.124" cy="1402.89" r="14" fill="#009af9" fill-rule="evenodd" fill-opacity="1" stroke="#000000" stroke-opacity="1" stroke-width="3.2"/>
<circle clip-path="url(#clip282)" cx="629.668" cy="1411.23" r="14" fill="#009af9" fill-rule="evenodd" fill-opacity="1" stroke="#000000" stroke-opacity="1" stroke-width="3.2"/>
<circle clip-path="url(#clip282)" cx="670.211" cy="1411.23" r="14" fill="#009af9" fill-rule="evenodd" fill-opacity="1" stroke="#000000" stroke-opacity="1" stroke-width="3.2"/>
<circle clip-path="url(#clip282)" cx="710.754" cy="1405.07" r="14" fill="#009af9" fill-rule="evenodd" fill-opacity="1" stroke="#000000" stroke-opacity="1" stroke-width="3.2"/>
<circle clip-path="url(#clip282)" cx="751.297" cy="1394.14" r="14" fill="#009af9" fill-rule="evenodd" fill-opacity="1" stroke="#000000" stroke-opacity="1" stroke-width="3.2"/>
<circle clip-path="url(#clip282)" cx="791.841" cy="1379.43" r="14" fill="#009af9" fill-rule="evenodd" fill-opacity="1" stroke="#000000" stroke-opacity="1" stroke-width="3.2"/>
<circle clip-path="url(#clip282)" cx="832.384" cy="1361.62" r="14" fill="#009af9" fill-rule="evenodd" fill-opacity="1" stroke="#000000" stroke-opacity="1" stroke-width="3.2"/>
<circle clip-path="url(#clip282)" cx="872.927" cy="1341.24" r="14" fill="#009af9" fill-rule="evenodd" fill-opacity="1" stroke="#000000" stroke-opacity="1" stroke-width="3.2"/>
<circle clip-path="url(#clip282)" cx="913.47" cy="1318.67" r="14" fill="#009af9" fill-rule="evenodd" fill-opacity="1" stroke="#000000" stroke-opacity="1" stroke-width="3.2"/>
<circle clip-path="url(#clip282)" cx="954.014" cy="1294.24" r="14" fill="#009af9" fill-rule="evenodd" fill-opacity="1" stroke="#000000" stroke-opacity="1" stroke-width="3.2"/>
<circle clip-path="url(#clip282)" cx="994.557" cy="1268.18" r="14" fill="#009af9" fill-rule="evenodd" fill-opacity="1" stroke="#000000" stroke-opacity="1" stroke-width="3.2"/>
<circle clip-path="url(#clip282)" cx="1035.1" cy="1240.71" r="14" fill="#009af9" fill-rule="evenodd" fill-opacity="1" stroke="#000000" stroke-opacity="1" stroke-width="3.2"/>
<circle clip-path="url(#clip282)" cx="1075.64" cy="1211.98" r="14" fill="#009af9" fill-rule="evenodd" fill-opacity="1" stroke="#000000" stroke-opacity="1" stroke-width="3.2"/>
<circle clip-path="url(#clip282)" cx="1116.19" cy="1182.13" r="14" fill="#009af9" fill-rule="evenodd" fill-opacity="1" stroke="#000000" stroke-opacity="1" stroke-width="3.2"/>
<circle clip-path="url(#clip282)" cx="1156.73" cy="1151.28" r="14" fill="#009af9" fill-rule="evenodd" fill-opacity="1" stroke="#000000" stroke-opacity="1" stroke-width="3.2"/>
<circle clip-path="url(#clip282)" cx="1197.27" cy="1119.54" r="14" fill="#009af9" fill-rule="evenodd" fill-opacity="1" stroke="#000000" stroke-opacity="1" stroke-width="3.2"/>
<circle clip-path="url(#clip282)" cx="1237.82" cy="1086.98" r="14" fill="#009af9" fill-rule="evenodd" fill-opacity="1" stroke="#000000" stroke-opacity="1" stroke-width="3.2"/>
<circle clip-path="url(#clip282)" cx="1278.36" cy="1053.67" r="14" fill="#009af9" fill-rule="evenodd" fill-opacity="1" stroke="#000000" stroke-opacity="1" stroke-width="3.2"/>
<circle clip-path="url(#clip282)" cx="1318.9" cy="1019.69" r="14" fill="#009af9" fill-rule="evenodd" fill-opacity="1" stroke="#000000" stroke-opacity="1" stroke-width="3.2"/>
<circle clip-path="url(#clip282)" cx="1359.45" cy="985.089" r="14" fill="#009af9" fill-rule="evenodd" fill-opacity="1" stroke="#000000" stroke-opacity="1" stroke-width="3.2"/>
<circle clip-path="url(#clip282)" cx="1399.99" cy="949.912" r="14" fill="#009af9" fill-rule="evenodd" fill-opacity="1" stroke="#000000" stroke-opacity="1" stroke-width="3.2"/>
<circle clip-path="url(#clip282)" cx="1440.53" cy="914.207" r="14" fill="#009af9" fill-rule="evenodd" fill-opacity="1" stroke="#000000" stroke-opacity="1" stroke-width="3.2"/>
<circle clip-path="url(#clip282)" cx="1481.08" cy="878.011" r="14" fill="#009af9" fill-rule="evenodd" fill-opacity="1" stroke="#000000" stroke-opacity="1" stroke-width="3.2"/>
<circle clip-path="url(#clip282)" cx="1521.62" cy="841.359" r="14" fill="#009af9" fill-rule="evenodd" fill-opacity="1" stroke="#000000" stroke-opacity="1" stroke-width="3.2"/>
<circle clip-path="url(#clip282)" cx="1562.16" cy="804.283" r="14" fill="#009af9" fill-rule="evenodd" fill-opacity="1" stroke="#000000" stroke-opacity="1" stroke-width="3.2"/>
<circle clip-path="url(#clip282)" cx="1602.71" cy="766.81" r="14" fill="#009af9" fill-rule="evenodd" fill-opacity="1" stroke="#000000" stroke-opacity="1" stroke-width="3.2"/>
<circle clip-path="url(#clip282)" cx="1643.25" cy="728.966" r="14" fill="#009af9" fill-rule="evenodd" fill-opacity="1" stroke="#000000" stroke-opacity="1" stroke-width="3.2"/>
<circle clip-path="url(#clip282)" cx="1683.79" cy="690.774" r="14" fill="#009af9" fill-rule="evenodd" fill-opacity="1" stroke="#000000" stroke-opacity="1" stroke-width="3.2"/>
<circle clip-path="url(#clip282)" cx="1724.34" cy="652.254" r="14" fill="#009af9" fill-rule="evenodd" fill-opacity="1" stroke="#000000" stroke-opacity="1" stroke-width="3.2"/>
<circle clip-path="url(#clip282)" cx="1764.88" cy="613.427" r="14" fill="#009af9" fill-rule="evenodd" fill-opacity="1" stroke="#000000" stroke-opacity="1" stroke-width="3.2"/>
<circle clip-path="url(#clip282)" cx="1805.42" cy="574.308" r="14" fill="#009af9" fill-rule="evenodd" fill-opacity="1" stroke="#000000" stroke-opacity="1" stroke-width="3.2"/>
<circle clip-path="url(#clip282)" cx="1845.97" cy="534.915" r="14" fill="#009af9" fill-rule="evenodd" fill-opacity="1" stroke="#000000" stroke-opacity="1" stroke-width="3.2"/>
<circle clip-path="url(#clip282)" cx="1886.51" cy="495.262" r="14" fill="#009af9" fill-rule="evenodd" fill-opacity="1" stroke="#000000" stroke-opacity="1" stroke-width="3.2"/>
<circle clip-path="url(#clip282)" cx="1927.05" cy="455.362" r="14" fill="#009af9" fill-rule="evenodd" fill-opacity="1" stroke="#000000" stroke-opacity="1" stroke-width="3.2"/>
<circle clip-path="url(#clip282)" cx="1967.6" cy="415.229" r="14" fill="#009af9" fill-rule="evenodd" fill-opacity="1" stroke="#000000" stroke-opacity="1" stroke-width="3.2"/>
<circle clip-path="url(#clip282)" cx="2008.14" cy="374.873" r="14" fill="#009af9" fill-rule="evenodd" fill-opacity="1" stroke="#000000" stroke-opacity="1" stroke-width="3.2"/>
<circle clip-path="url(#clip282)" cx="2048.68" cy="334.306" r="14" fill="#009af9" fill-rule="evenodd" fill-opacity="1" stroke="#000000" stroke-opacity="1" stroke-width="3.2"/>
<circle clip-path="url(#clip282)" cx="2089.22" cy="293.536" r="14" fill="#009af9" fill-rule="evenodd" fill-opacity="1" stroke="#000000" stroke-opacity="1" stroke-width="3.2"/>
<circle clip-path="url(#clip282)" cx="2129.77" cy="252.575" r="14" fill="#009af9" fill-rule="evenodd" fill-opacity="1" stroke="#000000" stroke-opacity="1" stroke-width="3.2"/>
<circle clip-path="url(#clip282)" cx="2170.31" cy="211.43" r="14" fill="#009af9" fill-rule="evenodd" fill-opacity="1" stroke="#000000" stroke-opacity="1" stroke-width="3.2"/>
<circle clip-path="url(#clip282)" cx="2210.85" cy="170.11" r="14" fill="#009af9" fill-rule="evenodd" fill-opacity="1" stroke="#000000" stroke-opacity="1" stroke-width="3.2"/>
<circle clip-path="url(#clip282)" cx="2251.4" cy="128.621" r="14" fill="#009af9" fill-rule="evenodd" fill-opacity="1" stroke="#000000" stroke-opacity="1" stroke-width="3.2"/>
<circle clip-path="url(#clip282)" cx="2291.94" cy="86.9719" r="14" fill="#009af9" fill-rule="evenodd" fill-opacity="1" stroke="#000000" stroke-opacity="1" stroke-width="3.2"/>
<path clip-path="url(#clip280)" d="
M275.59 275.475 L1216.93 275.475 L1216.93 94.0346 L275.59 94.0346  Z
  " fill="#ffffff" fill-rule="evenodd" fill-opacity="1"/>
<polyline clip-path="url(#clip280)" style="stroke:#000000; stroke-width:4; stroke-opacity:1; fill:none" points="
  275.59,275.475 1216.93,275.475 1216.93,94.0346 275.59,94.0346 275.59,275.475 
  "/>
<polyline clip-path="url(#clip280)" style="stroke:#009af9; stroke-width:6; stroke-opacity:1; fill:none" points="
  299.465,184.755 442.718,184.755 
  "/>
<path clip-path="url(#clip280)" d="M 0 0 M514.094 183.568 Q514.516 183.989 514.516 184.587 Q514.516 185.184 514.094 185.605 Q513.673 186.027 513.076 186.027 L468.034 186.027 Q467.437 186.027 467.015 185.605 Q466.594 185.184 466.594 184.587 Q466.594 183.989 467.015 183.568 Q467.437 183.146 468.034 183.146 L513.076 183.146 Q513.673 183.146 514.094 183.568 Z" fill="#000000" fill-rule="evenodd" fill-opacity="1" /><path clip-path="url(#clip280)" d="M 0 0 M522.026 202.575 L522.026 200.362 Q525.856 200.362 526.734 199.905 Q527.613 199.413 527.613 197.094 L527.613 159.677 Q527.613 157.007 526.664 156.339 Q525.751 155.672 522.026 155.672 L522.026 153.423 L532.356 152.65 L532.356 197.094 Q532.356 199.413 533.269 199.905 Q534.183 200.362 537.977 200.362 L537.977 202.575 Q537.099 202.575 535.272 202.505 Q533.445 202.434 532.11 202.399 Q530.775 202.364 530.002 202.364 Q529.159 202.364 522.026 202.575 Z" fill="#000000" fill-rule="evenodd" fill-opacity="1" /><path clip-path="url(#clip280)" d="M 0 0 M546.5 198.71 Q541.757 194.002 541.757 187.186 Q541.757 180.335 546.394 175.346 Q551.067 170.322 557.743 170.322 Q564.277 170.322 568.95 175.311 Q573.658 180.265 573.658 187.186 Q573.658 193.967 568.915 198.675 Q564.207 203.383 557.672 203.383 Q551.278 203.383 546.5 198.71 M547.729 186.589 Q547.729 193.581 549.556 196.743 Q552.367 201.556 557.743 201.556 Q560.413 201.556 562.626 200.116 Q564.875 198.675 566.104 196.251 Q567.685 193.089 567.685 186.589 Q567.685 179.668 565.788 176.611 Q562.977 171.938 557.672 171.938 Q555.353 171.938 553.07 173.168 Q550.821 174.363 549.451 176.752 Q547.729 179.914 547.729 186.589 Z" fill="#000000" fill-rule="evenodd" fill-opacity="1" /><path clip-path="url(#clip280)" d="M 0 0 M577.39 208.267 Q577.39 205.948 579.146 203.945 Q580.938 201.943 584.03 201.064 Q580.868 199.062 580.868 194.67 Q580.868 191.297 583.081 188.697 Q579.708 185.886 579.708 181.284 Q579.708 177.033 583.081 173.906 Q586.454 170.779 591.373 170.779 Q595.694 170.779 598.997 173.379 Q602.44 170.006 606.621 169.971 Q608.483 169.971 609.361 171.13 Q610.275 172.29 610.275 173.519 Q610.275 174.609 609.572 175.136 Q608.904 175.663 608.202 175.663 Q607.323 175.663 606.691 175.1 Q606.094 174.503 606.094 173.59 Q606.094 172.079 607.253 171.622 Q607.042 171.552 606.55 171.552 Q603.037 171.552 600.051 174.363 Q603.002 177.103 603.002 181.354 Q603.002 185.605 599.629 188.732 Q596.256 191.859 591.373 191.859 Q587.332 191.859 584.241 189.611 Q583.011 191.051 583.011 193.019 Q583.011 194.81 584.1 196.216 Q585.189 197.621 586.84 197.832 Q587.332 197.902 592.216 197.902 Q595.097 197.902 596.678 197.972 Q598.259 198.043 600.507 198.535 Q602.791 198.991 604.583 199.905 Q609.256 202.505 609.291 208.126 Q609.291 212.237 604.548 214.801 Q599.84 217.401 593.305 217.401 Q586.7 217.401 582.027 214.766 Q577.39 212.166 577.39 208.267 M581.149 208.267 Q581.149 211.218 584.627 213.466 Q588.105 215.75 593.375 215.75 Q598.54 215.75 602.018 213.502 Q605.532 211.288 605.532 208.267 Q605.532 206.123 604.302 204.753 Q603.072 203.383 600.543 202.821 Q598.048 202.294 596.291 202.188 Q594.535 202.083 591.302 202.083 L587.051 202.083 Q584.592 202.224 582.87 204.015 Q581.149 205.807 581.149 208.267 M585.084 181.354 Q585.084 190.208 591.373 190.208 Q594.535 190.208 596.467 187.327 Q597.627 185.395 597.627 181.284 Q597.627 172.43 591.373 172.43 Q588.211 172.43 586.243 175.311 Q585.084 177.244 585.084 181.354 Z" fill="#000000" fill-rule="evenodd" fill-opacity="1" /><path clip-path="url(#clip280)" d="M 0 0 M650.615 182.268 Q650.615 187.397 648.015 192.351 Q645.451 197.305 641.41 200.362 Q637.37 203.383 633.259 203.383 Q630.8 203.383 629.149 202.048 Q627.533 200.678 626.654 198.745 Q625.987 201.134 624.546 206.861 Q623.106 212.588 623.106 213.15 Q623.106 213.466 623.176 213.607 Q623.246 213.747 623.562 213.923 Q623.879 214.134 624.652 214.204 Q625.425 214.31 626.724 214.31 Q627.392 214.31 627.638 214.31 Q627.919 214.345 628.165 214.52 Q628.446 214.696 628.446 215.083 Q628.446 216.523 627.146 216.523 Q625.987 216.523 623.598 216.418 Q621.208 216.312 620.014 216.312 Q618.995 216.312 616.957 216.418 Q614.92 216.523 613.971 216.523 Q613.022 216.523 613.022 215.68 Q613.022 215.188 613.163 214.872 Q613.268 214.591 613.549 214.45 Q613.83 214.345 614.076 214.31 Q614.287 214.31 614.709 214.31 Q616.325 214.31 617.028 214.029 Q617.73 213.783 617.976 213.256 Q618.257 212.764 618.573 211.358 L626.654 179.316 Q627.146 177.173 627.146 175.663 Q627.146 173.765 626.549 173.063 Q625.952 172.36 624.898 172.36 Q623.071 172.36 621.876 174.538 Q620.681 176.717 619.663 180.933 Q619.346 182.092 619.136 182.338 Q618.96 182.584 618.433 182.584 Q617.555 182.549 617.555 181.846 Q617.555 181.67 617.836 180.546 Q618.117 179.387 618.644 177.7 Q619.206 175.979 619.803 174.89 Q620.154 174.152 620.471 173.66 Q620.787 173.168 621.419 172.395 Q622.087 171.622 623.035 171.201 Q623.984 170.779 625.143 170.779 Q627.392 170.779 629.254 172.114 Q631.116 173.449 631.608 176.154 Q633.611 173.8 636.07 172.29 Q638.529 170.779 641.024 170.779 Q645.17 170.779 647.875 174.011 Q650.615 177.208 650.615 182.268 M645.416 179.106 Q645.416 175.908 644.186 174.152 Q642.991 172.36 640.813 172.36 Q638.108 172.36 634.981 175.1 Q631.889 177.7 631.257 180.125 L627.708 194.213 L627.497 195.373 Q627.497 195.583 627.603 196.216 Q627.743 196.813 628.13 197.797 Q628.551 198.781 629.114 199.659 Q629.711 200.502 630.765 201.134 Q631.854 201.767 633.189 201.767 Q635.332 201.767 637.651 199.87 Q640.005 197.972 641.762 194.389 Q642.851 192.07 644.116 187.081 Q645.416 182.057 645.416 179.106 Z" fill="#000000" fill-rule="evenodd" fill-opacity="1" /><path clip-path="url(#clip280)" d="M 0 0 M648.864 184.587 Q648.864 172.43 653.396 162.628 Q655.329 158.517 658.034 155.074 Q660.739 151.631 662.531 150.12 Q664.323 148.61 664.815 148.61 Q665.517 148.61 665.552 149.312 Q665.552 149.664 664.604 150.542 Q653.01 162.347 653.045 184.587 Q653.045 206.896 664.323 218.245 Q665.552 219.474 665.552 219.861 Q665.552 220.563 664.815 220.563 Q664.323 220.563 662.601 219.123 Q660.88 217.682 658.209 214.38 Q655.539 211.077 653.607 207.037 Q648.864 197.235 648.864 184.587 Z" fill="#000000" fill-rule="evenodd" fill-opacity="1" /><path clip-path="url(#clip280)" d="M 0 0 M709.695 173.519 Q709.695 174.011 709.378 175.171 L702.492 202.645 Q700.981 208.758 696.063 213.045 Q691.179 217.331 685.628 217.331 Q682.29 217.331 680.147 215.539 Q678.004 213.783 678.004 211.077 Q678.004 208.688 679.269 207.529 Q680.534 206.405 682.044 206.405 Q682.536 206.405 683.063 206.545 Q683.59 206.686 684.152 207.283 Q684.715 207.88 684.715 208.899 Q684.715 210.55 683.274 211.85 Q682.571 212.448 681.904 212.588 Q681.271 212.729 680.182 212.729 Q680.604 213.712 681.377 214.38 Q682.15 215.047 683.028 215.293 Q683.906 215.574 684.469 215.645 Q685.066 215.75 685.628 215.75 Q690.125 215.75 693.568 211.218 Q694.587 209.848 695.325 208.477 Q696.098 207.142 696.66 205.491 Q697.222 203.875 697.468 202.997 Q697.749 202.118 698.241 200.116 Q694.974 203.383 690.968 203.383 Q689.282 203.383 687.771 202.926 Q686.296 202.47 684.996 201.521 Q683.696 200.537 682.923 198.816 Q682.185 197.094 682.185 194.81 Q682.185 192.386 683.134 189.084 Q684.082 185.781 686.366 179.703 Q687.596 176.295 687.596 174.644 Q687.596 173.836 687.42 173.344 Q687.244 172.817 686.893 172.641 Q686.541 172.43 686.331 172.395 Q686.155 172.36 685.804 172.36 Q683.731 172.36 681.798 174.468 Q679.866 176.576 678.531 181.284 Q678.25 182.162 678.074 182.373 Q677.899 182.584 677.372 182.584 Q676.493 182.549 676.493 181.846 Q676.493 181.565 676.809 180.476 Q677.126 179.352 677.863 177.7 Q678.636 176.014 679.69 174.503 Q680.744 172.957 682.396 171.868 Q684.082 170.779 686.014 170.779 Q688.65 170.779 690.266 172.501 Q691.917 174.187 691.917 176.681 Q691.917 177.7 691.636 178.614 Q691.39 179.492 690.476 181.846 Q686.787 191.332 686.787 195.97 Q686.787 197.094 686.963 198.043 Q687.174 198.956 687.631 199.87 Q688.087 200.748 689.001 201.275 Q689.949 201.767 691.249 201.767 Q692.901 201.767 694.447 200.994 Q696.028 200.186 697.011 199.097 Q698.03 198.008 698.627 197.094 Q699.26 196.145 699.4 195.654 L702.633 182.724 L704.073 176.963 Q704.741 173.836 705.057 173.063 Q705.479 172.325 706.216 171.938 Q706.954 171.552 707.587 171.552 Q708.465 171.552 709.062 172.079 Q709.695 172.606 709.695 173.519 Z" fill="#000000" fill-rule="evenodd" fill-opacity="1" /><path clip-path="url(#clip280)" d="M 0 0 M731.357 191.648 Q731.427 190.77 732.797 190.77 L776.89 190.77 Q778.963 190.77 778.998 191.578 Q778.998 192.456 777.031 192.421 L733.289 192.421 Q731.357 192.456 731.357 191.648 M731.357 177.595 Q731.357 176.717 732.868 176.752 L776.82 176.752 Q778.963 176.752 778.998 177.595 Q778.998 178.403 777.171 178.403 L732.797 178.403 Q731.357 178.403 731.357 177.595 Z" fill="#000000" fill-rule="evenodd" fill-opacity="1" /><path clip-path="url(#clip280)" d="M 0 0 M806.751 190.981 Q806.751 188.838 807.911 188.03 Q809.07 187.186 810.3 187.186 Q811.951 187.186 812.9 188.24 Q813.883 189.259 813.883 190.7 Q813.883 192.14 812.9 193.194 Q811.951 194.213 810.3 194.213 Q809.492 194.213 809.07 194.073 Q810.019 197.375 812.9 199.764 Q815.816 202.153 819.645 202.153 Q824.459 202.153 827.34 197.481 Q829.061 194.459 829.061 187.608 Q829.061 181.565 827.761 178.544 Q825.759 173.941 821.648 173.941 Q815.816 173.941 812.373 178.965 Q811.951 179.598 811.459 179.633 Q810.756 179.633 810.581 179.246 Q810.44 178.825 810.44 177.735 L810.44 156.444 Q810.44 154.723 811.143 154.723 Q811.424 154.723 812.021 154.934 Q816.553 156.936 821.578 156.971 Q826.742 156.971 831.38 154.863 Q831.731 154.653 831.942 154.653 Q832.645 154.653 832.68 155.461 Q832.68 155.742 832.083 156.585 Q831.52 157.393 830.291 158.482 Q829.061 159.536 827.48 160.555 Q825.899 161.574 823.58 162.277 Q821.297 162.944 818.767 162.944 Q815.745 162.944 812.654 161.996 L812.654 176.014 Q816.378 172.36 821.788 172.36 Q827.55 172.36 831.52 176.998 Q835.491 181.635 835.491 188.1 Q835.491 194.881 830.783 199.518 Q826.11 204.156 819.786 204.156 Q814.024 204.156 810.37 200.045 Q806.751 195.935 806.751 190.981 Z" fill="#000000" fill-rule="evenodd" fill-opacity="1" /><path clip-path="url(#clip280)" d="M 0 0 M842.384 218.35 L842.384 151.35 Q842.384 148.68 843.824 148.68 Q845.265 148.68 845.265 150.823 L845.265 217.823 Q845.265 220.493 843.824 220.493 Q842.384 220.493 842.384 218.35 Z" fill="#000000" fill-rule="evenodd" fill-opacity="1" /><path clip-path="url(#clip280)" d="M 0 0 M901.807 166.598 Q901.807 172.501 899.91 179.141 Q898.048 185.746 895.096 191.086 Q892.145 196.391 888.28 199.905 Q884.416 203.383 880.727 203.383 Q878.373 203.383 876.616 202.083 Q874.895 200.748 873.946 198.535 Q872.997 196.286 872.541 193.827 Q872.084 191.332 872.084 188.627 Q872.084 184.587 872.962 180.195 Q873.84 175.768 875.316 171.763 Q876.792 167.722 878.865 164.068 Q880.937 160.379 883.221 157.709 Q885.54 155.004 888.14 153.423 Q890.74 151.842 893.164 151.842 Q894.921 151.842 896.326 152.615 Q897.767 153.353 898.68 154.653 Q899.593 155.917 900.226 157.428 Q900.893 158.939 901.21 160.696 Q901.526 162.417 901.666 163.858 Q901.807 165.263 901.807 166.598 M897.064 162.136 Q897.064 160.344 896.923 159.009 Q896.783 157.639 896.396 156.269 Q896.01 154.899 895.167 154.161 Q894.359 153.423 893.094 153.423 Q889.405 153.423 885.259 160.977 Q883.924 163.331 882.729 166.528 Q881.535 169.725 881.113 171.236 Q880.692 172.746 879.708 176.471 L894.745 176.471 Q897.064 166.879 897.064 162.136 M894.113 178.754 L879.146 178.754 Q876.827 187.538 876.827 193.019 Q876.827 197.797 877.811 199.799 Q878.829 201.767 880.727 201.767 Q882.905 201.767 884.943 199.589 Q886.98 197.375 889.053 193.37 Q891.794 188.17 894.113 178.754 Z" fill="#000000" fill-rule="evenodd" fill-opacity="1" /><path clip-path="url(#clip280)" d="M 0 0 M925.451 191.648 Q925.521 190.77 926.892 190.77 L970.984 190.77 Q973.057 190.77 973.092 191.578 Q973.092 192.456 971.125 192.421 L927.384 192.421 Q925.451 192.456 925.451 191.648 M925.451 177.595 Q925.451 176.717 926.962 176.752 L970.914 176.752 Q973.057 176.752 973.092 177.595 Q973.092 178.403 971.265 178.403 L926.892 178.403 Q925.451 178.403 925.451 177.595 Z" fill="#000000" fill-rule="evenodd" fill-opacity="1" /><path clip-path="url(#clip280)" d="M 0 0 M1001.93 201.416 Q1000.85 200.256 1000.85 198.745 Q1000.85 197.235 1001.93 196.145 Q1003.02 195.021 1004.68 195.021 Q1006.26 195.021 1007.31 196.075 Q1008.4 197.094 1008.4 198.781 Q1008.4 200.432 1007.24 201.521 Q1006.12 202.575 1004.68 202.575 Q1003.02 202.575 1001.93 201.416 Z" fill="#000000" fill-rule="evenodd" fill-opacity="1" /><path clip-path="url(#clip280)" d="M 0 0 M1032.05 190.981 Q1032.05 188.838 1033.21 188.03 Q1034.37 187.186 1035.6 187.186 Q1037.25 187.186 1038.2 188.24 Q1039.18 189.259 1039.18 190.7 Q1039.18 192.14 1038.2 193.194 Q1037.25 194.213 1035.6 194.213 Q1034.79 194.213 1034.37 194.073 Q1035.32 197.375 1038.2 199.764 Q1041.12 202.153 1044.95 202.153 Q1049.76 202.153 1052.64 197.481 Q1054.36 194.459 1054.36 187.608 Q1054.36 181.565 1053.06 178.544 Q1051.06 173.941 1046.95 173.941 Q1041.12 173.941 1037.67 178.965 Q1037.25 179.598 1036.76 179.633 Q1036.06 179.633 1035.88 179.246 Q1035.74 178.825 1035.74 177.735 L1035.74 156.444 Q1035.74 154.723 1036.44 154.723 Q1036.72 154.723 1037.32 154.934 Q1041.85 156.936 1046.88 156.971 Q1052.04 156.971 1056.68 154.863 Q1057.03 154.653 1057.24 154.653 Q1057.95 154.653 1057.98 155.461 Q1057.98 155.742 1057.38 156.585 Q1056.82 157.393 1055.59 158.482 Q1054.36 159.536 1052.78 160.555 Q1051.2 161.574 1048.88 162.277 Q1046.6 162.944 1044.07 162.944 Q1041.05 162.944 1037.95 161.996 L1037.95 176.014 Q1041.68 172.36 1047.09 172.36 Q1052.85 172.36 1056.82 176.998 Q1060.79 181.635 1060.79 188.1 Q1060.79 194.881 1056.08 199.518 Q1051.41 204.156 1045.09 204.156 Q1039.32 204.156 1035.67 200.045 Q1032.05 195.935 1032.05 190.981 Z" fill="#000000" fill-rule="evenodd" fill-opacity="1" /><path clip-path="url(#clip280)" d="M 0 0 M1068.7 201.416 Q1067.68 200.256 1067.68 198.745 Q1067.68 197.235 1068.67 196.11 Q1069.69 194.951 1071.51 194.951 Q1073.66 194.951 1074.89 197.024 Q1076.12 199.062 1076.12 202.505 Q1076.12 206.229 1074.61 209.672 Q1073.1 213.15 1071.62 214.801 Q1070.14 216.453 1069.55 216.453 Q1068.84 216.453 1068.84 215.68 Q1068.84 215.399 1069.34 214.872 Q1074.5 209.321 1074.54 202.505 Q1074.54 201.416 1074.4 201.416 L1074.22 201.556 Q1072.99 202.575 1071.51 202.575 Q1069.72 202.575 1068.7 201.416 Z" fill="#000000" fill-rule="evenodd" fill-opacity="1" /><path clip-path="url(#clip280)" d="M 0 0 M1137.82 192.281 Q1137.82 192.562 1137.5 193.651 Q1137.19 194.74 1136.41 196.427 Q1135.68 198.113 1134.66 199.659 Q1133.64 201.17 1131.95 202.294 Q1130.3 203.383 1128.4 203.383 Q1125.87 203.383 1124.19 201.697 Q1122.5 200.01 1122.5 197.481 Q1122.5 196.075 1123.24 194.143 Q1127.91 181.67 1127.91 177.384 Q1127.91 172.36 1124.01 172.36 Q1122.08 172.36 1120.25 173.098 Q1118.46 173.8 1117.23 174.784 Q1116 175.768 1114.88 177.138 Q1113.79 178.473 1113.23 179.387 Q1112.7 180.265 1112.28 181.143 L1111.36 184.727 Q1111.15 185.711 1110.13 189.54 L1108.55 196.04 Q1107.43 200.889 1107.18 201.345 Q1106.83 202.329 1106.06 202.856 Q1105.29 203.383 1104.51 203.383 Q1103.63 203.383 1103.04 202.856 Q1102.44 202.329 1102.44 201.416 Q1102.44 201.275 1102.55 200.748 Q1102.65 200.221 1102.83 199.483 Q1103 198.745 1103.07 198.324 L1107.25 181.706 Q1108.03 178.684 1108.2 177.735 Q1108.41 176.752 1108.41 175.663 Q1108.41 172.36 1106.16 172.36 Q1104.34 172.36 1103.14 174.538 Q1101.95 176.717 1100.93 180.933 Q1100.61 182.092 1100.4 182.338 Q1100.23 182.584 1099.7 182.584 Q1098.82 182.549 1098.82 181.846 Q1098.82 181.67 1099.1 180.511 Q1099.38 179.352 1099.91 177.7 Q1100.47 176.014 1101 174.89 Q1101.46 174.046 1101.7 173.66 Q1101.98 173.238 1102.65 172.43 Q1103.35 171.587 1104.27 171.201 Q1105.22 170.779 1106.38 170.779 Q1108.98 170.779 1110.87 172.465 Q1112.77 174.117 1113.02 177.033 Q1117.69 170.779 1124.22 170.779 Q1128.09 170.779 1130.3 172.817 Q1132.51 174.854 1132.51 178.473 Q1132.51 179.316 1132.34 180.406 Q1132.2 181.46 1131.85 182.795 Q1131.53 184.13 1131.25 185.149 Q1130.97 186.168 1130.41 187.819 Q1129.84 189.435 1129.6 190.138 Q1129.35 190.84 1128.76 192.492 Q1128.19 194.108 1128.12 194.283 Q1126.82 197.551 1126.82 199.413 Q1126.82 200.643 1127.21 201.205 Q1127.63 201.767 1128.54 201.767 Q1131 201.767 1132.83 199.343 Q1134.69 196.883 1135.89 192.878 Q1136.17 192 1136.31 191.789 Q1136.48 191.578 1136.98 191.578 Q1137.82 191.578 1137.82 192.281 Z" fill="#000000" fill-rule="evenodd" fill-opacity="1" /><path clip-path="url(#clip280)" d="M 0 0 M1141.55 219.861 Q1141.55 219.509 1142.47 218.631 Q1154.06 206.826 1154.06 184.587 Q1154.06 162.277 1142.92 150.999 Q1141.55 149.699 1141.55 149.312 Q1141.55 148.61 1142.26 148.61 Q1142.75 148.61 1144.47 150.05 Q1146.23 151.491 1148.86 154.793 Q1151.53 158.096 1153.5 162.136 Q1158.24 171.938 1158.24 184.587 Q1158.24 196.743 1153.71 206.545 Q1151.78 210.656 1149.07 214.099 Q1146.37 217.542 1144.57 219.053 Q1142.78 220.563 1142.26 220.563 Q1141.55 220.563 1141.55 219.861 Z" fill="#000000" fill-rule="evenodd" fill-opacity="1" /></svg>
