<?xml version="1.0" encoding="utf-8"?>
<svg xmlns="http://www.w3.org/2000/svg" xmlns:xlink="http://www.w3.org/1999/xlink" width="600" height="400" viewBox="0 0 2400 1600">
<defs>
  <clipPath id="clip520">
    <rect x="0" y="0" width="2400" height="1600"/>
  </clipPath>
</defs>
<path clip-path="url(#clip520)" d="
M0 1600 L2400 1600 L2400 0 L0 0  Z
  " fill="#ffffff" fill-rule="evenodd" fill-opacity="1"/>
<defs>
  <clipPath id="clip521">
    <rect x="480" y="0" width="1681" height="1600"/>
  </clipPath>
</defs>
<defs>
  <clipPath id="clip522">
    <rect x="249" y="47" width="2104" height="1396"/>
  </clipPath>
</defs>
<path clip-path="url(#clip520)" d="
M175.445 1442.52 L2352.76 1442.52 L2352.76 47.2441 L175.445 47.2441  Z
  " fill="#ffffff" fill-rule="evenodd" fill-opacity="1"/>
<defs>
  <clipPath id="clip523">
    <rect x="175" y="47" width="2178" height="1396"/>
  </clipPath>
</defs>
<polyline clip-path="url(#clip523)" style="stroke:#000000; stroke-width:2; stroke-opacity:0.1; fill:none" points="
  237.067,1442.52 237.067,47.2441 
  "/>
<polyline clip-path="url(#clip523)" style="stroke:#000000; stroke-width:2; stroke-opacity:0.1; fill:none" points="
  442.474,1442.52 442.474,47.2441 
  "/>
<polyline clip-path="url(#clip523)" style="stroke:#000000; stroke-width:2; stroke-opacity:0.1; fill:none" points="
  647.881,1442.52 647.881,47.2441 
  "/>
<polyline clip-path="url(#clip523)" style="stroke:#000000; stroke-width:2; stroke-opacity:0.1; fill:none" points="
  853.287,1442.52 853.287,47.2441 
  "/>
<polyline clip-path="url(#clip523)" style="stroke:#000000; stroke-width:2; stroke-opacity:0.1; fill:none" points="
  1058.69,1442.52 1058.69,47.2441 
  "/>
<polyline clip-path="url(#clip523)" style="stroke:#000000; stroke-width:2; stroke-opacity:0.1; fill:none" points="
  1264.1,1442.52 1264.1,47.2441 
  "/>
<polyline clip-path="url(#clip523)" style="stroke:#000000; stroke-width:2; stroke-opacity:0.1; fill:none" points="
  1469.51,1442.52 1469.51,47.2441 
  "/>
<polyline clip-path="url(#clip523)" style="stroke:#000000; stroke-width:2; stroke-opacity:0.1; fill:none" points="
  1674.91,1442.52 1674.91,47.2441 
  "/>
<polyline clip-path="url(#clip523)" style="stroke:#000000; stroke-width:2; stroke-opacity:0.1; fill:none" points="
  1880.32,1442.52 1880.32,47.2441 
  "/>
<polyline clip-path="url(#clip523)" style="stroke:#000000; stroke-width:2; stroke-opacity:0.1; fill:none" points="
  2085.73,1442.52 2085.73,47.2441 
  "/>
<polyline clip-path="url(#clip523)" style="stroke:#000000; stroke-width:2; stroke-opacity:0.1; fill:none" points="
  2291.13,1442.52 2291.13,47.2441 
  "/>
<polyline clip-path="url(#clip520)" style="stroke:#000000; stroke-width:4; stroke-opacity:1; fill:none" points="
  175.445,1442.52 2352.76,1442.52 
  "/>
<polyline clip-path="url(#clip520)" style="stroke:#000000; stroke-width:4; stroke-opacity:1; fill:none" points="
  237.067,1442.52 237.067,1425.78 
  "/>
<polyline clip-path="url(#clip520)" style="stroke:#000000; stroke-width:4; stroke-opacity:1; fill:none" points="
  442.474,1442.52 442.474,1425.78 
  "/>
<polyline clip-path="url(#clip520)" style="stroke:#000000; stroke-width:4; stroke-opacity:1; fill:none" points="
  647.881,1442.52 647.881,1425.78 
  "/>
<polyline clip-path="url(#clip520)" style="stroke:#000000; stroke-width:4; stroke-opacity:1; fill:none" points="
  853.287,1442.52 853.287,1425.78 
  "/>
<polyline clip-path="url(#clip520)" style="stroke:#000000; stroke-width:4; stroke-opacity:1; fill:none" points="
  1058.69,1442.52 1058.69,1425.78 
  "/>
<polyline clip-path="url(#clip520)" style="stroke:#000000; stroke-width:4; stroke-opacity:1; fill:none" points="
  1264.1,1442.52 1264.1,1425.78 
  "/>
<polyline clip-path="url(#clip520)" style="stroke:#000000; stroke-width:4; stroke-opacity:1; fill:none" points="
  1469.51,1442.52 1469.51,1425.78 
  "/>
<polyline clip-path="url(#clip520)" style="stroke:#000000; stroke-width:4; stroke-opacity:1; fill:none" points="
  1674.91,1442.52 1674.91,1425.78 
  "/>
<polyline clip-path="url(#clip520)" style="stroke:#000000; stroke-width:4; stroke-opacity:1; fill:none" points="
  1880.32,1442.52 1880.32,1425.78 
  "/>
<polyline clip-path="url(#clip520)" style="stroke:#000000; stroke-width:4; stroke-opacity:1; fill:none" points="
  2085.73,1442.52 2085.73,1425.78 
  "/>
<polyline clip-path="url(#clip520)" style="stroke:#000000; stroke-width:4; stroke-opacity:1; fill:none" points="
  2291.13,1442.52 2291.13,1425.78 
  "/>
<path clip-path="url(#clip520)" d="M 0 0 M237.067 1471.71 Q233.456 1471.71 231.627 1475.28 Q229.822 1478.82 229.822 1485.95 Q229.822 1493.06 231.627 1496.62 Q233.456 1500.16 237.067 1500.16 Q240.701 1500.16 242.507 1496.62 Q244.336 1493.06 244.336 1485.95 Q244.336 1478.82 242.507 1475.28 Q240.701 1471.71 237.067 1471.71 M237.067 1468.01 Q242.877 1468.01 245.933 1472.62 Q249.012 1477.2 249.012 1485.95 Q249.012 1494.68 245.933 1499.28 Q242.877 1503.87 237.067 1503.87 Q231.257 1503.87 228.178 1499.28 Q225.123 1494.68 225.123 1485.95 Q225.123 1477.2 228.178 1472.62 Q231.257 1468.01 237.067 1468.01 Z" fill="#000000" fill-rule="evenodd" fill-opacity="1" /><path clip-path="url(#clip520)" d="M 0 0 M432.856 1499.26 L440.495 1499.26 L440.495 1472.89 L432.185 1474.56 L432.185 1470.3 L440.448 1468.63 L445.124 1468.63 L445.124 1499.26 L452.763 1499.26 L452.763 1503.19 L432.856 1503.19 L432.856 1499.26 Z" fill="#000000" fill-rule="evenodd" fill-opacity="1" /><path clip-path="url(#clip520)" d="M 0 0 M642.533 1499.26 L658.853 1499.26 L658.853 1503.19 L636.908 1503.19 L636.908 1499.26 Q639.57 1496.5 644.154 1491.88 Q648.76 1487.22 649.941 1485.88 Q652.186 1483.36 653.066 1481.62 Q653.968 1479.86 653.968 1478.17 Q653.968 1475.42 652.024 1473.68 Q650.103 1471.94 647.001 1471.94 Q644.802 1471.94 642.348 1472.71 Q639.918 1473.47 637.14 1475.02 L637.14 1470.3 Q639.964 1469.17 642.418 1468.59 Q644.871 1468.01 646.908 1468.01 Q652.279 1468.01 655.473 1470.69 Q658.668 1473.38 658.668 1477.87 Q658.668 1480 657.857 1481.92 Q657.07 1483.82 654.964 1486.41 Q654.385 1487.08 651.283 1490.3 Q648.181 1493.5 642.533 1499.26 Z" fill="#000000" fill-rule="evenodd" fill-opacity="1" /><path clip-path="url(#clip520)" d="M 0 0 M857.535 1484.56 Q860.891 1485.28 862.766 1487.55 Q864.664 1489.82 864.664 1493.15 Q864.664 1498.26 861.146 1501.07 Q857.627 1503.87 851.146 1503.87 Q848.97 1503.87 846.655 1503.43 Q844.364 1503.01 841.91 1502.15 L841.91 1497.64 Q843.854 1498.77 846.169 1499.35 Q848.484 1499.93 851.007 1499.93 Q855.405 1499.93 857.697 1498.19 Q860.012 1496.46 860.012 1493.15 Q860.012 1490.09 857.859 1488.38 Q855.729 1486.64 851.91 1486.64 L847.882 1486.64 L847.882 1482.8 L852.095 1482.8 Q855.544 1482.8 857.373 1481.44 Q859.202 1480.05 859.202 1477.45 Q859.202 1474.79 857.303 1473.38 Q855.428 1471.94 851.91 1471.94 Q849.989 1471.94 847.79 1472.36 Q845.59 1472.78 842.952 1473.66 L842.952 1469.49 Q845.614 1468.75 847.928 1468.38 Q850.266 1468.01 852.327 1468.01 Q857.651 1468.01 860.752 1470.44 Q863.854 1472.85 863.854 1476.97 Q863.854 1479.84 862.211 1481.83 Q860.567 1483.8 857.535 1484.56 Z" fill="#000000" fill-rule="evenodd" fill-opacity="1" /><path clip-path="url(#clip520)" d="M 0 0 M1061.7 1472.71 L1049.9 1491.16 L1061.7 1491.16 L1061.7 1472.71 M1060.48 1468.63 L1066.36 1468.63 L1066.36 1491.16 L1071.29 1491.16 L1071.29 1495.05 L1066.36 1495.05 L1066.36 1503.19 L1061.7 1503.19 L1061.7 1495.05 L1046.1 1495.05 L1046.1 1490.53 L1060.48 1468.63 Z" fill="#000000" fill-rule="evenodd" fill-opacity="1" /><path clip-path="url(#clip520)" d="M 0 0 M1254.38 1468.63 L1272.73 1468.63 L1272.73 1472.57 L1258.66 1472.57 L1258.66 1481.04 Q1259.68 1480.69 1260.7 1480.53 Q1261.72 1480.35 1262.73 1480.35 Q1268.52 1480.35 1271.9 1483.52 Q1275.28 1486.69 1275.28 1492.11 Q1275.28 1497.69 1271.81 1500.79 Q1268.34 1503.87 1262.02 1503.87 Q1259.84 1503.87 1257.57 1503.5 Q1255.33 1503.13 1252.92 1502.38 L1252.92 1497.69 Q1255 1498.82 1257.23 1499.38 Q1259.45 1499.93 1261.92 1499.93 Q1265.93 1499.93 1268.27 1497.82 Q1270.61 1495.72 1270.61 1492.11 Q1270.61 1488.5 1268.27 1486.39 Q1265.93 1484.28 1261.92 1484.28 Q1260.05 1484.28 1258.17 1484.7 Q1256.32 1485.12 1254.38 1486 L1254.38 1468.63 Z" fill="#000000" fill-rule="evenodd" fill-opacity="1" /><path clip-path="url(#clip520)" d="M 0 0 M1469.91 1484.05 Q1466.76 1484.05 1464.91 1486.2 Q1463.08 1488.36 1463.08 1492.11 Q1463.08 1495.83 1464.91 1498.01 Q1466.76 1500.16 1469.91 1500.16 Q1473.06 1500.16 1474.89 1498.01 Q1476.74 1495.83 1476.74 1492.11 Q1476.74 1488.36 1474.89 1486.2 Q1473.06 1484.05 1469.91 1484.05 M1479.19 1469.4 L1479.19 1473.66 Q1477.44 1472.82 1475.63 1472.38 Q1473.85 1471.94 1472.09 1471.94 Q1467.46 1471.94 1465 1475.07 Q1462.57 1478.19 1462.23 1484.51 Q1463.59 1482.5 1465.65 1481.44 Q1467.71 1480.35 1470.19 1480.35 Q1475.4 1480.35 1478.41 1483.52 Q1481.44 1486.67 1481.44 1492.11 Q1481.44 1497.43 1478.29 1500.65 Q1475.14 1503.87 1469.91 1503.87 Q1463.92 1503.87 1460.75 1499.28 Q1457.57 1494.68 1457.57 1485.95 Q1457.57 1477.76 1461.46 1472.89 Q1465.35 1468.01 1471.9 1468.01 Q1473.66 1468.01 1475.44 1468.36 Q1477.25 1468.7 1479.19 1469.4 Z" fill="#000000" fill-rule="evenodd" fill-opacity="1" /><path clip-path="url(#clip520)" d="M 0 0 M1663.8 1468.63 L1686.02 1468.63 L1686.02 1470.63 L1673.48 1503.19 L1668.59 1503.19 L1680.4 1472.57 L1663.8 1472.57 L1663.8 1468.63 Z" fill="#000000" fill-rule="evenodd" fill-opacity="1" /><path clip-path="url(#clip520)" d="M 0 0 M1880.32 1486.78 Q1876.99 1486.78 1875.07 1488.57 Q1873.17 1490.35 1873.17 1493.47 Q1873.17 1496.6 1875.07 1498.38 Q1876.99 1500.16 1880.32 1500.16 Q1883.65 1500.16 1885.58 1498.38 Q1887.5 1496.57 1887.5 1493.47 Q1887.5 1490.35 1885.58 1488.57 Q1883.68 1486.78 1880.32 1486.78 M1875.64 1484.79 Q1872.64 1484.05 1870.95 1481.99 Q1869.28 1479.93 1869.28 1476.97 Q1869.28 1472.82 1872.22 1470.42 Q1875.18 1468.01 1880.32 1468.01 Q1885.48 1468.01 1888.42 1470.42 Q1891.36 1472.82 1891.36 1476.97 Q1891.36 1479.93 1889.67 1481.99 Q1888.01 1484.05 1885.02 1484.79 Q1888.4 1485.58 1890.27 1487.87 Q1892.17 1490.16 1892.17 1493.47 Q1892.17 1498.5 1889.09 1501.18 Q1886.04 1503.87 1880.32 1503.87 Q1874.6 1503.87 1871.52 1501.18 Q1868.47 1498.5 1868.47 1493.47 Q1868.47 1490.16 1870.37 1487.87 Q1872.27 1485.58 1875.64 1484.79 M1873.93 1477.41 Q1873.93 1480.09 1875.6 1481.6 Q1877.29 1483.1 1880.32 1483.1 Q1883.33 1483.1 1885.02 1481.6 Q1886.73 1480.09 1886.73 1477.41 Q1886.73 1474.72 1885.02 1473.22 Q1883.33 1471.71 1880.32 1471.71 Q1877.29 1471.71 1875.6 1473.22 Q1873.93 1474.72 1873.93 1477.41 Z" fill="#000000" fill-rule="evenodd" fill-opacity="1" /><path clip-path="url(#clip520)" d="M 0 0 M2076.03 1502.48 L2076.03 1498.22 Q2077.79 1499.05 2079.59 1499.49 Q2081.4 1499.93 2083.13 1499.93 Q2087.76 1499.93 2090.19 1496.83 Q2092.65 1493.7 2093 1487.36 Q2091.65 1489.35 2089.59 1490.42 Q2087.53 1491.48 2085.03 1491.48 Q2079.85 1491.48 2076.82 1488.36 Q2073.81 1485.21 2073.81 1479.77 Q2073.81 1474.44 2076.95 1471.23 Q2080.1 1468.01 2085.33 1468.01 Q2091.33 1468.01 2094.48 1472.62 Q2097.65 1477.2 2097.65 1485.95 Q2097.65 1494.12 2093.76 1499 Q2089.89 1503.87 2083.34 1503.87 Q2081.58 1503.87 2079.78 1503.52 Q2077.97 1503.17 2076.03 1502.48 M2085.33 1487.82 Q2088.48 1487.82 2090.31 1485.67 Q2092.16 1483.52 2092.16 1479.77 Q2092.16 1476.04 2090.31 1473.89 Q2088.48 1471.71 2085.33 1471.71 Q2082.19 1471.71 2080.33 1473.89 Q2078.51 1476.04 2078.51 1479.77 Q2078.51 1483.52 2080.33 1485.67 Q2082.19 1487.82 2085.33 1487.82 Z" fill="#000000" fill-rule="evenodd" fill-opacity="1" /><path clip-path="url(#clip520)" d="M 0 0 M2265.82 1499.26 L2273.46 1499.26 L2273.46 1472.89 L2265.15 1474.56 L2265.15 1470.3 L2273.41 1468.63 L2278.09 1468.63 L2278.09 1499.26 L2285.73 1499.26 L2285.73 1503.19 L2265.82 1503.19 L2265.82 1499.26 Z" fill="#000000" fill-rule="evenodd" fill-opacity="1" /><path clip-path="url(#clip520)" d="M 0 0 M2305.17 1471.71 Q2301.56 1471.71 2299.73 1475.28 Q2297.93 1478.82 2297.93 1485.95 Q2297.93 1493.06 2299.73 1496.62 Q2301.56 1500.16 2305.17 1500.16 Q2308.81 1500.16 2310.61 1496.62 Q2312.44 1493.06 2312.44 1485.95 Q2312.44 1478.82 2310.61 1475.28 Q2308.81 1471.71 2305.17 1471.71 M2305.17 1468.01 Q2310.98 1468.01 2314.04 1472.62 Q2317.12 1477.2 2317.12 1485.95 Q2317.12 1494.68 2314.04 1499.28 Q2310.98 1503.87 2305.17 1503.87 Q2299.36 1503.87 2296.28 1499.28 Q2293.23 1494.68 2293.23 1485.95 Q2293.23 1477.2 2296.28 1472.62 Q2299.36 1468.01 2305.17 1468.01 Z" fill="#000000" fill-rule="evenodd" fill-opacity="1" /><path clip-path="url(#clip520)" d="M 0 0 M1278.54 1528.38 Q1278.54 1528.83 1278.25 1529.89 L1271.94 1555.08 Q1270.55 1560.68 1266.04 1564.61 Q1261.57 1568.54 1256.48 1568.54 Q1253.42 1568.54 1251.45 1566.9 Q1249.49 1565.28 1249.49 1562.81 Q1249.49 1560.62 1250.65 1559.55 Q1251.81 1558.52 1253.19 1558.52 Q1253.64 1558.52 1254.13 1558.65 Q1254.61 1558.78 1255.12 1559.33 Q1255.64 1559.87 1255.64 1560.81 Q1255.64 1562.32 1254.32 1563.51 Q1253.68 1564.06 1253.06 1564.19 Q1252.48 1564.32 1251.49 1564.32 Q1251.87 1565.22 1252.58 1565.83 Q1253.29 1566.44 1254.09 1566.67 Q1254.9 1566.93 1255.41 1566.99 Q1255.96 1567.09 1256.48 1567.09 Q1260.6 1567.09 1263.76 1562.93 Q1264.69 1561.68 1265.37 1560.42 Q1266.07 1559.2 1266.59 1557.68 Q1267.1 1556.2 1267.33 1555.4 Q1267.59 1554.59 1268.04 1552.76 Q1265.04 1555.75 1261.37 1555.75 Q1259.83 1555.75 1258.44 1555.33 Q1257.09 1554.91 1255.9 1554.05 Q1254.71 1553.14 1254 1551.57 Q1253.32 1549.99 1253.32 1547.89 Q1253.32 1545.67 1254.19 1542.64 Q1255.06 1539.62 1257.15 1534.05 Q1258.28 1530.92 1258.28 1529.41 Q1258.28 1528.67 1258.12 1528.22 Q1257.96 1527.73 1257.64 1527.57 Q1257.31 1527.38 1257.12 1527.35 Q1256.96 1527.31 1256.64 1527.31 Q1254.74 1527.31 1252.97 1529.25 Q1251.2 1531.18 1249.97 1535.49 Q1249.71 1536.3 1249.55 1536.49 Q1249.39 1536.69 1248.91 1536.69 Q1248.1 1536.65 1248.1 1536.01 Q1248.1 1535.75 1248.39 1534.75 Q1248.68 1533.72 1249.36 1532.21 Q1250.07 1530.66 1251.03 1529.28 Q1252 1527.86 1253.51 1526.86 Q1255.06 1525.86 1256.83 1525.86 Q1259.25 1525.86 1260.73 1527.44 Q1262.24 1528.99 1262.24 1531.28 Q1262.24 1532.21 1261.98 1533.05 Q1261.76 1533.85 1260.92 1536.01 Q1257.54 1544.71 1257.54 1548.96 Q1257.54 1549.99 1257.7 1550.86 Q1257.89 1551.69 1258.31 1552.53 Q1258.73 1553.34 1259.57 1553.82 Q1260.44 1554.27 1261.63 1554.27 Q1263.14 1554.27 1264.56 1553.56 Q1266.01 1552.82 1266.91 1551.82 Q1267.85 1550.82 1268.39 1549.99 Q1268.97 1549.12 1269.1 1548.67 L1272.06 1536.81 L1273.39 1531.53 Q1274 1528.67 1274.29 1527.96 Q1274.67 1527.28 1275.35 1526.93 Q1276.03 1526.57 1276.61 1526.57 Q1277.41 1526.57 1277.96 1527.06 Q1278.54 1527.54 1278.54 1528.38 Z" fill="#000000" fill-rule="evenodd" fill-opacity="1" /><polyline clip-path="url(#clip523)" style="stroke:#000000; stroke-width:2; stroke-opacity:0.1; fill:none" points="
  175.445,1260.69 2352.76,1260.69 
  "/>
<polyline clip-path="url(#clip523)" style="stroke:#000000; stroke-width:2; stroke-opacity:0.1; fill:none" points="
  175.445,1022.63 2352.76,1022.63 
  "/>
<polyline clip-path="url(#clip523)" style="stroke:#000000; stroke-width:2; stroke-opacity:0.1; fill:none" points="
  175.445,784.581 2352.76,784.581 
  "/>
<polyline clip-path="url(#clip523)" style="stroke:#000000; stroke-width:2; stroke-opacity:0.1; fill:none" points="
  175.445,546.527 2352.76,546.527 
  "/>
<polyline clip-path="url(#clip523)" style="stroke:#000000; stroke-width:2; stroke-opacity:0.1; fill:none" points="
  175.445,308.473 2352.76,308.473 
  "/>
<polyline clip-path="url(#clip523)" style="stroke:#000000; stroke-width:2; stroke-opacity:0.1; fill:none" points="
  175.445,70.4197 2352.76,70.4197 
  "/>
<polyline clip-path="url(#clip520)" style="stroke:#000000; stroke-width:4; stroke-opacity:1; fill:none" points="
  175.445,1442.52 175.445,47.2441 
  "/>
<polyline clip-path="url(#clip520)" style="stroke:#000000; stroke-width:4; stroke-opacity:1; fill:none" points="
  175.445,1260.69 201.573,1260.69 
  "/>
<polyline clip-path="url(#clip520)" style="stroke:#000000; stroke-width:4; stroke-opacity:1; fill:none" points="
  175.445,1022.63 201.573,1022.63 
  "/>
<polyline clip-path="url(#clip520)" style="stroke:#000000; stroke-width:4; stroke-opacity:1; fill:none" points="
  175.445,784.581 201.573,784.581 
  "/>
<polyline clip-path="url(#clip520)" style="stroke:#000000; stroke-width:4; stroke-opacity:1; fill:none" points="
  175.445,546.527 201.573,546.527 
  "/>
<polyline clip-path="url(#clip520)" style="stroke:#000000; stroke-width:4; stroke-opacity:1; fill:none" points="
  175.445,308.473 201.573,308.473 
  "/>
<polyline clip-path="url(#clip520)" style="stroke:#000000; stroke-width:4; stroke-opacity:1; fill:none" points="
  175.445,70.4197 201.573,70.4197 
  "/>
<path clip-path="url(#clip520)" d="M 0 0 M123.126 1274.03 L139.445 1274.03 L139.445 1277.97 L117.501 1277.97 L117.501 1274.03 Q120.163 1271.28 124.746 1266.65 Q129.353 1262 130.533 1260.65 Q132.779 1258.13 133.658 1256.39 Q134.561 1254.63 134.561 1252.94 Q134.561 1250.19 132.617 1248.45 Q130.695 1246.72 127.593 1246.72 Q125.394 1246.72 122.941 1247.48 Q120.51 1248.25 117.732 1249.8 L117.732 1245.07 Q120.556 1243.94 123.01 1243.36 Q125.464 1242.78 127.501 1242.78 Q132.871 1242.78 136.066 1245.47 Q139.26 1248.15 139.26 1252.64 Q139.26 1254.77 138.45 1256.69 Q137.663 1258.59 135.556 1261.19 Q134.978 1261.86 131.876 1265.07 Q128.774 1268.27 123.126 1274.03 Z" fill="#000000" fill-rule="evenodd" fill-opacity="1" /><path clip-path="url(#clip520)" d="M 0 0 M132.316 1021.28 Q135.672 1022 137.547 1024.27 Q139.445 1026.53 139.445 1029.87 Q139.445 1034.98 135.927 1037.78 Q132.408 1040.59 125.927 1040.59 Q123.751 1040.59 121.436 1040.15 Q119.144 1039.73 116.691 1038.87 L116.691 1034.36 Q118.635 1035.49 120.95 1036.07 Q123.265 1036.65 125.788 1036.65 Q130.186 1036.65 132.478 1034.91 Q134.792 1033.18 134.792 1029.87 Q134.792 1026.81 132.64 1025.1 Q130.51 1023.36 126.691 1023.36 L122.663 1023.36 L122.663 1019.52 L126.876 1019.52 Q130.325 1019.52 132.154 1018.16 Q133.982 1016.77 133.982 1014.17 Q133.982 1011.51 132.084 1010.1 Q130.209 1008.66 126.691 1008.66 Q124.769 1008.66 122.57 1009.08 Q120.371 1009.5 117.732 1010.38 L117.732 1006.21 Q120.394 1005.47 122.709 1005.1 Q125.047 1004.73 127.107 1004.73 Q132.431 1004.73 135.533 1007.16 Q138.635 1009.57 138.635 1013.69 Q138.635 1016.56 136.992 1018.55 Q135.348 1020.52 132.316 1021.28 Z" fill="#000000" fill-rule="evenodd" fill-opacity="1" /><path clip-path="url(#clip520)" d="M 0 0 M129.862 771.375 L118.056 789.824 L129.862 789.824 L129.862 771.375 M128.635 767.301 L134.515 767.301 L134.515 789.824 L139.445 789.824 L139.445 793.712 L134.515 793.712 L134.515 801.861 L129.862 801.861 L129.862 793.712 L114.26 793.712 L114.26 789.199 L128.635 767.301 Z" fill="#000000" fill-rule="evenodd" fill-opacity="1" /><path clip-path="url(#clip520)" d="M 0 0 M118.543 529.247 L136.899 529.247 L136.899 533.182 L122.825 533.182 L122.825 541.654 Q123.843 541.307 124.862 541.145 Q125.88 540.96 126.899 540.96 Q132.686 540.96 136.066 544.131 Q139.445 547.302 139.445 552.719 Q139.445 558.298 135.973 561.4 Q132.501 564.478 126.181 564.478 Q124.005 564.478 121.737 564.108 Q119.492 563.738 117.084 562.997 L117.084 558.298 Q119.168 559.432 121.39 559.988 Q123.612 560.543 126.089 560.543 Q130.093 560.543 132.431 558.437 Q134.769 556.33 134.769 552.719 Q134.769 549.108 132.431 547.002 Q130.093 544.895 126.089 544.895 Q124.214 544.895 122.339 545.312 Q120.487 545.728 118.543 546.608 L118.543 529.247 Z" fill="#000000" fill-rule="evenodd" fill-opacity="1" /><path clip-path="url(#clip520)" d="M 0 0 M127.917 306.61 Q124.769 306.61 122.918 308.763 Q121.089 310.915 121.089 314.665 Q121.089 318.392 122.918 320.568 Q124.769 322.721 127.917 322.721 Q131.066 322.721 132.894 320.568 Q134.746 318.392 134.746 314.665 Q134.746 310.915 132.894 308.763 Q131.066 306.61 127.917 306.61 M137.2 291.957 L137.2 296.216 Q135.441 295.383 133.635 294.943 Q131.853 294.504 130.093 294.504 Q125.464 294.504 123.01 297.629 Q120.58 300.753 120.232 307.073 Q121.598 305.059 123.658 303.994 Q125.718 302.906 128.195 302.906 Q133.404 302.906 136.413 306.078 Q139.445 309.226 139.445 314.665 Q139.445 319.989 136.297 323.207 Q133.149 326.425 127.917 326.425 Q121.922 326.425 118.751 321.841 Q115.58 317.235 115.58 308.508 Q115.58 300.314 119.468 295.453 Q123.357 290.568 129.908 290.568 Q131.667 290.568 133.45 290.916 Q135.255 291.263 137.2 291.957 Z" fill="#000000" fill-rule="evenodd" fill-opacity="1" /><path clip-path="url(#clip520)" d="M 0 0 M117.223 53.1397 L139.445 53.1397 L139.445 55.1305 L126.899 87.6997 L122.015 87.6997 L133.82 57.0749 L117.223 57.0749 L117.223 53.1397 Z" fill="#000000" fill-rule="evenodd" fill-opacity="1" /><path clip-path="url(#clip520)" d="M 0 0 M16.4842 1024.29 L16.4842 1015.63 L56.238 994.562 L16.4842 994.562 L16.4842 988.324 L64.0042 988.324 L64.0042 996.981 L24.2503 1018.05 L64.0042 1018.05 L64.0042 1024.29 L16.4842 1024.29 Z" fill="#000000" fill-rule="evenodd" fill-opacity="1" /><path clip-path="url(#clip520)" d="M 0 0 M44.7161 945.292 L47.5806 945.292 L47.5806 972.219 Q53.6281 971.837 56.8109 968.59 Q59.9619 965.312 59.9619 959.487 Q59.9619 956.113 59.1344 952.962 Q58.3069 949.78 56.6518 946.66 L62.1899 946.66 Q63.5267 949.811 64.227 953.122 Q64.9272 956.432 64.9272 959.837 Q64.9272 968.367 59.9619 973.365 Q54.9967 978.33 46.5303 978.33 Q37.7774 978.33 32.6531 973.619 Q27.4968 968.877 27.4968 960.856 Q27.4968 953.663 32.1438 949.493 Q36.7589 945.292 44.7161 945.292 M42.9973 951.148 Q38.1912 951.212 35.3266 953.854 Q32.4621 956.464 32.4621 960.792 Q32.4621 965.694 35.2312 968.654 Q38.0002 971.582 43.0292 972.028 L42.9973 951.148 Z" fill="#000000" fill-rule="evenodd" fill-opacity="1" /><path clip-path="url(#clip520)" d="M 0 0 M45.7664 912.222 Q39.4007 912.222 35.8996 914.864 Q32.3984 917.474 32.3984 922.216 Q32.3984 926.927 35.8996 929.568 Q39.4007 932.178 45.7664 932.178 Q52.1003 932.178 55.6014 929.568 Q59.1026 926.927 59.1026 922.216 Q59.1026 917.474 55.6014 914.864 Q52.1003 912.222 45.7664 912.222 M59.58 906.365 Q68.683 906.365 73.1071 910.408 Q77.5631 914.45 77.5631 922.789 Q77.5631 925.876 77.0857 928.614 Q76.6401 931.351 75.6852 933.929 L69.9879 933.929 Q71.3884 931.351 72.0568 928.836 Q72.7252 926.322 72.7252 923.712 Q72.7252 917.951 69.7015 915.087 Q66.7096 912.222 60.6303 912.222 L57.7339 912.222 Q60.885 914.036 62.4446 916.869 Q64.0042 919.702 64.0042 923.648 Q64.0042 930.205 59.0071 934.215 Q54.01 938.226 45.7664 938.226 Q37.491 938.226 32.4939 934.215 Q27.4968 930.205 27.4968 923.648 Q27.4968 919.702 29.0564 916.869 Q30.616 914.036 33.7671 912.222 L28.3562 912.222 L28.3562 906.365 L59.58 906.365 Z" fill="#000000" fill-rule="evenodd" fill-opacity="1" /><path clip-path="url(#clip520)" d="M 0 0 M46.0847 878.102 Q46.0847 885.2 47.7079 887.937 Q49.3312 890.674 53.2461 890.674 Q56.3653 890.674 58.2114 888.637 Q60.0256 886.568 60.0256 883.035 Q60.0256 878.165 56.5881 875.237 Q53.1188 872.277 47.3897 872.277 L46.0847 872.277 L46.0847 878.102 M43.6657 866.421 L64.0042 866.421 L64.0042 872.277 L58.5933 872.277 Q61.8398 874.282 63.3994 877.274 Q64.9272 880.266 64.9272 884.595 Q64.9272 890.069 61.8716 893.316 Q58.7843 896.53 53.6281 896.53 Q47.6125 896.53 44.5569 892.52 Q41.5014 888.478 41.5014 880.489 L41.5014 872.277 L40.9285 872.277 Q36.8862 872.277 34.6901 874.951 Q32.4621 877.592 32.4621 882.399 Q32.4621 885.454 33.1941 888.351 Q33.9262 891.247 35.3903 893.921 L29.9795 893.921 Q28.7381 890.706 28.1334 887.682 Q27.4968 884.658 27.4968 881.794 Q27.4968 874.06 31.5072 870.24 Q35.5176 866.421 43.6657 866.421 Z" fill="#000000" fill-rule="evenodd" fill-opacity="1" /><path clip-path="url(#clip520)" d="M 0 0 M18.2347 848.565 L28.3562 848.565 L28.3562 836.502 L32.9077 836.502 L32.9077 848.565 L52.2594 848.565 Q56.6199 848.565 57.8613 847.387 Q59.1026 846.178 59.1026 842.517 L59.1026 836.502 L64.0042 836.502 L64.0042 842.517 Q64.0042 849.297 61.4897 851.875 Q58.9434 854.453 52.2594 854.453 L32.9077 854.453 L32.9077 858.75 L28.3562 858.75 L28.3562 854.453 L18.2347 854.453 L18.2347 848.565 Z" fill="#000000" fill-rule="evenodd" fill-opacity="1" /><path clip-path="url(#clip520)" d="M 0 0 M28.3562 828.799 L28.3562 822.943 L64.0042 822.943 L64.0042 828.799 L28.3562 828.799 M14.479 828.799 L14.479 822.943 L21.895 822.943 L21.895 828.799 L14.479 828.799 Z" fill="#000000" fill-rule="evenodd" fill-opacity="1" /><path clip-path="url(#clip520)" d="M 0 0 M28.3562 814.89 L28.3562 808.684 L58.275 797.544 L28.3562 786.404 L28.3562 780.197 L64.0042 793.565 L64.0042 801.522 L28.3562 814.89 Z" fill="#000000" fill-rule="evenodd" fill-opacity="1" /><path clip-path="url(#clip520)" d="M 0 0 M44.7161 741.621 L47.5806 741.621 L47.5806 768.548 Q53.6281 768.166 56.8109 764.919 Q59.9619 761.641 59.9619 755.817 Q59.9619 752.443 59.1344 749.292 Q58.3069 746.109 56.6518 742.99 L62.1899 742.99 Q63.5267 746.141 64.227 749.451 Q64.9272 752.761 64.9272 756.167 Q64.9272 764.697 59.9619 769.694 Q54.9967 774.659 46.5303 774.659 Q37.7774 774.659 32.6531 769.948 Q27.4968 765.206 27.4968 757.185 Q27.4968 749.992 32.1438 745.822 Q36.7589 741.621 44.7161 741.621 M42.9973 747.477 Q38.1912 747.541 35.3266 750.183 Q32.4621 752.793 32.4621 757.121 Q32.4621 762.023 35.2312 764.983 Q38.0002 767.911 43.0292 768.357 L42.9973 747.477 Z" fill="#000000" fill-rule="evenodd" fill-opacity="1" /><path clip-path="url(#clip520)" d="M 0 0 M14.479 711.288 L14.479 705.432 L64.0042 705.432 L64.0042 711.288 L14.479 711.288 Z" fill="#000000" fill-rule="evenodd" fill-opacity="1" /><path clip-path="url(#clip520)" d="M 0 0 M32.4621 679.364 Q32.4621 684.075 36.1542 686.812 Q39.8145 689.55 46.212 689.55 Q52.6095 689.55 56.3017 686.844 Q59.9619 684.107 59.9619 679.364 Q59.9619 674.686 56.2698 671.948 Q52.5777 669.211 46.212 669.211 Q39.8781 669.211 36.186 671.948 Q32.4621 674.686 32.4621 679.364 M27.4968 679.364 Q27.4968 671.726 32.4621 667.365 Q37.4273 663.005 46.212 663.005 Q54.9649 663.005 59.9619 667.365 Q64.9272 671.726 64.9272 679.364 Q64.9272 687.035 59.9619 691.396 Q54.9649 695.724 46.212 695.724 Q37.4273 695.724 32.4621 691.396 Q27.4968 687.035 27.4968 679.364 Z" fill="#000000" fill-rule="evenodd" fill-opacity="1" /><path clip-path="url(#clip520)" d="M 0 0 M45.7664 629.839 Q39.4007 629.839 35.8996 632.481 Q32.3984 635.091 32.3984 639.833 Q32.3984 644.544 35.8996 647.186 Q39.4007 649.796 45.7664 649.796 Q52.1003 649.796 55.6014 647.186 Q59.1026 644.544 59.1026 639.833 Q59.1026 635.091 55.6014 632.481 Q52.1003 629.839 45.7664 629.839 M59.58 623.983 Q68.683 623.983 73.1071 628.025 Q77.5631 632.067 77.5631 640.406 Q77.5631 643.494 77.0857 646.231 Q76.6401 648.968 75.6852 651.546 L69.9879 651.546 Q71.3884 648.968 72.0568 646.454 Q72.7252 643.939 72.7252 641.329 Q72.7252 635.568 69.7015 632.704 Q66.7096 629.839 60.6303 629.839 L57.7339 629.839 Q60.885 631.653 62.4446 634.486 Q64.0042 637.319 64.0042 641.266 Q64.0042 647.822 59.0071 651.833 Q54.01 655.843 45.7664 655.843 Q37.491 655.843 32.4939 651.833 Q27.4968 647.822 27.4968 641.266 Q27.4968 637.319 29.0564 634.486 Q30.616 631.653 33.7671 629.839 L28.3562 629.839 L28.3562 623.983 L59.58 623.983 Z" fill="#000000" fill-rule="evenodd" fill-opacity="1" /><path clip-path="url(#clip520)" d="M 0 0 M43.5384 614.88 L43.5384 597.724 L48.7583 597.724 L48.7583 614.88 L43.5384 614.88 Z" fill="#000000" fill-rule="evenodd" fill-opacity="1" /><path clip-path="url(#clip520)" d="M 0 0 M58.657 582.733 L77.5631 582.733 L77.5631 588.621 L28.3562 588.621 L28.3562 582.733 L33.7671 582.733 Q30.5842 580.887 29.0564 578.086 Q27.4968 575.253 27.4968 571.338 Q27.4968 564.845 32.6531 560.803 Q37.8093 556.729 46.212 556.729 Q54.6147 556.729 59.771 560.803 Q64.9272 564.845 64.9272 571.338 Q64.9272 575.253 63.3994 578.086 Q61.8398 580.887 58.657 582.733 M46.212 562.808 Q39.7508 562.808 36.0905 565.482 Q32.3984 568.124 32.3984 572.771 Q32.3984 577.418 36.0905 580.091 Q39.7508 582.733 46.212 582.733 Q52.6732 582.733 56.3653 580.091 Q60.0256 577.418 60.0256 572.771 Q60.0256 568.124 56.3653 565.482 Q52.6732 562.808 46.212 562.808 Z" fill="#000000" fill-rule="evenodd" fill-opacity="1" /><path clip-path="url(#clip520)" d="M 0 0 M35.1993 519.267 Q31.2526 517.071 29.3747 514.015 Q27.4968 510.96 27.4968 506.822 Q27.4968 501.252 31.4117 498.228 Q35.2948 495.204 42.4881 495.204 L64.0042 495.204 L64.0042 501.093 L42.679 501.093 Q37.5546 501.093 35.072 502.907 Q32.5894 504.721 32.5894 508.445 Q32.5894 512.997 35.6131 515.638 Q38.6368 518.28 43.8567 518.28 L64.0042 518.28 L64.0042 524.168 L42.679 524.168 Q37.5228 524.168 35.072 525.983 Q32.5894 527.797 32.5894 531.585 Q32.5894 536.072 35.6449 538.714 Q38.6686 541.356 43.8567 541.356 L64.0042 541.356 L64.0042 547.244 L28.3562 547.244 L28.3562 541.356 L33.8944 541.356 Q30.616 539.351 29.0564 536.55 Q27.4968 533.749 27.4968 529.898 Q27.4968 526.015 29.4702 523.309 Q31.4436 520.572 35.1993 519.267 Z" fill="#000000" fill-rule="evenodd" fill-opacity="1" /><path clip-path="url(#clip520)" d="M 0 0 M14.479 465.477 L19.3487 465.477 L19.3487 471.078 Q19.3487 474.229 20.6219 475.471 Q21.895 476.68 25.2052 476.68 L28.3562 476.68 L28.3562 467.036 L32.9077 467.036 L32.9077 476.68 L64.0042 476.68 L64.0042 482.569 L32.9077 482.569 L32.9077 488.17 L28.3562 488.17 L28.3562 482.569 L25.8736 482.569 Q19.9216 482.569 17.2162 479.799 Q14.479 477.03 14.479 471.015 L14.479 465.477 Z" fill="#000000" fill-rule="evenodd" fill-opacity="1" /><polyline clip-path="url(#clip523)" style="stroke:#009af9; stroke-width:8; stroke-opacity:1; fill:none" points="
  237.067,86.7331 442.474,634.872 647.881,992.923 853.287,1226.41 1058.69,1359.63 1264.1,1403.03 1469.51,1359.63 1674.91,1226.41 1880.32,992.923 2085.73,634.872 
  2291.13,86.7331 
  "/>
<circle clip-path="url(#clip523)" cx="237.067" cy="86.7331" r="14" fill="#009af9" fill-rule="evenodd" fill-opacity="1" stroke="#000000" stroke-opacity="1" stroke-width="3.2"/>
<circle clip-path="url(#clip523)" cx="442.474" cy="634.872" r="14" fill="#009af9" fill-rule="evenodd" fill-opacity="1" stroke="#000000" stroke-opacity="1" stroke-width="3.2"/>
<circle clip-path="url(#clip523)" cx="647.881" cy="992.923" r="14" fill="#009af9" fill-rule="evenodd" fill-opacity="1" stroke="#000000" stroke-opacity="1" stroke-width="3.2"/>
<circle clip-path="url(#clip523)" cx="853.287" cy="1226.41" r="14" fill="#009af9" fill-rule="evenodd" fill-opacity="1" stroke="#000000" stroke-opacity="1" stroke-width="3.2"/>
<circle clip-path="url(#clip523)" cx="1058.69" cy="1359.63" r="14" fill="#009af9" fill-rule="evenodd" fill-opacity="1" stroke="#000000" stroke-opacity="1" stroke-width="3.2"/>
<circle clip-path="url(#clip523)" cx="1264.1" cy="1403.03" r="14" fill="#009af9" fill-rule="evenodd" fill-opacity="1" stroke="#000000" stroke-opacity="1" stroke-width="3.2"/>
<circle clip-path="url(#clip523)" cx="1469.51" cy="1359.63" r="14" fill="#009af9" fill-rule="evenodd" fill-opacity="1" stroke="#000000" stroke-opacity="1" stroke-width="3.2"/>
<circle clip-path="url(#clip523)" cx="1674.91" cy="1226.41" r="14" fill="#009af9" fill-rule="evenodd" fill-opacity="1" stroke="#000000" stroke-opacity="1" stroke-width="3.2"/>
<circle clip-path="url(#clip523)" cx="1880.32" cy="992.923" r="14" fill="#009af9" fill-rule="evenodd" fill-opacity="1" stroke="#000000" stroke-opacity="1" stroke-width="3.2"/>
<circle clip-path="url(#clip523)" cx="2085.73" cy="634.872" r="14" fill="#009af9" fill-rule="evenodd" fill-opacity="1" stroke="#000000" stroke-opacity="1" stroke-width="3.2"/>
<circle clip-path="url(#clip523)" cx="2291.13" cy="86.7331" r="14" fill="#009af9" fill-rule="evenodd" fill-opacity="1" stroke="#000000" stroke-opacity="1" stroke-width="3.2"/>
<path clip-path="url(#clip520)" d="
M1508.93 275.193 L2280.18 275.193 L2280.18 93.7534 L1508.93 93.7534  Z
  " fill="#ffffff" fill-rule="evenodd" fill-opacity="1"/>
<polyline clip-path="url(#clip520)" style="stroke:#000000; stroke-width:4; stroke-opacity:1; fill:none" points="
  1508.93,275.193 2280.18,275.193 2280.18,93.7534 1508.93,93.7534 1508.93,275.193 
  "/>
<polyline clip-path="url(#clip520)" style="stroke:#009af9; stroke-width:6; stroke-opacity:1; fill:none" points="
  1533.12,184.473 1678.27,184.473 
  "/>
<circle clip-path="url(#clip520)" cx="1605.7" cy="184.473" r="34" fill="#009af9" fill-rule="evenodd" fill-opacity="1" stroke="#000000" stroke-opacity="1" stroke-width="7.68"/>
<path clip-path="url(#clip520)" d="M 0 0 M1749.97 183.286 Q1750.39 183.708 1750.39 184.305 Q1750.39 184.903 1749.97 185.324 Q1749.55 185.746 1748.95 185.746 L1703.91 185.746 Q1703.31 185.746 1702.89 185.324 Q1702.47 184.903 1702.47 184.305 Q1702.47 183.708 1702.89 183.286 Q1703.31 182.865 1703.91 182.865 L1748.95 182.865 Q1749.55 182.865 1749.97 183.286 Z" fill="#000000" fill-rule="evenodd" fill-opacity="1" /><path clip-path="url(#clip520)" d="M 0 0 M1757.9 202.294 L1757.9 200.08 Q1761.73 200.08 1762.61 199.624 Q1763.49 199.132 1763.49 196.813 L1763.49 159.395 Q1763.49 156.725 1762.54 156.058 Q1761.62 155.39 1757.9 155.39 L1757.9 153.142 L1768.23 152.369 L1768.23 196.813 Q1768.23 199.132 1769.14 199.624 Q1770.06 200.08 1773.85 200.08 L1773.85 202.294 Q1772.97 202.294 1771.14 202.223 Q1769.32 202.153 1767.98 202.118 Q1766.65 202.083 1765.87 202.083 Q1765.03 202.083 1757.9 202.294 Z" fill="#000000" fill-rule="evenodd" fill-opacity="1" /><path clip-path="url(#clip520)" d="M 0 0 M1782.37 198.429 Q1777.63 193.721 1777.63 186.905 Q1777.63 180.054 1782.27 175.065 Q1786.94 170.041 1793.62 170.041 Q1800.15 170.041 1804.82 175.03 Q1809.53 179.984 1809.53 186.905 Q1809.53 193.686 1804.79 198.394 Q1800.08 203.102 1793.54 203.102 Q1787.15 203.102 1782.37 198.429 M1783.6 186.308 Q1783.6 193.299 1785.43 196.462 Q1788.24 201.275 1793.62 201.275 Q1796.29 201.275 1798.5 199.834 Q1800.75 198.394 1801.98 195.97 Q1803.56 192.808 1803.56 186.308 Q1803.56 179.387 1801.66 176.33 Q1798.85 171.657 1793.54 171.657 Q1791.23 171.657 1788.94 172.887 Q1786.69 174.081 1785.32 176.47 Q1783.6 179.632 1783.6 186.308 Z" fill="#000000" fill-rule="evenodd" fill-opacity="1" /><path clip-path="url(#clip520)" d="M 0 0 M1813.26 207.985 Q1813.26 205.667 1815.02 203.664 Q1816.81 201.661 1819.9 200.783 Q1816.74 198.78 1816.74 194.389 Q1816.74 191.016 1818.95 188.416 Q1815.58 185.605 1815.58 181.003 Q1815.58 176.752 1818.95 173.625 Q1822.33 170.498 1827.25 170.498 Q1831.57 170.498 1834.87 173.098 Q1838.31 169.725 1842.49 169.69 Q1844.36 169.69 1845.23 170.849 Q1846.15 172.008 1846.15 173.238 Q1846.15 174.327 1845.44 174.854 Q1844.78 175.381 1844.07 175.381 Q1843.2 175.381 1842.56 174.819 Q1841.97 174.222 1841.97 173.308 Q1841.97 171.798 1843.13 171.341 Q1842.91 171.271 1842.42 171.271 Q1838.91 171.271 1835.92 174.081 Q1838.87 176.822 1838.87 181.073 Q1838.87 185.324 1835.5 188.451 Q1832.13 191.578 1827.25 191.578 Q1823.2 191.578 1820.11 189.329 Q1818.88 190.77 1818.88 192.737 Q1818.88 194.529 1819.97 195.935 Q1821.06 197.34 1822.71 197.551 Q1823.2 197.621 1828.09 197.621 Q1830.97 197.621 1832.55 197.691 Q1834.13 197.761 1836.38 198.253 Q1838.66 198.71 1840.46 199.624 Q1845.13 202.223 1845.16 207.845 Q1845.16 211.955 1840.42 214.52 Q1835.71 217.12 1829.18 217.12 Q1822.57 217.12 1817.9 214.485 Q1813.26 211.885 1813.26 207.985 M1817.02 207.985 Q1817.02 210.937 1820.5 213.185 Q1823.98 215.469 1829.25 215.469 Q1834.41 215.469 1837.89 213.22 Q1841.4 211.007 1841.4 207.985 Q1841.4 205.842 1840.17 204.472 Q1838.94 203.102 1836.42 202.54 Q1833.92 202.013 1832.16 201.907 Q1830.41 201.802 1827.17 201.802 L1822.92 201.802 Q1820.46 201.942 1818.74 203.734 Q1817.02 205.526 1817.02 207.985 M1820.96 181.073 Q1820.96 189.927 1827.25 189.927 Q1830.41 189.927 1832.34 187.046 Q1833.5 185.113 1833.5 181.003 Q1833.5 172.149 1827.25 172.149 Q1824.08 172.149 1822.12 175.03 Q1820.96 176.962 1820.96 181.073 Z" fill="#000000" fill-rule="evenodd" fill-opacity="1" /><path clip-path="url(#clip520)" d="M 0 0 M1886.49 181.986 Q1886.49 187.116 1883.89 192.07 Q1881.32 197.024 1877.28 200.08 Q1873.24 203.102 1869.13 203.102 Q1866.67 203.102 1865.02 201.767 Q1863.41 200.396 1862.53 198.464 Q1861.86 200.853 1860.42 206.58 Q1858.98 212.307 1858.98 212.869 Q1858.98 213.185 1859.05 213.326 Q1859.12 213.466 1859.43 213.642 Q1859.75 213.853 1860.52 213.923 Q1861.3 214.028 1862.6 214.028 Q1863.26 214.028 1863.51 214.028 Q1863.79 214.063 1864.04 214.239 Q1864.32 214.415 1864.32 214.801 Q1864.32 216.242 1863.02 216.242 Q1861.86 216.242 1859.47 216.136 Q1857.08 216.031 1855.89 216.031 Q1854.87 216.031 1852.83 216.136 Q1850.79 216.242 1849.84 216.242 Q1848.89 216.242 1848.89 215.399 Q1848.89 214.907 1849.04 214.59 Q1849.14 214.309 1849.42 214.169 Q1849.7 214.063 1849.95 214.028 Q1850.16 214.028 1850.58 214.028 Q1852.2 214.028 1852.9 213.747 Q1853.6 213.501 1853.85 212.974 Q1854.13 212.482 1854.45 211.077 L1862.53 179.035 Q1863.02 176.892 1863.02 175.381 Q1863.02 173.484 1862.42 172.781 Q1861.82 172.079 1860.77 172.079 Q1858.94 172.079 1857.75 174.257 Q1856.55 176.435 1855.54 180.651 Q1855.22 181.811 1855.01 182.057 Q1854.83 182.303 1854.31 182.303 Q1853.43 182.268 1853.43 181.565 Q1853.43 181.389 1853.71 180.265 Q1853.99 179.105 1854.52 177.419 Q1855.08 175.698 1855.68 174.608 Q1856.03 173.871 1856.34 173.379 Q1856.66 172.887 1857.29 172.114 Q1857.96 171.341 1858.91 170.919 Q1859.86 170.498 1861.02 170.498 Q1863.26 170.498 1865.13 171.833 Q1866.99 173.168 1867.48 175.873 Q1869.48 173.519 1871.94 172.008 Q1874.4 170.498 1876.9 170.498 Q1881.04 170.498 1883.75 173.73 Q1886.49 176.927 1886.49 181.986 M1881.29 178.824 Q1881.29 175.627 1880.06 173.871 Q1878.86 172.079 1876.69 172.079 Q1873.98 172.079 1870.85 174.819 Q1867.76 177.419 1867.13 179.843 L1863.58 193.932 L1863.37 195.091 Q1863.37 195.302 1863.48 195.935 Q1863.62 196.532 1864 197.516 Q1864.42 198.499 1864.99 199.378 Q1865.58 200.221 1866.64 200.853 Q1867.73 201.486 1869.06 201.486 Q1871.2 201.486 1873.52 199.588 Q1875.88 197.691 1877.63 194.108 Q1878.72 191.789 1879.99 186.8 Q1881.29 181.776 1881.29 178.824 Z" fill="#000000" fill-rule="evenodd" fill-opacity="1" /><path clip-path="url(#clip520)" d="M 0 0 M1884.74 184.305 Q1884.74 172.149 1889.27 162.347 Q1891.2 158.236 1893.91 154.793 Q1896.61 151.35 1898.4 149.839 Q1900.2 148.328 1900.69 148.328 Q1901.39 148.328 1901.42 149.031 Q1901.42 149.382 1900.48 150.261 Q1888.88 162.066 1888.92 184.305 Q1888.92 206.615 1900.2 217.963 Q1901.42 219.193 1901.42 219.579 Q1901.42 220.282 1900.69 220.282 Q1900.2 220.282 1898.47 218.842 Q1896.75 217.401 1894.08 214.099 Q1891.41 210.796 1889.48 206.756 Q1884.74 196.953 1884.74 184.305 Z" fill="#000000" fill-rule="evenodd" fill-opacity="1" /><path clip-path="url(#clip520)" d="M 0 0 M1945.57 173.238 Q1945.57 173.73 1945.25 174.889 L1938.36 202.364 Q1936.85 208.477 1931.94 212.764 Q1927.05 217.05 1921.5 217.05 Q1918.16 217.05 1916.02 215.258 Q1913.88 213.501 1913.88 210.796 Q1913.88 208.407 1915.14 207.248 Q1916.41 206.123 1917.92 206.123 Q1918.41 206.123 1918.94 206.264 Q1919.46 206.404 1920.02 207.002 Q1920.59 207.599 1920.59 208.618 Q1920.59 210.269 1919.15 211.569 Q1918.44 212.166 1917.78 212.307 Q1917.14 212.447 1916.05 212.447 Q1916.48 213.431 1917.25 214.099 Q1918.02 214.766 1918.9 215.012 Q1919.78 215.293 1920.34 215.363 Q1920.94 215.469 1921.5 215.469 Q1926 215.469 1929.44 210.937 Q1930.46 209.566 1931.2 208.196 Q1931.97 206.861 1932.53 205.21 Q1933.09 203.594 1933.34 202.715 Q1933.62 201.837 1934.11 199.834 Q1930.85 203.102 1926.84 203.102 Q1925.15 203.102 1923.64 202.645 Q1922.17 202.188 1920.87 201.24 Q1919.57 200.256 1918.8 198.534 Q1918.06 196.813 1918.06 194.529 Q1918.06 192.105 1919.01 188.802 Q1919.95 185.5 1922.24 179.422 Q1923.47 176.014 1923.47 174.362 Q1923.47 173.554 1923.29 173.062 Q1923.12 172.535 1922.77 172.36 Q1922.41 172.149 1922.2 172.114 Q1922.03 172.079 1921.68 172.079 Q1919.6 172.079 1917.67 174.187 Q1915.74 176.295 1914.4 181.003 Q1914.12 181.881 1913.95 182.092 Q1913.77 182.303 1913.24 182.303 Q1912.37 182.268 1912.37 181.565 Q1912.37 181.284 1912.68 180.195 Q1913 179.07 1913.74 177.419 Q1914.51 175.733 1915.56 174.222 Q1916.62 172.676 1918.27 171.587 Q1919.95 170.498 1921.89 170.498 Q1924.52 170.498 1926.14 172.219 Q1927.79 173.906 1927.79 176.4 Q1927.79 177.419 1927.51 178.333 Q1927.26 179.211 1926.35 181.565 Q1922.66 191.051 1922.66 195.689 Q1922.66 196.813 1922.84 197.761 Q1923.05 198.675 1923.5 199.588 Q1923.96 200.467 1924.87 200.994 Q1925.82 201.486 1927.12 201.486 Q1928.77 201.486 1930.32 200.713 Q1931.9 199.905 1932.88 198.815 Q1933.9 197.726 1934.5 196.813 Q1935.13 195.864 1935.27 195.372 L1938.51 182.443 L1939.95 176.681 Q1940.61 173.554 1940.93 172.781 Q1941.35 172.044 1942.09 171.657 Q1942.83 171.271 1943.46 171.271 Q1944.34 171.271 1944.93 171.798 Q1945.57 172.325 1945.57 173.238 Z" fill="#000000" fill-rule="evenodd" fill-opacity="1" /><path clip-path="url(#clip520)" d="M 0 0 M1967.23 191.367 Q1967.3 190.489 1968.67 190.489 L2012.76 190.489 Q2014.84 190.489 2014.87 191.297 Q2014.87 192.175 2012.9 192.14 L1969.16 192.14 Q1967.23 192.175 1967.23 191.367 M1967.23 177.314 Q1967.23 176.435 1968.74 176.47 L2012.69 176.47 Q2014.84 176.47 2014.87 177.314 Q2014.87 178.122 2013.04 178.122 L1968.67 178.122 Q1967.23 178.122 1967.23 177.314 Z" fill="#000000" fill-rule="evenodd" fill-opacity="1" /><path clip-path="url(#clip520)" d="M 0 0 M2061 157.323 Q2061 158.868 2059.73 160.028 Q2058.5 161.152 2057.17 161.152 Q2055.94 161.152 2055.17 160.414 Q2054.43 159.641 2054.43 158.552 Q2054.43 157.112 2055.66 155.917 Q2056.89 154.723 2058.33 154.723 Q2059.52 154.723 2060.26 155.461 Q2061 156.198 2061 157.323 M2061.63 192 Q2061.63 192.281 2061.31 193.405 Q2061 194.494 2060.23 196.18 Q2059.49 197.832 2058.47 199.378 Q2057.45 200.923 2055.76 202.013 Q2054.11 203.102 2052.22 203.102 Q2049.65 203.102 2047.96 201.415 Q2046.31 199.729 2046.31 197.199 Q2046.31 195.829 2047.96 191.437 Q2052.74 178.649 2052.92 178.122 Q2053.73 176.119 2053.73 174.362 Q2053.73 173.554 2053.55 173.062 Q2053.37 172.535 2053.02 172.36 Q2052.67 172.149 2052.46 172.114 Q2052.29 172.079 2051.93 172.079 Q2049.86 172.079 2047.93 174.187 Q2046 176.295 2044.66 181.003 Q2044.38 181.881 2044.2 182.092 Q2044.03 182.303 2043.5 182.303 Q2042.62 182.268 2042.62 181.565 Q2042.62 181.354 2042.87 180.546 Q2043.12 179.703 2043.57 178.438 Q2044.03 177.138 2044.84 175.803 Q2045.65 174.433 2046.63 173.238 Q2047.65 172.044 2049.09 171.271 Q2050.53 170.498 2052.14 170.498 Q2054.78 170.498 2056.4 172.219 Q2058.05 173.906 2058.05 176.4 Q2058.05 177.77 2057.1 180.195 Q2055.94 183.357 2055.52 184.376 L2052.71 191.929 Q2051.69 194.67 2051.37 195.513 Q2051.09 196.321 2050.84 197.305 Q2050.63 198.253 2050.63 199.132 Q2050.63 200.361 2051.02 200.923 Q2051.44 201.486 2052.36 201.486 Q2054.89 201.486 2056.75 198.991 Q2058.61 196.462 2059.7 192.597 Q2059.73 192.491 2059.77 192.316 Q2060.05 191.437 2060.33 191.332 Q2060.47 191.297 2060.75 191.297 Q2061.63 191.297 2061.63 192 Z" fill="#000000" fill-rule="evenodd" fill-opacity="1" /><path clip-path="url(#clip520)" d="M 0 0 M2067.19 218.069 L2067.19 151.069 Q2067.19 148.399 2068.63 148.399 Q2070.07 148.399 2070.07 150.542 L2070.07 217.542 Q2070.07 220.212 2068.63 220.212 Q2067.19 220.212 2067.19 218.069 Z" fill="#000000" fill-rule="evenodd" fill-opacity="1" /><path clip-path="url(#clip520)" d="M 0 0 M2126.61 166.317 Q2126.61 172.219 2124.72 178.86 Q2122.85 185.465 2119.9 190.805 Q2116.95 196.11 2113.09 199.624 Q2109.22 203.102 2105.53 203.102 Q2103.18 203.102 2101.42 201.802 Q2099.7 200.467 2098.75 198.253 Q2097.8 196.005 2097.35 193.545 Q2096.89 191.051 2096.89 188.346 Q2096.89 184.305 2097.77 179.914 Q2098.65 175.487 2100.12 171.481 Q2101.6 167.441 2103.67 163.787 Q2105.74 160.098 2108.03 157.428 Q2110.35 154.723 2112.95 153.142 Q2115.55 151.561 2117.97 151.561 Q2119.73 151.561 2121.13 152.334 Q2122.57 153.071 2123.49 154.371 Q2124.4 155.636 2125.03 157.147 Q2125.7 158.658 2126.02 160.414 Q2126.33 162.136 2126.47 163.576 Q2126.61 164.982 2126.61 166.317 M2121.87 161.855 Q2121.87 160.063 2121.73 158.728 Q2121.59 157.358 2121.2 155.988 Q2120.82 154.617 2119.97 153.88 Q2119.17 153.142 2117.9 153.142 Q2114.21 153.142 2110.07 160.695 Q2108.73 163.049 2107.54 166.247 Q2106.34 169.444 2105.92 170.954 Q2105.5 172.465 2104.51 176.189 L2119.55 176.189 Q2121.87 166.598 2121.87 161.855 M2118.92 178.473 L2103.95 178.473 Q2101.63 187.256 2101.63 192.737 Q2101.63 197.516 2102.62 199.518 Q2103.64 201.486 2105.53 201.486 Q2107.71 201.486 2109.75 199.307 Q2111.79 197.094 2113.86 193.089 Q2116.6 187.889 2118.92 178.473 Z" fill="#000000" fill-rule="evenodd" fill-opacity="1" /><path clip-path="url(#clip520)" d="M 0 0 M2131.32 201.134 Q2130.3 199.975 2130.3 198.464 Q2130.3 196.953 2131.28 195.829 Q2132.3 194.67 2134.13 194.67 Q2136.27 194.67 2137.5 196.743 Q2138.73 198.78 2138.73 202.223 Q2138.73 205.948 2137.22 209.391 Q2135.71 212.869 2134.23 214.52 Q2132.76 216.171 2132.16 216.171 Q2131.46 216.171 2131.46 215.399 Q2131.46 215.117 2131.95 214.59 Q2137.11 209.039 2137.15 202.223 Q2137.15 201.134 2137.01 201.134 L2136.83 201.275 Q2135.6 202.294 2134.13 202.294 Q2132.33 202.294 2131.32 201.134 Z" fill="#000000" fill-rule="evenodd" fill-opacity="1" /><path clip-path="url(#clip520)" d="M 0 0 M2200.43 192 Q2200.43 192.281 2200.12 193.37 Q2199.8 194.459 2199.03 196.145 Q2198.29 197.832 2197.27 199.378 Q2196.25 200.888 2194.56 202.013 Q2192.91 203.102 2191.02 203.102 Q2188.49 203.102 2186.8 201.415 Q2185.11 199.729 2185.11 197.199 Q2185.11 195.794 2185.85 193.862 Q2190.52 181.389 2190.52 177.103 Q2190.52 172.079 2186.62 172.079 Q2184.69 172.079 2182.86 172.817 Q2181.07 173.519 2179.84 174.503 Q2178.61 175.487 2177.49 176.857 Q2176.4 178.192 2175.84 179.105 Q2175.31 179.984 2174.89 180.862 L2173.98 184.446 Q2173.77 185.43 2172.75 189.259 L2171.17 195.759 Q2170.04 200.607 2169.8 201.064 Q2169.44 202.048 2168.67 202.575 Q2167.9 203.102 2167.12 203.102 Q2166.25 203.102 2165.65 202.575 Q2165.05 202.048 2165.05 201.134 Q2165.05 200.994 2165.16 200.467 Q2165.26 199.94 2165.44 199.202 Q2165.61 198.464 2165.68 198.043 L2169.87 181.424 Q2170.64 178.403 2170.81 177.454 Q2171.02 176.47 2171.02 175.381 Q2171.02 172.079 2168.78 172.079 Q2166.95 172.079 2165.75 174.257 Q2164.56 176.435 2163.54 180.651 Q2163.23 181.811 2163.01 182.057 Q2162.84 182.303 2162.31 182.303 Q2161.43 182.268 2161.43 181.565 Q2161.43 181.389 2161.71 180.23 Q2162 179.07 2162.52 177.419 Q2163.08 175.733 2163.61 174.608 Q2164.07 173.765 2164.31 173.379 Q2164.6 172.957 2165.26 172.149 Q2165.97 171.306 2166.88 170.919 Q2167.83 170.498 2168.99 170.498 Q2171.59 170.498 2173.48 172.184 Q2175.38 173.835 2175.63 176.752 Q2180.3 170.498 2186.83 170.498 Q2190.7 170.498 2192.91 172.535 Q2195.13 174.573 2195.13 178.192 Q2195.13 179.035 2194.95 180.124 Q2194.81 181.178 2194.46 182.513 Q2194.14 183.849 2193.86 184.867 Q2193.58 185.886 2193.02 187.538 Q2192.46 189.154 2192.21 189.856 Q2191.96 190.559 2191.37 192.21 Q2190.81 193.826 2190.73 194.002 Q2189.43 197.27 2189.43 199.132 Q2189.43 200.361 2189.82 200.923 Q2190.24 201.486 2191.16 201.486 Q2193.62 201.486 2195.44 199.061 Q2197.3 196.602 2198.5 192.597 Q2198.78 191.718 2198.92 191.508 Q2199.1 191.297 2199.59 191.297 Q2200.43 191.297 2200.43 192 Z" fill="#000000" fill-rule="evenodd" fill-opacity="1" /><path clip-path="url(#clip520)" d="M 0 0 M2204.16 219.579 Q2204.16 219.228 2205.08 218.35 Q2216.67 206.545 2216.67 184.305 Q2216.67 161.995 2205.54 150.717 Q2204.16 149.418 2204.16 149.031 Q2204.16 148.328 2204.87 148.328 Q2205.36 148.328 2207.08 149.769 Q2208.84 151.209 2211.47 154.512 Q2214.14 157.814 2216.11 161.855 Q2220.85 171.657 2220.85 184.305 Q2220.85 196.462 2216.32 206.264 Q2214.39 210.374 2211.68 213.818 Q2208.98 217.261 2207.19 218.771 Q2205.39 220.282 2204.87 220.282 Q2204.16 220.282 2204.16 219.579 Z" fill="#000000" fill-rule="evenodd" fill-opacity="1" /></svg>
