<?xml version="1.0" encoding="utf-8"?>
<svg xmlns="http://www.w3.org/2000/svg" xmlns:xlink="http://www.w3.org/1999/xlink" width="600" height="400" viewBox="0 0 2400 1600">
<defs>
  <clipPath id="clip600">
    <rect x="0" y="0" width="2400" height="1600"/>
  </clipPath>
</defs>
<path clip-path="url(#clip600)" d="
M0 1600 L2400 1600 L2400 0 L0 0  Z
  " fill="#ffffff" fill-rule="evenodd" fill-opacity="1"/>
<defs>
  <clipPath id="clip601">
    <rect x="480" y="0" width="1681" height="1600"/>
  </clipPath>
</defs>
<defs>
  <clipPath id="clip602">
    <rect x="249" y="47" width="2104" height="1393"/>
  </clipPath>
</defs>
<path clip-path="url(#clip600)" d="
M203.964 1439.5 L2352.76 1439.5 L2352.76 47.2441 L203.964 47.2441  Z
  " fill="#ffffff" fill-rule="evenodd" fill-opacity="1"/>
<defs>
  <clipPath id="clip603">
    <rect x="203" y="47" width="2150" height="1393"/>
  </clipPath>
</defs>
<polyline clip-path="url(#clip603)" style="stroke:#000000; stroke-width:2; stroke-opacity:0.1; fill:none" points="
  264.778,1439.5 264.778,47.2441 
  "/>
<polyline clip-path="url(#clip603)" style="stroke:#000000; stroke-width:2; stroke-opacity:0.1; fill:none" points="
  771.569,1439.5 771.569,47.2441 
  "/>
<polyline clip-path="url(#clip603)" style="stroke:#000000; stroke-width:2; stroke-opacity:0.1; fill:none" points="
  1278.36,1439.5 1278.36,47.2441 
  "/>
<polyline clip-path="url(#clip603)" style="stroke:#000000; stroke-width:2; stroke-opacity:0.1; fill:none" points="
  1785.15,1439.5 1785.15,47.2441 
  "/>
<polyline clip-path="url(#clip603)" style="stroke:#000000; stroke-width:2; stroke-opacity:0.1; fill:none" points="
  2291.94,1439.5 2291.94,47.2441 
  "/>
<polyline clip-path="url(#clip600)" style="stroke:#000000; stroke-width:4; stroke-opacity:1; fill:none" points="
  203.964,1439.5 2352.76,1439.5 
  "/>
<polyline clip-path="url(#clip600)" style="stroke:#000000; stroke-width:4; stroke-opacity:1; fill:none" points="
  264.778,1439.5 264.778,1422.79 
  "/>
<polyline clip-path="url(#clip600)" style="stroke:#000000; stroke-width:4; stroke-opacity:1; fill:none" points="
  771.569,1439.5 771.569,1422.79 
  "/>
<polyline clip-path="url(#clip600)" style="stroke:#000000; stroke-width:4; stroke-opacity:1; fill:none" points="
  1278.36,1439.5 1278.36,1422.79 
  "/>
<polyline clip-path="url(#clip600)" style="stroke:#000000; stroke-width:4; stroke-opacity:1; fill:none" points="
  1785.15,1439.5 1785.15,1422.79 
  "/>
<polyline clip-path="url(#clip600)" style="stroke:#000000; stroke-width:4; stroke-opacity:1; fill:none" points="
  2291.94,1439.5 2291.94,1422.79 
  "/>
<path clip-path="url(#clip600)" d="M 0 0 M227.082 1468.69 Q223.471 1468.69 221.642 1472.26 Q219.837 1475.8 219.837 1482.93 Q219.837 1490.04 221.642 1493.6 Q223.471 1497.14 227.082 1497.14 Q230.716 1497.14 232.522 1493.6 Q234.35 1490.04 234.35 1482.93 Q234.35 1475.8 232.522 1472.26 Q230.716 1468.69 227.082 1468.69 M227.082 1464.99 Q232.892 1464.99 235.948 1469.6 Q239.026 1474.18 239.026 1482.93 Q239.026 1491.66 235.948 1496.26 Q232.892 1500.85 227.082 1500.85 Q221.272 1500.85 218.193 1496.26 Q215.138 1491.66 215.138 1482.93 Q215.138 1474.18 218.193 1469.6 Q221.272 1464.99 227.082 1464.99 Z" fill="#000000" fill-rule="evenodd" fill-opacity="1" /><path clip-path="url(#clip600)" d="M 0 0 M247.244 1494.29 L252.128 1494.29 L252.128 1500.17 L247.244 1500.17 L247.244 1494.29 Z" fill="#000000" fill-rule="evenodd" fill-opacity="1" /><path clip-path="url(#clip600)" d="M 0 0 M272.313 1468.69 Q268.702 1468.69 266.873 1472.26 Q265.068 1475.8 265.068 1482.93 Q265.068 1490.04 266.873 1493.6 Q268.702 1497.14 272.313 1497.14 Q275.947 1497.14 277.753 1493.6 Q279.582 1490.04 279.582 1482.93 Q279.582 1475.8 277.753 1472.26 Q275.947 1468.69 272.313 1468.69 M272.313 1464.99 Q278.123 1464.99 281.179 1469.6 Q284.258 1474.18 284.258 1482.93 Q284.258 1491.66 281.179 1496.26 Q278.123 1500.85 272.313 1500.85 Q266.503 1500.85 263.424 1496.26 Q260.369 1491.66 260.369 1482.93 Q260.369 1474.18 263.424 1469.6 Q266.503 1464.99 272.313 1464.99 Z" fill="#000000" fill-rule="evenodd" fill-opacity="1" /><path clip-path="url(#clip600)" d="M 0 0 M302.475 1468.69 Q298.864 1468.69 297.035 1472.26 Q295.23 1475.8 295.23 1482.93 Q295.23 1490.04 297.035 1493.6 Q298.864 1497.14 302.475 1497.14 Q306.109 1497.14 307.915 1493.6 Q309.743 1490.04 309.743 1482.93 Q309.743 1475.8 307.915 1472.26 Q306.109 1468.69 302.475 1468.69 M302.475 1464.99 Q308.285 1464.99 311.341 1469.6 Q314.419 1474.18 314.419 1482.93 Q314.419 1491.66 311.341 1496.26 Q308.285 1500.85 302.475 1500.85 Q296.665 1500.85 293.586 1496.26 Q290.531 1491.66 290.531 1482.93 Q290.531 1474.18 293.586 1469.6 Q296.665 1464.99 302.475 1464.99 Z" fill="#000000" fill-rule="evenodd" fill-opacity="1" /><path clip-path="url(#clip600)" d="M 0 0 M734.37 1468.69 Q730.759 1468.69 728.93 1472.26 Q727.125 1475.8 727.125 1482.93 Q727.125 1490.04 728.93 1493.6 Q730.759 1497.14 734.37 1497.14 Q738.004 1497.14 739.81 1493.6 Q741.639 1490.04 741.639 1482.93 Q741.639 1475.8 739.81 1472.26 Q738.004 1468.69 734.37 1468.69 M734.37 1464.99 Q740.18 1464.99 743.236 1469.6 Q746.315 1474.18 746.315 1482.93 Q746.315 1491.66 743.236 1496.26 Q740.18 1500.85 734.37 1500.85 Q728.56 1500.85 725.481 1496.26 Q722.426 1491.66 722.426 1482.93 Q722.426 1474.18 725.481 1469.6 Q728.56 1464.99 734.37 1464.99 Z" fill="#000000" fill-rule="evenodd" fill-opacity="1" /><path clip-path="url(#clip600)" d="M 0 0 M754.532 1494.29 L759.416 1494.29 L759.416 1500.17 L754.532 1500.17 L754.532 1494.29 Z" fill="#000000" fill-rule="evenodd" fill-opacity="1" /><path clip-path="url(#clip600)" d="M 0 0 M773.629 1496.24 L789.949 1496.24 L789.949 1500.17 L768.004 1500.17 L768.004 1496.24 Q770.666 1493.48 775.25 1488.85 Q779.856 1484.2 781.037 1482.86 Q783.282 1480.34 784.162 1478.6 Q785.064 1476.84 785.064 1475.15 Q785.064 1472.4 783.12 1470.66 Q781.199 1468.92 778.097 1468.92 Q775.898 1468.92 773.444 1469.69 Q771.014 1470.45 768.236 1472 L768.236 1467.28 Q771.06 1466.15 773.514 1465.57 Q775.967 1464.99 778.004 1464.99 Q783.375 1464.99 786.569 1467.67 Q789.763 1470.36 789.763 1474.85 Q789.763 1476.98 788.953 1478.9 Q788.166 1480.8 786.06 1483.39 Q785.481 1484.06 782.379 1487.28 Q779.277 1490.47 773.629 1496.24 Z" fill="#000000" fill-rule="evenodd" fill-opacity="1" /><path clip-path="url(#clip600)" d="M 0 0 M799.81 1465.61 L818.166 1465.61 L818.166 1469.55 L804.092 1469.55 L804.092 1478.02 Q805.111 1477.67 806.129 1477.51 Q807.148 1477.33 808.166 1477.33 Q813.953 1477.33 817.333 1480.5 Q820.712 1483.67 820.712 1489.09 Q820.712 1494.66 817.24 1497.77 Q813.768 1500.85 807.449 1500.85 Q805.273 1500.85 803.004 1500.47 Q800.759 1500.1 798.351 1499.36 L798.351 1494.66 Q800.435 1495.8 802.657 1496.35 Q804.879 1496.91 807.356 1496.91 Q811.361 1496.91 813.698 1494.8 Q816.036 1492.7 816.036 1489.09 Q816.036 1485.47 813.698 1483.37 Q811.361 1481.26 807.356 1481.26 Q805.481 1481.26 803.606 1481.68 Q801.754 1482.1 799.81 1482.97 L799.81 1465.61 Z" fill="#000000" fill-rule="evenodd" fill-opacity="1" /><path clip-path="url(#clip600)" d="M 0 0 M1240.66 1468.69 Q1237.05 1468.69 1235.22 1472.26 Q1233.42 1475.8 1233.42 1482.93 Q1233.42 1490.04 1235.22 1493.6 Q1237.05 1497.14 1240.66 1497.14 Q1244.3 1497.14 1246.1 1493.6 Q1247.93 1490.04 1247.93 1482.93 Q1247.93 1475.8 1246.1 1472.26 Q1244.3 1468.69 1240.66 1468.69 M1240.66 1464.99 Q1246.47 1464.99 1249.53 1469.6 Q1252.61 1474.18 1252.61 1482.93 Q1252.61 1491.66 1249.53 1496.26 Q1246.47 1500.85 1240.66 1500.85 Q1234.85 1500.85 1231.77 1496.26 Q1228.72 1491.66 1228.72 1482.93 Q1228.72 1474.18 1231.77 1469.6 Q1234.85 1464.99 1240.66 1464.99 Z" fill="#000000" fill-rule="evenodd" fill-opacity="1" /><path clip-path="url(#clip600)" d="M 0 0 M1260.83 1494.29 L1265.71 1494.29 L1265.71 1500.17 L1260.83 1500.17 L1260.83 1494.29 Z" fill="#000000" fill-rule="evenodd" fill-opacity="1" /><path clip-path="url(#clip600)" d="M 0 0 M1275.94 1465.61 L1294.3 1465.61 L1294.3 1469.55 L1280.22 1469.55 L1280.22 1478.02 Q1281.24 1477.67 1282.26 1477.51 Q1283.28 1477.33 1284.3 1477.33 Q1290.08 1477.33 1293.46 1480.5 Q1296.84 1483.67 1296.84 1489.09 Q1296.84 1494.66 1293.37 1497.77 Q1289.9 1500.85 1283.58 1500.85 Q1281.4 1500.85 1279.14 1500.47 Q1276.89 1500.1 1274.48 1499.36 L1274.48 1494.66 Q1276.57 1495.8 1278.79 1496.35 Q1281.01 1496.91 1283.49 1496.91 Q1287.49 1496.91 1289.83 1494.8 Q1292.17 1492.7 1292.17 1489.09 Q1292.17 1485.47 1289.83 1483.37 Q1287.49 1481.26 1283.49 1481.26 Q1281.61 1481.26 1279.74 1481.68 Q1277.89 1482.1 1275.94 1482.97 L1275.94 1465.61 Z" fill="#000000" fill-rule="evenodd" fill-opacity="1" /><path clip-path="url(#clip600)" d="M 0 0 M1316.06 1468.69 Q1312.45 1468.69 1310.62 1472.26 Q1308.81 1475.8 1308.81 1482.93 Q1308.81 1490.04 1310.62 1493.6 Q1312.45 1497.14 1316.06 1497.14 Q1319.69 1497.14 1321.5 1493.6 Q1323.32 1490.04 1323.32 1482.93 Q1323.32 1475.8 1321.5 1472.26 Q1319.69 1468.69 1316.06 1468.69 M1316.06 1464.99 Q1321.87 1464.99 1324.92 1469.6 Q1328 1474.18 1328 1482.93 Q1328 1491.66 1324.92 1496.26 Q1321.87 1500.85 1316.06 1500.85 Q1310.25 1500.85 1307.17 1496.26 Q1304.11 1491.66 1304.11 1482.93 Q1304.11 1474.18 1307.17 1469.6 Q1310.25 1464.99 1316.06 1464.99 Z" fill="#000000" fill-rule="evenodd" fill-opacity="1" /><path clip-path="url(#clip600)" d="M 0 0 M1747.95 1468.69 Q1744.34 1468.69 1742.51 1472.26 Q1740.71 1475.8 1740.71 1482.93 Q1740.71 1490.04 1742.51 1493.6 Q1744.34 1497.14 1747.95 1497.14 Q1751.59 1497.14 1753.39 1493.6 Q1755.22 1490.04 1755.22 1482.93 Q1755.22 1475.8 1753.39 1472.26 Q1751.59 1468.69 1747.95 1468.69 M1747.95 1464.99 Q1753.76 1464.99 1756.82 1469.6 Q1759.9 1474.18 1759.9 1482.93 Q1759.9 1491.66 1756.82 1496.26 Q1753.76 1500.85 1747.95 1500.85 Q1742.14 1500.85 1739.06 1496.26 Q1736.01 1491.66 1736.01 1482.93 Q1736.01 1474.18 1739.06 1469.6 Q1742.14 1464.99 1747.95 1464.99 Z" fill="#000000" fill-rule="evenodd" fill-opacity="1" /><path clip-path="url(#clip600)" d="M 0 0 M1768.11 1494.29 L1773 1494.29 L1773 1500.17 L1768.11 1500.17 L1768.11 1494.29 Z" fill="#000000" fill-rule="evenodd" fill-opacity="1" /><path clip-path="url(#clip600)" d="M 0 0 M1782 1465.61 L1804.22 1465.61 L1804.22 1467.6 L1791.68 1500.17 L1786.79 1500.17 L1798.6 1469.55 L1782 1469.55 L1782 1465.61 Z" fill="#000000" fill-rule="evenodd" fill-opacity="1" /><path clip-path="url(#clip600)" d="M 0 0 M1813.39 1465.61 L1831.75 1465.61 L1831.75 1469.55 L1817.67 1469.55 L1817.67 1478.02 Q1818.69 1477.67 1819.71 1477.51 Q1820.73 1477.33 1821.75 1477.33 Q1827.53 1477.33 1830.91 1480.5 Q1834.29 1483.67 1834.29 1489.09 Q1834.29 1494.66 1830.82 1497.77 Q1827.35 1500.85 1821.03 1500.85 Q1818.85 1500.85 1816.59 1500.47 Q1814.34 1500.1 1811.93 1499.36 L1811.93 1494.66 Q1814.02 1495.8 1816.24 1496.35 Q1818.46 1496.91 1820.94 1496.91 Q1824.94 1496.91 1827.28 1494.8 Q1829.62 1492.7 1829.62 1489.09 Q1829.62 1485.47 1827.28 1483.37 Q1824.94 1481.26 1820.94 1481.26 Q1819.06 1481.26 1817.19 1481.68 Q1815.34 1482.1 1813.39 1482.97 L1813.39 1465.61 Z" fill="#000000" fill-rule="evenodd" fill-opacity="1" /><path clip-path="url(#clip600)" d="M 0 0 M2244.01 1496.24 L2251.65 1496.24 L2251.65 1469.87 L2243.34 1471.54 L2243.34 1467.28 L2251.61 1465.61 L2256.28 1465.61 L2256.28 1496.24 L2263.92 1496.24 L2263.92 1500.17 L2244.01 1500.17 L2244.01 1496.24 Z" fill="#000000" fill-rule="evenodd" fill-opacity="1" /><path clip-path="url(#clip600)" d="M 0 0 M2273.36 1494.29 L2278.25 1494.29 L2278.25 1500.17 L2273.36 1500.17 L2273.36 1494.29 Z" fill="#000000" fill-rule="evenodd" fill-opacity="1" /><path clip-path="url(#clip600)" d="M 0 0 M2298.43 1468.69 Q2294.82 1468.69 2292.99 1472.26 Q2291.19 1475.8 2291.19 1482.93 Q2291.19 1490.04 2292.99 1493.6 Q2294.82 1497.14 2298.43 1497.14 Q2302.07 1497.14 2303.87 1493.6 Q2305.7 1490.04 2305.7 1482.93 Q2305.7 1475.8 2303.87 1472.26 Q2302.07 1468.69 2298.43 1468.69 M2298.43 1464.99 Q2304.24 1464.99 2307.3 1469.6 Q2310.38 1474.18 2310.38 1482.93 Q2310.38 1491.66 2307.3 1496.26 Q2304.24 1500.85 2298.43 1500.85 Q2292.62 1500.85 2289.55 1496.26 Q2286.49 1491.66 2286.49 1482.93 Q2286.49 1474.18 2289.55 1469.6 Q2292.62 1464.99 2298.43 1464.99 Z" fill="#000000" fill-rule="evenodd" fill-opacity="1" /><path clip-path="url(#clip600)" d="M 0 0 M2328.6 1468.69 Q2324.98 1468.69 2323.16 1472.26 Q2321.35 1475.8 2321.35 1482.93 Q2321.35 1490.04 2323.16 1493.6 Q2324.98 1497.14 2328.6 1497.14 Q2332.23 1497.14 2334.04 1493.6 Q2335.86 1490.04 2335.86 1482.93 Q2335.86 1475.8 2334.04 1472.26 Q2332.23 1468.69 2328.6 1468.69 M2328.6 1464.99 Q2334.41 1464.99 2337.46 1469.6 Q2340.54 1474.18 2340.54 1482.93 Q2340.54 1491.66 2337.46 1496.26 Q2334.41 1500.85 2328.6 1500.85 Q2322.79 1500.85 2319.71 1496.26 Q2316.65 1491.66 2316.65 1482.93 Q2316.65 1474.18 2319.71 1469.6 Q2322.79 1464.99 2328.6 1464.99 Z" fill="#000000" fill-rule="evenodd" fill-opacity="1" /><path clip-path="url(#clip600)" d="M 0 0 M1290.29 1535.75 Q1290.29 1541.16 1288.56 1547.24 Q1286.85 1553.3 1284.14 1558.19 Q1281.44 1563.06 1277.9 1566.28 Q1274.35 1569.47 1270.97 1569.47 Q1268.81 1569.47 1267.2 1568.27 Q1265.62 1567.05 1264.76 1565.02 Q1263.89 1562.96 1263.47 1560.71 Q1263.05 1558.42 1263.05 1555.94 Q1263.05 1552.24 1263.85 1548.21 Q1264.66 1544.15 1266.01 1540.48 Q1267.36 1536.78 1269.26 1533.43 Q1271.16 1530.05 1273.26 1527.6 Q1275.38 1525.12 1277.77 1523.67 Q1280.15 1522.22 1282.37 1522.22 Q1283.98 1522.22 1285.27 1522.93 Q1286.59 1523.6 1287.43 1524.8 Q1288.27 1525.96 1288.85 1527.34 Q1289.46 1528.73 1289.75 1530.34 Q1290.04 1531.91 1290.17 1533.23 Q1290.29 1534.52 1290.29 1535.75 M1285.95 1531.66 Q1285.95 1530.01 1285.82 1528.79 Q1285.69 1527.53 1285.33 1526.28 Q1284.98 1525.02 1284.21 1524.35 Q1283.47 1523.67 1282.31 1523.67 Q1278.93 1523.67 1275.13 1530.59 Q1273.9 1532.75 1272.81 1535.68 Q1271.71 1538.61 1271.33 1540 Q1270.94 1541.38 1270.04 1544.8 L1283.82 1544.8 Q1285.95 1536 1285.95 1531.66 M1283.24 1546.89 L1269.52 1546.89 Q1267.4 1554.94 1267.4 1559.96 Q1267.4 1564.34 1268.3 1566.18 Q1269.23 1567.98 1270.97 1567.98 Q1272.97 1567.98 1274.84 1565.99 Q1276.7 1563.96 1278.6 1560.29 Q1281.12 1555.52 1283.24 1546.89 Z" fill="#000000" fill-rule="evenodd" fill-opacity="1" /><polyline clip-path="url(#clip603)" style="stroke:#000000; stroke-width:2; stroke-opacity:0.1; fill:none" points="
  203.964,1228.92 2352.76,1228.92 
  "/>
<polyline clip-path="url(#clip603)" style="stroke:#000000; stroke-width:2; stroke-opacity:0.1; fill:none" points="
  203.964,991.04 2352.76,991.04 
  "/>
<polyline clip-path="url(#clip603)" style="stroke:#000000; stroke-width:2; stroke-opacity:0.1; fill:none" points="
  203.964,753.159 2352.76,753.159 
  "/>
<polyline clip-path="url(#clip603)" style="stroke:#000000; stroke-width:2; stroke-opacity:0.1; fill:none" points="
  203.964,515.278 2352.76,515.278 
  "/>
<polyline clip-path="url(#clip603)" style="stroke:#000000; stroke-width:2; stroke-opacity:0.1; fill:none" points="
  203.964,277.397 2352.76,277.397 
  "/>
<polyline clip-path="url(#clip600)" style="stroke:#000000; stroke-width:4; stroke-opacity:1; fill:none" points="
  203.964,1439.5 203.964,47.2441 
  "/>
<polyline clip-path="url(#clip600)" style="stroke:#000000; stroke-width:4; stroke-opacity:1; fill:none" points="
  203.964,1228.92 229.749,1228.92 
  "/>
<polyline clip-path="url(#clip600)" style="stroke:#000000; stroke-width:4; stroke-opacity:1; fill:none" points="
  203.964,991.04 229.749,991.04 
  "/>
<polyline clip-path="url(#clip600)" style="stroke:#000000; stroke-width:4; stroke-opacity:1; fill:none" points="
  203.964,753.159 229.749,753.159 
  "/>
<polyline clip-path="url(#clip600)" style="stroke:#000000; stroke-width:4; stroke-opacity:1; fill:none" points="
  203.964,515.278 229.749,515.278 
  "/>
<polyline clip-path="url(#clip600)" style="stroke:#000000; stroke-width:4; stroke-opacity:1; fill:none" points="
  203.964,277.397 229.749,277.397 
  "/>
<path clip-path="url(#clip600)" d="M 0 0 M147.061 1211.64 L165.417 1211.64 L165.417 1215.58 L151.343 1215.58 L151.343 1224.05 Q152.362 1223.7 153.38 1223.54 Q154.399 1223.35 155.417 1223.35 Q161.204 1223.35 164.584 1226.53 Q167.964 1229.7 167.964 1235.11 Q167.964 1240.69 164.491 1243.79 Q161.019 1246.87 154.7 1246.87 Q152.524 1246.87 150.255 1246.5 Q148.01 1246.13 145.603 1245.39 L145.603 1240.69 Q147.686 1241.83 149.908 1242.38 Q152.13 1242.94 154.607 1242.94 Q158.612 1242.94 160.95 1240.83 Q163.288 1238.72 163.288 1235.11 Q163.288 1231.5 160.95 1229.4 Q158.612 1227.29 154.607 1227.29 Q152.732 1227.29 150.857 1227.71 Q149.005 1228.12 147.061 1229 L147.061 1211.64 Z" fill="#000000" fill-rule="evenodd" fill-opacity="1" /><path clip-path="url(#clip600)" d="M 0 0 M116.668 1004.39 L124.306 1004.39 L124.306 978.02 L115.996 979.686 L115.996 975.427 L124.26 973.76 L128.936 973.76 L128.936 1004.39 L136.575 1004.39 L136.575 1008.32 L116.668 1008.32 L116.668 1004.39 Z" fill="#000000" fill-rule="evenodd" fill-opacity="1" /><path clip-path="url(#clip600)" d="M 0 0 M156.019 976.839 Q152.408 976.839 150.579 980.404 Q148.774 983.946 148.774 991.075 Q148.774 998.182 150.579 1001.75 Q152.408 1005.29 156.019 1005.29 Q159.653 1005.29 161.459 1001.75 Q163.288 998.182 163.288 991.075 Q163.288 983.946 161.459 980.404 Q159.653 976.839 156.019 976.839 M156.019 973.135 Q161.829 973.135 164.885 977.742 Q167.964 982.325 167.964 991.075 Q167.964 999.802 164.885 1004.41 Q161.829 1008.99 156.019 1008.99 Q150.209 1008.99 147.13 1004.41 Q144.075 999.802 144.075 991.075 Q144.075 982.325 147.13 977.742 Q150.209 973.135 156.019 973.135 Z" fill="#000000" fill-rule="evenodd" fill-opacity="1" /><path clip-path="url(#clip600)" d="M 0 0 M117.663 766.504 L125.302 766.504 L125.302 740.139 L116.992 741.805 L116.992 737.546 L125.255 735.879 L129.931 735.879 L129.931 766.504 L137.57 766.504 L137.57 770.439 L117.663 770.439 L117.663 766.504 Z" fill="#000000" fill-rule="evenodd" fill-opacity="1" /><path clip-path="url(#clip600)" d="M 0 0 M147.061 735.879 L165.417 735.879 L165.417 739.815 L151.343 739.815 L151.343 748.287 Q152.362 747.94 153.38 747.778 Q154.399 747.592 155.417 747.592 Q161.204 747.592 164.584 750.764 Q167.964 753.935 167.964 759.352 Q167.964 764.93 164.491 768.032 Q161.019 771.111 154.7 771.111 Q152.524 771.111 150.255 770.74 Q148.01 770.37 145.603 769.629 L145.603 764.93 Q147.686 766.064 149.908 766.62 Q152.13 767.176 154.607 767.176 Q158.612 767.176 160.95 765.069 Q163.288 762.963 163.288 759.352 Q163.288 755.74 160.95 753.634 Q158.612 751.528 154.607 751.528 Q152.732 751.528 150.857 751.944 Q149.005 752.361 147.061 753.24 L147.061 735.879 Z" fill="#000000" fill-rule="evenodd" fill-opacity="1" /><path clip-path="url(#clip600)" d="M 0 0 M119.885 528.623 L136.204 528.623 L136.204 532.558 L114.26 532.558 L114.26 528.623 Q116.922 525.869 121.505 521.239 Q126.112 516.586 127.292 515.244 Q129.538 512.721 130.417 510.984 Q131.32 509.225 131.32 507.535 Q131.32 504.781 129.376 503.045 Q127.455 501.309 124.353 501.309 Q122.154 501.309 119.7 502.072 Q117.269 502.836 114.492 504.387 L114.492 499.665 Q117.316 498.531 119.769 497.952 Q122.223 497.373 124.26 497.373 Q129.63 497.373 132.825 500.059 Q136.019 502.744 136.019 507.234 Q136.019 509.364 135.209 511.285 Q134.422 513.184 132.316 515.776 Q131.737 516.447 128.635 519.665 Q125.533 522.859 119.885 528.623 Z" fill="#000000" fill-rule="evenodd" fill-opacity="1" /><path clip-path="url(#clip600)" d="M 0 0 M156.019 501.077 Q152.408 501.077 150.579 504.642 Q148.774 508.184 148.774 515.313 Q148.774 522.42 150.579 525.984 Q152.408 529.526 156.019 529.526 Q159.653 529.526 161.459 525.984 Q163.288 522.42 163.288 515.313 Q163.288 508.184 161.459 504.642 Q159.653 501.077 156.019 501.077 M156.019 497.373 Q161.829 497.373 164.885 501.98 Q167.964 506.563 167.964 515.313 Q167.964 524.04 164.885 528.646 Q161.829 533.23 156.019 533.23 Q150.209 533.23 147.13 528.646 Q144.075 524.04 144.075 515.313 Q144.075 506.563 147.13 501.98 Q150.209 497.373 156.019 497.373 Z" fill="#000000" fill-rule="evenodd" fill-opacity="1" /><path clip-path="url(#clip600)" d="M 0 0 M120.88 290.742 L137.2 290.742 L137.2 294.677 L115.256 294.677 L115.256 290.742 Q117.918 287.988 122.501 283.358 Q127.107 278.705 128.288 277.363 Q130.533 274.84 131.413 273.103 Q132.316 271.344 132.316 269.654 Q132.316 266.9 130.371 265.164 Q128.45 263.428 125.348 263.428 Q123.149 263.428 120.695 264.191 Q118.265 264.955 115.487 266.506 L115.487 261.784 Q118.311 260.65 120.765 260.071 Q123.218 259.492 125.255 259.492 Q130.626 259.492 133.82 262.178 Q137.015 264.863 137.015 269.353 Q137.015 271.483 136.204 273.404 Q135.417 275.302 133.311 277.895 Q132.732 278.566 129.63 281.784 Q126.529 284.978 120.88 290.742 Z" fill="#000000" fill-rule="evenodd" fill-opacity="1" /><path clip-path="url(#clip600)" d="M 0 0 M147.061 260.117 L165.417 260.117 L165.417 264.053 L151.343 264.053 L151.343 272.525 Q152.362 272.178 153.38 272.015 Q154.399 271.83 155.417 271.83 Q161.204 271.83 164.584 275.002 Q167.964 278.173 167.964 283.589 Q167.964 289.168 164.491 292.27 Q161.019 295.349 154.7 295.349 Q152.524 295.349 150.255 294.978 Q148.01 294.608 145.603 293.867 L145.603 289.168 Q147.686 290.302 149.908 290.858 Q152.13 291.414 154.607 291.414 Q158.612 291.414 160.95 289.307 Q163.288 287.201 163.288 283.589 Q163.288 279.978 160.95 277.872 Q158.612 275.765 154.607 275.765 Q152.732 275.765 150.857 276.182 Q149.005 276.599 147.061 277.478 L147.061 260.117 Z" fill="#000000" fill-rule="evenodd" fill-opacity="1" /><path clip-path="url(#clip600)" d="M 0 0 M16.4842 1110.5 L16.4842 1101.84 L56.238 1080.77 L16.4842 1080.77 L16.4842 1074.53 L64.0042 1074.53 L64.0042 1083.19 L24.2503 1104.26 L64.0042 1104.26 L64.0042 1110.5 L16.4842 1110.5 Z" fill="#000000" fill-rule="evenodd" fill-opacity="1" /><path clip-path="url(#clip600)" d="M 0 0 M44.7161 1031.5 L47.5806 1031.5 L47.5806 1058.43 Q53.6281 1058.05 56.8109 1054.8 Q59.9619 1051.52 59.9619 1045.7 Q59.9619 1042.32 59.1344 1039.17 Q58.3069 1035.99 56.6518 1032.87 L62.1899 1032.87 Q63.5267 1036.02 64.227 1039.33 Q64.9272 1042.64 64.9272 1046.05 Q64.9272 1054.58 59.9619 1059.57 Q54.9967 1064.54 46.5303 1064.54 Q37.7774 1064.54 32.6531 1059.83 Q27.4968 1055.09 27.4968 1047.06 Q27.4968 1039.87 32.1438 1035.7 Q36.7589 1031.5 44.7161 1031.5 M42.9973 1037.36 Q38.1912 1037.42 35.3266 1040.06 Q32.4621 1042.67 32.4621 1047 Q32.4621 1051.9 35.2312 1054.86 Q38.0002 1057.79 43.0292 1058.24 L42.9973 1037.36 Z" fill="#000000" fill-rule="evenodd" fill-opacity="1" /><path clip-path="url(#clip600)" d="M 0 0 M45.7664 998.431 Q39.4007 998.431 35.8996 1001.07 Q32.3984 1003.68 32.3984 1008.43 Q32.3984 1013.14 35.8996 1015.78 Q39.4007 1018.39 45.7664 1018.39 Q52.1003 1018.39 55.6014 1015.78 Q59.1026 1013.14 59.1026 1008.43 Q59.1026 1003.68 55.6014 1001.07 Q52.1003 998.431 45.7664 998.431 M59.58 992.575 Q68.683 992.575 73.1071 996.617 Q77.5631 1000.66 77.5631 1009 Q77.5631 1012.09 77.0857 1014.82 Q76.6401 1017.56 75.6852 1020.14 L69.9879 1020.14 Q71.3884 1017.56 72.0568 1015.05 Q72.7252 1012.53 72.7252 1009.92 Q72.7252 1004.16 69.7015 1001.3 Q66.7096 998.431 60.6303 998.431 L57.7339 998.431 Q60.885 1000.25 62.4446 1003.08 Q64.0042 1005.91 64.0042 1009.86 Q64.0042 1016.41 59.0071 1020.42 Q54.01 1024.43 45.7664 1024.43 Q37.491 1024.43 32.4939 1020.42 Q27.4968 1016.41 27.4968 1009.86 Q27.4968 1005.91 29.0564 1003.08 Q30.616 1000.25 33.7671 998.431 L28.3562 998.431 L28.3562 992.575 L59.58 992.575 Z" fill="#000000" fill-rule="evenodd" fill-opacity="1" /><path clip-path="url(#clip600)" d="M 0 0 M46.0847 964.311 Q46.0847 971.409 47.7079 974.146 Q49.3312 976.883 53.2461 976.883 Q56.3653 976.883 58.2114 974.846 Q60.0256 972.777 60.0256 969.244 Q60.0256 964.374 56.5881 961.446 Q53.1188 958.486 47.3897 958.486 L46.0847 958.486 L46.0847 964.311 M43.6657 952.63 L64.0042 952.63 L64.0042 958.486 L58.5933 958.486 Q61.8398 960.491 63.3994 963.483 Q64.9272 966.475 64.9272 970.804 Q64.9272 976.278 61.8716 979.525 Q58.7843 982.739 53.6281 982.739 Q47.6125 982.739 44.5569 978.729 Q41.5014 974.687 41.5014 966.698 L41.5014 958.486 L40.9285 958.486 Q36.8862 958.486 34.6901 961.16 Q32.4621 963.802 32.4621 968.608 Q32.4621 971.663 33.1941 974.56 Q33.9262 977.456 35.3903 980.13 L29.9795 980.13 Q28.7381 976.915 28.1334 973.891 Q27.4968 970.867 27.4968 968.003 Q27.4968 960.269 31.5072 956.449 Q35.5176 952.63 43.6657 952.63 Z" fill="#000000" fill-rule="evenodd" fill-opacity="1" /><path clip-path="url(#clip600)" d="M 0 0 M18.2347 934.774 L28.3562 934.774 L28.3562 922.711 L32.9077 922.711 L32.9077 934.774 L52.2594 934.774 Q56.6199 934.774 57.8613 933.596 Q59.1026 932.387 59.1026 928.726 L59.1026 922.711 L64.0042 922.711 L64.0042 928.726 Q64.0042 935.506 61.4897 938.084 Q58.9434 940.662 52.2594 940.662 L32.9077 940.662 L32.9077 944.959 L28.3562 944.959 L28.3562 940.662 L18.2347 940.662 L18.2347 934.774 Z" fill="#000000" fill-rule="evenodd" fill-opacity="1" /><path clip-path="url(#clip600)" d="M 0 0 M28.3562 915.008 L28.3562 909.152 L64.0042 909.152 L64.0042 915.008 L28.3562 915.008 M14.479 915.008 L14.479 909.152 L21.895 909.152 L21.895 915.008 L14.479 915.008 Z" fill="#000000" fill-rule="evenodd" fill-opacity="1" /><path clip-path="url(#clip600)" d="M 0 0 M28.3562 901.099 L28.3562 894.893 L58.275 883.753 L28.3562 872.613 L28.3562 866.406 L64.0042 879.774 L64.0042 887.731 L28.3562 901.099 Z" fill="#000000" fill-rule="evenodd" fill-opacity="1" /><path clip-path="url(#clip600)" d="M 0 0 M44.7161 827.83 L47.5806 827.83 L47.5806 854.757 Q53.6281 854.375 56.8109 851.129 Q59.9619 847.85 59.9619 842.026 Q59.9619 838.652 59.1344 835.501 Q58.3069 832.318 56.6518 829.199 L62.1899 829.199 Q63.5267 832.35 64.227 835.66 Q64.9272 838.97 64.9272 842.376 Q64.9272 850.906 59.9619 855.903 Q54.9967 860.868 46.5303 860.868 Q37.7774 860.868 32.6531 856.157 Q27.4968 851.415 27.4968 843.394 Q27.4968 836.201 32.1438 832.031 Q36.7589 827.83 44.7161 827.83 M42.9973 833.686 Q38.1912 833.75 35.3266 836.392 Q32.4621 839.002 32.4621 843.331 Q32.4621 848.232 35.2312 851.192 Q38.0002 854.12 43.0292 854.566 L42.9973 833.686 Z" fill="#000000" fill-rule="evenodd" fill-opacity="1" /><path clip-path="url(#clip600)" d="M 0 0 M14.479 797.497 L14.479 791.641 L64.0042 791.641 L64.0042 797.497 L14.479 797.497 Z" fill="#000000" fill-rule="evenodd" fill-opacity="1" /><path clip-path="url(#clip600)" d="M 0 0 M32.4621 765.573 Q32.4621 770.284 36.1542 773.021 Q39.8145 775.759 46.212 775.759 Q52.6095 775.759 56.3017 773.053 Q59.9619 770.316 59.9619 765.573 Q59.9619 760.895 56.2698 758.157 Q52.5777 755.42 46.212 755.42 Q39.8781 755.42 36.186 758.157 Q32.4621 760.895 32.4621 765.573 M27.4968 765.573 Q27.4968 757.935 32.4621 753.574 Q37.4273 749.214 46.212 749.214 Q54.9649 749.214 59.9619 753.574 Q64.9272 757.935 64.9272 765.573 Q64.9272 773.244 59.9619 777.605 Q54.9649 781.933 46.212 781.933 Q37.4273 781.933 32.4621 777.605 Q27.4968 773.244 27.4968 765.573 Z" fill="#000000" fill-rule="evenodd" fill-opacity="1" /><path clip-path="url(#clip600)" d="M 0 0 M45.7664 716.048 Q39.4007 716.048 35.8996 718.69 Q32.3984 721.3 32.3984 726.042 Q32.3984 730.753 35.8996 733.395 Q39.4007 736.005 45.7664 736.005 Q52.1003 736.005 55.6014 733.395 Q59.1026 730.753 59.1026 726.042 Q59.1026 721.3 55.6014 718.69 Q52.1003 716.048 45.7664 716.048 M59.58 710.192 Q68.683 710.192 73.1071 714.234 Q77.5631 718.276 77.5631 726.615 Q77.5631 729.703 77.0857 732.44 Q76.6401 735.177 75.6852 737.755 L69.9879 737.755 Q71.3884 735.177 72.0568 732.663 Q72.7252 730.148 72.7252 727.538 Q72.7252 721.777 69.7015 718.913 Q66.7096 716.048 60.6303 716.048 L57.7339 716.048 Q60.885 717.862 62.4446 720.695 Q64.0042 723.528 64.0042 727.475 Q64.0042 734.031 59.0071 738.042 Q54.01 742.052 45.7664 742.052 Q37.491 742.052 32.4939 738.042 Q27.4968 734.031 27.4968 727.475 Q27.4968 723.528 29.0564 720.695 Q30.616 717.862 33.7671 716.048 L28.3562 716.048 L28.3562 710.192 L59.58 710.192 Z" fill="#000000" fill-rule="evenodd" fill-opacity="1" /><path clip-path="url(#clip600)" d="M 0 0 M43.5384 701.089 L43.5384 683.933 L48.7583 683.933 L48.7583 701.089 L43.5384 701.089 Z" fill="#000000" fill-rule="evenodd" fill-opacity="1" /><path clip-path="url(#clip600)" d="M 0 0 M14.479 674.607 L14.479 668.751 L64.0042 668.751 L64.0042 674.607 L14.479 674.607 Z" fill="#000000" fill-rule="evenodd" fill-opacity="1" /><path clip-path="url(#clip600)" d="M 0 0 M28.3562 656.497 L28.3562 650.641 L64.0042 650.641 L64.0042 656.497 L28.3562 656.497 M14.479 656.497 L14.479 650.641 L21.895 650.641 L21.895 656.497 L14.479 656.497 Z" fill="#000000" fill-rule="evenodd" fill-opacity="1" /><path clip-path="url(#clip600)" d="M 0 0 M14.479 638.609 L14.479 632.721 L43.7294 632.721 L28.3562 615.247 L28.3562 607.768 L45.0344 626.674 L64.0042 606.972 L64.0042 614.611 L46.5939 632.721 L64.0042 632.721 L64.0042 638.609 L14.479 638.609 Z" fill="#000000" fill-rule="evenodd" fill-opacity="1" /><path clip-path="url(#clip600)" d="M 0 0 M44.7161 572.47 L47.5806 572.47 L47.5806 599.397 Q53.6281 599.015 56.8109 595.768 Q59.9619 592.49 59.9619 586.665 Q59.9619 583.291 59.1344 580.14 Q58.3069 576.958 56.6518 573.838 L62.1899 573.838 Q63.5267 576.989 64.227 580.3 Q64.9272 583.61 64.9272 587.015 Q64.9272 595.545 59.9619 600.542 Q54.9967 605.508 46.5303 605.508 Q37.7774 605.508 32.6531 600.797 Q27.4968 596.055 27.4968 588.034 Q27.4968 580.841 32.1438 576.671 Q36.7589 572.47 44.7161 572.47 M42.9973 578.326 Q38.1912 578.39 35.3266 581.032 Q32.4621 583.642 32.4621 587.97 Q32.4621 592.872 35.2312 595.832 Q38.0002 598.76 43.0292 599.206 L42.9973 578.326 Z" fill="#000000" fill-rule="evenodd" fill-opacity="1" /><path clip-path="url(#clip600)" d="M 0 0 M14.479 562.857 L14.479 557.001 L64.0042 557.001 L64.0042 562.857 L14.479 562.857 Z" fill="#000000" fill-rule="evenodd" fill-opacity="1" /><path clip-path="url(#clip600)" d="M 0 0 M28.3562 544.747 L28.3562 538.891 L64.0042 538.891 L64.0042 544.747 L28.3562 544.747 M14.479 544.747 L14.479 538.891 L21.895 538.891 L21.895 544.747 L14.479 544.747 Z" fill="#000000" fill-rule="evenodd" fill-opacity="1" /><path clip-path="url(#clip600)" d="M 0 0 M42.4881 497.004 L64.0042 497.004 L64.0042 502.861 L42.679 502.861 Q37.6183 502.861 35.1038 504.834 Q32.5894 506.807 32.5894 510.754 Q32.5894 515.497 35.6131 518.234 Q38.6368 520.971 43.8567 520.971 L64.0042 520.971 L64.0042 526.859 L14.479 526.859 L14.479 520.971 L33.8944 520.971 Q30.6797 518.87 29.0883 516.038 Q27.4968 513.173 27.4968 509.449 Q27.4968 503.306 31.3163 500.155 Q35.1038 497.004 42.4881 497.004 Z" fill="#000000" fill-rule="evenodd" fill-opacity="1" /><path clip-path="url(#clip600)" d="M 0 0 M32.4621 471.51 Q32.4621 476.22 36.1542 478.957 Q39.8145 481.695 46.212 481.695 Q52.6095 481.695 56.3017 478.989 Q59.9619 476.252 59.9619 471.51 Q59.9619 466.831 56.2698 464.094 Q52.5777 461.356 46.212 461.356 Q39.8781 461.356 36.186 464.094 Q32.4621 466.831 32.4621 471.51 M27.4968 471.51 Q27.4968 463.871 32.4621 459.51 Q37.4273 455.15 46.212 455.15 Q54.9649 455.15 59.9619 459.51 Q64.9272 463.871 64.9272 471.51 Q64.9272 479.18 59.9619 483.541 Q54.9649 487.869 46.212 487.869 Q37.4273 487.869 32.4621 483.541 Q27.4968 479.18 27.4968 471.51 Z" fill="#000000" fill-rule="evenodd" fill-opacity="1" /><path clip-path="url(#clip600)" d="M 0 0 M32.4621 431.628 Q32.4621 436.339 36.1542 439.076 Q39.8145 441.814 46.212 441.814 Q52.6095 441.814 56.3017 439.108 Q59.9619 436.371 59.9619 431.628 Q59.9619 426.95 56.2698 424.212 Q52.5777 421.475 46.212 421.475 Q39.8781 421.475 36.186 424.212 Q32.4621 426.95 32.4621 431.628 M27.4968 431.628 Q27.4968 423.99 32.4621 419.629 Q37.4273 415.269 46.212 415.269 Q54.9649 415.269 59.9619 419.629 Q64.9272 423.99 64.9272 431.628 Q64.9272 439.299 59.9619 443.66 Q54.9649 447.988 46.212 447.988 Q37.4273 447.988 32.4621 443.66 Q27.4968 439.299 27.4968 431.628 Z" fill="#000000" fill-rule="evenodd" fill-opacity="1" /><path clip-path="url(#clip600)" d="M 0 0 M33.7671 382.103 L14.479 382.103 L14.479 376.247 L64.0042 376.247 L64.0042 382.103 L58.657 382.103 Q61.8398 383.949 63.3994 386.782 Q64.9272 389.583 64.9272 393.53 Q64.9272 399.991 59.771 404.065 Q54.6147 408.107 46.212 408.107 Q37.8093 408.107 32.6531 404.065 Q27.4968 399.991 27.4968 393.53 Q27.4968 389.583 29.0564 386.782 Q30.5842 383.949 33.7671 382.103 M46.212 402.06 Q52.6732 402.06 56.3653 399.418 Q60.0256 396.744 60.0256 392.097 Q60.0256 387.45 56.3653 384.777 Q52.6732 382.103 46.212 382.103 Q39.7508 382.103 36.0905 384.777 Q32.3984 387.45 32.3984 392.097 Q32.3984 396.744 36.0905 399.418 Q39.7508 402.06 46.212 402.06 Z" fill="#000000" fill-rule="evenodd" fill-opacity="1" /><polyline clip-path="url(#clip603)" style="stroke:#009af9; stroke-width:8; stroke-opacity:1; fill:none" points="
  266.808,86.6476 268.837,251.296 270.866,347.509 272.895,415.705 274.924,468.547 276.954,511.678 278.983,548.108 281.012,579.633 283.041,607.411 285.07,632.234 
  287.1,654.666 289.129,675.123 291.158,693.923 293.187,711.31 295.216,727.481 297.246,742.591 299.275,756.771 301.304,770.125 303.333,782.744 305.362,794.703 
  307.391,806.066 309.421,816.889 311.45,827.22 313.479,837.1 315.508,846.567 317.537,855.652 319.567,864.385 321.596,872.792 323.625,880.894 325.654,888.713 
  327.683,896.268 329.713,903.574 331.742,910.648 333.771,917.503 335.8,924.152 337.829,930.606 339.859,936.877 341.888,942.973 343.917,948.905 345.946,954.68 
  347.975,960.305 350.005,965.789 352.034,971.138 354.063,976.358 356.092,981.454 358.121,986.433 360.15,991.299 362.18,996.058 364.209,1000.71 366.238,1005.27 
  368.267,1009.73 370.296,1014.1 372.326,1018.38 374.355,1022.57 376.384,1026.68 378.413,1030.72 380.442,1034.68 382.472,1038.56 384.501,1042.37 386.53,1046.12 
  388.559,1049.8 390.588,1053.41 392.618,1056.96 394.647,1060.46 396.676,1063.89 398.705,1067.27 400.734,1070.59 402.763,1073.86 404.793,1077.07 406.822,1080.24 
  408.851,1083.36 410.88,1086.43 412.909,1089.45 414.939,1092.43 416.968,1095.37 418.997,1098.26 421.026,1101.11 423.055,1103.93 425.085,1106.7 427.114,1109.43 
  429.143,1112.13 431.172,1114.79 433.201,1117.41 435.231,1120 437.26,1122.55 439.289,1125.08 441.318,1127.57 443.347,1130.02 445.377,1132.45 447.406,1134.85 
  449.435,1137.21 451.464,1139.55 453.493,1141.86 455.522,1144.14 457.552,1146.4 459.581,1148.62 461.61,1150.83 463.639,1153 465.668,1155.15 467.698,1157.28 
  469.727,1159.38 471.756,1161.46 473.785,1163.52 475.814,1165.55 477.844,1167.56 479.873,1169.55 481.902,1171.51 483.931,1173.46 485.96,1175.39 487.99,1177.29 
  490.019,1179.18 492.048,1181.04 494.077,1182.89 496.106,1184.71 498.136,1186.52 500.165,1188.31 502.194,1190.09 504.223,1191.84 506.252,1193.58 508.281,1195.3 
  510.311,1197 512.34,1198.69 514.369,1200.36 516.398,1202.01 518.427,1203.65 520.457,1205.27 522.486,1206.88 524.515,1208.48 526.544,1210.05 528.573,1211.62 
  530.603,1213.17 532.632,1214.7 534.661,1216.22 536.69,1217.73 538.719,1219.22 540.749,1220.7 542.778,1222.17 544.807,1223.62 546.836,1225.06 548.865,1226.49 
  550.894,1227.91 552.924,1229.31 554.953,1230.7 556.982,1232.08 559.011,1233.45 561.04,1234.81 563.07,1236.15 565.099,1237.49 567.128,1238.81 569.157,1240.12 
  571.186,1241.42 573.216,1242.71 575.245,1243.99 577.274,1245.26 579.303,1246.51 581.332,1247.76 583.362,1249 585.391,1250.23 587.42,1251.44 589.449,1252.65 
  591.478,1253.85 593.508,1255.04 595.537,1256.22 597.566,1257.39 599.595,1258.55 601.624,1259.7 603.653,1260.85 605.683,1261.98 607.712,1263.11 609.741,1264.22 
  611.77,1265.33 613.799,1266.43 615.829,1267.52 617.858,1268.6 619.887,1269.68 621.916,1270.74 623.945,1271.8 625.975,1272.85 628.004,1273.9 630.033,1274.93 
  632.062,1275.96 634.091,1276.98 636.121,1277.99 638.15,1279 640.179,1279.99 642.208,1280.98 644.237,1281.97 646.267,1282.94 648.296,1283.91 650.325,1284.87 
  652.354,1285.83 654.383,1286.77 656.412,1287.71 658.442,1288.65 660.471,1289.58 662.5,1290.5 664.529,1291.41 666.558,1292.32 668.588,1293.22 670.617,1294.11 
  672.646,1295 674.675,1295.88 676.704,1296.76 678.734,1297.63 680.763,1298.49 682.792,1299.35 684.821,1300.2 686.85,1301.05 688.88,1301.89 690.909,1302.72 
  692.938,1303.55 694.967,1304.38 696.996,1305.19 699.025,1306 701.055,1306.81 703.084,1307.61 705.113,1308.4 707.142,1309.19 709.171,1309.98 711.201,1310.76 
  713.23,1311.53 715.259,1312.3 717.288,1313.06 719.317,1313.82 721.347,1314.57 723.376,1315.32 725.405,1316.06 727.434,1316.8 729.463,1317.53 731.493,1318.26 
  733.522,1318.98 735.551,1319.7 737.58,1320.41 739.609,1321.12 741.639,1321.82 743.668,1322.52 745.697,1323.21 747.726,1323.9 749.755,1324.59 751.784,1325.27 
  753.814,1325.94 755.843,1326.61 757.872,1327.28 759.901,1327.94 761.93,1328.6 763.96,1329.25 765.989,1329.9 768.018,1330.55 770.047,1331.19 772.076,1331.82 
  774.106,1332.45 776.135,1333.08 778.164,1333.71 780.193,1334.33 782.222,1334.94 784.252,1335.55 786.281,1336.16 788.31,1336.76 790.339,1337.36 792.368,1337.96 
  794.398,1338.55 796.427,1339.13 798.456,1339.72 800.485,1340.3 802.514,1340.87 804.543,1341.44 806.573,1342.01 808.602,1342.58 810.631,1343.14 812.66,1343.69 
  814.689,1344.25 816.719,1344.79 818.748,1345.34 820.777,1345.88 822.806,1346.42 824.835,1346.95 826.865,1347.49 828.894,1348.01 830.923,1348.54 832.952,1349.06 
  834.981,1349.57 837.011,1350.09 839.04,1350.6 841.069,1351.11 843.098,1351.61 845.127,1352.11 847.156,1352.6 849.186,1353.1 851.215,1353.59 853.244,1354.07 
  855.273,1354.56 857.302,1355.04 859.332,1355.51 861.361,1355.99 863.39,1356.46 865.419,1356.92 867.448,1357.39 869.478,1357.85 871.507,1358.31 873.536,1358.76 
  875.565,1359.21 877.594,1359.66 879.624,1360.1 881.653,1360.54 883.682,1360.98 885.711,1361.42 887.74,1361.85 889.77,1362.28 891.799,1362.71 893.828,1363.13 
  895.857,1363.55 897.886,1363.97 899.915,1364.38 901.945,1364.8 903.974,1365.21 906.003,1365.61 908.032,1366.01 910.061,1366.41 912.091,1366.81 914.12,1367.21 
  916.149,1367.6 918.178,1367.99 920.207,1368.37 922.237,1368.76 924.266,1369.14 926.295,1369.51 928.324,1369.89 930.353,1370.26 932.383,1370.63 934.412,1371 
  936.441,1371.36 938.47,1371.72 940.499,1372.08 942.529,1372.44 944.558,1372.79 946.587,1373.14 948.616,1373.49 950.645,1373.83 952.674,1374.18 954.704,1374.52 
  956.733,1374.85 958.762,1375.19 960.791,1375.52 962.82,1375.85 964.85,1376.18 966.879,1376.5 968.908,1376.82 970.937,1377.14 972.966,1377.46 974.996,1377.77 
  977.025,1378.09 979.054,1378.39 981.083,1378.7 983.112,1379.01 985.142,1379.31 987.171,1379.61 989.2,1379.9 991.229,1380.2 993.258,1380.49 995.287,1380.78 
  997.317,1381.07 999.346,1381.35 1001.38,1381.64 1003.4,1381.92 1005.43,1382.19 1007.46,1382.47 1009.49,1382.74 1011.52,1383.01 1013.55,1383.28 1015.58,1383.55 
  1017.61,1383.81 1019.64,1384.07 1021.67,1384.33 1023.7,1384.59 1025.73,1384.84 1027.75,1385.09 1029.78,1385.34 1031.81,1385.59 1033.84,1385.84 1035.87,1386.08 
  1037.9,1386.32 1039.93,1386.56 1041.96,1386.79 1043.99,1387.03 1046.02,1387.26 1048.05,1387.49 1050.08,1387.71 1052.1,1387.94 1054.13,1388.16 1056.16,1388.38 
  1058.19,1388.6 1060.22,1388.82 1062.25,1389.03 1064.28,1389.24 1066.31,1389.45 1068.34,1389.66 1070.37,1389.86 1072.4,1390.07 1074.43,1390.27 1076.46,1390.47 
  1078.48,1390.66 1080.51,1390.86 1082.54,1391.05 1084.57,1391.24 1086.6,1391.43 1088.63,1391.61 1090.66,1391.8 1092.69,1391.98 1094.72,1392.16 1096.75,1392.34 
  1098.78,1392.51 1100.81,1392.68 1102.83,1392.86 1104.86,1393.02 1106.89,1393.19 1108.92,1393.36 1110.95,1393.52 1112.98,1393.68 1115.01,1393.84 1117.04,1394 
  1119.07,1394.15 1121.1,1394.3 1123.13,1394.45 1125.16,1394.6 1127.18,1394.75 1129.21,1394.89 1131.24,1395.03 1133.27,1395.17 1135.3,1395.31 1137.33,1395.45 
  1139.36,1395.58 1141.39,1395.71 1143.42,1395.84 1145.45,1395.97 1147.48,1396.1 1149.51,1396.22 1151.54,1396.34 1153.56,1396.46 1155.59,1396.58 1157.62,1396.7 
  1159.65,1396.81 1161.68,1396.93 1163.71,1397.04 1165.74,1397.14 1167.77,1397.25 1169.8,1397.35 1171.83,1397.46 1173.86,1397.56 1175.89,1397.65 1177.91,1397.75 
  1179.94,1397.85 1181.97,1397.94 1184,1398.03 1186.03,1398.12 1188.06,1398.2 1190.09,1398.29 1192.12,1398.37 1194.15,1398.45 1196.18,1398.53 1198.21,1398.61 
  1200.24,1398.68 1202.27,1398.75 1204.29,1398.83 1206.32,1398.89 1208.35,1398.96 1210.38,1399.03 1212.41,1399.09 1214.44,1399.15 1216.47,1399.21 1218.5,1399.27 
  1220.53,1399.32 1222.56,1399.38 1224.59,1399.43 1226.62,1399.48 1228.64,1399.53 1230.67,1399.57 1232.7,1399.62 1234.73,1399.66 1236.76,1399.7 1238.79,1399.74 
  1240.82,1399.77 1242.85,1399.81 1244.88,1399.84 1246.91,1399.87 1248.94,1399.9 1250.97,1399.92 1252.99,1399.95 1255.02,1399.97 1257.05,1399.99 1259.08,1400.01 
  1261.11,1400.03 1263.14,1400.05 1265.17,1400.06 1267.2,1400.07 1269.23,1400.08 1271.26,1400.09 1273.29,1400.09 1275.32,1400.1 1277.35,1400.1 1279.37,1400.1 
  1281.4,1400.1 1283.43,1400.09 1285.46,1400.09 1287.49,1400.08 1289.52,1400.07 1291.55,1400.06 1293.58,1400.05 1295.61,1400.03 1297.64,1400.01 1299.67,1399.99 
  1301.7,1399.97 1303.72,1399.95 1305.75,1399.92 1307.78,1399.9 1309.81,1399.87 1311.84,1399.84 1313.87,1399.81 1315.9,1399.77 1317.93,1399.74 1319.96,1399.7 
  1321.99,1399.66 1324.02,1399.62 1326.05,1399.57 1328.07,1399.53 1330.1,1399.48 1332.13,1399.43 1334.16,1399.38 1336.19,1399.32 1338.22,1399.27 1340.25,1399.21 
  1342.28,1399.15 1344.31,1399.09 1346.34,1399.03 1348.37,1398.96 1350.4,1398.89 1352.43,1398.83 1354.45,1398.75 1356.48,1398.68 1358.51,1398.61 1360.54,1398.53 
  1362.57,1398.45 1364.6,1398.37 1366.63,1398.29 1368.66,1398.2 1370.69,1398.12 1372.72,1398.03 1374.75,1397.94 1376.78,1397.85 1378.8,1397.75 1380.83,1397.65 
  1382.86,1397.56 1384.89,1397.46 1386.92,1397.35 1388.95,1397.25 1390.98,1397.14 1393.01,1397.04 1395.04,1396.93 1397.07,1396.81 1399.1,1396.7 1401.13,1396.58 
  1403.16,1396.46 1405.18,1396.34 1407.21,1396.22 1409.24,1396.1 1411.27,1395.97 1413.3,1395.84 1415.33,1395.71 1417.36,1395.58 1419.39,1395.45 1421.42,1395.31 
  1423.45,1395.17 1425.48,1395.03 1427.51,1394.89 1429.53,1394.75 1431.56,1394.6 1433.59,1394.45 1435.62,1394.3 1437.65,1394.15 1439.68,1394 1441.71,1393.84 
  1443.74,1393.68 1445.77,1393.52 1447.8,1393.36 1449.83,1393.19 1451.86,1393.02 1453.88,1392.86 1455.91,1392.68 1457.94,1392.51 1459.97,1392.34 1462,1392.16 
  1464.03,1391.98 1466.06,1391.8 1468.09,1391.61 1470.12,1391.43 1472.15,1391.24 1474.18,1391.05 1476.21,1390.86 1478.24,1390.66 1480.26,1390.47 1482.29,1390.27 
  1484.32,1390.07 1486.35,1389.86 1488.38,1389.66 1490.41,1389.45 1492.44,1389.24 1494.47,1389.03 1496.5,1388.82 1498.53,1388.6 1500.56,1388.38 1502.59,1388.16 
  1504.61,1387.94 1506.64,1387.71 1508.67,1387.49 1510.7,1387.26 1512.73,1387.03 1514.76,1386.79 1516.79,1386.56 1518.82,1386.32 1520.85,1386.08 1522.88,1385.84 
  1524.91,1385.59 1526.94,1385.34 1528.96,1385.09 1530.99,1384.84 1533.02,1384.59 1535.05,1384.33 1537.08,1384.07 1539.11,1383.81 1541.14,1383.55 1543.17,1383.28 
  1545.2,1383.01 1547.23,1382.74 1549.26,1382.47 1551.29,1382.19 1553.32,1381.92 1555.34,1381.64 1557.37,1381.35 1559.4,1381.07 1561.43,1380.78 1563.46,1380.49 
  1565.49,1380.2 1567.52,1379.9 1569.55,1379.61 1571.58,1379.31 1573.61,1379.01 1575.64,1378.7 1577.67,1378.39 1579.69,1378.09 1581.72,1377.77 1583.75,1377.46 
  1585.78,1377.14 1587.81,1376.82 1589.84,1376.5 1591.87,1376.18 1593.9,1375.85 1595.93,1375.52 1597.96,1375.19 1599.99,1374.85 1602.02,1374.52 1604.05,1374.18 
  1606.07,1373.83 1608.1,1373.49 1610.13,1373.14 1612.16,1372.79 1614.19,1372.44 1616.22,1372.08 1618.25,1371.72 1620.28,1371.36 1622.31,1371 1624.34,1370.63 
  1626.37,1370.26 1628.4,1369.89 1630.42,1369.51 1632.45,1369.14 1634.48,1368.76 1636.51,1368.37 1638.54,1367.99 1640.57,1367.6 1642.6,1367.21 1644.63,1366.81 
  1646.66,1366.41 1648.69,1366.01 1650.72,1365.61 1652.75,1365.21 1654.77,1364.8 1656.8,1364.38 1658.83,1363.97 1660.86,1363.55 1662.89,1363.13 1664.92,1362.71 
  1666.95,1362.28 1668.98,1361.85 1671.01,1361.42 1673.04,1360.98 1675.07,1360.54 1677.1,1360.1 1679.13,1359.66 1681.15,1359.21 1683.18,1358.76 1685.21,1358.31 
  1687.24,1357.85 1689.27,1357.39 1691.3,1356.92 1693.33,1356.46 1695.36,1355.99 1697.39,1355.51 1699.42,1355.04 1701.45,1354.56 1703.48,1354.07 1705.5,1353.59 
  1707.53,1353.1 1709.56,1352.6 1711.59,1352.11 1713.62,1351.61 1715.65,1351.11 1717.68,1350.6 1719.71,1350.09 1721.74,1349.57 1723.77,1349.06 1725.8,1348.54 
  1727.83,1348.01 1729.85,1347.49 1731.88,1346.95 1733.91,1346.42 1735.94,1345.88 1737.97,1345.34 1740,1344.79 1742.03,1344.25 1744.06,1343.69 1746.09,1343.14 
  1748.12,1342.58 1750.15,1342.01 1752.18,1341.44 1754.21,1340.87 1756.23,1340.3 1758.26,1339.72 1760.29,1339.13 1762.32,1338.55 1764.35,1337.96 1766.38,1337.36 
  1768.41,1336.76 1770.44,1336.16 1772.47,1335.55 1774.5,1334.94 1776.53,1334.33 1778.56,1333.71 1780.58,1333.08 1782.61,1332.45 1784.64,1331.82 1786.67,1331.19 
  1788.7,1330.55 1790.73,1329.9 1792.76,1329.25 1794.79,1328.6 1796.82,1327.94 1798.85,1327.28 1800.88,1326.61 1802.91,1325.94 1804.94,1325.27 1806.96,1324.59 
  1808.99,1323.9 1811.02,1323.21 1813.05,1322.52 1815.08,1321.82 1817.11,1321.12 1819.14,1320.41 1821.17,1319.7 1823.2,1318.98 1825.23,1318.26 1827.26,1317.53 
  1829.29,1316.8 1831.31,1316.06 1833.34,1315.32 1835.37,1314.57 1837.4,1313.82 1839.43,1313.06 1841.46,1312.3 1843.49,1311.53 1845.52,1310.76 1847.55,1309.98 
  1849.58,1309.19 1851.61,1308.4 1853.64,1307.61 1855.66,1306.81 1857.69,1306 1859.72,1305.19 1861.75,1304.38 1863.78,1303.55 1865.81,1302.72 1867.84,1301.89 
  1869.87,1301.05 1871.9,1300.2 1873.93,1299.35 1875.96,1298.49 1877.99,1297.63 1880.02,1296.76 1882.04,1295.88 1884.07,1295 1886.1,1294.11 1888.13,1293.22 
  1890.16,1292.32 1892.19,1291.41 1894.22,1290.5 1896.25,1289.58 1898.28,1288.65 1900.31,1287.71 1902.34,1286.77 1904.37,1285.83 1906.39,1284.87 1908.42,1283.91 
  1910.45,1282.94 1912.48,1281.97 1914.51,1280.98 1916.54,1279.99 1918.57,1279 1920.6,1277.99 1922.63,1276.98 1924.66,1275.96 1926.69,1274.93 1928.72,1273.9 
  1930.74,1272.85 1932.77,1271.8 1934.8,1270.74 1936.83,1269.68 1938.86,1268.6 1940.89,1267.52 1942.92,1266.43 1944.95,1265.33 1946.98,1264.22 1949.01,1263.11 
  1951.04,1261.98 1953.07,1260.85 1955.1,1259.7 1957.12,1258.55 1959.15,1257.39 1961.18,1256.22 1963.21,1255.04 1965.24,1253.85 1967.27,1252.65 1969.3,1251.44 
  1971.33,1250.23 1973.36,1249 1975.39,1247.76 1977.42,1246.51 1979.45,1245.26 1981.47,1243.99 1983.5,1242.71 1985.53,1241.42 1987.56,1240.12 1989.59,1238.81 
  1991.62,1237.49 1993.65,1236.15 1995.68,1234.81 1997.71,1233.45 1999.74,1232.08 2001.77,1230.7 2003.8,1229.31 2005.82,1227.91 2007.85,1226.49 2009.88,1225.06 
  2011.91,1223.62 2013.94,1222.17 2015.97,1220.7 2018,1219.22 2020.03,1217.73 2022.06,1216.22 2024.09,1214.7 2026.12,1213.17 2028.15,1211.62 2030.18,1210.05 
  2032.2,1208.48 2034.23,1206.88 2036.26,1205.27 2038.29,1203.65 2040.32,1202.01 2042.35,1200.36 2044.38,1198.69 2046.41,1197 2048.44,1195.3 2050.47,1193.58 
  2052.5,1191.84 2054.53,1190.09 2056.55,1188.31 2058.58,1186.52 2060.61,1184.71 2062.64,1182.89 2064.67,1181.04 2066.7,1179.18 2068.73,1177.29 2070.76,1175.39 
  2072.79,1173.46 2074.82,1171.51 2076.85,1169.55 2078.88,1167.56 2080.91,1165.55 2082.93,1163.52 2084.96,1161.46 2086.99,1159.38 2089.02,1157.28 2091.05,1155.15 
  2093.08,1153 2095.11,1150.83 2097.14,1148.62 2099.17,1146.4 2101.2,1144.14 2103.23,1141.86 2105.26,1139.55 2107.28,1137.21 2109.31,1134.85 2111.34,1132.45 
  2113.37,1130.02 2115.4,1127.57 2117.43,1125.08 2119.46,1122.55 2121.49,1120 2123.52,1117.41 2125.55,1114.79 2127.58,1112.13 2129.61,1109.43 2131.63,1106.7 
  2133.66,1103.93 2135.69,1101.11 2137.72,1098.26 2139.75,1095.37 2141.78,1092.43 2143.81,1089.45 2145.84,1086.43 2147.87,1083.36 2149.9,1080.24 2151.93,1077.07 
  2153.96,1073.86 2155.99,1070.59 2158.01,1067.27 2160.04,1063.89 2162.07,1060.46 2164.1,1056.96 2166.13,1053.41 2168.16,1049.8 2170.19,1046.12 2172.22,1042.37 
  2174.25,1038.56 2176.28,1034.68 2178.31,1030.72 2180.34,1026.68 2182.36,1022.57 2184.39,1018.38 2186.42,1014.1 2188.45,1009.73 2190.48,1005.27 2192.51,1000.71 
  2194.54,996.058 2196.57,991.299 2198.6,986.433 2200.63,981.454 2202.66,976.358 2204.69,971.138 2206.71,965.789 2208.74,960.305 2210.77,954.68 2212.8,948.905 
  2214.83,942.973 2216.86,936.877 2218.89,930.606 2220.92,924.152 2222.95,917.503 2224.98,910.648 2227.01,903.574 2229.04,896.268 2231.07,888.713 2233.09,880.894 
  2235.12,872.792 2237.15,864.385 2239.18,855.652 2241.21,846.567 2243.24,837.1 2245.27,827.22 2247.3,816.889 2249.33,806.066 2251.36,794.703 2253.39,782.744 
  2255.42,770.125 2257.44,756.771 2259.47,742.591 2261.5,727.481 2263.53,711.31 2265.56,693.923 2267.59,675.123 2269.62,654.666 2271.65,632.234 2273.68,607.411 
  2275.71,579.633 2277.74,548.108 2279.77,511.678 2281.8,468.547 2283.82,415.705 2285.85,347.509 2287.88,251.296 2289.91,86.6476 
  "/>
<path clip-path="url(#clip600)" d="
M386.091 275.093 L1326.11 275.093 L1326.11 93.6527 L386.091 93.6527  Z
  " fill="#ffffff" fill-rule="evenodd" fill-opacity="1"/>
<polyline clip-path="url(#clip600)" style="stroke:#000000; stroke-width:4; stroke-opacity:1; fill:none" points="
  386.091,275.093 1326.11,275.093 1326.11,93.6527 386.091,93.6527 386.091,275.093 
  "/>
<polyline clip-path="url(#clip600)" style="stroke:#009af9; stroke-width:6; stroke-opacity:1; fill:none" points="
  409.966,184.373 553.219,184.373 
  "/>
<path clip-path="url(#clip600)" d="M 0 0 M624.595 183.186 Q625.017 183.607 625.017 184.205 Q625.017 184.802 624.595 185.223 Q624.174 185.645 623.576 185.645 L578.535 185.645 Q577.938 185.645 577.516 185.223 Q577.095 184.802 577.095 184.205 Q577.095 183.607 577.516 183.186 Q577.938 182.764 578.535 182.764 L623.576 182.764 Q624.174 182.764 624.595 183.186 Z" fill="#000000" fill-rule="evenodd" fill-opacity="1" /><path clip-path="url(#clip600)" d="M 0 0 M632.527 202.193 L632.527 199.98 Q636.357 199.98 637.235 199.523 Q638.114 199.031 638.114 196.712 L638.114 159.295 Q638.114 156.625 637.165 155.957 Q636.251 155.29 632.527 155.29 L632.527 153.041 L642.857 152.268 L642.857 196.712 Q642.857 199.031 643.77 199.523 Q644.684 199.98 648.478 199.98 L648.478 202.193 Q647.6 202.193 645.773 202.123 Q643.946 202.052 642.611 202.017 Q641.276 201.982 640.503 201.982 Q639.659 201.982 632.527 202.193 Z" fill="#000000" fill-rule="evenodd" fill-opacity="1" /><path clip-path="url(#clip600)" d="M 0 0 M657.001 198.328 Q652.258 193.62 652.258 186.804 Q652.258 179.953 656.895 174.964 Q661.568 169.94 668.243 169.94 Q674.778 169.94 679.451 174.929 Q684.159 179.883 684.159 186.804 Q684.159 193.585 679.416 198.293 Q674.708 203.001 668.173 203.001 Q661.779 203.001 657.001 198.328 M658.23 186.207 Q658.23 193.199 660.057 196.361 Q662.868 201.174 668.243 201.174 Q670.914 201.174 673.127 199.734 Q675.376 198.293 676.605 195.869 Q678.186 192.707 678.186 186.207 Q678.186 179.286 676.289 176.229 Q673.478 171.556 668.173 171.556 Q665.854 171.556 663.571 172.786 Q661.322 173.981 659.952 176.37 Q658.23 179.532 658.23 186.207 Z" fill="#000000" fill-rule="evenodd" fill-opacity="1" /><path clip-path="url(#clip600)" d="M 0 0 M687.89 207.885 Q687.89 205.566 689.647 203.563 Q691.439 201.561 694.531 200.682 Q691.369 198.68 691.369 194.288 Q691.369 190.915 693.582 188.315 Q690.209 185.505 690.209 180.902 Q690.209 176.651 693.582 173.524 Q696.955 170.397 701.874 170.397 Q706.195 170.397 709.498 172.997 Q712.941 169.624 717.122 169.589 Q718.984 169.589 719.862 170.748 Q720.776 171.908 720.776 173.137 Q720.776 174.227 720.073 174.754 Q719.405 175.281 718.703 175.281 Q717.824 175.281 717.192 174.718 Q716.595 174.121 716.595 173.208 Q716.595 171.697 717.754 171.24 Q717.543 171.17 717.051 171.17 Q713.538 171.17 710.552 173.981 Q713.503 176.721 713.503 180.972 Q713.503 185.223 710.13 188.35 Q706.757 191.477 701.874 191.477 Q697.833 191.477 694.741 189.229 Q693.512 190.669 693.512 192.637 Q693.512 194.428 694.601 195.834 Q695.69 197.239 697.341 197.45 Q697.833 197.52 702.717 197.52 Q705.598 197.52 707.179 197.59 Q708.76 197.661 711.008 198.153 Q713.292 198.609 715.084 199.523 Q719.757 202.123 719.792 207.744 Q719.792 211.855 715.049 214.42 Q710.341 217.019 703.806 217.019 Q697.201 217.019 692.528 214.384 Q687.89 211.784 687.89 207.885 M691.65 207.885 Q691.65 210.836 695.128 213.084 Q698.606 215.368 703.876 215.368 Q709.041 215.368 712.519 213.12 Q716.032 210.906 716.032 207.885 Q716.032 205.742 714.803 204.371 Q713.573 203.001 711.043 202.439 Q708.549 201.912 706.792 201.807 Q705.036 201.701 701.803 201.701 L697.552 201.701 Q695.093 201.842 693.371 203.633 Q691.65 205.425 691.65 207.885 M695.585 180.972 Q695.585 189.826 701.874 189.826 Q705.036 189.826 706.968 186.945 Q708.127 185.013 708.127 180.902 Q708.127 172.048 701.874 172.048 Q698.712 172.048 696.744 174.929 Q695.585 176.862 695.585 180.972 Z" fill="#000000" fill-rule="evenodd" fill-opacity="1" /><path clip-path="url(#clip600)" d="M 0 0 M761.116 181.886 Q761.116 187.015 758.516 191.969 Q755.952 196.923 751.911 199.98 Q747.871 203.001 743.76 203.001 Q741.301 203.001 739.65 201.666 Q738.033 200.296 737.155 198.363 Q736.488 200.753 735.047 206.479 Q733.607 212.206 733.607 212.768 Q733.607 213.084 733.677 213.225 Q733.747 213.366 734.063 213.541 Q734.38 213.752 735.152 213.822 Q735.925 213.928 737.225 213.928 Q737.893 213.928 738.139 213.928 Q738.42 213.963 738.666 214.138 Q738.947 214.314 738.947 214.701 Q738.947 216.141 737.647 216.141 Q736.488 216.141 734.098 216.036 Q731.709 215.93 730.515 215.93 Q729.496 215.93 727.458 216.036 Q725.42 216.141 724.472 216.141 Q723.523 216.141 723.523 215.298 Q723.523 214.806 723.664 214.49 Q723.769 214.209 724.05 214.068 Q724.331 213.963 724.577 213.928 Q724.788 213.928 725.21 213.928 Q726.826 213.928 727.528 213.647 Q728.231 213.401 728.477 212.874 Q728.758 212.382 729.074 210.976 L737.155 178.935 Q737.647 176.791 737.647 175.281 Q737.647 173.383 737.05 172.681 Q736.452 171.978 735.398 171.978 Q733.571 171.978 732.377 174.156 Q731.182 176.335 730.163 180.551 Q729.847 181.71 729.636 181.956 Q729.461 182.202 728.934 182.202 Q728.055 182.167 728.055 181.464 Q728.055 181.288 728.337 180.164 Q728.618 179.005 729.145 177.318 Q729.707 175.597 730.304 174.508 Q730.655 173.77 730.972 173.278 Q731.288 172.786 731.92 172.013 Q732.588 171.24 733.536 170.819 Q734.485 170.397 735.644 170.397 Q737.893 170.397 739.755 171.732 Q741.617 173.067 742.109 175.772 Q744.112 173.419 746.571 171.908 Q749.03 170.397 751.525 170.397 Q755.671 170.397 758.376 173.629 Q761.116 176.826 761.116 181.886 M755.916 178.724 Q755.916 175.527 754.687 173.77 Q753.492 171.978 751.314 171.978 Q748.609 171.978 745.482 174.718 Q742.39 177.318 741.758 179.743 L738.209 193.831 L737.998 194.991 Q737.998 195.201 738.104 195.834 Q738.244 196.431 738.631 197.415 Q739.052 198.399 739.614 199.277 Q740.212 200.12 741.266 200.753 Q742.355 201.385 743.69 201.385 Q745.833 201.385 748.152 199.488 Q750.506 197.59 752.263 194.007 Q753.352 191.688 754.616 186.699 Q755.916 181.675 755.916 178.724 Z" fill="#000000" fill-rule="evenodd" fill-opacity="1" /><path clip-path="url(#clip600)" d="M 0 0 M759.365 184.205 Q759.365 172.048 763.897 162.246 Q765.829 158.135 768.535 154.692 Q771.24 151.249 773.032 149.738 Q774.824 148.228 775.315 148.228 Q776.018 148.228 776.053 148.93 Q776.053 149.282 775.105 150.16 Q763.511 161.965 763.546 184.205 Q763.546 206.514 774.824 217.863 Q776.053 219.092 776.053 219.479 Q776.053 220.181 775.315 220.181 Q774.824 220.181 773.102 218.741 Q771.381 217.3 768.71 213.998 Q766.04 210.695 764.108 206.655 Q759.365 196.853 759.365 184.205 Z" fill="#000000" fill-rule="evenodd" fill-opacity="1" /><path clip-path="url(#clip600)" d="M 0 0 M820.195 173.137 Q820.195 173.629 819.879 174.789 L812.993 202.263 Q811.482 208.377 806.564 212.663 Q801.68 216.949 796.129 216.949 Q792.791 216.949 790.648 215.157 Q788.505 213.401 788.505 210.695 Q788.505 208.306 789.77 207.147 Q791.035 206.023 792.545 206.023 Q793.037 206.023 793.564 206.163 Q794.091 206.304 794.653 206.901 Q795.215 207.498 795.215 208.517 Q795.215 210.168 793.775 211.468 Q793.072 212.066 792.405 212.206 Q791.772 212.347 790.683 212.347 Q791.105 213.33 791.878 213.998 Q792.651 214.665 793.529 214.911 Q794.407 215.192 794.969 215.263 Q795.567 215.368 796.129 215.368 Q800.626 215.368 804.069 210.836 Q805.088 209.466 805.826 208.095 Q806.599 206.76 807.161 205.109 Q807.723 203.493 807.969 202.615 Q808.25 201.736 808.742 199.734 Q805.474 203.001 801.469 203.001 Q799.783 203.001 798.272 202.544 Q796.796 202.088 795.496 201.139 Q794.197 200.155 793.424 198.434 Q792.686 196.712 792.686 194.428 Q792.686 192.004 793.634 188.702 Q794.583 185.399 796.867 179.321 Q798.096 175.913 798.096 174.262 Q798.096 173.454 797.921 172.962 Q797.745 172.435 797.394 172.259 Q797.042 172.048 796.832 172.013 Q796.656 171.978 796.305 171.978 Q794.232 171.978 792.299 174.086 Q790.367 176.194 789.032 180.902 Q788.751 181.78 788.575 181.991 Q788.399 182.202 787.872 182.202 Q786.994 182.167 786.994 181.464 Q786.994 181.183 787.31 180.094 Q787.627 178.97 788.364 177.318 Q789.137 175.632 790.191 174.121 Q791.245 172.575 792.897 171.486 Q794.583 170.397 796.515 170.397 Q799.15 170.397 800.767 172.119 Q802.418 173.805 802.418 176.299 Q802.418 177.318 802.137 178.232 Q801.891 179.11 800.977 181.464 Q797.288 190.95 797.288 195.588 Q797.288 196.712 797.464 197.661 Q797.675 198.574 798.132 199.488 Q798.588 200.366 799.502 200.893 Q800.45 201.385 801.75 201.385 Q803.402 201.385 804.947 200.612 Q806.528 199.804 807.512 198.715 Q808.531 197.626 809.128 196.712 Q809.761 195.764 809.901 195.272 L813.134 182.342 L814.574 176.581 Q815.242 173.454 815.558 172.681 Q815.979 171.943 816.717 171.556 Q817.455 171.17 818.087 171.17 Q818.966 171.17 819.563 171.697 Q820.195 172.224 820.195 173.137 Z" fill="#000000" fill-rule="evenodd" fill-opacity="1" /><path clip-path="url(#clip600)" d="M 0 0 M841.858 191.266 Q841.928 190.388 843.298 190.388 L887.391 190.388 Q889.464 190.388 889.499 191.196 Q889.499 192.075 887.532 192.039 L843.79 192.039 Q841.858 192.075 841.858 191.266 M841.858 177.213 Q841.858 176.335 843.369 176.37 L887.321 176.37 Q889.464 176.37 889.499 177.213 Q889.499 178.021 887.672 178.021 L843.298 178.021 Q841.858 178.021 841.858 177.213 Z" fill="#000000" fill-rule="evenodd" fill-opacity="1" /><path clip-path="url(#clip600)" d="M 0 0 M917.252 190.599 Q917.252 188.456 918.411 187.648 Q919.571 186.804 920.801 186.804 Q922.452 186.804 923.4 187.858 Q924.384 188.877 924.384 190.318 Q924.384 191.758 923.4 192.812 Q922.452 193.831 920.801 193.831 Q919.993 193.831 919.571 193.691 Q920.52 196.993 923.4 199.382 Q926.317 201.771 930.146 201.771 Q934.959 201.771 937.84 197.099 Q939.562 194.077 939.562 187.226 Q939.562 181.183 938.262 178.162 Q936.259 173.559 932.149 173.559 Q926.317 173.559 922.873 178.583 Q922.452 179.216 921.96 179.251 Q921.257 179.251 921.082 178.864 Q920.941 178.443 920.941 177.353 L920.941 156.062 Q920.941 154.341 921.644 154.341 Q921.925 154.341 922.522 154.552 Q927.054 156.554 932.078 156.59 Q937.243 156.59 941.881 154.481 Q942.232 154.271 942.443 154.271 Q943.146 154.271 943.181 155.079 Q943.181 155.36 942.583 156.203 Q942.021 157.011 940.792 158.1 Q939.562 159.154 937.981 160.173 Q936.4 161.192 934.081 161.895 Q931.797 162.562 929.268 162.562 Q926.246 162.562 923.155 161.614 L923.155 175.632 Q926.879 171.978 932.289 171.978 Q938.051 171.978 942.021 176.616 Q945.991 181.253 945.991 187.718 Q945.991 194.499 941.284 199.136 Q936.611 203.774 930.287 203.774 Q924.525 203.774 920.871 199.663 Q917.252 195.553 917.252 190.599 Z" fill="#000000" fill-rule="evenodd" fill-opacity="1" /><path clip-path="url(#clip600)" d="M 0 0 M952.885 217.968 L952.885 150.968 Q952.885 148.298 954.325 148.298 Q955.766 148.298 955.766 150.441 L955.766 217.441 Q955.766 220.111 954.325 220.111 Q952.885 220.111 952.885 217.968 Z" fill="#000000" fill-rule="evenodd" fill-opacity="1" /><path clip-path="url(#clip600)" d="M 0 0 M1012.31 166.216 Q1012.31 172.119 1010.41 178.759 Q1008.55 185.364 1005.6 190.704 Q1002.65 196.009 998.781 199.523 Q994.917 203.001 991.228 203.001 Q988.874 203.001 987.117 201.701 Q985.395 200.366 984.447 198.153 Q983.498 195.904 983.041 193.445 Q982.585 190.95 982.585 188.245 Q982.585 184.205 983.463 179.813 Q984.341 175.386 985.817 171.381 Q987.293 167.34 989.365 163.687 Q991.438 159.997 993.722 157.327 Q996.041 154.622 998.641 153.041 Q1001.24 151.46 1003.66 151.46 Q1005.42 151.46 1006.83 152.233 Q1008.27 152.971 1009.18 154.271 Q1010.09 155.535 1010.73 157.046 Q1011.39 158.557 1011.71 160.314 Q1012.03 162.035 1012.17 163.476 Q1012.31 164.881 1012.31 166.216 M1007.56 161.754 Q1007.56 159.962 1007.42 158.627 Q1007.28 157.257 1006.9 155.887 Q1006.51 154.517 1005.67 153.779 Q1004.86 153.041 1003.59 153.041 Q999.906 153.041 995.76 160.595 Q994.425 162.949 993.23 166.146 Q992.036 169.343 991.614 170.854 Q991.192 172.365 990.209 176.089 L1005.25 176.089 Q1007.56 166.497 1007.56 161.754 M1004.61 178.372 L989.647 178.372 Q987.328 187.156 987.328 192.637 Q987.328 197.415 988.311 199.417 Q989.33 201.385 991.228 201.385 Q993.406 201.385 995.444 199.207 Q997.481 196.993 999.554 192.988 Q1002.29 187.788 1004.61 178.372 Z" fill="#000000" fill-rule="evenodd" fill-opacity="1" /><path clip-path="url(#clip600)" d="M 0 0 M1017.01 201.034 Q1015.99 199.874 1015.99 198.363 Q1015.99 196.853 1016.97 195.728 Q1017.99 194.569 1019.82 194.569 Q1021.96 194.569 1023.19 196.642 Q1024.42 198.68 1024.42 202.123 Q1024.42 205.847 1022.91 209.29 Q1021.4 212.768 1019.93 214.42 Q1018.45 216.071 1017.85 216.071 Q1017.15 216.071 1017.15 215.298 Q1017.15 215.017 1017.64 214.49 Q1022.81 208.939 1022.84 202.123 Q1022.84 201.034 1022.7 201.034 L1022.53 201.174 Q1021.3 202.193 1019.82 202.193 Q1018.03 202.193 1017.01 201.034 Z" fill="#000000" fill-rule="evenodd" fill-opacity="1" /><path clip-path="url(#clip600)" d="M 0 0 M1086.13 191.899 Q1086.13 192.18 1085.81 193.269 Q1085.49 194.358 1084.72 196.045 Q1083.98 197.731 1082.96 199.277 Q1081.94 200.788 1080.26 201.912 Q1078.61 203.001 1076.71 203.001 Q1074.18 203.001 1072.49 201.315 Q1070.81 199.628 1070.81 197.099 Q1070.81 195.693 1071.55 193.761 Q1076.22 181.288 1076.22 177.002 Q1076.22 171.978 1072.32 171.978 Q1070.39 171.978 1068.56 172.716 Q1066.77 173.419 1065.54 174.402 Q1064.31 175.386 1063.18 176.756 Q1062.09 178.091 1061.53 179.005 Q1061.01 179.883 1060.58 180.761 L1059.67 184.345 Q1059.46 185.329 1058.44 189.158 L1056.86 195.658 Q1055.74 200.507 1055.49 200.963 Q1055.14 201.947 1054.36 202.474 Q1053.59 203.001 1052.82 203.001 Q1051.94 203.001 1051.34 202.474 Q1050.75 201.947 1050.75 201.034 Q1050.75 200.893 1050.85 200.366 Q1050.96 199.839 1051.13 199.101 Q1051.31 198.363 1051.38 197.942 L1055.56 181.324 Q1056.33 178.302 1056.51 177.353 Q1056.72 176.37 1056.72 175.281 Q1056.72 171.978 1054.47 171.978 Q1052.64 171.978 1051.45 174.156 Q1050.25 176.335 1049.24 180.551 Q1048.92 181.71 1048.71 181.956 Q1048.53 182.202 1048.01 182.202 Q1047.13 182.167 1047.13 181.464 Q1047.13 181.288 1047.41 180.129 Q1047.69 178.97 1048.22 177.318 Q1048.78 175.632 1049.31 174.508 Q1049.76 173.664 1050.01 173.278 Q1050.29 172.856 1050.96 172.048 Q1051.66 171.205 1052.57 170.819 Q1053.52 170.397 1054.68 170.397 Q1057.28 170.397 1059.18 172.083 Q1061.08 173.735 1061.32 176.651 Q1065.99 170.397 1072.53 170.397 Q1076.39 170.397 1078.61 172.435 Q1080.82 174.473 1080.82 178.091 Q1080.82 178.935 1080.64 180.024 Q1080.5 181.078 1080.15 182.413 Q1079.84 183.748 1079.56 184.767 Q1079.27 185.786 1078.71 187.437 Q1078.15 189.053 1077.9 189.756 Q1077.66 190.458 1077.06 192.11 Q1076.5 193.726 1076.43 193.901 Q1075.13 197.169 1075.13 199.031 Q1075.13 200.261 1075.52 200.823 Q1075.94 201.385 1076.85 201.385 Q1079.31 201.385 1081.14 198.961 Q1083 196.501 1084.19 192.496 Q1084.47 191.618 1084.61 191.407 Q1084.79 191.196 1085.28 191.196 Q1086.13 191.196 1086.13 191.899 Z" fill="#000000" fill-rule="evenodd" fill-opacity="1" /><path clip-path="url(#clip600)" d="M 0 0 M1109.82 191.266 Q1109.89 190.388 1111.26 190.388 L1155.35 190.388 Q1157.43 190.388 1157.46 191.196 Q1157.46 192.075 1155.49 192.039 L1111.75 192.039 Q1109.82 192.075 1109.82 191.266 M1109.82 177.213 Q1109.82 176.335 1111.33 176.37 L1155.28 176.37 Q1157.43 176.37 1157.46 177.213 Q1157.46 178.021 1155.63 178.021 L1111.26 178.021 Q1109.82 178.021 1109.82 177.213 Z" fill="#000000" fill-rule="evenodd" fill-opacity="1" /><path clip-path="url(#clip600)" d="M 0 0 M1185.21 161.122 L1185.21 158.873 Q1193.86 158.873 1198.32 154.271 Q1199.55 154.271 1199.76 154.552 Q1199.97 154.833 1199.97 156.133 L1199.97 196.501 Q1199.97 198.645 1201.02 199.312 Q1202.08 199.98 1206.68 199.98 L1208.97 199.98 L1208.97 202.193 Q1206.44 201.982 1197.3 201.982 Q1188.17 201.982 1185.67 202.193 L1185.67 199.98 L1187.96 199.98 Q1192.49 199.98 1193.58 199.347 Q1194.67 198.68 1194.67 196.501 L1194.67 159.225 Q1190.91 161.122 1185.21 161.122 Z" fill="#000000" fill-rule="evenodd" fill-opacity="1" /><path clip-path="url(#clip600)" d="M 0 0 M1215.1 179.18 Q1215.1 168.605 1217.77 162.843 Q1221.49 154.271 1230.28 154.271 Q1232.14 154.271 1234.07 154.798 Q1236.04 155.29 1238.5 157.222 Q1240.99 159.154 1242.5 162.316 Q1245.38 168.43 1245.38 179.18 Q1245.38 189.685 1242.71 195.412 Q1238.81 203.774 1230.21 203.774 Q1226.97 203.774 1223.67 202.123 Q1220.4 200.471 1218.33 196.501 Q1215.1 190.564 1215.1 179.18 M1221.07 178.302 Q1221.07 189.158 1221.84 193.48 Q1222.72 198.153 1225.11 200.19 Q1227.53 202.193 1230.21 202.193 Q1233.09 202.193 1235.48 200.05 Q1237.9 197.872 1238.64 193.199 Q1239.45 188.596 1239.41 178.302 Q1239.41 168.289 1238.71 164.284 Q1237.76 159.611 1235.23 157.749 Q1232.73 155.852 1230.21 155.852 Q1229.26 155.852 1228.24 156.133 Q1227.25 156.414 1225.81 157.222 Q1224.37 158.03 1223.25 160.033 Q1222.16 162.035 1221.63 165.057 Q1221.07 168.957 1221.07 178.302 Z" fill="#000000" fill-rule="evenodd" fill-opacity="1" /><path clip-path="url(#clip600)" d="M 0 0 M1250.73 219.479 Q1250.73 219.127 1251.64 218.249 Q1263.24 206.444 1263.24 184.205 Q1263.24 161.895 1252.1 150.617 Q1250.73 149.317 1250.73 148.93 Q1250.73 148.228 1251.43 148.228 Q1251.92 148.228 1253.65 149.668 Q1255.4 151.109 1258.04 154.411 Q1260.71 157.714 1262.68 161.754 Q1267.42 171.556 1267.42 184.205 Q1267.42 196.361 1262.89 206.163 Q1260.95 210.274 1258.25 213.717 Q1255.54 217.16 1253.75 218.671 Q1251.96 220.181 1251.43 220.181 Q1250.73 220.181 1250.73 219.479 Z" fill="#000000" fill-rule="evenodd" fill-opacity="1" /></svg>
