<?xml version="1.0" encoding="utf-8"?>
<svg xmlns="http://www.w3.org/2000/svg" xmlns:xlink="http://www.w3.org/1999/xlink" width="600" height="400" viewBox="0 0 2400 1600">
<defs>
  <clipPath id="clip480">
    <rect x="0" y="0" width="2400" height="1600"/>
  </clipPath>
</defs>
<path clip-path="url(#clip480)" d="
M0 1600 L2400 1600 L2400 0 L0 0  Z
  " fill="#ffffff" fill-rule="evenodd" fill-opacity="1"/>
<defs>
  <clipPath id="clip481">
    <rect x="480" y="0" width="1681" height="1600"/>
  </clipPath>
</defs>
<defs>
  <clipPath id="clip482">
    <rect x="249" y="47" width="2104" height="1396"/>
  </clipPath>
</defs>
<path clip-path="url(#clip480)" d="
M249.542 1442.52 L2352.76 1442.52 L2352.76 47.2441 L249.542 47.2441  Z
  " fill="#ffffff" fill-rule="evenodd" fill-opacity="1"/>
<polyline clip-path="url(#clip482)" style="stroke:#000000; stroke-width:2; stroke-opacity:0.1; fill:none" points="
  309.067,1442.52 309.067,47.2441 
  "/>
<polyline clip-path="url(#clip482)" style="stroke:#000000; stroke-width:2; stroke-opacity:0.1; fill:none" points="
  507.483,1442.52 507.483,47.2441 
  "/>
<polyline clip-path="url(#clip482)" style="stroke:#000000; stroke-width:2; stroke-opacity:0.1; fill:none" points="
  705.9,1442.52 705.9,47.2441 
  "/>
<polyline clip-path="url(#clip482)" style="stroke:#000000; stroke-width:2; stroke-opacity:0.1; fill:none" points="
  904.316,1442.52 904.316,47.2441 
  "/>
<polyline clip-path="url(#clip482)" style="stroke:#000000; stroke-width:2; stroke-opacity:0.1; fill:none" points="
  1102.73,1442.52 1102.73,47.2441 
  "/>
<polyline clip-path="url(#clip482)" style="stroke:#000000; stroke-width:2; stroke-opacity:0.1; fill:none" points="
  1301.15,1442.52 1301.15,47.2441 
  "/>
<polyline clip-path="url(#clip482)" style="stroke:#000000; stroke-width:2; stroke-opacity:0.1; fill:none" points="
  1499.57,1442.52 1499.57,47.2441 
  "/>
<polyline clip-path="url(#clip482)" style="stroke:#000000; stroke-width:2; stroke-opacity:0.1; fill:none" points="
  1697.98,1442.52 1697.98,47.2441 
  "/>
<polyline clip-path="url(#clip482)" style="stroke:#000000; stroke-width:2; stroke-opacity:0.1; fill:none" points="
  1896.4,1442.52 1896.4,47.2441 
  "/>
<polyline clip-path="url(#clip482)" style="stroke:#000000; stroke-width:2; stroke-opacity:0.1; fill:none" points="
  2094.81,1442.52 2094.81,47.2441 
  "/>
<polyline clip-path="url(#clip482)" style="stroke:#000000; stroke-width:2; stroke-opacity:0.1; fill:none" points="
  2293.23,1442.52 2293.23,47.2441 
  "/>
<polyline clip-path="url(#clip480)" style="stroke:#000000; stroke-width:4; stroke-opacity:1; fill:none" points="
  249.542,1442.52 2352.76,1442.52 
  "/>
<polyline clip-path="url(#clip480)" style="stroke:#000000; stroke-width:4; stroke-opacity:1; fill:none" points="
  309.067,1442.52 309.067,1425.78 
  "/>
<polyline clip-path="url(#clip480)" style="stroke:#000000; stroke-width:4; stroke-opacity:1; fill:none" points="
  507.483,1442.52 507.483,1425.78 
  "/>
<polyline clip-path="url(#clip480)" style="stroke:#000000; stroke-width:4; stroke-opacity:1; fill:none" points="
  705.9,1442.52 705.9,1425.78 
  "/>
<polyline clip-path="url(#clip480)" style="stroke:#000000; stroke-width:4; stroke-opacity:1; fill:none" points="
  904.316,1442.52 904.316,1425.78 
  "/>
<polyline clip-path="url(#clip480)" style="stroke:#000000; stroke-width:4; stroke-opacity:1; fill:none" points="
  1102.73,1442.52 1102.73,1425.78 
  "/>
<polyline clip-path="url(#clip480)" style="stroke:#000000; stroke-width:4; stroke-opacity:1; fill:none" points="
  1301.15,1442.52 1301.15,1425.78 
  "/>
<polyline clip-path="url(#clip480)" style="stroke:#000000; stroke-width:4; stroke-opacity:1; fill:none" points="
  1499.57,1442.52 1499.57,1425.78 
  "/>
<polyline clip-path="url(#clip480)" style="stroke:#000000; stroke-width:4; stroke-opacity:1; fill:none" points="
  1697.98,1442.52 1697.98,1425.78 
  "/>
<polyline clip-path="url(#clip480)" style="stroke:#000000; stroke-width:4; stroke-opacity:1; fill:none" points="
  1896.4,1442.52 1896.4,1425.78 
  "/>
<polyline clip-path="url(#clip480)" style="stroke:#000000; stroke-width:4; stroke-opacity:1; fill:none" points="
  2094.81,1442.52 2094.81,1425.78 
  "/>
<polyline clip-path="url(#clip480)" style="stroke:#000000; stroke-width:4; stroke-opacity:1; fill:none" points="
  2293.23,1442.52 2293.23,1425.78 
  "/>
<path clip-path="url(#clip480)" d="M 0 0 M309.067 1471.71 Q305.456 1471.71 303.627 1475.28 Q301.822 1478.82 301.822 1485.95 Q301.822 1493.06 303.627 1496.62 Q305.456 1500.16 309.067 1500.16 Q312.701 1500.16 314.507 1496.62 Q316.335 1493.06 316.335 1485.95 Q316.335 1478.82 314.507 1475.28 Q312.701 1471.71 309.067 1471.71 M309.067 1468.01 Q314.877 1468.01 317.933 1472.62 Q321.011 1477.2 321.011 1485.95 Q321.011 1494.68 317.933 1499.28 Q314.877 1503.87 309.067 1503.87 Q303.257 1503.87 300.178 1499.28 Q297.123 1494.68 297.123 1485.95 Q297.123 1477.2 300.178 1472.62 Q303.257 1468.01 309.067 1468.01 Z" fill="#000000" fill-rule="evenodd" fill-opacity="1" /><path clip-path="url(#clip480)" d="M 0 0 M497.865 1499.26 L505.504 1499.26 L505.504 1472.89 L497.194 1474.56 L497.194 1470.3 L505.458 1468.63 L510.134 1468.63 L510.134 1499.26 L517.773 1499.26 L517.773 1503.19 L497.865 1503.19 L497.865 1499.26 Z" fill="#000000" fill-rule="evenodd" fill-opacity="1" /><path clip-path="url(#clip480)" d="M 0 0 M700.553 1499.26 L716.872 1499.26 L716.872 1503.19 L694.928 1503.19 L694.928 1499.26 Q697.59 1496.5 702.173 1491.88 Q706.779 1487.22 707.96 1485.88 Q710.205 1483.36 711.085 1481.62 Q711.988 1479.86 711.988 1478.17 Q711.988 1475.42 710.043 1473.68 Q708.122 1471.94 705.02 1471.94 Q702.821 1471.94 700.367 1472.71 Q697.937 1473.47 695.159 1475.02 L695.159 1470.3 Q697.983 1469.17 700.437 1468.59 Q702.891 1468.01 704.928 1468.01 Q710.298 1468.01 713.492 1470.69 Q716.687 1473.38 716.687 1477.87 Q716.687 1480 715.877 1481.92 Q715.09 1483.82 712.983 1486.41 Q712.404 1487.08 709.303 1490.3 Q706.201 1493.5 700.553 1499.26 Z" fill="#000000" fill-rule="evenodd" fill-opacity="1" /><path clip-path="url(#clip480)" d="M 0 0 M908.564 1484.56 Q911.92 1485.28 913.795 1487.55 Q915.693 1489.82 915.693 1493.15 Q915.693 1498.26 912.175 1501.07 Q908.656 1503.87 902.175 1503.87 Q899.999 1503.87 897.684 1503.43 Q895.393 1503.01 892.939 1502.15 L892.939 1497.64 Q894.883 1498.77 897.198 1499.35 Q899.513 1499.93 902.036 1499.93 Q906.434 1499.93 908.726 1498.19 Q911.041 1496.46 911.041 1493.15 Q911.041 1490.09 908.888 1488.38 Q906.758 1486.64 902.939 1486.64 L898.911 1486.64 L898.911 1482.8 L903.124 1482.8 Q906.573 1482.8 908.402 1481.44 Q910.23 1480.05 910.23 1477.45 Q910.23 1474.79 908.332 1473.38 Q906.457 1471.94 902.939 1471.94 Q901.018 1471.94 898.819 1472.36 Q896.619 1472.78 893.981 1473.66 L893.981 1469.49 Q896.643 1468.75 898.957 1468.38 Q901.295 1468.01 903.356 1468.01 Q908.68 1468.01 911.781 1470.44 Q914.883 1472.85 914.883 1476.97 Q914.883 1479.84 913.24 1481.83 Q911.596 1483.8 908.564 1484.56 Z" fill="#000000" fill-rule="evenodd" fill-opacity="1" /><path clip-path="url(#clip480)" d="M 0 0 M1105.74 1472.71 L1093.94 1491.16 L1105.74 1491.16 L1105.74 1472.71 M1104.51 1468.63 L1110.39 1468.63 L1110.39 1491.16 L1115.33 1491.16 L1115.33 1495.05 L1110.39 1495.05 L1110.39 1503.19 L1105.74 1503.19 L1105.74 1495.05 L1090.14 1495.05 L1090.14 1490.53 L1104.51 1468.63 Z" fill="#000000" fill-rule="evenodd" fill-opacity="1" /><path clip-path="url(#clip480)" d="M 0 0 M1291.43 1468.63 L1309.78 1468.63 L1309.78 1472.57 L1295.71 1472.57 L1295.71 1481.04 Q1296.73 1480.69 1297.75 1480.53 Q1298.76 1480.35 1299.78 1480.35 Q1305.57 1480.35 1308.95 1483.52 Q1312.33 1486.69 1312.33 1492.11 Q1312.33 1497.69 1308.86 1500.79 Q1305.39 1503.87 1299.07 1503.87 Q1296.89 1503.87 1294.62 1503.5 Q1292.38 1503.13 1289.97 1502.38 L1289.97 1497.69 Q1292.05 1498.82 1294.27 1499.38 Q1296.5 1499.93 1298.97 1499.93 Q1302.98 1499.93 1305.32 1497.82 Q1307.65 1495.72 1307.65 1492.11 Q1307.65 1488.5 1305.32 1486.39 Q1302.98 1484.28 1298.97 1484.28 Q1297.1 1484.28 1295.22 1484.7 Q1293.37 1485.12 1291.43 1486 L1291.43 1468.63 Z" fill="#000000" fill-rule="evenodd" fill-opacity="1" /><path clip-path="url(#clip480)" d="M 0 0 M1499.97 1484.05 Q1496.82 1484.05 1494.97 1486.2 Q1493.14 1488.36 1493.14 1492.11 Q1493.14 1495.83 1494.97 1498.01 Q1496.82 1500.16 1499.97 1500.16 Q1503.12 1500.16 1504.95 1498.01 Q1506.8 1495.83 1506.8 1492.11 Q1506.8 1488.36 1504.95 1486.2 Q1503.12 1484.05 1499.97 1484.05 M1509.25 1469.4 L1509.25 1473.66 Q1507.49 1472.82 1505.69 1472.38 Q1503.91 1471.94 1502.15 1471.94 Q1497.52 1471.94 1495.06 1475.07 Q1492.63 1478.19 1492.29 1484.51 Q1493.65 1482.5 1495.71 1481.44 Q1497.77 1480.35 1500.25 1480.35 Q1505.46 1480.35 1508.47 1483.52 Q1511.5 1486.67 1511.5 1492.11 Q1511.5 1497.43 1508.35 1500.65 Q1505.2 1503.87 1499.97 1503.87 Q1493.98 1503.87 1490.8 1499.28 Q1487.63 1494.68 1487.63 1485.95 Q1487.63 1477.76 1491.52 1472.89 Q1495.41 1468.01 1501.96 1468.01 Q1503.72 1468.01 1505.5 1468.36 Q1507.31 1468.7 1509.25 1469.4 Z" fill="#000000" fill-rule="evenodd" fill-opacity="1" /><path clip-path="url(#clip480)" d="M 0 0 M1686.87 1468.63 L1709.09 1468.63 L1709.09 1470.63 L1696.55 1503.19 L1691.66 1503.19 L1703.47 1472.57 L1686.87 1472.57 L1686.87 1468.63 Z" fill="#000000" fill-rule="evenodd" fill-opacity="1" /><path clip-path="url(#clip480)" d="M 0 0 M1896.4 1486.78 Q1893.06 1486.78 1891.14 1488.57 Q1889.25 1490.35 1889.25 1493.47 Q1889.25 1496.6 1891.14 1498.38 Q1893.06 1500.16 1896.4 1500.16 Q1899.73 1500.16 1901.65 1498.38 Q1903.57 1496.57 1903.57 1493.47 Q1903.57 1490.35 1901.65 1488.57 Q1899.75 1486.78 1896.4 1486.78 M1891.72 1484.79 Q1888.71 1484.05 1887.02 1481.99 Q1885.36 1479.93 1885.36 1476.97 Q1885.36 1472.82 1888.3 1470.42 Q1891.26 1468.01 1896.4 1468.01 Q1901.56 1468.01 1904.5 1470.42 Q1907.44 1472.82 1907.44 1476.97 Q1907.44 1479.93 1905.75 1481.99 Q1904.08 1484.05 1901.1 1484.79 Q1904.48 1485.58 1906.35 1487.87 Q1908.25 1490.16 1908.25 1493.47 Q1908.25 1498.5 1905.17 1501.18 Q1902.12 1503.87 1896.4 1503.87 Q1890.68 1503.87 1887.6 1501.18 Q1884.55 1498.5 1884.55 1493.47 Q1884.55 1490.16 1886.44 1487.87 Q1888.34 1485.58 1891.72 1484.79 M1890.01 1477.41 Q1890.01 1480.09 1891.68 1481.6 Q1893.37 1483.1 1896.4 1483.1 Q1899.41 1483.1 1901.1 1481.6 Q1902.81 1480.09 1902.81 1477.41 Q1902.81 1474.72 1901.1 1473.22 Q1899.41 1471.71 1896.4 1471.71 Q1893.37 1471.71 1891.68 1473.22 Q1890.01 1474.72 1890.01 1477.41 Z" fill="#000000" fill-rule="evenodd" fill-opacity="1" /><path clip-path="url(#clip480)" d="M 0 0 M2085.12 1502.48 L2085.12 1498.22 Q2086.87 1499.05 2088.68 1499.49 Q2090.49 1499.93 2092.22 1499.93 Q2096.85 1499.93 2099.28 1496.83 Q2101.74 1493.7 2102.08 1487.36 Q2100.74 1489.35 2098.68 1490.42 Q2096.62 1491.48 2094.12 1491.48 Q2088.93 1491.48 2085.9 1488.36 Q2082.89 1485.21 2082.89 1479.77 Q2082.89 1474.44 2086.04 1471.23 Q2089.19 1468.01 2094.42 1468.01 Q2100.42 1468.01 2103.56 1472.62 Q2106.74 1477.2 2106.74 1485.95 Q2106.74 1494.12 2102.85 1499 Q2098.98 1503.87 2092.43 1503.87 Q2090.67 1503.87 2088.87 1503.52 Q2087.06 1503.17 2085.12 1502.48 M2094.42 1487.82 Q2097.57 1487.82 2099.4 1485.67 Q2101.25 1483.52 2101.25 1479.77 Q2101.25 1476.04 2099.4 1473.89 Q2097.57 1471.71 2094.42 1471.71 Q2091.27 1471.71 2089.42 1473.89 Q2087.59 1476.04 2087.59 1479.77 Q2087.59 1483.52 2089.42 1485.67 Q2091.27 1487.82 2094.42 1487.82 Z" fill="#000000" fill-rule="evenodd" fill-opacity="1" /><path clip-path="url(#clip480)" d="M 0 0 M2267.92 1499.26 L2275.56 1499.26 L2275.56 1472.89 L2267.25 1474.56 L2267.25 1470.3 L2275.51 1468.63 L2280.19 1468.63 L2280.19 1499.26 L2287.83 1499.26 L2287.83 1503.19 L2267.92 1503.19 L2267.92 1499.26 Z" fill="#000000" fill-rule="evenodd" fill-opacity="1" /><path clip-path="url(#clip480)" d="M 0 0 M2307.27 1471.71 Q2303.66 1471.71 2301.83 1475.28 Q2300.02 1478.82 2300.02 1485.95 Q2300.02 1493.06 2301.83 1496.62 Q2303.66 1500.16 2307.27 1500.16 Q2310.9 1500.16 2312.71 1496.62 Q2314.54 1493.06 2314.54 1485.95 Q2314.54 1478.82 2312.71 1475.28 Q2310.9 1471.71 2307.27 1471.71 M2307.27 1468.01 Q2313.08 1468.01 2316.14 1472.62 Q2319.21 1477.2 2319.21 1485.95 Q2319.21 1494.68 2316.14 1499.28 Q2313.08 1503.87 2307.27 1503.87 Q2301.46 1503.87 2298.38 1499.28 Q2295.33 1494.68 2295.33 1485.95 Q2295.33 1477.2 2298.38 1472.62 Q2301.46 1468.01 2307.27 1468.01 Z" fill="#000000" fill-rule="evenodd" fill-opacity="1" /><path clip-path="url(#clip480)" d="M 0 0 M1315.59 1528.38 Q1315.59 1528.83 1315.3 1529.89 L1308.98 1555.08 Q1307.6 1560.68 1303.09 1564.61 Q1298.61 1568.54 1293.53 1568.54 Q1290.47 1568.54 1288.5 1566.9 Q1286.54 1565.28 1286.54 1562.81 Q1286.54 1560.62 1287.7 1559.55 Q1288.86 1558.52 1290.24 1558.52 Q1290.69 1558.52 1291.17 1558.65 Q1291.66 1558.78 1292.17 1559.33 Q1292.69 1559.87 1292.69 1560.81 Q1292.69 1562.32 1291.37 1563.51 Q1290.72 1564.06 1290.11 1564.19 Q1289.53 1564.32 1288.53 1564.32 Q1288.92 1565.22 1289.63 1565.83 Q1290.34 1566.44 1291.14 1566.67 Q1291.95 1566.93 1292.46 1566.99 Q1293.01 1567.09 1293.53 1567.09 Q1297.65 1567.09 1300.8 1562.93 Q1301.74 1561.68 1302.41 1560.42 Q1303.12 1559.2 1303.64 1557.68 Q1304.15 1556.2 1304.38 1555.4 Q1304.64 1554.59 1305.09 1552.76 Q1302.09 1555.75 1298.42 1555.75 Q1296.87 1555.75 1295.49 1555.33 Q1294.14 1554.91 1292.95 1554.05 Q1291.75 1553.14 1291.05 1551.57 Q1290.37 1549.99 1290.37 1547.89 Q1290.37 1545.67 1291.24 1542.64 Q1292.11 1539.62 1294.2 1534.05 Q1295.33 1530.92 1295.33 1529.41 Q1295.33 1528.67 1295.17 1528.22 Q1295.01 1527.73 1294.68 1527.57 Q1294.36 1527.38 1294.17 1527.35 Q1294.01 1527.31 1293.69 1527.31 Q1291.79 1527.31 1290.01 1529.25 Q1288.24 1531.18 1287.02 1535.49 Q1286.76 1536.3 1286.6 1536.49 Q1286.44 1536.69 1285.96 1536.69 Q1285.15 1536.65 1285.15 1536.01 Q1285.15 1535.75 1285.44 1534.75 Q1285.73 1533.72 1286.41 1532.21 Q1287.12 1530.66 1288.08 1529.28 Q1289.05 1527.86 1290.56 1526.86 Q1292.11 1525.86 1293.88 1525.86 Q1296.3 1525.86 1297.78 1527.44 Q1299.29 1528.99 1299.29 1531.28 Q1299.29 1532.21 1299.03 1533.05 Q1298.81 1533.85 1297.97 1536.01 Q1294.59 1544.71 1294.59 1548.96 Q1294.59 1549.99 1294.75 1550.86 Q1294.94 1551.69 1295.36 1552.53 Q1295.78 1553.34 1296.62 1553.82 Q1297.49 1554.27 1298.68 1554.27 Q1300.19 1554.27 1301.61 1553.56 Q1303.06 1552.82 1303.96 1551.82 Q1304.89 1550.82 1305.44 1549.99 Q1306.02 1549.12 1306.15 1548.67 L1309.11 1536.81 L1310.43 1531.53 Q1311.05 1528.67 1311.34 1527.96 Q1311.72 1527.28 1312.4 1526.93 Q1313.07 1526.57 1313.65 1526.57 Q1314.46 1526.57 1315.01 1527.06 Q1315.59 1527.54 1315.59 1528.38 Z" fill="#000000" fill-rule="evenodd" fill-opacity="1" /><polyline clip-path="url(#clip482)" style="stroke:#000000; stroke-width:2; stroke-opacity:0.1; fill:none" points="
  249.542,1408.28 2352.76,1408.28 
  "/>
<polyline clip-path="url(#clip482)" style="stroke:#000000; stroke-width:2; stroke-opacity:0.1; fill:none" points="
  249.542,1139.77 2352.76,1139.77 
  "/>
<polyline clip-path="url(#clip482)" style="stroke:#000000; stroke-width:2; stroke-opacity:0.1; fill:none" points="
  249.542,871.269 2352.76,871.269 
  "/>
<polyline clip-path="url(#clip482)" style="stroke:#000000; stroke-width:2; stroke-opacity:0.1; fill:none" points="
  249.542,602.765 2352.76,602.765 
  "/>
<polyline clip-path="url(#clip482)" style="stroke:#000000; stroke-width:2; stroke-opacity:0.1; fill:none" points="
  249.542,334.261 2352.76,334.261 
  "/>
<polyline clip-path="url(#clip482)" style="stroke:#000000; stroke-width:2; stroke-opacity:0.1; fill:none" points="
  249.542,65.7562 2352.76,65.7562 
  "/>
<polyline clip-path="url(#clip480)" style="stroke:#000000; stroke-width:4; stroke-opacity:1; fill:none" points="
  249.542,1442.52 249.542,47.2441 
  "/>
<polyline clip-path="url(#clip480)" style="stroke:#000000; stroke-width:4; stroke-opacity:1; fill:none" points="
  249.542,1408.28 274.781,1408.28 
  "/>
<polyline clip-path="url(#clip480)" style="stroke:#000000; stroke-width:4; stroke-opacity:1; fill:none" points="
  249.542,1139.77 274.781,1139.77 
  "/>
<polyline clip-path="url(#clip480)" style="stroke:#000000; stroke-width:4; stroke-opacity:1; fill:none" points="
  249.542,871.269 274.781,871.269 
  "/>
<polyline clip-path="url(#clip480)" style="stroke:#000000; stroke-width:4; stroke-opacity:1; fill:none" points="
  249.542,602.765 274.781,602.765 
  "/>
<polyline clip-path="url(#clip480)" style="stroke:#000000; stroke-width:4; stroke-opacity:1; fill:none" points="
  249.542,334.261 274.781,334.261 
  "/>
<polyline clip-path="url(#clip480)" style="stroke:#000000; stroke-width:4; stroke-opacity:1; fill:none" points="
  249.542,65.7562 274.781,65.7562 
  "/>
<path clip-path="url(#clip480)" d="M 0 0 M126.205 1394.08 Q122.593 1394.08 120.765 1397.64 Q118.959 1401.18 118.959 1408.31 Q118.959 1415.42 120.765 1418.98 Q122.593 1422.53 126.205 1422.53 Q129.839 1422.53 131.644 1418.98 Q133.473 1415.42 133.473 1408.31 Q133.473 1401.18 131.644 1397.64 Q129.839 1394.08 126.205 1394.08 M126.205 1390.37 Q132.015 1390.37 135.07 1394.98 Q138.149 1399.56 138.149 1408.31 Q138.149 1417.04 135.07 1421.65 Q132.015 1426.23 126.205 1426.23 Q120.394 1426.23 117.316 1421.65 Q114.26 1417.04 114.26 1408.31 Q114.26 1399.56 117.316 1394.98 Q120.394 1390.37 126.205 1390.37 Z" fill="#000000" fill-rule="evenodd" fill-opacity="1" /><path clip-path="url(#clip480)" d="M 0 0 M146.366 1419.68 L151.251 1419.68 L151.251 1425.56 L146.366 1425.56 L146.366 1419.68 Z" fill="#000000" fill-rule="evenodd" fill-opacity="1" /><path clip-path="url(#clip480)" d="M 0 0 M171.436 1394.08 Q167.825 1394.08 165.996 1397.64 Q164.19 1401.18 164.19 1408.31 Q164.19 1415.42 165.996 1418.98 Q167.825 1422.53 171.436 1422.53 Q175.07 1422.53 176.876 1418.98 Q178.704 1415.42 178.704 1408.31 Q178.704 1401.18 176.876 1397.64 Q175.07 1394.08 171.436 1394.08 M171.436 1390.37 Q177.246 1390.37 180.301 1394.98 Q183.38 1399.56 183.38 1408.31 Q183.38 1417.04 180.301 1421.65 Q177.246 1426.23 171.436 1426.23 Q165.626 1426.23 162.547 1421.65 Q159.491 1417.04 159.491 1408.31 Q159.491 1399.56 162.547 1394.98 Q165.626 1390.37 171.436 1390.37 Z" fill="#000000" fill-rule="evenodd" fill-opacity="1" /><path clip-path="url(#clip480)" d="M 0 0 M201.598 1394.08 Q197.987 1394.08 196.158 1397.64 Q194.352 1401.18 194.352 1408.31 Q194.352 1415.42 196.158 1418.98 Q197.987 1422.53 201.598 1422.53 Q205.232 1422.53 207.037 1418.98 Q208.866 1415.42 208.866 1408.31 Q208.866 1401.18 207.037 1397.64 Q205.232 1394.08 201.598 1394.08 M201.598 1390.37 Q207.408 1390.37 210.463 1394.98 Q213.542 1399.56 213.542 1408.31 Q213.542 1417.04 210.463 1421.65 Q207.408 1426.23 201.598 1426.23 Q195.787 1426.23 192.709 1421.65 Q189.653 1417.04 189.653 1408.31 Q189.653 1399.56 192.709 1394.98 Q195.787 1390.37 201.598 1390.37 Z" fill="#000000" fill-rule="evenodd" fill-opacity="1" /><path clip-path="url(#clip480)" d="M 0 0 M127.2 1125.57 Q123.589 1125.57 121.76 1129.14 Q119.955 1132.68 119.955 1139.81 Q119.955 1146.91 121.76 1150.48 Q123.589 1154.02 127.2 1154.02 Q130.834 1154.02 132.64 1150.48 Q134.468 1146.91 134.468 1139.81 Q134.468 1132.68 132.64 1129.14 Q130.834 1125.57 127.2 1125.57 M127.2 1121.87 Q133.01 1121.87 136.066 1126.48 Q139.144 1131.06 139.144 1139.81 Q139.144 1148.54 136.066 1153.14 Q133.01 1157.72 127.2 1157.72 Q121.39 1157.72 118.311 1153.14 Q115.256 1148.54 115.256 1139.81 Q115.256 1131.06 118.311 1126.48 Q121.39 1121.87 127.2 1121.87 Z" fill="#000000" fill-rule="evenodd" fill-opacity="1" /><path clip-path="url(#clip480)" d="M 0 0 M147.362 1151.17 L152.246 1151.17 L152.246 1157.05 L147.362 1157.05 L147.362 1151.17 Z" fill="#000000" fill-rule="evenodd" fill-opacity="1" /><path clip-path="url(#clip480)" d="M 0 0 M172.431 1125.57 Q168.82 1125.57 166.991 1129.14 Q165.186 1132.68 165.186 1139.81 Q165.186 1146.91 166.991 1150.48 Q168.82 1154.02 172.431 1154.02 Q176.065 1154.02 177.871 1150.48 Q179.7 1146.91 179.7 1139.81 Q179.7 1132.68 177.871 1129.14 Q176.065 1125.57 172.431 1125.57 M172.431 1121.87 Q178.241 1121.87 181.297 1126.48 Q184.376 1131.06 184.376 1139.81 Q184.376 1148.54 181.297 1153.14 Q178.241 1157.72 172.431 1157.72 Q166.621 1157.72 163.542 1153.14 Q160.487 1148.54 160.487 1139.81 Q160.487 1131.06 163.542 1126.48 Q166.621 1121.87 172.431 1121.87 Z" fill="#000000" fill-rule="evenodd" fill-opacity="1" /><path clip-path="url(#clip480)" d="M 0 0 M192.639 1122.49 L210.996 1122.49 L210.996 1126.43 L196.922 1126.43 L196.922 1134.9 Q197.94 1134.55 198.959 1134.39 Q199.977 1134.21 200.996 1134.21 Q206.783 1134.21 210.162 1137.38 Q213.542 1140.55 213.542 1145.97 Q213.542 1151.54 210.07 1154.65 Q206.598 1157.72 200.278 1157.72 Q198.102 1157.72 195.834 1157.35 Q193.588 1156.98 191.181 1156.24 L191.181 1151.54 Q193.264 1152.68 195.487 1153.23 Q197.709 1153.79 200.186 1153.79 Q204.19 1153.79 206.528 1151.68 Q208.866 1149.58 208.866 1145.97 Q208.866 1142.35 206.528 1140.25 Q204.19 1138.14 200.186 1138.14 Q198.311 1138.14 196.436 1138.56 Q194.584 1138.98 192.639 1139.85 L192.639 1122.49 Z" fill="#000000" fill-rule="evenodd" fill-opacity="1" /><path clip-path="url(#clip480)" d="M 0 0 M126.205 857.068 Q122.593 857.068 120.765 860.633 Q118.959 864.174 118.959 871.304 Q118.959 878.41 120.765 881.975 Q122.593 885.517 126.205 885.517 Q129.839 885.517 131.644 881.975 Q133.473 878.41 133.473 871.304 Q133.473 864.174 131.644 860.633 Q129.839 857.068 126.205 857.068 M126.205 853.364 Q132.015 853.364 135.07 857.971 Q138.149 862.554 138.149 871.304 Q138.149 880.031 135.07 884.637 Q132.015 889.221 126.205 889.221 Q120.394 889.221 117.316 884.637 Q114.26 880.031 114.26 871.304 Q114.26 862.554 117.316 857.971 Q120.394 853.364 126.205 853.364 Z" fill="#000000" fill-rule="evenodd" fill-opacity="1" /><path clip-path="url(#clip480)" d="M 0 0 M146.366 882.67 L151.251 882.67 L151.251 888.549 L146.366 888.549 L146.366 882.67 Z" fill="#000000" fill-rule="evenodd" fill-opacity="1" /><path clip-path="url(#clip480)" d="M 0 0 M162.246 884.614 L169.885 884.614 L169.885 858.249 L161.575 859.915 L161.575 855.656 L169.839 853.989 L174.514 853.989 L174.514 884.614 L182.153 884.614 L182.153 888.549 L162.246 888.549 L162.246 884.614 Z" fill="#000000" fill-rule="evenodd" fill-opacity="1" /><path clip-path="url(#clip480)" d="M 0 0 M201.598 857.068 Q197.987 857.068 196.158 860.633 Q194.352 864.174 194.352 871.304 Q194.352 878.41 196.158 881.975 Q197.987 885.517 201.598 885.517 Q205.232 885.517 207.037 881.975 Q208.866 878.41 208.866 871.304 Q208.866 864.174 207.037 860.633 Q205.232 857.068 201.598 857.068 M201.598 853.364 Q207.408 853.364 210.463 857.971 Q213.542 862.554 213.542 871.304 Q213.542 880.031 210.463 884.637 Q207.408 889.221 201.598 889.221 Q195.787 889.221 192.709 884.637 Q189.653 880.031 189.653 871.304 Q189.653 862.554 192.709 857.971 Q195.787 853.364 201.598 853.364 Z" fill="#000000" fill-rule="evenodd" fill-opacity="1" /><path clip-path="url(#clip480)" d="M 0 0 M127.2 588.564 Q123.589 588.564 121.76 592.128 Q119.955 595.67 119.955 602.8 Q119.955 609.906 121.76 613.471 Q123.589 617.013 127.2 617.013 Q130.834 617.013 132.64 613.471 Q134.468 609.906 134.468 602.8 Q134.468 595.67 132.64 592.128 Q130.834 588.564 127.2 588.564 M127.2 584.86 Q133.01 584.86 136.066 589.466 Q139.144 594.05 139.144 602.8 Q139.144 611.526 136.066 616.133 Q133.01 620.716 127.2 620.716 Q121.39 620.716 118.311 616.133 Q115.256 611.526 115.256 602.8 Q115.256 594.05 118.311 589.466 Q121.39 584.86 127.2 584.86 Z" fill="#000000" fill-rule="evenodd" fill-opacity="1" /><path clip-path="url(#clip480)" d="M 0 0 M147.362 614.165 L152.246 614.165 L152.246 620.045 L147.362 620.045 L147.362 614.165 Z" fill="#000000" fill-rule="evenodd" fill-opacity="1" /><path clip-path="url(#clip480)" d="M 0 0 M163.241 616.11 L170.88 616.11 L170.88 589.744 L162.57 591.411 L162.57 587.152 L170.834 585.485 L175.51 585.485 L175.51 616.11 L183.149 616.11 L183.149 620.045 L163.241 620.045 L163.241 616.11 Z" fill="#000000" fill-rule="evenodd" fill-opacity="1" /><path clip-path="url(#clip480)" d="M 0 0 M192.639 585.485 L210.996 585.485 L210.996 589.42 L196.922 589.42 L196.922 597.892 Q197.94 597.545 198.959 597.383 Q199.977 597.198 200.996 597.198 Q206.783 597.198 210.162 600.369 Q213.542 603.54 213.542 608.957 Q213.542 614.536 210.07 617.638 Q206.598 620.716 200.278 620.716 Q198.102 620.716 195.834 620.346 Q193.588 619.975 191.181 619.235 L191.181 614.536 Q193.264 615.67 195.487 616.225 Q197.709 616.781 200.186 616.781 Q204.19 616.781 206.528 614.675 Q208.866 612.568 208.866 608.957 Q208.866 605.346 206.528 603.239 Q204.19 601.133 200.186 601.133 Q198.311 601.133 196.436 601.55 Q194.584 601.966 192.639 602.846 L192.639 585.485 Z" fill="#000000" fill-rule="evenodd" fill-opacity="1" /><path clip-path="url(#clip480)" d="M 0 0 M126.205 320.059 Q122.593 320.059 120.765 323.624 Q118.959 327.166 118.959 334.295 Q118.959 341.402 120.765 344.967 Q122.593 348.508 126.205 348.508 Q129.839 348.508 131.644 344.967 Q133.473 341.402 133.473 334.295 Q133.473 327.166 131.644 323.624 Q129.839 320.059 126.205 320.059 M126.205 316.356 Q132.015 316.356 135.07 320.962 Q138.149 325.545 138.149 334.295 Q138.149 343.022 135.07 347.629 Q132.015 352.212 126.205 352.212 Q120.394 352.212 117.316 347.629 Q114.26 343.022 114.26 334.295 Q114.26 325.545 117.316 320.962 Q120.394 316.356 126.205 316.356 Z" fill="#000000" fill-rule="evenodd" fill-opacity="1" /><path clip-path="url(#clip480)" d="M 0 0 M146.366 345.661 L151.251 345.661 L151.251 351.541 L146.366 351.541 L146.366 345.661 Z" fill="#000000" fill-rule="evenodd" fill-opacity="1" /><path clip-path="url(#clip480)" d="M 0 0 M165.464 347.605 L181.783 347.605 L181.783 351.541 L159.839 351.541 L159.839 347.605 Q162.501 344.851 167.084 340.221 Q171.69 335.568 172.871 334.226 Q175.116 331.703 175.996 329.967 Q176.899 328.207 176.899 326.518 Q176.899 323.763 174.954 322.027 Q173.033 320.291 169.931 320.291 Q167.732 320.291 165.278 321.055 Q162.848 321.818 160.07 323.369 L160.07 318.647 Q162.894 317.513 165.348 316.934 Q167.802 316.356 169.839 316.356 Q175.209 316.356 178.403 319.041 Q181.598 321.726 181.598 326.217 Q181.598 328.346 180.788 330.268 Q180.001 332.166 177.894 334.758 Q177.315 335.43 174.214 338.647 Q171.112 341.842 165.464 347.605 Z" fill="#000000" fill-rule="evenodd" fill-opacity="1" /><path clip-path="url(#clip480)" d="M 0 0 M201.598 320.059 Q197.987 320.059 196.158 323.624 Q194.352 327.166 194.352 334.295 Q194.352 341.402 196.158 344.967 Q197.987 348.508 201.598 348.508 Q205.232 348.508 207.037 344.967 Q208.866 341.402 208.866 334.295 Q208.866 327.166 207.037 323.624 Q205.232 320.059 201.598 320.059 M201.598 316.356 Q207.408 316.356 210.463 320.962 Q213.542 325.545 213.542 334.295 Q213.542 343.022 210.463 347.629 Q207.408 352.212 201.598 352.212 Q195.787 352.212 192.709 347.629 Q189.653 343.022 189.653 334.295 Q189.653 325.545 192.709 320.962 Q195.787 316.356 201.598 316.356 Z" fill="#000000" fill-rule="evenodd" fill-opacity="1" /><path clip-path="url(#clip480)" d="M 0 0 M127.2 51.5549 Q123.589 51.5549 121.76 55.1197 Q119.955 58.6613 119.955 65.7909 Q119.955 72.8974 121.76 76.4622 Q123.589 80.0038 127.2 80.0038 Q130.834 80.0038 132.64 76.4622 Q134.468 72.8974 134.468 65.7909 Q134.468 58.6613 132.64 55.1197 Q130.834 51.5549 127.2 51.5549 M127.2 47.8512 Q133.01 47.8512 136.066 52.4577 Q139.144 57.041 139.144 65.7909 Q139.144 74.5177 136.066 79.1242 Q133.01 83.7075 127.2 83.7075 Q121.39 83.7075 118.311 79.1242 Q115.256 74.5177 115.256 65.7909 Q115.256 57.041 118.311 52.4577 Q121.39 47.8512 127.2 47.8512 Z" fill="#000000" fill-rule="evenodd" fill-opacity="1" /><path clip-path="url(#clip480)" d="M 0 0 M147.362 77.1566 L152.246 77.1566 L152.246 83.0362 L147.362 83.0362 L147.362 77.1566 Z" fill="#000000" fill-rule="evenodd" fill-opacity="1" /><path clip-path="url(#clip480)" d="M 0 0 M166.459 79.101 L182.778 79.101 L182.778 83.0362 L160.834 83.0362 L160.834 79.101 Q163.496 76.3464 168.079 71.7168 Q172.686 67.0641 173.866 65.7215 Q176.112 63.1984 176.991 61.4623 Q177.894 59.703 177.894 58.0132 Q177.894 55.2586 175.95 53.5225 Q174.028 51.7864 170.927 51.7864 Q168.727 51.7864 166.274 52.5503 Q163.843 53.3141 161.065 54.8651 L161.065 50.1429 Q163.89 49.0086 166.343 48.4299 Q168.797 47.8512 170.834 47.8512 Q176.204 47.8512 179.399 50.5364 Q182.593 53.2216 182.593 57.7123 Q182.593 59.8419 181.783 61.7632 Q180.996 63.6613 178.889 66.2539 Q178.311 66.9252 175.209 70.1428 Q172.107 73.3372 166.459 79.101 Z" fill="#000000" fill-rule="evenodd" fill-opacity="1" /><path clip-path="url(#clip480)" d="M 0 0 M192.639 48.4762 L210.996 48.4762 L210.996 52.4114 L196.922 52.4114 L196.922 60.8836 Q197.94 60.5363 198.959 60.3743 Q199.977 60.1891 200.996 60.1891 Q206.783 60.1891 210.162 63.3604 Q213.542 66.5317 213.542 71.9483 Q213.542 77.527 210.07 80.6288 Q206.598 83.7075 200.278 83.7075 Q198.102 83.7075 195.834 83.3371 Q193.588 82.9668 191.181 82.226 L191.181 77.527 Q193.264 78.6612 195.487 79.2168 Q197.709 79.7723 200.186 79.7723 Q204.19 79.7723 206.528 77.6659 Q208.866 75.5594 208.866 71.9483 Q208.866 68.3372 206.528 66.2307 Q204.19 64.1243 200.186 64.1243 Q198.311 64.1243 196.436 64.5409 Q194.584 64.9576 192.639 65.8372 L192.639 48.4762 Z" fill="#000000" fill-rule="evenodd" fill-opacity="1" /><path clip-path="url(#clip480)" d="M 0 0 M58.657 800.567 L77.5631 800.567 L77.5631 806.456 L28.3562 806.456 L28.3562 800.567 L33.7671 800.567 Q30.5842 798.721 29.0564 795.92 Q27.4968 793.088 27.4968 789.173 Q27.4968 782.68 32.6531 778.638 Q37.8093 774.564 46.212 774.564 Q54.6147 774.564 59.771 778.638 Q64.9272 782.68 64.9272 789.173 Q64.9272 793.088 63.3994 795.92 Q61.8398 798.721 58.657 800.567 M46.212 780.643 Q39.7508 780.643 36.0905 783.316 Q32.3984 785.958 32.3984 790.605 Q32.3984 795.252 36.0905 797.926 Q39.7508 800.567 46.212 800.567 Q52.6732 800.567 56.3653 797.926 Q60.0256 795.252 60.0256 790.605 Q60.0256 785.958 56.3653 783.316 Q52.6732 780.643 46.212 780.643 Z" fill="#000000" fill-rule="evenodd" fill-opacity="1" /><path clip-path="url(#clip480)" d="M 0 0 M35.1993 737.101 Q31.2526 734.905 29.3747 731.85 Q27.4968 728.794 27.4968 724.656 Q27.4968 719.086 31.4117 716.063 Q35.2948 713.039 42.4881 713.039 L64.0042 713.039 L64.0042 718.927 L42.679 718.927 Q37.5546 718.927 35.072 720.741 Q32.5894 722.556 32.5894 726.28 Q32.5894 730.831 35.6131 733.473 Q38.6368 736.115 43.8567 736.115 L64.0042 736.115 L64.0042 742.003 L42.679 742.003 Q37.5228 742.003 35.072 743.817 Q32.5894 745.631 32.5894 749.419 Q32.5894 753.907 35.6449 756.549 Q38.6686 759.19 43.8567 759.19 L64.0042 759.19 L64.0042 765.079 L28.3562 765.079 L28.3562 759.19 L33.8944 759.19 Q30.616 757.185 29.0564 754.384 Q27.4968 751.583 27.4968 747.732 Q27.4968 743.849 29.4702 741.144 Q31.4436 738.406 35.1993 737.101 Z" fill="#000000" fill-rule="evenodd" fill-opacity="1" /><path clip-path="url(#clip480)" d="M 0 0 M14.479 683.311 L19.3487 683.311 L19.3487 688.913 Q19.3487 692.064 20.6219 693.305 Q21.895 694.515 25.2052 694.515 L28.3562 694.515 L28.3562 684.871 L32.9077 684.871 L32.9077 694.515 L64.0042 694.515 L64.0042 700.403 L32.9077 700.403 L32.9077 706.005 L28.3562 706.005 L28.3562 700.403 L25.8736 700.403 Q19.9216 700.403 17.2162 697.634 Q14.479 694.865 14.479 688.849 L14.479 683.311 Z" fill="#000000" fill-rule="evenodd" fill-opacity="1" /><circle clip-path="url(#clip482)" cx="309.067" cy="1403.03" r="14" fill="#009af9" fill-rule="evenodd" fill-opacity="1" stroke="#000000" stroke-opacity="1" stroke-width="3.2"/>
<circle clip-path="url(#clip482)" cx="507.483" cy="1355.84" r="14" fill="#009af9" fill-rule="evenodd" fill-opacity="1" stroke="#000000" stroke-opacity="1" stroke-width="3.2"/>
<circle clip-path="url(#clip482)" cx="705.9" cy="1172.29" r="14" fill="#009af9" fill-rule="evenodd" fill-opacity="1" stroke="#000000" stroke-opacity="1" stroke-width="3.2"/>
<circle clip-path="url(#clip482)" cx="904.316" cy="778.971" r="14" fill="#009af9" fill-rule="evenodd" fill-opacity="1" stroke="#000000" stroke-opacity="1" stroke-width="3.2"/>
<circle clip-path="url(#clip482)" cx="1102.73" cy="306.991" r="14" fill="#009af9" fill-rule="evenodd" fill-opacity="1" stroke="#000000" stroke-opacity="1" stroke-width="3.2"/>
<circle clip-path="url(#clip482)" cx="1301.15" cy="86.7331" r="14" fill="#009af9" fill-rule="evenodd" fill-opacity="1" stroke="#000000" stroke-opacity="1" stroke-width="3.2"/>
<circle clip-path="url(#clip482)" cx="1499.57" cy="306.991" r="14" fill="#009af9" fill-rule="evenodd" fill-opacity="1" stroke="#000000" stroke-opacity="1" stroke-width="3.2"/>
<circle clip-path="url(#clip482)" cx="1697.98" cy="778.971" r="14" fill="#009af9" fill-rule="evenodd" fill-opacity="1" stroke="#000000" stroke-opacity="1" stroke-width="3.2"/>
<circle clip-path="url(#clip482)" cx="1896.4" cy="1172.29" r="14" fill="#009af9" fill-rule="evenodd" fill-opacity="1" stroke="#000000" stroke-opacity="1" stroke-width="3.2"/>
<circle clip-path="url(#clip482)" cx="2094.81" cy="1355.84" r="14" fill="#009af9" fill-rule="evenodd" fill-opacity="1" stroke="#000000" stroke-opacity="1" stroke-width="3.2"/>
<circle clip-path="url(#clip482)" cx="2293.23" cy="1403.03" r="14" fill="#009af9" fill-rule="evenodd" fill-opacity="1" stroke="#000000" stroke-opacity="1" stroke-width="3.2"/>
<polyline clip-path="url(#clip482)" style="stroke:#009af9; stroke-width:8; stroke-opacity:1; fill:none" points="
  309.067,1403.03 507.483,1355.84 705.9,1172.29 904.316,778.971 1102.73,306.991 1301.15,86.7331 1499.57,306.991 1697.98,778.971 1896.4,1172.29 2094.81,1355.84 
  2293.23,1403.03 
  "/>
<circle clip-path="url(#clip482)" cx="309.067" cy="1403.03" r="14" fill="#009af9" fill-rule="evenodd" fill-opacity="1" stroke="#000000" stroke-opacity="1" stroke-width="3.2"/>
<circle clip-path="url(#clip482)" cx="507.483" cy="1355.84" r="14" fill="#009af9" fill-rule="evenodd" fill-opacity="1" stroke="#000000" stroke-opacity="1" stroke-width="3.2"/>
<circle clip-path="url(#clip482)" cx="705.9" cy="1172.29" r="14" fill="#009af9" fill-rule="evenodd" fill-opacity="1" stroke="#000000" stroke-opacity="1" stroke-width="3.2"/>
<circle clip-path="url(#clip482)" cx="904.316" cy="778.971" r="14" fill="#009af9" fill-rule="evenodd" fill-opacity="1" stroke="#000000" stroke-opacity="1" stroke-width="3.2"/>
<circle clip-path="url(#clip482)" cx="1102.73" cy="306.991" r="14" fill="#009af9" fill-rule="evenodd" fill-opacity="1" stroke="#000000" stroke-opacity="1" stroke-width="3.2"/>
<circle clip-path="url(#clip482)" cx="1301.15" cy="86.7331" r="14" fill="#009af9" fill-rule="evenodd" fill-opacity="1" stroke="#000000" stroke-opacity="1" stroke-width="3.2"/>
<circle clip-path="url(#clip482)" cx="1499.57" cy="306.991" r="14" fill="#009af9" fill-rule="evenodd" fill-opacity="1" stroke="#000000" stroke-opacity="1" stroke-width="3.2"/>
<circle clip-path="url(#clip482)" cx="1697.98" cy="778.971" r="14" fill="#009af9" fill-rule="evenodd" fill-opacity="1" stroke="#000000" stroke-opacity="1" stroke-width="3.2"/>
<circle clip-path="url(#clip482)" cx="1896.4" cy="1172.29" r="14" fill="#009af9" fill-rule="evenodd" fill-opacity="1" stroke="#000000" stroke-opacity="1" stroke-width="3.2"/>
<circle clip-path="url(#clip482)" cx="2094.81" cy="1355.84" r="14" fill="#009af9" fill-rule="evenodd" fill-opacity="1" stroke="#000000" stroke-opacity="1" stroke-width="3.2"/>
<circle clip-path="url(#clip482)" cx="2293.23" cy="1403.03" r="14" fill="#009af9" fill-rule="evenodd" fill-opacity="1" stroke="#000000" stroke-opacity="1" stroke-width="3.2"/>
<path clip-path="url(#clip480)" d="
M1666.06 275.193 L2282.65 275.193 L2282.65 93.7534 L1666.06 93.7534  Z
  " fill="#ffffff" fill-rule="evenodd" fill-opacity="1"/>
<polyline clip-path="url(#clip480)" style="stroke:#000000; stroke-width:4; stroke-opacity:1; fill:none" points="
  1666.06,275.193 2282.65,275.193 2282.65,93.7534 1666.06,93.7534 1666.06,275.193 
  "/>
<circle clip-path="url(#clip480)" cx="1759.54" cy="184.473" r="34" fill="#009af9" fill-rule="evenodd" fill-opacity="1" stroke="#000000" stroke-opacity="1" stroke-width="7.68"/>
<path clip-path="url(#clip480)" d="M 0 0 M1890.6 181.986 Q1890.6 187.116 1888 192.07 Q1885.44 197.024 1881.4 200.08 Q1877.36 203.102 1873.25 203.102 Q1870.79 203.102 1869.14 201.767 Q1867.52 200.396 1866.64 198.464 Q1865.98 200.853 1864.54 206.58 Q1863.09 212.307 1863.09 212.869 Q1863.09 213.185 1863.16 213.326 Q1863.24 213.466 1863.55 213.642 Q1863.87 213.853 1864.64 213.923 Q1865.41 214.028 1866.71 214.028 Q1867.38 214.028 1867.63 214.028 Q1867.91 214.063 1868.15 214.239 Q1868.43 214.415 1868.43 214.801 Q1868.43 216.242 1867.14 216.242 Q1865.98 216.242 1863.59 216.136 Q1861.2 216.031 1860 216.031 Q1858.98 216.031 1856.95 216.136 Q1854.91 216.242 1853.96 216.242 Q1853.01 216.242 1853.01 215.399 Q1853.01 214.907 1853.15 214.59 Q1853.26 214.309 1853.54 214.169 Q1853.82 214.063 1854.07 214.028 Q1854.28 214.028 1854.7 214.028 Q1856.31 214.028 1857.02 213.747 Q1857.72 213.501 1857.97 212.974 Q1858.25 212.482 1858.56 211.077 L1866.64 179.035 Q1867.14 176.892 1867.14 175.381 Q1867.14 173.484 1866.54 172.781 Q1865.94 172.079 1864.89 172.079 Q1863.06 172.079 1861.86 174.257 Q1860.67 176.435 1859.65 180.651 Q1859.34 181.811 1859.12 182.057 Q1858.95 182.303 1858.42 182.303 Q1857.54 182.268 1857.54 181.565 Q1857.54 181.389 1857.82 180.265 Q1858.11 179.105 1858.63 177.419 Q1859.19 175.698 1859.79 174.608 Q1860.14 173.871 1860.46 173.379 Q1860.78 172.887 1861.41 172.114 Q1862.08 171.341 1863.02 170.919 Q1863.97 170.498 1865.13 170.498 Q1867.38 170.498 1869.24 171.833 Q1871.11 173.168 1871.6 175.873 Q1873.6 173.519 1876.06 172.008 Q1878.52 170.498 1881.01 170.498 Q1885.16 170.498 1887.86 173.73 Q1890.6 176.927 1890.6 181.986 M1885.4 178.824 Q1885.4 175.627 1884.17 173.871 Q1882.98 172.079 1880.8 172.079 Q1878.1 172.079 1874.97 174.819 Q1871.88 177.419 1871.25 179.843 L1867.7 193.932 L1867.49 195.091 Q1867.49 195.302 1867.59 195.935 Q1867.73 196.532 1868.12 197.516 Q1868.54 198.499 1869.1 199.378 Q1869.7 200.221 1870.75 200.853 Q1871.84 201.486 1873.18 201.486 Q1875.32 201.486 1877.64 199.588 Q1879.99 197.691 1881.75 194.108 Q1882.84 191.789 1884.1 186.8 Q1885.4 181.776 1885.4 178.824 Z" fill="#000000" fill-rule="evenodd" fill-opacity="1" /><path clip-path="url(#clip480)" d="M 0 0 M1888.85 184.305 Q1888.85 172.149 1893.39 162.347 Q1895.32 158.236 1898.02 154.793 Q1900.73 151.35 1902.52 149.839 Q1904.31 148.328 1904.8 148.328 Q1905.51 148.328 1905.54 149.031 Q1905.54 149.382 1904.59 150.261 Q1893 162.066 1893.03 184.305 Q1893.03 206.615 1904.31 217.963 Q1905.54 219.193 1905.54 219.579 Q1905.54 220.282 1904.8 220.282 Q1904.31 220.282 1902.59 218.842 Q1900.87 217.401 1898.2 214.099 Q1895.53 210.796 1893.6 206.756 Q1888.85 196.953 1888.85 184.305 Z" fill="#000000" fill-rule="evenodd" fill-opacity="1" /><path clip-path="url(#clip480)" d="M 0 0 M1949.68 173.238 Q1949.68 173.73 1949.37 174.889 L1942.48 202.364 Q1940.97 208.477 1936.05 212.764 Q1931.17 217.05 1925.62 217.05 Q1922.28 217.05 1920.14 215.258 Q1917.99 213.501 1917.99 210.796 Q1917.99 208.407 1919.26 207.248 Q1920.52 206.123 1922.03 206.123 Q1922.53 206.123 1923.05 206.264 Q1923.58 206.404 1924.14 207.002 Q1924.7 207.599 1924.7 208.618 Q1924.7 210.269 1923.26 211.569 Q1922.56 212.166 1921.89 212.307 Q1921.26 212.447 1920.17 212.447 Q1920.59 213.431 1921.37 214.099 Q1922.14 214.766 1923.02 215.012 Q1923.9 215.293 1924.46 215.363 Q1925.05 215.469 1925.62 215.469 Q1930.11 215.469 1933.56 210.937 Q1934.58 209.566 1935.31 208.196 Q1936.09 206.861 1936.65 205.21 Q1937.21 203.594 1937.46 202.715 Q1937.74 201.837 1938.23 199.834 Q1934.96 203.102 1930.96 203.102 Q1929.27 203.102 1927.76 202.645 Q1926.28 202.188 1924.98 201.24 Q1923.68 200.256 1922.91 198.534 Q1922.17 196.813 1922.17 194.529 Q1922.17 192.105 1923.12 188.802 Q1924.07 185.5 1926.35 179.422 Q1927.58 176.014 1927.58 174.362 Q1927.58 173.554 1927.41 173.062 Q1927.23 172.535 1926.88 172.36 Q1926.53 172.149 1926.32 172.114 Q1926.14 172.079 1925.79 172.079 Q1923.72 172.079 1921.79 174.187 Q1919.86 176.295 1918.52 181.003 Q1918.24 181.881 1918.06 182.092 Q1917.89 182.303 1917.36 182.303 Q1916.48 182.268 1916.48 181.565 Q1916.48 181.284 1916.8 180.195 Q1917.11 179.07 1917.85 177.419 Q1918.63 175.733 1919.68 174.222 Q1920.73 172.676 1922.38 171.587 Q1924.07 170.498 1926 170.498 Q1928.64 170.498 1930.25 172.219 Q1931.91 173.906 1931.91 176.4 Q1931.91 177.419 1931.62 178.333 Q1931.38 179.211 1930.47 181.565 Q1926.78 191.051 1926.78 195.689 Q1926.78 196.813 1926.95 197.761 Q1927.16 198.675 1927.62 199.588 Q1928.08 200.467 1928.99 200.994 Q1929.94 201.486 1931.24 201.486 Q1932.89 201.486 1934.44 200.713 Q1936.02 199.905 1937 198.815 Q1938.02 197.726 1938.62 196.813 Q1939.25 195.864 1939.39 195.372 L1942.62 182.443 L1944.06 176.681 Q1944.73 173.554 1945.05 172.781 Q1945.47 172.044 1946.21 171.657 Q1946.94 171.271 1947.58 171.271 Q1948.45 171.271 1949.05 171.798 Q1949.68 172.325 1949.68 173.238 Z" fill="#000000" fill-rule="evenodd" fill-opacity="1" /><path clip-path="url(#clip480)" d="M 0 0 M1971.35 191.367 Q1971.42 190.489 1972.79 190.489 L2016.88 190.489 Q2018.95 190.489 2018.99 191.297 Q2018.99 192.175 2017.02 192.14 L1973.28 192.14 Q1971.35 192.175 1971.35 191.367 M1971.35 177.314 Q1971.35 176.435 1972.86 176.47 L2016.81 176.47 Q2018.95 176.47 2018.99 177.314 Q2018.99 178.122 2017.16 178.122 L1972.79 178.122 Q1971.35 178.122 1971.35 177.314 Z" fill="#000000" fill-rule="evenodd" fill-opacity="1" /><path clip-path="url(#clip480)" d="M 0 0 M2065.12 157.323 Q2065.12 158.868 2063.85 160.028 Q2062.62 161.152 2061.29 161.152 Q2060.06 161.152 2059.28 160.414 Q2058.55 159.641 2058.55 158.552 Q2058.55 157.112 2059.77 155.917 Q2061 154.723 2062.44 154.723 Q2063.64 154.723 2064.38 155.461 Q2065.12 156.198 2065.12 157.323 M2065.75 192 Q2065.75 192.281 2065.43 193.405 Q2065.12 194.494 2064.34 196.18 Q2063.6 197.832 2062.59 199.378 Q2061.57 200.923 2059.88 202.013 Q2058.23 203.102 2056.33 203.102 Q2053.77 203.102 2052.08 201.415 Q2050.43 199.729 2050.43 197.199 Q2050.43 195.829 2052.08 191.437 Q2056.86 178.649 2057.03 178.122 Q2057.84 176.119 2057.84 174.362 Q2057.84 173.554 2057.67 173.062 Q2057.49 172.535 2057.14 172.36 Q2056.79 172.149 2056.58 172.114 Q2056.4 172.079 2056.05 172.079 Q2053.98 172.079 2052.05 174.187 Q2050.11 176.295 2048.78 181.003 Q2048.5 181.881 2048.32 182.092 Q2048.15 182.303 2047.62 182.303 Q2046.74 182.268 2046.74 181.565 Q2046.74 181.354 2046.99 180.546 Q2047.23 179.703 2047.69 178.438 Q2048.15 177.138 2048.95 175.803 Q2049.76 174.433 2050.75 173.238 Q2051.76 172.044 2053.2 171.271 Q2054.65 170.498 2056.26 170.498 Q2058.9 170.498 2060.51 172.219 Q2062.16 173.906 2062.16 176.4 Q2062.16 177.77 2061.22 180.195 Q2060.06 183.357 2059.63 184.376 L2056.82 191.929 Q2055.8 194.67 2055.49 195.513 Q2055.21 196.321 2054.96 197.305 Q2054.75 198.253 2054.75 199.132 Q2054.75 200.361 2055.14 200.923 Q2055.56 201.486 2056.47 201.486 Q2059 201.486 2060.86 198.991 Q2062.73 196.462 2063.82 192.597 Q2063.85 192.491 2063.89 192.316 Q2064.17 191.437 2064.45 191.332 Q2064.59 191.297 2064.87 191.297 Q2065.75 191.297 2065.75 192 Z" fill="#000000" fill-rule="evenodd" fill-opacity="1" /><path clip-path="url(#clip480)" d="M 0 0 M2071.31 218.069 L2071.31 151.069 Q2071.31 148.399 2072.75 148.399 Q2074.19 148.399 2074.19 150.542 L2074.19 217.542 Q2074.19 220.212 2072.75 220.212 Q2071.31 220.212 2071.31 218.069 Z" fill="#000000" fill-rule="evenodd" fill-opacity="1" /><path clip-path="url(#clip480)" d="M 0 0 M2130.73 166.317 Q2130.73 172.219 2128.83 178.86 Q2126.97 185.465 2124.02 190.805 Q2121.07 196.11 2117.2 199.624 Q2113.34 203.102 2109.65 203.102 Q2107.3 203.102 2105.54 201.802 Q2103.82 200.467 2102.87 198.253 Q2101.92 196.005 2101.46 193.545 Q2101.01 191.051 2101.01 188.346 Q2101.01 184.305 2101.89 179.914 Q2102.76 175.487 2104.24 171.481 Q2105.72 167.441 2107.79 163.787 Q2109.86 160.098 2112.14 157.428 Q2114.46 154.723 2117.06 153.142 Q2119.66 151.561 2122.09 151.561 Q2123.84 151.561 2125.25 152.334 Q2126.69 153.071 2127.6 154.371 Q2128.52 155.636 2129.15 157.147 Q2129.82 158.658 2130.13 160.414 Q2130.45 162.136 2130.59 163.576 Q2130.73 164.982 2130.73 166.317 M2125.99 161.855 Q2125.99 160.063 2125.85 158.728 Q2125.71 157.358 2125.32 155.988 Q2124.93 154.617 2124.09 153.88 Q2123.28 153.142 2122.02 153.142 Q2118.33 153.142 2114.18 160.695 Q2112.85 163.049 2111.65 166.247 Q2110.46 169.444 2110.04 170.954 Q2109.61 172.465 2108.63 176.189 L2123.67 176.189 Q2125.99 166.598 2125.99 161.855 M2123.04 178.473 L2108.07 178.473 Q2105.75 187.256 2105.75 192.737 Q2105.75 197.516 2106.73 199.518 Q2107.75 201.486 2109.65 201.486 Q2111.83 201.486 2113.87 199.307 Q2115.9 197.094 2117.98 193.089 Q2120.72 187.889 2123.04 178.473 Z" fill="#000000" fill-rule="evenodd" fill-opacity="1" /><path clip-path="url(#clip480)" d="M 0 0 M2135.43 201.134 Q2134.41 199.975 2134.41 198.464 Q2134.41 196.953 2135.4 195.829 Q2136.42 194.67 2138.24 194.67 Q2140.39 194.67 2141.62 196.743 Q2142.84 198.78 2142.84 202.223 Q2142.84 205.948 2141.33 209.391 Q2139.82 212.869 2138.35 214.52 Q2136.87 216.171 2136.27 216.171 Q2135.57 216.171 2135.57 215.399 Q2135.57 215.117 2136.06 214.59 Q2141.23 209.039 2141.26 202.223 Q2141.26 201.134 2141.12 201.134 L2140.95 201.275 Q2139.72 202.294 2138.24 202.294 Q2136.45 202.294 2135.43 201.134 Z" fill="#000000" fill-rule="evenodd" fill-opacity="1" /><path clip-path="url(#clip480)" d="M 0 0 M2204.55 192 Q2204.55 192.281 2204.23 193.37 Q2203.92 194.459 2203.14 196.145 Q2202.41 197.832 2201.39 199.378 Q2200.37 200.888 2198.68 202.013 Q2197.03 203.102 2195.13 203.102 Q2192.6 203.102 2190.92 201.415 Q2189.23 199.729 2189.23 197.199 Q2189.23 195.794 2189.97 193.862 Q2194.64 181.389 2194.64 177.103 Q2194.64 172.079 2190.74 172.079 Q2188.81 172.079 2186.98 172.817 Q2185.19 173.519 2183.96 174.503 Q2182.73 175.487 2181.61 176.857 Q2180.52 178.192 2179.95 179.105 Q2179.43 179.984 2179.01 180.862 L2178.09 184.446 Q2177.88 185.43 2176.86 189.259 L2175.28 195.759 Q2174.16 200.607 2173.91 201.064 Q2173.56 202.048 2172.79 202.575 Q2172.01 203.102 2171.24 203.102 Q2170.36 203.102 2169.77 202.575 Q2169.17 202.048 2169.17 201.134 Q2169.17 200.994 2169.27 200.467 Q2169.38 199.94 2169.56 199.202 Q2169.73 198.464 2169.8 198.043 L2173.98 181.424 Q2174.75 178.403 2174.93 177.454 Q2175.14 176.47 2175.14 175.381 Q2175.14 172.079 2172.89 172.079 Q2171.07 172.079 2169.87 174.257 Q2168.68 176.435 2167.66 180.651 Q2167.34 181.811 2167.13 182.057 Q2166.96 182.303 2166.43 182.303 Q2165.55 182.268 2165.55 181.565 Q2165.55 181.389 2165.83 180.23 Q2166.11 179.07 2166.64 177.419 Q2167.2 175.733 2167.73 174.608 Q2168.18 173.765 2168.43 173.379 Q2168.71 172.957 2169.38 172.149 Q2170.08 171.306 2171 170.919 Q2171.94 170.498 2173.1 170.498 Q2175.7 170.498 2177.6 172.184 Q2179.5 173.835 2179.74 176.752 Q2184.42 170.498 2190.95 170.498 Q2194.82 170.498 2197.03 172.535 Q2199.24 174.573 2199.24 178.192 Q2199.24 179.035 2199.07 180.124 Q2198.93 181.178 2198.58 182.513 Q2198.26 183.849 2197.98 184.867 Q2197.7 185.886 2197.13 187.538 Q2196.57 189.154 2196.33 189.856 Q2196.08 190.559 2195.48 192.21 Q2194.92 193.826 2194.85 194.002 Q2193.55 197.27 2193.55 199.132 Q2193.55 200.361 2193.94 200.923 Q2194.36 201.486 2195.27 201.486 Q2197.73 201.486 2199.56 199.061 Q2201.42 196.602 2202.62 192.597 Q2202.9 191.718 2203.04 191.508 Q2203.21 191.297 2203.7 191.297 Q2204.55 191.297 2204.55 192 Z" fill="#000000" fill-rule="evenodd" fill-opacity="1" /><path clip-path="url(#clip480)" d="M 0 0 M2208.28 219.579 Q2208.28 219.228 2209.19 218.35 Q2220.79 206.545 2220.79 184.305 Q2220.79 161.995 2209.65 150.717 Q2208.28 149.418 2208.28 149.031 Q2208.28 148.328 2208.98 148.328 Q2209.48 148.328 2211.2 149.769 Q2212.95 151.209 2215.59 154.512 Q2218.26 157.814 2220.23 161.855 Q2224.97 171.657 2224.97 184.305 Q2224.97 196.462 2220.44 206.264 Q2218.51 210.374 2215.8 213.818 Q2213.09 217.261 2211.3 218.771 Q2209.51 220.282 2208.98 220.282 Q2208.28 220.282 2208.28 219.579 Z" fill="#000000" fill-rule="evenodd" fill-opacity="1" /></svg>
